G04 (created by PCBNEW (2013-07-07 BZR 4022)-stable) date 2015/10/09 5:51:01*
%MOIN*%
G04 Gerber Fmt 3.4, Leading zero omitted, Abs format*
%FSLAX34Y34*%
G01*
G70*
G90*
G04 APERTURE LIST*
%ADD10C,0.00393701*%
%ADD11R,0.086648X0.122048*%
%ADD12R,0.075748X0.075748*%
%ADD13C,0.075748*%
%ADD14C,0.192913*%
%ADD15R,0.0551181X0.060748*%
%ADD16R,0.060748X0.0551181*%
%ADD17R,0.025748X0.055748*%
%ADD18R,0.055748X0.025748*%
%ADD19R,0.040748X0.060748*%
%ADD20R,0.106348X0.035448*%
%ADD21R,0.114148X0.094448*%
%ADD22C,0.051148*%
%ADD23C,0.050748*%
G04 APERTURE END LIST*
G54D10*
G54D11*
X43149Y-36181D03*
X41259Y-36181D03*
G54D12*
X29500Y-36000D03*
G54D13*
X29500Y-35000D03*
X30500Y-36000D03*
X30500Y-35000D03*
X31500Y-36000D03*
X31500Y-35000D03*
X32500Y-36000D03*
X32500Y-35000D03*
X33500Y-36000D03*
X33500Y-35000D03*
G54D12*
X33500Y-33500D03*
G54D13*
X32500Y-33500D03*
X31500Y-33500D03*
X30500Y-33500D03*
X29500Y-33500D03*
G54D12*
X34500Y-20500D03*
G54D13*
X33500Y-20500D03*
X32500Y-20500D03*
X31500Y-20500D03*
G54D12*
X31500Y-21500D03*
G54D13*
X32500Y-21500D03*
X33500Y-21500D03*
X34500Y-21500D03*
G54D12*
X33767Y-29370D03*
G54D13*
X32767Y-29370D03*
G54D12*
X36000Y-21500D03*
G54D13*
X36000Y-20500D03*
X37000Y-21500D03*
X37000Y-20500D03*
X38000Y-21500D03*
X38000Y-20500D03*
X39000Y-21500D03*
X39000Y-20500D03*
X40000Y-21500D03*
X40000Y-20500D03*
X41000Y-21500D03*
X41000Y-20500D03*
X42000Y-21500D03*
X42000Y-20500D03*
X43000Y-21500D03*
X43000Y-20500D03*
X44000Y-21500D03*
X44000Y-20500D03*
X45000Y-21500D03*
X45000Y-20500D03*
G54D12*
X30500Y-32000D03*
G54D13*
X29500Y-32000D03*
X30500Y-31000D03*
X29500Y-31000D03*
X30500Y-30000D03*
X29500Y-30000D03*
X30500Y-29000D03*
X29500Y-29000D03*
X30500Y-28000D03*
X29500Y-28000D03*
X30500Y-27000D03*
X29500Y-27000D03*
X30500Y-26000D03*
X29500Y-26000D03*
X30500Y-25000D03*
X29500Y-25000D03*
X30500Y-24000D03*
X29500Y-24000D03*
X30500Y-23000D03*
X29500Y-23000D03*
G54D12*
X46500Y-23000D03*
G54D13*
X47500Y-23000D03*
X46500Y-24000D03*
X47500Y-24000D03*
X46500Y-25000D03*
X47500Y-25000D03*
X46500Y-26000D03*
X47500Y-26000D03*
X46500Y-27000D03*
X47500Y-27000D03*
X46500Y-28000D03*
X47500Y-28000D03*
X46500Y-29000D03*
X47500Y-29000D03*
X46500Y-30000D03*
X47500Y-30000D03*
X46500Y-31000D03*
X47500Y-31000D03*
X46500Y-32000D03*
X47500Y-32000D03*
G54D12*
X40500Y-37500D03*
G54D13*
X40500Y-38500D03*
X39500Y-37500D03*
X39500Y-38500D03*
X38500Y-37500D03*
X38500Y-38500D03*
X37500Y-37500D03*
X37500Y-38500D03*
X36500Y-37500D03*
X36500Y-38500D03*
X35500Y-37500D03*
X35500Y-38500D03*
X34500Y-37500D03*
X34500Y-38500D03*
X33500Y-37500D03*
X33500Y-38500D03*
X32500Y-37500D03*
X32500Y-38500D03*
X31500Y-37500D03*
X31500Y-38500D03*
G54D14*
X46456Y-37795D03*
X29921Y-21259D03*
X46456Y-21259D03*
X29921Y-37795D03*
G54D15*
X39527Y-36417D03*
X40354Y-36417D03*
G54D16*
X33464Y-23543D03*
X33464Y-22716D03*
X34212Y-23543D03*
X34212Y-22716D03*
X37007Y-22716D03*
X37007Y-23543D03*
X32716Y-23543D03*
X32716Y-22716D03*
X31968Y-23543D03*
X31968Y-22716D03*
G54D17*
X35828Y-26477D03*
X40548Y-26477D03*
X40348Y-26477D03*
X40158Y-26477D03*
X39958Y-26477D03*
X39758Y-26477D03*
X39568Y-26477D03*
X39368Y-26477D03*
X39168Y-26477D03*
X38978Y-26477D03*
X38778Y-26477D03*
X38578Y-26477D03*
X38378Y-26477D03*
X38188Y-26477D03*
X37988Y-26477D03*
X37788Y-26477D03*
X37598Y-26477D03*
X37398Y-26477D03*
X37198Y-26477D03*
X37008Y-26477D03*
X36808Y-26477D03*
X36608Y-26477D03*
X36418Y-26477D03*
X36218Y-26477D03*
X36018Y-26477D03*
G54D18*
X41238Y-27167D03*
X41238Y-31887D03*
X41238Y-31687D03*
X41238Y-31497D03*
X41238Y-31297D03*
X41238Y-31097D03*
X41238Y-30907D03*
X41238Y-30707D03*
X41238Y-30507D03*
X41238Y-30317D03*
X41238Y-30117D03*
X41238Y-29917D03*
X41238Y-29717D03*
X41238Y-29527D03*
X41238Y-29327D03*
X41238Y-29127D03*
X41238Y-28937D03*
X41238Y-28737D03*
X41238Y-28537D03*
X41238Y-28347D03*
X41238Y-28147D03*
X41238Y-27947D03*
X41238Y-27757D03*
X41238Y-27557D03*
X41238Y-27357D03*
X35138Y-27167D03*
X35138Y-27367D03*
X35138Y-27557D03*
X35138Y-27757D03*
X35138Y-27957D03*
X35138Y-28147D03*
X35138Y-28347D03*
X35138Y-28547D03*
X35138Y-28737D03*
X35138Y-28937D03*
X35138Y-29137D03*
X35138Y-29337D03*
X35138Y-29527D03*
X35138Y-29727D03*
X35138Y-29927D03*
X35138Y-30117D03*
X35138Y-30317D03*
X35138Y-30517D03*
X35138Y-30707D03*
X35138Y-30907D03*
X35138Y-31107D03*
X35138Y-31297D03*
X35138Y-31497D03*
X35138Y-31697D03*
X35138Y-31887D03*
G54D17*
X35828Y-32577D03*
X36028Y-32577D03*
X36218Y-32577D03*
X36418Y-32577D03*
X36618Y-32577D03*
X36808Y-32577D03*
X37008Y-32577D03*
X37208Y-32577D03*
X37398Y-32577D03*
X37598Y-32577D03*
X37798Y-32577D03*
X37998Y-32577D03*
X38188Y-32577D03*
X38388Y-32577D03*
X38588Y-32577D03*
X38778Y-32577D03*
X38978Y-32577D03*
X39178Y-32577D03*
X39368Y-32577D03*
X39568Y-32577D03*
X39768Y-32577D03*
X39958Y-32577D03*
X40158Y-32577D03*
X40358Y-32577D03*
X40548Y-32577D03*
G54D15*
X44921Y-30708D03*
X45748Y-30708D03*
X44921Y-30039D03*
X45748Y-30039D03*
X44566Y-24370D03*
X45393Y-24370D03*
X44566Y-23661D03*
X45393Y-23661D03*
G54D16*
X41496Y-23425D03*
X41496Y-22598D03*
X40748Y-23425D03*
X40748Y-22598D03*
X42244Y-23425D03*
X42244Y-22598D03*
G54D12*
X44000Y-37500D03*
G54D13*
X44000Y-38500D03*
X43000Y-37500D03*
X43000Y-38500D03*
X42000Y-37500D03*
X42000Y-38500D03*
G54D19*
X40172Y-29527D03*
X40772Y-29527D03*
X39503Y-28937D03*
X40103Y-28937D03*
G54D20*
X45019Y-35354D03*
X45019Y-35039D03*
X45019Y-34724D03*
X45019Y-34409D03*
X45019Y-34094D03*
G54D21*
X45058Y-36476D03*
X47223Y-36476D03*
X45058Y-32972D03*
X47223Y-32972D03*
G54D22*
X46042Y-35590D03*
X46042Y-33858D03*
G54D23*
X31614Y-34330D03*
X32480Y-31692D03*
X42283Y-27322D03*
X41811Y-27244D03*
X39960Y-27952D03*
X35472Y-36811D03*
X41850Y-35236D03*
X38858Y-34881D03*
X35748Y-34251D03*
X35708Y-35551D03*
X39527Y-35629D03*
X40629Y-31338D03*
X40629Y-30629D03*
X32283Y-24645D03*
X32795Y-25039D03*
X37283Y-31968D03*
X37677Y-31732D03*
X44724Y-31968D03*
X42322Y-32440D03*
X45354Y-31220D03*
X39055Y-32086D03*
X37834Y-22598D03*
X33976Y-30314D03*
X35629Y-22283D03*
X33543Y-30511D03*
X33188Y-30826D03*
X32716Y-30826D03*
X35944Y-28937D03*
X44291Y-34606D03*
X44291Y-35078D03*
X32007Y-30511D03*
X36889Y-28228D03*
X40551Y-28267D03*
X35826Y-31889D03*
X36299Y-27244D03*
X40866Y-32874D03*
X32007Y-29960D03*
X31811Y-23622D03*
X32716Y-23543D03*
X37007Y-22519D03*
X41929Y-35787D03*
X43307Y-36259D03*
X45000Y-35590D03*
X33464Y-23385D03*
X34251Y-23385D03*
X31456Y-25118D03*
X31338Y-24488D03*
X34330Y-36417D03*
X34133Y-33307D03*
X37755Y-34370D03*
X41889Y-30118D03*
X38503Y-27480D03*
X40039Y-28779D03*
X42519Y-35314D03*
X43503Y-34015D03*
X36181Y-22834D03*
X36574Y-22322D03*
X34960Y-23070D03*
X39566Y-27007D03*
X38897Y-27007D03*
X44803Y-22322D03*
X37913Y-23110D03*
X35866Y-29685D03*
X38188Y-25078D03*
X38740Y-28897D03*
X38385Y-24094D03*
X32519Y-26574D03*
X28897Y-36889D03*
X37519Y-29960D03*
X35118Y-25787D03*
X39448Y-31653D03*
X39842Y-30039D03*
X43779Y-25472D03*
X41889Y-29330D03*
X40669Y-30039D03*
X39763Y-34409D03*
X40944Y-34409D03*
X41614Y-34409D03*
X40236Y-34370D03*
X37952Y-35354D03*
X40669Y-36889D03*
X36181Y-23464D03*
X33897Y-26850D03*
X35669Y-28503D03*
X36417Y-28464D03*
X37125Y-30866D03*
X36496Y-31771D03*
X38897Y-29527D03*
X36417Y-29645D03*
X36968Y-27440D03*
X31653Y-32204D03*
X45039Y-25354D03*
X44094Y-24212D03*
X47952Y-27519D03*
X47874Y-23503D03*
X41377Y-24803D03*
X28700Y-37401D03*
X28740Y-33858D03*
X28740Y-32677D03*
X28740Y-31496D03*
X28740Y-30314D03*
X28740Y-29133D03*
X28740Y-27952D03*
X28740Y-26771D03*
X28740Y-25590D03*
X28740Y-24409D03*
X28740Y-23228D03*
X28740Y-22047D03*
X28661Y-35118D03*
X40157Y-27440D03*
X34448Y-34881D03*
X30866Y-20078D03*
X43503Y-19921D03*
X41496Y-19921D03*
X39527Y-19921D03*
X37519Y-19921D03*
X35472Y-19921D03*
X47952Y-24527D03*
X47952Y-25551D03*
X47952Y-26535D03*
X47952Y-28503D03*
X47913Y-29488D03*
X47834Y-30590D03*
X47834Y-32244D03*
X47834Y-33425D03*
X47834Y-34370D03*
X47834Y-35314D03*
X45669Y-38976D03*
X44488Y-38976D03*
X42519Y-38976D03*
X41141Y-38976D03*
X38976Y-38976D03*
X37007Y-38976D03*
X35039Y-38976D03*
X33070Y-38976D03*
X31889Y-38976D03*
X31102Y-38976D03*
X45039Y-33937D03*
X37598Y-23937D03*
X37165Y-24370D03*
X34842Y-23543D03*
X34724Y-33740D03*
X34527Y-32677D03*
X39960Y-31771D03*
X38661Y-34015D03*
X35669Y-31023D03*
X40118Y-30984D03*
X38385Y-24606D03*
M02*
