G04 (created by PCBNEW (2013-07-07 BZR 4022)-stable) date 2015/08/01 18:05:42*
%MOIN*%
G04 Gerber Fmt 3.4, Leading zero omitted, Abs format*
%FSLAX34Y34*%
G01*
G70*
G90*
G04 APERTURE LIST*
%ADD10C,0.00590551*%
%ADD11R,0.045X0.025*%
%ADD12R,0.025X0.045*%
%ADD13C,0.0354*%
%ADD14R,0.06X0.06*%
%ADD15C,0.06*%
%ADD16C,0.177165*%
%ADD17C,0.0393701*%
%ADD18C,0.035*%
G04 APERTURE END LIST*
G54D10*
G54D11*
X29921Y-30122D03*
X29921Y-29522D03*
G54D12*
X35044Y-29232D03*
X34444Y-29232D03*
X32672Y-25787D03*
X33272Y-25787D03*
X27062Y-31299D03*
X27662Y-31299D03*
G54D11*
X30118Y-25192D03*
X30118Y-25792D03*
G54D12*
X32770Y-29232D03*
X33370Y-29232D03*
X33164Y-27362D03*
X33764Y-27362D03*
X38292Y-28051D03*
X37692Y-28051D03*
X37692Y-27263D03*
X38292Y-27263D03*
X37888Y-26574D03*
X38488Y-26574D03*
X35142Y-25787D03*
X34542Y-25787D03*
G54D13*
X32637Y-44960D03*
X34369Y-44960D03*
G54D12*
X37987Y-25393D03*
X38587Y-25393D03*
X37987Y-24606D03*
X38587Y-24606D03*
G54D11*
X32283Y-21264D03*
X32283Y-20664D03*
X33070Y-21559D03*
X33070Y-20959D03*
X36023Y-31599D03*
X36023Y-30999D03*
X36023Y-23429D03*
X36023Y-22829D03*
G54D14*
X26803Y-13673D03*
G54D15*
X26803Y-14673D03*
X25803Y-13673D03*
X25803Y-14673D03*
X24803Y-13673D03*
X24803Y-14673D03*
X23803Y-13673D03*
X23803Y-14673D03*
X22803Y-13673D03*
X22803Y-14673D03*
G54D14*
X29791Y-13681D03*
G54D15*
X30791Y-13681D03*
X31791Y-13681D03*
X32791Y-13681D03*
X33791Y-13681D03*
G54D14*
X26944Y-39082D03*
G54D15*
X26944Y-38082D03*
X27944Y-39082D03*
X27944Y-38082D03*
X28944Y-39082D03*
X28944Y-38082D03*
X29944Y-39082D03*
X29944Y-38082D03*
G54D14*
X40600Y-25100D03*
G54D15*
X41600Y-25100D03*
X42600Y-25100D03*
X43600Y-25100D03*
G54D14*
X43602Y-19511D03*
G54D15*
X43602Y-18511D03*
X43602Y-17511D03*
X43602Y-16511D03*
X19881Y-13665D03*
X19881Y-14665D03*
X19881Y-23665D03*
X19881Y-16665D03*
X19881Y-25665D03*
X19881Y-18665D03*
X19881Y-27665D03*
X19881Y-20665D03*
X19881Y-29665D03*
X19881Y-22665D03*
X19881Y-31665D03*
X19881Y-24665D03*
X19881Y-33665D03*
X19881Y-26665D03*
X19881Y-35665D03*
X19881Y-28665D03*
X19881Y-37665D03*
X19881Y-30665D03*
X19881Y-39665D03*
X19881Y-32665D03*
X19881Y-34665D03*
X19881Y-36665D03*
X19881Y-38665D03*
X19881Y-40665D03*
X19881Y-15665D03*
X19881Y-17665D03*
X19881Y-19665D03*
X19881Y-21665D03*
X19881Y-41665D03*
X19881Y-42665D03*
X47834Y-42633D03*
X47834Y-41633D03*
X47834Y-32633D03*
X47834Y-39633D03*
X47834Y-30633D03*
X47834Y-37633D03*
X47834Y-28633D03*
X47834Y-35633D03*
X47834Y-26633D03*
X47834Y-33633D03*
X47834Y-24633D03*
X47834Y-31633D03*
X47834Y-22633D03*
X47834Y-29633D03*
X47834Y-20633D03*
X47834Y-27633D03*
X47834Y-18633D03*
X47834Y-25633D03*
X47834Y-16633D03*
X47834Y-23633D03*
X47834Y-21633D03*
X47834Y-19633D03*
X47834Y-17633D03*
X47834Y-15633D03*
X47834Y-40633D03*
X47834Y-38633D03*
X47834Y-36633D03*
X47834Y-34633D03*
X47834Y-14633D03*
X47834Y-13633D03*
G54D14*
X24600Y-39040D03*
G54D15*
X23600Y-39040D03*
G54D14*
X23600Y-40540D03*
G54D15*
X24600Y-40540D03*
G54D16*
X19881Y-9448D03*
X19881Y-45669D03*
X48228Y-9448D03*
X48228Y-45669D03*
G54D12*
X31796Y-22145D03*
X31196Y-22145D03*
G54D11*
X31594Y-20870D03*
X31594Y-20270D03*
G54D12*
X38479Y-19586D03*
X39079Y-19586D03*
X38479Y-18503D03*
X39079Y-18503D03*
X38479Y-17519D03*
X39079Y-17519D03*
X38479Y-16535D03*
X39079Y-16535D03*
G54D14*
X31594Y-18496D03*
G54D15*
X31594Y-19496D03*
G54D12*
X33900Y-34500D03*
X34500Y-34500D03*
X33900Y-35300D03*
X34500Y-35300D03*
G54D17*
X43000Y-33000D03*
X43000Y-35000D03*
X43000Y-34000D03*
X42000Y-33000D03*
X42000Y-34000D03*
X42000Y-35000D03*
X42000Y-36000D03*
X42000Y-37000D03*
G54D18*
X42000Y-38000D03*
G54D17*
X42000Y-39000D03*
X42000Y-40000D03*
X42000Y-41000D03*
X42000Y-42000D03*
X42000Y-43000D03*
X42000Y-44000D03*
X43000Y-44000D03*
X44000Y-44000D03*
X44000Y-43000D03*
X44000Y-42000D03*
X44000Y-41000D03*
X44000Y-40000D03*
X44000Y-39000D03*
X44000Y-38000D03*
X44000Y-37000D03*
X44000Y-36000D03*
X44000Y-35000D03*
X44000Y-34000D03*
X44000Y-33000D03*
X43000Y-42000D03*
X43000Y-43000D03*
X43000Y-41000D03*
X43000Y-40000D03*
X43000Y-39000D03*
X43000Y-38000D03*
X43000Y-37000D03*
X43000Y-36000D03*
X41000Y-36000D03*
X40000Y-36000D03*
X38000Y-37000D03*
X39000Y-37000D03*
X40000Y-37000D03*
X41000Y-37000D03*
X41000Y-38000D03*
X40000Y-38000D03*
X39000Y-38000D03*
X38000Y-38000D03*
X38000Y-39000D03*
X39000Y-39000D03*
X40000Y-39000D03*
X41000Y-39000D03*
X41000Y-40000D03*
X40000Y-40000D03*
X39000Y-40000D03*
X38000Y-40000D03*
X38000Y-41000D03*
X39000Y-41000D03*
X40000Y-41000D03*
X41000Y-41000D03*
X41000Y-42000D03*
X40000Y-42000D03*
X39000Y-42000D03*
X38000Y-42000D03*
X39000Y-43000D03*
X40000Y-43000D03*
X41000Y-43000D03*
X41000Y-44000D03*
X40000Y-44000D03*
X39000Y-44000D03*
X38000Y-43000D03*
X38000Y-44000D03*
X37000Y-44000D03*
X37000Y-43000D03*
X37000Y-42000D03*
X37000Y-41000D03*
X37000Y-40000D03*
X37000Y-39000D03*
X37000Y-38000D03*
X37000Y-37000D03*
X37000Y-36000D03*
X38000Y-36000D03*
X39000Y-36000D03*
X39000Y-35000D03*
X40000Y-35000D03*
X40000Y-34000D03*
X41000Y-35000D03*
X41000Y-34000D03*
X45000Y-42000D03*
X45000Y-43000D03*
X45000Y-44000D03*
G54D18*
X31299Y-17224D03*
X37401Y-25492D03*
X37500Y-24606D03*
X36023Y-24311D03*
X33562Y-14763D03*
X26377Y-18996D03*
X32578Y-15846D03*
X25688Y-21062D03*
X25098Y-22736D03*
X24606Y-23917D03*
X34055Y-32775D03*
X31791Y-32972D03*
X31496Y-33366D03*
X34055Y-33366D03*
X32677Y-22145D03*
X32381Y-21751D03*
X35728Y-20570D03*
X33858Y-20275D03*
X35866Y-16663D03*
G54D17*
X36023Y-18110D03*
G54D18*
X37755Y-18070D03*
X36909Y-17322D03*
X33858Y-33858D03*
X31889Y-33858D03*
X35039Y-31889D03*
X33228Y-38700D03*
X33228Y-40039D03*
X32519Y-40039D03*
X32519Y-38740D03*
X40649Y-32381D03*
X25098Y-42421D03*
X26968Y-42421D03*
X37007Y-28051D03*
X34448Y-27854D03*
X33759Y-26968D03*
X35400Y-35300D03*
X35700Y-34000D03*
X36200Y-33200D03*
X37400Y-32700D03*
X37303Y-27263D03*
G54D17*
X35000Y-37992D03*
X36000Y-38000D03*
X36000Y-39000D03*
X36000Y-40000D03*
X36000Y-41000D03*
X35000Y-41000D03*
X35000Y-40000D03*
X35000Y-39000D03*
G54D18*
X30314Y-24114D03*
X31594Y-35925D03*
X31594Y-38090D03*
X27263Y-30610D03*
X28937Y-30610D03*
X31102Y-28740D03*
X26870Y-36220D03*
X25787Y-33956D03*
X25787Y-35433D03*
X25787Y-36909D03*
X35039Y-26476D03*
X34350Y-26476D03*
X33267Y-26476D03*
X32283Y-26476D03*
X31299Y-26476D03*
X28937Y-27559D03*
X27854Y-27559D03*
X33858Y-28444D03*
X32086Y-28740D03*
X35629Y-25590D03*
X32775Y-25295D03*
X35531Y-29724D03*
X32775Y-29625D03*
X30511Y-30511D03*
X23523Y-36909D03*
X23523Y-35334D03*
X24507Y-33956D03*
X25688Y-27559D03*
X26673Y-27559D03*
X28346Y-23720D03*
X38287Y-27657D03*
X35629Y-36259D03*
X34291Y-36771D03*
X24291Y-15787D03*
X27007Y-17874D03*
X26023Y-18149D03*
X27559Y-16043D03*
X27657Y-14665D03*
X25275Y-15787D03*
X26023Y-16968D03*
X23346Y-15393D03*
X22834Y-30314D03*
G54D17*
X37000Y-45000D03*
X38000Y-45000D03*
X39000Y-45000D03*
X40000Y-45000D03*
X41000Y-45000D03*
X42000Y-45000D03*
X43000Y-45000D03*
X44000Y-45000D03*
G54D18*
X32185Y-27559D03*
X39173Y-20570D03*
X40846Y-18110D03*
X37795Y-15748D03*
X34842Y-15846D03*
X30019Y-18602D03*
X28941Y-18602D03*
X24507Y-30610D03*
X26181Y-24901D03*
X25885Y-30610D03*
X29724Y-30708D03*
X30019Y-34055D03*
X33562Y-31988D03*
X38779Y-29921D03*
X46062Y-24803D03*
X39665Y-25098D03*
X39960Y-27362D03*
X41633Y-27362D03*
X44783Y-26082D03*
X18897Y-43700D03*
X18897Y-41732D03*
X18897Y-39370D03*
X18897Y-37401D03*
X18897Y-35433D03*
X18897Y-33464D03*
X18897Y-31496D03*
X18897Y-29133D03*
X18897Y-27165D03*
X18897Y-25196D03*
X18897Y-23228D03*
X18897Y-21259D03*
X18897Y-19291D03*
X18897Y-17322D03*
X18897Y-15354D03*
X18897Y-13385D03*
X18897Y-11417D03*
X21653Y-8661D03*
X23622Y-8661D03*
X25590Y-8661D03*
X27559Y-8661D03*
X29527Y-8661D03*
X31496Y-8661D03*
X33464Y-8661D03*
X37401Y-8661D03*
X39370Y-8661D03*
X41338Y-8661D03*
X43307Y-8661D03*
X44881Y-8661D03*
X46850Y-8661D03*
X48818Y-10236D03*
X48818Y-12204D03*
X48818Y-14173D03*
X48818Y-16141D03*
X48818Y-18110D03*
X48818Y-20078D03*
X48818Y-22047D03*
X48818Y-24015D03*
X48818Y-25984D03*
X48818Y-27952D03*
X48818Y-29921D03*
X48818Y-31889D03*
X48818Y-33858D03*
X48818Y-35826D03*
X48818Y-37795D03*
X48818Y-39763D03*
X48818Y-41732D03*
X48818Y-43700D03*
X37401Y-45669D03*
X39370Y-45669D03*
X41338Y-45669D03*
X43307Y-45669D03*
X45275Y-45669D03*
X29921Y-45669D03*
X27952Y-45669D03*
X25984Y-45669D03*
X24015Y-45669D03*
X22047Y-45669D03*
X33272Y-25787D03*
X34542Y-25787D03*
X41417Y-29173D03*
X29625Y-27657D03*
X33366Y-29625D03*
M02*
