G04 (created by PCBNEW (2013-07-07 BZR 4022)-stable) date 2015/10/09 5:51:01*
%MOIN*%
G04 Gerber Fmt 3.4, Leading zero omitted, Abs format*
%FSLAX34Y34*%
G01*
G70*
G90*
G04 APERTURE LIST*
%ADD10C,0.00393701*%
%ADD11C,0.019685*%
%ADD12R,0.0709X0.1063*%
%ADD13R,0.06X0.06*%
%ADD14C,0.06*%
%ADD15C,0.177165*%
%ADD16R,0.0393701X0.045*%
%ADD17R,0.045X0.0393701*%
%ADD18R,0.01X0.04*%
%ADD19R,0.04X0.01*%
%ADD20R,0.025X0.045*%
%ADD21R,0.0906X0.0197*%
%ADD22R,0.0984X0.0787*%
%ADD23C,0.0354*%
%ADD24C,0.035*%
%ADD25C,0.005*%
%ADD26C,0.01*%
%ADD27C,0.02*%
G04 APERTURE END LIST*
G54D10*
G54D11*
X40157Y-29527D02*
X40787Y-29527D01*
X39488Y-28937D02*
X40118Y-28937D01*
G54D12*
X43149Y-36181D03*
X41259Y-36181D03*
G54D13*
X29500Y-36000D03*
G54D14*
X29500Y-35000D03*
X30500Y-36000D03*
X30500Y-35000D03*
X31500Y-36000D03*
X31500Y-35000D03*
X32500Y-36000D03*
X32500Y-35000D03*
X33500Y-36000D03*
X33500Y-35000D03*
G54D13*
X33500Y-33500D03*
G54D14*
X32500Y-33500D03*
X31500Y-33500D03*
X30500Y-33500D03*
X29500Y-33500D03*
G54D13*
X34500Y-20500D03*
G54D14*
X33500Y-20500D03*
X32500Y-20500D03*
X31500Y-20500D03*
G54D13*
X31500Y-21500D03*
G54D14*
X32500Y-21500D03*
X33500Y-21500D03*
X34500Y-21500D03*
G54D13*
X33767Y-29370D03*
G54D14*
X32767Y-29370D03*
G54D13*
X36000Y-21500D03*
G54D14*
X36000Y-20500D03*
X37000Y-21500D03*
X37000Y-20500D03*
X38000Y-21500D03*
X38000Y-20500D03*
X39000Y-21500D03*
X39000Y-20500D03*
X40000Y-21500D03*
X40000Y-20500D03*
X41000Y-21500D03*
X41000Y-20500D03*
X42000Y-21500D03*
X42000Y-20500D03*
X43000Y-21500D03*
X43000Y-20500D03*
X44000Y-21500D03*
X44000Y-20500D03*
X45000Y-21500D03*
X45000Y-20500D03*
G54D13*
X30500Y-32000D03*
G54D14*
X29500Y-32000D03*
X30500Y-31000D03*
X29500Y-31000D03*
X30500Y-30000D03*
X29500Y-30000D03*
X30500Y-29000D03*
X29500Y-29000D03*
X30500Y-28000D03*
X29500Y-28000D03*
X30500Y-27000D03*
X29500Y-27000D03*
X30500Y-26000D03*
X29500Y-26000D03*
X30500Y-25000D03*
X29500Y-25000D03*
X30500Y-24000D03*
X29500Y-24000D03*
X30500Y-23000D03*
X29500Y-23000D03*
G54D13*
X46500Y-23000D03*
G54D14*
X47500Y-23000D03*
X46500Y-24000D03*
X47500Y-24000D03*
X46500Y-25000D03*
X47500Y-25000D03*
X46500Y-26000D03*
X47500Y-26000D03*
X46500Y-27000D03*
X47500Y-27000D03*
X46500Y-28000D03*
X47500Y-28000D03*
X46500Y-29000D03*
X47500Y-29000D03*
X46500Y-30000D03*
X47500Y-30000D03*
X46500Y-31000D03*
X47500Y-31000D03*
X46500Y-32000D03*
X47500Y-32000D03*
G54D13*
X40500Y-37500D03*
G54D14*
X40500Y-38500D03*
X39500Y-37500D03*
X39500Y-38500D03*
X38500Y-37500D03*
X38500Y-38500D03*
X37500Y-37500D03*
X37500Y-38500D03*
X36500Y-37500D03*
X36500Y-38500D03*
X35500Y-37500D03*
X35500Y-38500D03*
X34500Y-37500D03*
X34500Y-38500D03*
X33500Y-37500D03*
X33500Y-38500D03*
X32500Y-37500D03*
X32500Y-38500D03*
X31500Y-37500D03*
X31500Y-38500D03*
G54D15*
X46456Y-37795D03*
X29921Y-21259D03*
X46456Y-21259D03*
X29921Y-37795D03*
G54D16*
X39527Y-36417D03*
X40354Y-36417D03*
G54D17*
X33464Y-23543D03*
X33464Y-22716D03*
X34212Y-23543D03*
X34212Y-22716D03*
X37007Y-22716D03*
X37007Y-23543D03*
X32716Y-23543D03*
X32716Y-22716D03*
X31968Y-23543D03*
X31968Y-22716D03*
G54D18*
X35828Y-26477D03*
X40548Y-26477D03*
X40348Y-26477D03*
X40158Y-26477D03*
X39958Y-26477D03*
X39758Y-26477D03*
X39568Y-26477D03*
X39368Y-26477D03*
X39168Y-26477D03*
X38978Y-26477D03*
X38778Y-26477D03*
X38578Y-26477D03*
X38378Y-26477D03*
X38188Y-26477D03*
X37988Y-26477D03*
X37788Y-26477D03*
X37598Y-26477D03*
X37398Y-26477D03*
X37198Y-26477D03*
X37008Y-26477D03*
X36808Y-26477D03*
X36608Y-26477D03*
X36418Y-26477D03*
X36218Y-26477D03*
X36018Y-26477D03*
G54D19*
X41238Y-27167D03*
X41238Y-31887D03*
X41238Y-31687D03*
X41238Y-31497D03*
X41238Y-31297D03*
X41238Y-31097D03*
X41238Y-30907D03*
X41238Y-30707D03*
X41238Y-30507D03*
X41238Y-30317D03*
X41238Y-30117D03*
X41238Y-29917D03*
X41238Y-29717D03*
X41238Y-29527D03*
X41238Y-29327D03*
X41238Y-29127D03*
X41238Y-28937D03*
X41238Y-28737D03*
X41238Y-28537D03*
X41238Y-28347D03*
X41238Y-28147D03*
X41238Y-27947D03*
X41238Y-27757D03*
X41238Y-27557D03*
X41238Y-27357D03*
X35138Y-27167D03*
X35138Y-27367D03*
X35138Y-27557D03*
X35138Y-27757D03*
X35138Y-27957D03*
X35138Y-28147D03*
X35138Y-28347D03*
X35138Y-28547D03*
X35138Y-28737D03*
X35138Y-28937D03*
X35138Y-29137D03*
X35138Y-29337D03*
X35138Y-29527D03*
X35138Y-29727D03*
X35138Y-29927D03*
X35138Y-30117D03*
X35138Y-30317D03*
X35138Y-30517D03*
X35138Y-30707D03*
X35138Y-30907D03*
X35138Y-31107D03*
X35138Y-31297D03*
X35138Y-31497D03*
X35138Y-31697D03*
X35138Y-31887D03*
G54D18*
X35828Y-32577D03*
X36028Y-32577D03*
X36218Y-32577D03*
X36418Y-32577D03*
X36618Y-32577D03*
X36808Y-32577D03*
X37008Y-32577D03*
X37208Y-32577D03*
X37398Y-32577D03*
X37598Y-32577D03*
X37798Y-32577D03*
X37998Y-32577D03*
X38188Y-32577D03*
X38388Y-32577D03*
X38588Y-32577D03*
X38778Y-32577D03*
X38978Y-32577D03*
X39178Y-32577D03*
X39368Y-32577D03*
X39568Y-32577D03*
X39768Y-32577D03*
X39958Y-32577D03*
X40158Y-32577D03*
X40358Y-32577D03*
X40548Y-32577D03*
G54D16*
X44921Y-30708D03*
X45748Y-30708D03*
X44921Y-30039D03*
X45748Y-30039D03*
X44566Y-24370D03*
X45393Y-24370D03*
X44566Y-23661D03*
X45393Y-23661D03*
G54D17*
X41496Y-23425D03*
X41496Y-22598D03*
X40748Y-23425D03*
X40748Y-22598D03*
X42244Y-23425D03*
X42244Y-22598D03*
G54D13*
X44000Y-37500D03*
G54D14*
X44000Y-38500D03*
X43000Y-37500D03*
X43000Y-38500D03*
X42000Y-37500D03*
X42000Y-38500D03*
G54D20*
X40172Y-29527D03*
X40772Y-29527D03*
X39503Y-28937D03*
X40103Y-28937D03*
G54D21*
X45019Y-35354D03*
X45019Y-35039D03*
X45019Y-34724D03*
X45019Y-34409D03*
X45019Y-34094D03*
G54D22*
X45058Y-36476D03*
X47223Y-36476D03*
X45058Y-32972D03*
X47223Y-32972D03*
G54D23*
X46042Y-35590D03*
X46042Y-33858D03*
G54D24*
X31614Y-34330D03*
X32480Y-31692D03*
X42283Y-27322D03*
X41811Y-27244D03*
X39960Y-27952D03*
X35472Y-36811D03*
X41850Y-35236D03*
X38858Y-34881D03*
X35748Y-34251D03*
X35708Y-35551D03*
X39527Y-35629D03*
X40629Y-31338D03*
X40629Y-30629D03*
X32283Y-24645D03*
X32795Y-25039D03*
X37283Y-31968D03*
X37677Y-31732D03*
X44724Y-31968D03*
X42322Y-32440D03*
X45354Y-31220D03*
X39055Y-32086D03*
X37834Y-22598D03*
X33976Y-30314D03*
X35629Y-22283D03*
X33543Y-30511D03*
X33188Y-30826D03*
X32716Y-30826D03*
X35944Y-28937D03*
X44291Y-34606D03*
X44291Y-35078D03*
X32007Y-30511D03*
X36889Y-28228D03*
X40551Y-28267D03*
X35826Y-31889D03*
X36299Y-27244D03*
X40866Y-32874D03*
X32007Y-29960D03*
X31811Y-23622D03*
X32716Y-23543D03*
X37007Y-22519D03*
X41929Y-35787D03*
X43307Y-36259D03*
X45000Y-35590D03*
X33464Y-23385D03*
X34251Y-23385D03*
X31456Y-25118D03*
X31338Y-24488D03*
X34330Y-36417D03*
X34133Y-33307D03*
X37755Y-34370D03*
X41889Y-30118D03*
X38503Y-27480D03*
X40039Y-28779D03*
X42519Y-35314D03*
X43503Y-34015D03*
X36181Y-22834D03*
X36574Y-22322D03*
X34960Y-23070D03*
X39566Y-27007D03*
X38897Y-27007D03*
X44803Y-22322D03*
X37913Y-23110D03*
X35866Y-29685D03*
X38188Y-25078D03*
X38740Y-28897D03*
X38385Y-24094D03*
X32519Y-26574D03*
X28897Y-36889D03*
X37519Y-29960D03*
X35118Y-25787D03*
X39448Y-31653D03*
X39842Y-30039D03*
X43779Y-25472D03*
X41889Y-29330D03*
X40669Y-30039D03*
X39763Y-34409D03*
X40944Y-34409D03*
X41614Y-34409D03*
X40236Y-34370D03*
X37952Y-35354D03*
X40669Y-36889D03*
X36181Y-23464D03*
X33897Y-26850D03*
X35669Y-28503D03*
X36417Y-28464D03*
X37125Y-30866D03*
X36496Y-31771D03*
X38897Y-29527D03*
X36417Y-29645D03*
X36968Y-27440D03*
X31653Y-32204D03*
X45039Y-25354D03*
X44094Y-24212D03*
X47952Y-27519D03*
X47874Y-23503D03*
X41377Y-24803D03*
X28700Y-37401D03*
X28740Y-33858D03*
X28740Y-32677D03*
X28740Y-31496D03*
X28740Y-30314D03*
X28740Y-29133D03*
X28740Y-27952D03*
X28740Y-26771D03*
X28740Y-25590D03*
X28740Y-24409D03*
X28740Y-23228D03*
X28740Y-22047D03*
X28661Y-35118D03*
X40157Y-27440D03*
X34448Y-34881D03*
X30866Y-20078D03*
X43503Y-19921D03*
X41496Y-19921D03*
X39527Y-19921D03*
X37519Y-19921D03*
X35472Y-19921D03*
X47952Y-24527D03*
X47952Y-25551D03*
X47952Y-26535D03*
X47952Y-28503D03*
X47913Y-29488D03*
X47834Y-30590D03*
X47834Y-32244D03*
X47834Y-33425D03*
X47834Y-34370D03*
X47834Y-35314D03*
X45669Y-38976D03*
X44488Y-38976D03*
X42519Y-38976D03*
X41141Y-38976D03*
X38976Y-38976D03*
X37007Y-38976D03*
X35039Y-38976D03*
X33070Y-38976D03*
X31889Y-38976D03*
X31102Y-38976D03*
X45039Y-33937D03*
X37598Y-23937D03*
X37165Y-24370D03*
X34842Y-23543D03*
X34724Y-33740D03*
X34527Y-32677D03*
X39960Y-31771D03*
X38661Y-34015D03*
X35669Y-31023D03*
X40118Y-30984D03*
X38385Y-24606D03*
G54D25*
X31500Y-33500D02*
X31500Y-34216D01*
X31500Y-34216D02*
X31614Y-34330D01*
X33228Y-30314D02*
X33615Y-29927D01*
X32677Y-30314D02*
X33228Y-30314D01*
X32362Y-30629D02*
X32677Y-30314D01*
X32362Y-31102D02*
X32362Y-30629D01*
X32480Y-31220D02*
X32362Y-31102D01*
X33615Y-29927D02*
X35138Y-29927D01*
X32480Y-31692D02*
X32480Y-31220D01*
X42755Y-27519D02*
X42755Y-21929D01*
X42328Y-27947D02*
X42755Y-27519D01*
X41238Y-27947D02*
X42328Y-27947D01*
X42755Y-21929D02*
X42480Y-21653D01*
X42480Y-20980D02*
X42000Y-20500D01*
X42480Y-21653D02*
X42480Y-20980D01*
X41238Y-27757D02*
X42281Y-27757D01*
X42598Y-22098D02*
X42000Y-21500D01*
X42598Y-27440D02*
X42598Y-22098D01*
X42281Y-27757D02*
X42598Y-27440D01*
X42244Y-23425D02*
X42244Y-23772D01*
X42448Y-27157D02*
X42283Y-27322D01*
X42448Y-23976D02*
X42448Y-27157D01*
X42244Y-23772D02*
X42448Y-23976D01*
X42048Y-27557D02*
X42283Y-27322D01*
X41238Y-27557D02*
X42048Y-27557D01*
X41811Y-27244D02*
X42047Y-27007D01*
X42298Y-24227D02*
X41496Y-23425D01*
X42298Y-26929D02*
X42298Y-24227D01*
X42219Y-27007D02*
X42298Y-26929D01*
X42047Y-27007D02*
X42219Y-27007D01*
X41697Y-27357D02*
X41811Y-27244D01*
X41697Y-27357D02*
X41238Y-27357D01*
X39960Y-27952D02*
X39842Y-27834D01*
X40548Y-26970D02*
X40548Y-26477D01*
X40393Y-27125D02*
X40548Y-26970D01*
X39960Y-27125D02*
X40393Y-27125D01*
X39842Y-27244D02*
X39960Y-27125D01*
X39842Y-27834D02*
X39842Y-27244D01*
X40748Y-23425D02*
X40748Y-23700D01*
X40548Y-23899D02*
X40548Y-26477D01*
X40748Y-23700D02*
X40548Y-23899D01*
X40348Y-26477D02*
X40348Y-22435D01*
X40000Y-22086D02*
X40000Y-21500D01*
X40348Y-22435D02*
X40000Y-22086D01*
X40158Y-26477D02*
X40158Y-22521D01*
X39488Y-20988D02*
X39000Y-20500D01*
X39488Y-21850D02*
X39488Y-20988D01*
X40158Y-22521D02*
X39488Y-21850D01*
X39958Y-26477D02*
X39958Y-22557D01*
X39000Y-21598D02*
X39000Y-21500D01*
X39958Y-22557D02*
X39000Y-21598D01*
X30000Y-36299D02*
X30196Y-36496D01*
X30000Y-35500D02*
X30000Y-36299D01*
X29500Y-35000D02*
X30000Y-35500D01*
X30826Y-36496D02*
X31181Y-36850D01*
X30196Y-36496D02*
X30826Y-36496D01*
X35138Y-30907D02*
X34682Y-30907D01*
X34409Y-31181D02*
X33503Y-31181D01*
X34682Y-30907D02*
X34409Y-31181D01*
X32992Y-37992D02*
X33500Y-38500D01*
X31181Y-36850D02*
X32795Y-36850D01*
X32795Y-36850D02*
X32992Y-37047D01*
X32992Y-37047D02*
X32992Y-37992D01*
X29500Y-33500D02*
X29500Y-35000D01*
X29500Y-32822D02*
X29500Y-33500D01*
X29724Y-32598D02*
X29500Y-32822D01*
X32086Y-32598D02*
X29724Y-32598D01*
X33503Y-31181D02*
X32086Y-32598D01*
X30500Y-35000D02*
X30500Y-33500D01*
X33622Y-31338D02*
X34527Y-31338D01*
X33622Y-31338D02*
X32204Y-32755D01*
X32204Y-32755D02*
X30669Y-32755D01*
X30669Y-32755D02*
X30500Y-32925D01*
X30500Y-32925D02*
X30500Y-33500D01*
X34527Y-31338D02*
X34758Y-31107D01*
X34758Y-31107D02*
X35138Y-31107D01*
X33500Y-37500D02*
X33500Y-37318D01*
X30984Y-35484D02*
X30500Y-35000D01*
X30984Y-36417D02*
X30984Y-35484D01*
X31220Y-36653D02*
X30984Y-36417D01*
X32834Y-36653D02*
X31220Y-36653D01*
X33500Y-37318D02*
X32834Y-36653D01*
X35392Y-31297D02*
X35472Y-31377D01*
X35472Y-31377D02*
X35472Y-32086D01*
X35472Y-32086D02*
X35314Y-32244D01*
X35314Y-32244D02*
X35314Y-36338D01*
X35392Y-31297D02*
X35138Y-31297D01*
X35472Y-36496D02*
X35314Y-36338D01*
X35472Y-36811D02*
X35472Y-36496D01*
X34500Y-37500D02*
X34500Y-37059D01*
X31968Y-35468D02*
X31500Y-35000D01*
X31968Y-36220D02*
X31968Y-35468D01*
X32244Y-36496D02*
X31968Y-36220D01*
X32952Y-36496D02*
X32244Y-36496D01*
X33385Y-36929D02*
X32952Y-36496D01*
X34370Y-36929D02*
X33385Y-36929D01*
X34500Y-37059D02*
X34370Y-36929D01*
X35138Y-31497D02*
X33778Y-31497D01*
X32007Y-34492D02*
X31500Y-35000D01*
X32007Y-33031D02*
X32007Y-34492D01*
X32125Y-32913D02*
X32007Y-33031D01*
X32362Y-32913D02*
X32125Y-32913D01*
X33778Y-31497D02*
X32362Y-32913D01*
X32500Y-35000D02*
X32992Y-35492D01*
X35000Y-38000D02*
X35500Y-38500D01*
X35000Y-37007D02*
X35000Y-38000D01*
X34763Y-36771D02*
X35000Y-37007D01*
X33464Y-36771D02*
X34763Y-36771D01*
X32992Y-36299D02*
X33464Y-36771D01*
X32992Y-35492D02*
X32992Y-36299D01*
X33858Y-31697D02*
X32952Y-32603D01*
X32952Y-34547D02*
X32500Y-35000D01*
X32952Y-32603D02*
X32952Y-34547D01*
X35138Y-31697D02*
X33858Y-31697D01*
X35500Y-37500D02*
X35157Y-37157D01*
X35138Y-36595D02*
X35138Y-31887D01*
X35157Y-36614D02*
X35138Y-36595D01*
X35157Y-37157D02*
X35157Y-36614D01*
X36028Y-32577D02*
X36028Y-33026D01*
X36062Y-38062D02*
X36500Y-38500D01*
X36062Y-32992D02*
X36062Y-38062D01*
X36028Y-33026D02*
X36062Y-32992D01*
X36500Y-37500D02*
X36500Y-37090D01*
X36218Y-33032D02*
X36218Y-32577D01*
X36220Y-33031D02*
X36218Y-33032D01*
X36220Y-36811D02*
X36220Y-33031D01*
X36500Y-37090D02*
X36220Y-36811D01*
X41238Y-31497D02*
X42360Y-31497D01*
X47027Y-25472D02*
X47500Y-25000D01*
X46181Y-25472D02*
X47027Y-25472D01*
X45984Y-25669D02*
X46181Y-25472D01*
X45984Y-25748D02*
X45984Y-25669D01*
X45039Y-26692D02*
X45984Y-25748D01*
X45039Y-27992D02*
X45039Y-26692D01*
X44803Y-28228D02*
X45039Y-27992D01*
X44173Y-28228D02*
X44803Y-28228D01*
X42992Y-29409D02*
X44173Y-28228D01*
X42992Y-30866D02*
X42992Y-29409D01*
X42360Y-31497D02*
X42992Y-30866D01*
X41238Y-31297D02*
X42167Y-31297D01*
X46181Y-25000D02*
X46500Y-25000D01*
X46023Y-25157D02*
X46181Y-25000D01*
X46023Y-25275D02*
X46023Y-25157D01*
X44842Y-26456D02*
X46023Y-25275D01*
X44842Y-27874D02*
X44842Y-26456D01*
X44638Y-28078D02*
X44842Y-27874D01*
X44087Y-28078D02*
X44638Y-28078D01*
X42834Y-29330D02*
X44087Y-28078D01*
X42834Y-30629D02*
X42834Y-29330D01*
X42167Y-31297D02*
X42834Y-30629D01*
X47500Y-23000D02*
X46956Y-23543D01*
X42482Y-28737D02*
X41238Y-28737D01*
X43385Y-27834D02*
X42482Y-28737D01*
X43385Y-23346D02*
X43385Y-27834D01*
X43543Y-23188D02*
X43385Y-23346D01*
X45669Y-23188D02*
X43543Y-23188D01*
X46023Y-23543D02*
X45669Y-23188D01*
X46956Y-23543D02*
X46023Y-23543D01*
X41238Y-28537D02*
X42446Y-28537D01*
X43456Y-23000D02*
X46500Y-23000D01*
X43228Y-23228D02*
X43456Y-23000D01*
X43228Y-27755D02*
X43228Y-23228D01*
X42446Y-28537D02*
X43228Y-27755D01*
X35138Y-27757D02*
X31612Y-27757D01*
X31023Y-29133D02*
X30669Y-29488D01*
X31023Y-28818D02*
X31023Y-29133D01*
X31102Y-28740D02*
X31023Y-28818D01*
X31102Y-28543D02*
X31102Y-28740D01*
X31331Y-28314D02*
X31102Y-28543D01*
X31331Y-28038D02*
X31331Y-28314D01*
X31612Y-27757D02*
X31331Y-28038D01*
X30011Y-29488D02*
X29500Y-30000D01*
X30669Y-29488D02*
X30011Y-29488D01*
X35138Y-27957D02*
X31648Y-27957D01*
X30511Y-30000D02*
X30500Y-30000D01*
X31181Y-29330D02*
X30511Y-30000D01*
X31181Y-28929D02*
X31181Y-29330D01*
X31259Y-28850D02*
X31181Y-28929D01*
X31259Y-28622D02*
X31259Y-28850D01*
X31496Y-28385D02*
X31259Y-28622D01*
X31496Y-28110D02*
X31496Y-28385D01*
X31648Y-27957D02*
X31496Y-28110D01*
X36418Y-32577D02*
X36418Y-36458D01*
X36968Y-37968D02*
X37500Y-38500D01*
X36968Y-37007D02*
X36968Y-37968D01*
X36418Y-36458D02*
X36968Y-37007D01*
X37500Y-37500D02*
X37500Y-37106D01*
X36618Y-33026D02*
X36618Y-32577D01*
X36608Y-33037D02*
X36618Y-33026D01*
X36608Y-36214D02*
X36608Y-33037D01*
X37500Y-37106D02*
X36608Y-36214D01*
X41850Y-35236D02*
X42598Y-34488D01*
X42598Y-34488D02*
X42598Y-34370D01*
X44921Y-30708D02*
X44685Y-30708D01*
X44685Y-30708D02*
X44409Y-30984D01*
X44409Y-32559D02*
X42598Y-34370D01*
X44409Y-30984D02*
X44409Y-32559D01*
G54D26*
X38978Y-34761D02*
X38858Y-34881D01*
G54D25*
X38978Y-32577D02*
X38978Y-34761D01*
G54D26*
X35748Y-34251D02*
X35748Y-35511D01*
G54D25*
X35748Y-35511D02*
X35708Y-35551D01*
X44921Y-30039D02*
X44370Y-30039D01*
X39780Y-34047D02*
X39178Y-33446D01*
X42684Y-34047D02*
X39780Y-34047D01*
X44251Y-32480D02*
X42684Y-34047D01*
X44251Y-32480D02*
X44251Y-30157D01*
X44370Y-30039D02*
X44251Y-30157D01*
G54D26*
X39527Y-36417D02*
X39527Y-35629D01*
X39527Y-35629D02*
X39527Y-34842D01*
X39178Y-34493D02*
X39527Y-34842D01*
G54D25*
X39178Y-34493D02*
X39178Y-33446D01*
X39178Y-32577D02*
X39178Y-33446D01*
X44488Y-25708D02*
X44488Y-24448D01*
X41894Y-31097D02*
X42559Y-30433D01*
X42559Y-30433D02*
X42559Y-29345D01*
X42559Y-29345D02*
X44133Y-27771D01*
X44133Y-27771D02*
X44133Y-26062D01*
X44133Y-26062D02*
X44488Y-25708D01*
X41238Y-31097D02*
X41894Y-31097D01*
X44488Y-24448D02*
X44566Y-24370D01*
X40664Y-31338D02*
X40905Y-31097D01*
X40629Y-31338D02*
X40664Y-31338D01*
X41238Y-31097D02*
X40905Y-31097D01*
X43897Y-26023D02*
X43897Y-27795D01*
X43700Y-23661D02*
X43622Y-23740D01*
X43622Y-23740D02*
X43622Y-24488D01*
X43622Y-24488D02*
X44291Y-25157D01*
X44291Y-25157D02*
X44291Y-25629D01*
X44291Y-25629D02*
X43897Y-26023D01*
X44566Y-23661D02*
X43700Y-23661D01*
X41730Y-30907D02*
X41238Y-30907D01*
X42244Y-30393D02*
X41730Y-30907D01*
X42244Y-29448D02*
X42244Y-30393D01*
X43897Y-27795D02*
X42244Y-29448D01*
X40868Y-30907D02*
X41238Y-30907D01*
G54D26*
X40629Y-30669D02*
X40868Y-30907D01*
X40629Y-30629D02*
X40629Y-30669D01*
G54D25*
X35787Y-24370D02*
X33110Y-24370D01*
X37198Y-25781D02*
X35787Y-24370D01*
X37198Y-26477D02*
X37198Y-25781D01*
X32322Y-24685D02*
X32283Y-24645D01*
X32795Y-24685D02*
X32322Y-24685D01*
X33110Y-24370D02*
X32795Y-24685D01*
X37008Y-25906D02*
X35622Y-24520D01*
X37008Y-26477D02*
X37008Y-25906D01*
X32795Y-24921D02*
X32795Y-25039D01*
X33196Y-24520D02*
X32795Y-24921D01*
X35622Y-24520D02*
X33196Y-24520D01*
X37598Y-32577D02*
X37598Y-32205D01*
X37362Y-31968D02*
X37283Y-31968D01*
X37598Y-32205D02*
X37362Y-31968D01*
X37798Y-32577D02*
X37798Y-31854D01*
X37798Y-31854D02*
X37677Y-31732D01*
X32677Y-25354D02*
X33063Y-25354D01*
X36808Y-25982D02*
X35511Y-24685D01*
X32677Y-25354D02*
X32480Y-25551D01*
X32480Y-25551D02*
X29948Y-25551D01*
X29500Y-26000D02*
X29948Y-25551D01*
X36808Y-25982D02*
X36808Y-26477D01*
X33732Y-24685D02*
X35511Y-24685D01*
X33063Y-25354D02*
X33732Y-24685D01*
X32559Y-25708D02*
X30791Y-25708D01*
X30791Y-25708D02*
X30500Y-26000D01*
X32716Y-25551D02*
X33095Y-25551D01*
X32716Y-25551D02*
X32559Y-25708D01*
X35448Y-24881D02*
X36608Y-26042D01*
X33764Y-24881D02*
X35448Y-24881D01*
X33095Y-25551D02*
X33764Y-24881D01*
X36608Y-26477D02*
X36608Y-26042D01*
X29500Y-27000D02*
X30003Y-26496D01*
X31134Y-25866D02*
X32716Y-25866D01*
X30984Y-26016D02*
X31134Y-25866D01*
X30984Y-26181D02*
X30984Y-26016D01*
X30669Y-26496D02*
X30984Y-26181D01*
X30003Y-26496D02*
X30669Y-26496D01*
X36418Y-26064D02*
X35433Y-25078D01*
X32866Y-25716D02*
X32716Y-25866D01*
X36418Y-26064D02*
X36418Y-26477D01*
X33220Y-25716D02*
X32866Y-25716D01*
X33858Y-25078D02*
X33220Y-25716D01*
X35433Y-25078D02*
X33858Y-25078D01*
X32795Y-26062D02*
X31417Y-26062D01*
X30500Y-26980D02*
X30500Y-27000D01*
X31417Y-26062D02*
X30500Y-26980D01*
X32992Y-25866D02*
X33346Y-25866D01*
X36218Y-26085D02*
X35408Y-25275D01*
X32992Y-25866D02*
X32795Y-26062D01*
X36218Y-26085D02*
X36218Y-26477D01*
X33937Y-25275D02*
X35408Y-25275D01*
X33346Y-25866D02*
X33937Y-25275D01*
X32874Y-26259D02*
X31456Y-26259D01*
X30019Y-27480D02*
X29500Y-28000D01*
X30669Y-27480D02*
X30019Y-27480D01*
X31023Y-27125D02*
X30669Y-27480D01*
X31023Y-26692D02*
X31023Y-27125D01*
X31456Y-26259D02*
X31023Y-26692D01*
X33110Y-26023D02*
X33417Y-26023D01*
X36018Y-26097D02*
X35393Y-25472D01*
X33110Y-26023D02*
X32874Y-26259D01*
X36018Y-26097D02*
X36018Y-26477D01*
X33968Y-25472D02*
X35393Y-25472D01*
X33417Y-26023D02*
X33968Y-25472D01*
X35138Y-27167D02*
X31332Y-27167D01*
X31332Y-27167D02*
X30500Y-28000D01*
X35138Y-27367D02*
X31411Y-27367D01*
X29996Y-28503D02*
X29500Y-29000D01*
X30669Y-28503D02*
X29996Y-28503D01*
X31023Y-28149D02*
X30669Y-28503D01*
X31023Y-27755D02*
X31023Y-28149D01*
X31411Y-27367D02*
X31023Y-27755D01*
X35138Y-27557D02*
X31497Y-27557D01*
X30944Y-28555D02*
X30500Y-29000D01*
X30944Y-28440D02*
X30944Y-28555D01*
X31181Y-28204D02*
X30944Y-28440D01*
X31181Y-27874D02*
X31181Y-28204D01*
X31497Y-27557D02*
X31181Y-27874D01*
X47500Y-29000D02*
X47011Y-29488D01*
X39368Y-33424D02*
X39368Y-32577D01*
X39842Y-33897D02*
X39368Y-33424D01*
X42598Y-33897D02*
X39842Y-33897D01*
X44094Y-32401D02*
X42598Y-33897D01*
X44094Y-30078D02*
X44094Y-32401D01*
X44685Y-29488D02*
X44094Y-30078D01*
X47011Y-29488D02*
X44685Y-29488D01*
X39568Y-32577D02*
X39568Y-33316D01*
X46118Y-29000D02*
X46500Y-29000D01*
X45826Y-29291D02*
X46118Y-29000D01*
X44645Y-29291D02*
X45826Y-29291D01*
X43937Y-30000D02*
X44645Y-29291D01*
X43937Y-32322D02*
X43937Y-30000D01*
X42519Y-33740D02*
X43937Y-32322D01*
X39992Y-33740D02*
X42519Y-33740D01*
X39568Y-33316D02*
X39992Y-33740D01*
X45196Y-31535D02*
X44921Y-31535D01*
X39768Y-32238D02*
X39842Y-32165D01*
X39842Y-32165D02*
X40866Y-32165D01*
X40866Y-32165D02*
X41141Y-32440D01*
X41141Y-32440D02*
X42322Y-32440D01*
X39768Y-32238D02*
X39768Y-32244D01*
X45354Y-31377D02*
X45354Y-31220D01*
X45196Y-31535D02*
X45354Y-31377D01*
X44724Y-31732D02*
X44724Y-31968D01*
X44921Y-31535D02*
X44724Y-31732D01*
X39611Y-32086D02*
X39768Y-32244D01*
X39055Y-32086D02*
X39611Y-32086D01*
X39768Y-32577D02*
X39768Y-32244D01*
X39958Y-32577D02*
X39958Y-33344D01*
X46212Y-28000D02*
X46500Y-28000D01*
X45944Y-28267D02*
X46212Y-28000D01*
X45944Y-28897D02*
X45944Y-28267D01*
X45748Y-29094D02*
X45944Y-28897D01*
X44606Y-29094D02*
X45748Y-29094D01*
X43779Y-29921D02*
X44606Y-29094D01*
X43779Y-32244D02*
X43779Y-29921D01*
X42480Y-33543D02*
X43779Y-32244D01*
X40157Y-33543D02*
X42480Y-33543D01*
X39958Y-33344D02*
X40157Y-33543D01*
X40158Y-32577D02*
X40158Y-33237D01*
X47019Y-27480D02*
X47500Y-27000D01*
X46102Y-27480D02*
X47019Y-27480D01*
X45787Y-27795D02*
X46102Y-27480D01*
X45787Y-28779D02*
X45787Y-27795D01*
X45669Y-28897D02*
X45787Y-28779D01*
X44566Y-28897D02*
X45669Y-28897D01*
X43622Y-29842D02*
X44566Y-28897D01*
X43622Y-32165D02*
X43622Y-29842D01*
X42394Y-33393D02*
X43622Y-32165D01*
X40314Y-33393D02*
X42394Y-33393D01*
X40158Y-33237D02*
X40314Y-33393D01*
X40358Y-32577D02*
X40358Y-33129D01*
X46307Y-27000D02*
X46500Y-27000D01*
X45551Y-27755D02*
X46307Y-27000D01*
X45551Y-28661D02*
X45551Y-27755D01*
X45464Y-28747D02*
X45551Y-28661D01*
X44480Y-28747D02*
X45464Y-28747D01*
X43464Y-29763D02*
X44480Y-28747D01*
X43464Y-32086D02*
X43464Y-29763D01*
X42307Y-33243D02*
X43464Y-32086D01*
X40472Y-33243D02*
X42307Y-33243D01*
X40358Y-33129D02*
X40472Y-33243D01*
X41238Y-31887D02*
X42679Y-31887D01*
X46964Y-26535D02*
X47500Y-26000D01*
X46023Y-26535D02*
X46964Y-26535D01*
X45393Y-27165D02*
X46023Y-26535D01*
X45393Y-28393D02*
X45393Y-27165D01*
X45189Y-28597D02*
X45393Y-28393D01*
X44315Y-28597D02*
X45189Y-28597D01*
X43307Y-29606D02*
X44315Y-28597D01*
X43307Y-31259D02*
X43307Y-29606D01*
X42679Y-31887D02*
X43307Y-31259D01*
X42564Y-31687D02*
X43149Y-31102D01*
X43149Y-31102D02*
X43149Y-29488D01*
X43149Y-29488D02*
X44212Y-28425D01*
X41238Y-31687D02*
X42564Y-31687D01*
X46007Y-26000D02*
X46500Y-26000D01*
X45236Y-26771D02*
X46007Y-26000D01*
X45236Y-28149D02*
X45236Y-26771D01*
X44960Y-28425D02*
X45236Y-28149D01*
X44212Y-28425D02*
X44960Y-28425D01*
X41238Y-28347D02*
X42400Y-28347D01*
X43464Y-20964D02*
X43000Y-20500D01*
X43464Y-21771D02*
X43464Y-20964D01*
X43070Y-22165D02*
X43464Y-21771D01*
X43070Y-27677D02*
X43070Y-22165D01*
X42400Y-28347D02*
X43070Y-27677D01*
X43000Y-21500D02*
X43000Y-21645D01*
X42364Y-28147D02*
X41238Y-28147D01*
X42913Y-27598D02*
X42364Y-28147D01*
X42913Y-21732D02*
X42913Y-27598D01*
X43000Y-21645D02*
X42913Y-21732D01*
X39758Y-26477D02*
X39758Y-22632D01*
X38464Y-21614D02*
X38464Y-20964D01*
X38464Y-20964D02*
X38000Y-20500D01*
X38818Y-21968D02*
X38464Y-21614D01*
X39094Y-21968D02*
X38818Y-21968D01*
X39758Y-22632D02*
X39094Y-21968D01*
X39568Y-26477D02*
X39568Y-22679D01*
X38625Y-22125D02*
X38000Y-21500D01*
X39015Y-22125D02*
X38625Y-22125D01*
X39568Y-22679D02*
X39015Y-22125D01*
X39368Y-26477D02*
X39368Y-22747D01*
X37519Y-21019D02*
X37000Y-20500D01*
X37519Y-21653D02*
X37519Y-21019D01*
X37834Y-21968D02*
X37519Y-21653D01*
X38188Y-21968D02*
X37834Y-21968D01*
X38503Y-22283D02*
X38188Y-21968D01*
X38905Y-22283D02*
X38503Y-22283D01*
X39368Y-22747D02*
X38905Y-22283D01*
X39168Y-26477D02*
X39168Y-22791D01*
X37625Y-22125D02*
X37000Y-21500D01*
X38070Y-22125D02*
X37625Y-22125D01*
X38378Y-22433D02*
X38070Y-22125D01*
X38811Y-22433D02*
X38378Y-22433D01*
X39168Y-22791D02*
X38811Y-22433D01*
X38978Y-26477D02*
X38978Y-22822D01*
X36535Y-21035D02*
X36000Y-20500D01*
X36535Y-21771D02*
X36535Y-21035D01*
X36771Y-22007D02*
X36535Y-21771D01*
X37204Y-22007D02*
X36771Y-22007D01*
X37480Y-22283D02*
X37204Y-22007D01*
X37992Y-22283D02*
X37480Y-22283D01*
X38307Y-22598D02*
X37992Y-22283D01*
X38755Y-22598D02*
X38307Y-22598D01*
X38978Y-22822D02*
X38755Y-22598D01*
X38778Y-26477D02*
X38778Y-22865D01*
X37992Y-22598D02*
X37834Y-22598D01*
X38149Y-22755D02*
X37992Y-22598D01*
X38668Y-22755D02*
X38149Y-22755D01*
X38778Y-22865D02*
X38668Y-22755D01*
X34173Y-30117D02*
X33976Y-30314D01*
X35138Y-30117D02*
X34173Y-30117D01*
X34960Y-21614D02*
X34960Y-21220D01*
X35629Y-22283D02*
X34960Y-21614D01*
X31500Y-21216D02*
X31500Y-21500D01*
X31968Y-20748D02*
X31500Y-21216D01*
X31968Y-20275D02*
X31968Y-20748D01*
X32204Y-20039D02*
X31968Y-20275D01*
X33740Y-20039D02*
X32204Y-20039D01*
X33976Y-20275D02*
X33740Y-20039D01*
X33976Y-20866D02*
X33976Y-20275D01*
X34094Y-20984D02*
X33976Y-20866D01*
X34724Y-20984D02*
X34094Y-20984D01*
X34960Y-21220D02*
X34724Y-20984D01*
X34485Y-30317D02*
X35138Y-30317D01*
X34133Y-30669D02*
X34485Y-30317D01*
X33693Y-30669D02*
X34133Y-30669D01*
X33543Y-30519D02*
X33693Y-30669D01*
X33543Y-30511D02*
X33543Y-30519D01*
X35138Y-30517D02*
X34521Y-30517D01*
X34521Y-30517D02*
X34212Y-30826D01*
X34212Y-30826D02*
X33188Y-30826D01*
X35138Y-30707D02*
X34646Y-30707D01*
X33070Y-31181D02*
X32716Y-30826D01*
X33267Y-31181D02*
X33070Y-31181D01*
X33425Y-31023D02*
X33267Y-31181D01*
X34330Y-31023D02*
X33425Y-31023D01*
X34646Y-30707D02*
X34330Y-31023D01*
X36808Y-32577D02*
X36808Y-36060D01*
X38031Y-38031D02*
X38500Y-38500D01*
X38031Y-37283D02*
X38031Y-38031D01*
X36808Y-36060D02*
X38031Y-37283D01*
X38500Y-37500D02*
X38500Y-37437D01*
X38500Y-37437D02*
X37008Y-35945D01*
X38500Y-37500D02*
X38500Y-37240D01*
X37008Y-35945D02*
X37008Y-32577D01*
X37208Y-35590D02*
X37208Y-35831D01*
X39484Y-38500D02*
X38976Y-37992D01*
X38976Y-37992D02*
X38976Y-37204D01*
X39484Y-38500D02*
X39500Y-38500D01*
X38779Y-37007D02*
X38976Y-37204D01*
X38385Y-37007D02*
X38779Y-37007D01*
X37208Y-35831D02*
X38385Y-37007D01*
X37208Y-35594D02*
X37208Y-35590D01*
X37208Y-35590D02*
X37208Y-32577D01*
X39500Y-37500D02*
X39500Y-37413D01*
X37398Y-35430D02*
X37398Y-32577D01*
X37398Y-35706D02*
X37398Y-35430D01*
X38425Y-36732D02*
X37398Y-35706D01*
X38818Y-36732D02*
X38425Y-36732D01*
X39500Y-37413D02*
X38818Y-36732D01*
X36496Y-22677D02*
X36496Y-23661D01*
X37988Y-26477D02*
X37988Y-25351D01*
X37598Y-24370D02*
X37244Y-24015D01*
X37598Y-24960D02*
X37598Y-24370D01*
X37988Y-25351D02*
X37598Y-24960D01*
X37244Y-24015D02*
X36850Y-24015D01*
X35196Y-21196D02*
X34500Y-20500D01*
X35196Y-21574D02*
X35196Y-21196D01*
X35590Y-21968D02*
X35196Y-21574D01*
X35590Y-21968D02*
X35787Y-21968D01*
X35787Y-21968D02*
X36496Y-22677D01*
X36850Y-24015D02*
X36496Y-23661D01*
X36227Y-23905D02*
X32000Y-23905D01*
X37788Y-25466D02*
X36227Y-23905D01*
X37788Y-26477D02*
X37788Y-25466D01*
X32992Y-21811D02*
X32992Y-21007D01*
X32795Y-22007D02*
X32992Y-21811D01*
X32283Y-22007D02*
X32795Y-22007D01*
X32086Y-22204D02*
X32283Y-22007D01*
X31614Y-22204D02*
X32086Y-22204D01*
X31456Y-22362D02*
X31614Y-22204D01*
X31456Y-23724D02*
X31456Y-22362D01*
X31668Y-23937D02*
X31456Y-23724D01*
X31968Y-23937D02*
X31668Y-23937D01*
X32000Y-23905D02*
X31968Y-23937D01*
X32992Y-21007D02*
X33500Y-20500D01*
X36141Y-24055D02*
X32125Y-24055D01*
X32047Y-20952D02*
X32047Y-21889D01*
X32500Y-20500D02*
X32047Y-20952D01*
X31614Y-24094D02*
X31220Y-23700D01*
X31220Y-23700D02*
X31220Y-22283D01*
X31220Y-22283D02*
X31496Y-22007D01*
X31496Y-22007D02*
X31929Y-22007D01*
X37598Y-25512D02*
X36141Y-24055D01*
X37598Y-25512D02*
X37598Y-26477D01*
X31929Y-22007D02*
X32047Y-21889D01*
X32086Y-24094D02*
X31614Y-24094D01*
X32125Y-24055D02*
X32086Y-24094D01*
X31417Y-24173D02*
X31456Y-24173D01*
X31417Y-24173D02*
X31062Y-23818D01*
X37398Y-26477D02*
X37398Y-25627D01*
X31062Y-20937D02*
X31500Y-20500D01*
X31062Y-23818D02*
X31062Y-20937D01*
X35991Y-24220D02*
X32960Y-24220D01*
X37398Y-25627D02*
X35991Y-24220D01*
X32928Y-24251D02*
X32960Y-24220D01*
X31535Y-24251D02*
X32928Y-24251D01*
X31456Y-24173D02*
X31535Y-24251D01*
X35138Y-28147D02*
X31852Y-28147D01*
X30944Y-29842D02*
X30944Y-30314D01*
X30944Y-30314D02*
X30748Y-30511D01*
X30748Y-30511D02*
X29988Y-30511D01*
X29500Y-31000D02*
X29988Y-30511D01*
X31417Y-29370D02*
X30944Y-29842D01*
X31417Y-29094D02*
X31417Y-29370D01*
X31456Y-29055D02*
X31417Y-29094D01*
X31456Y-28740D02*
X31456Y-29055D01*
X31692Y-28503D02*
X31456Y-28740D01*
X31692Y-28307D02*
X31692Y-28503D01*
X31852Y-28147D02*
X31692Y-28307D01*
X35138Y-28347D02*
X32124Y-28347D01*
X31692Y-29347D02*
X31102Y-29937D01*
X31692Y-28779D02*
X31692Y-29347D01*
X32124Y-28347D02*
X31692Y-28779D01*
X31102Y-30397D02*
X30500Y-31000D01*
X31102Y-29937D02*
X31102Y-30397D01*
X31259Y-29992D02*
X31889Y-29362D01*
X31259Y-29992D02*
X31259Y-30590D01*
X31259Y-30590D02*
X30984Y-30866D01*
X30984Y-30866D02*
X30984Y-31220D01*
X30984Y-31220D02*
X30748Y-31456D01*
X30748Y-31456D02*
X30043Y-31456D01*
X29500Y-32000D02*
X30043Y-31456D01*
X32239Y-28547D02*
X35138Y-28547D01*
X31889Y-28897D02*
X32239Y-28547D01*
X31889Y-29362D02*
X31889Y-28897D01*
X35138Y-28737D02*
X32325Y-28737D01*
X32086Y-29401D02*
X31409Y-30078D01*
X31409Y-30078D02*
X31409Y-30716D01*
X31409Y-30716D02*
X31141Y-30984D01*
X31141Y-30984D02*
X31141Y-31358D01*
X30500Y-32000D02*
X31141Y-31358D01*
X32086Y-28976D02*
X32086Y-29401D01*
X32325Y-28737D02*
X32086Y-28976D01*
X35704Y-29137D02*
X35905Y-28937D01*
X35905Y-28937D02*
X35944Y-28937D01*
X35138Y-29137D02*
X35704Y-29137D01*
X44527Y-34724D02*
X45019Y-34724D01*
X44409Y-34606D02*
X44527Y-34724D01*
X44291Y-34606D02*
X44409Y-34606D01*
X44330Y-35039D02*
X45019Y-35039D01*
X44291Y-35078D02*
X44330Y-35039D01*
G54D27*
X32007Y-30511D02*
X32088Y-30511D01*
X33216Y-29921D02*
X33767Y-29370D01*
X32678Y-29921D02*
X33216Y-29921D01*
X32088Y-30511D02*
X32678Y-29921D01*
X33767Y-29370D02*
X34133Y-29370D01*
G54D25*
X35138Y-29527D02*
X34291Y-29527D01*
G54D27*
X34133Y-29370D02*
X34291Y-29527D01*
G54D25*
X36567Y-29337D02*
X35138Y-29337D01*
G54D26*
X36889Y-29015D02*
X36567Y-29337D01*
G54D27*
X36889Y-28228D02*
X36889Y-29015D01*
G54D25*
X41238Y-27167D02*
X40667Y-27167D01*
X40551Y-27283D02*
X40551Y-28267D01*
X40667Y-27167D02*
X40551Y-27283D01*
X35828Y-31891D02*
X35828Y-32577D01*
X35826Y-31889D02*
X35828Y-31891D01*
X35828Y-26477D02*
X35828Y-26773D01*
X35828Y-26773D02*
X36299Y-27244D01*
X40548Y-32577D02*
X40548Y-32674D01*
X40748Y-32874D02*
X40866Y-32874D01*
X40548Y-32674D02*
X40748Y-32874D01*
G54D27*
X32767Y-29370D02*
X32767Y-29186D01*
X32767Y-29186D02*
X32992Y-28962D01*
X32767Y-29370D02*
X32598Y-29370D01*
X32598Y-29370D02*
X32007Y-29960D01*
G54D25*
X35138Y-28937D02*
X33030Y-28937D01*
X31889Y-23543D02*
X31968Y-23543D01*
X31811Y-23622D02*
X31889Y-23543D01*
X37007Y-22519D02*
X37007Y-22716D01*
X41259Y-36181D02*
X41535Y-36181D01*
X41535Y-36181D02*
X41929Y-35787D01*
X43228Y-36181D02*
X43149Y-36181D01*
X43307Y-36259D02*
X43228Y-36181D01*
X45019Y-35570D02*
X45019Y-35354D01*
X45000Y-35590D02*
X45019Y-35570D01*
X33464Y-23385D02*
X33464Y-23543D01*
X34251Y-23503D02*
X34212Y-23543D01*
X34251Y-23385D02*
X34251Y-23503D01*
X30618Y-25118D02*
X31456Y-25118D01*
X30500Y-25000D02*
X30618Y-25118D01*
X30011Y-24488D02*
X31338Y-24488D01*
X29500Y-25000D02*
X30011Y-24488D01*
X40472Y-20972D02*
X40472Y-22322D01*
X40000Y-20500D02*
X40472Y-20972D01*
X40472Y-22322D02*
X40748Y-22598D01*
X41000Y-21500D02*
X41000Y-22102D01*
X41000Y-22102D02*
X41496Y-22598D01*
X41732Y-21929D02*
X41732Y-22086D01*
X41732Y-21929D02*
X41496Y-21692D01*
X41496Y-21692D02*
X41496Y-20996D01*
X41000Y-20500D02*
X41496Y-20996D01*
X41732Y-22086D02*
X42244Y-22598D01*
X34133Y-36220D02*
X34330Y-36417D01*
X34133Y-33307D02*
X34133Y-36220D01*
X37755Y-34370D02*
X37598Y-34527D01*
X37755Y-35708D02*
X38582Y-36535D01*
X38582Y-36535D02*
X38897Y-36535D01*
X38897Y-36535D02*
X39330Y-36968D01*
X39330Y-36968D02*
X39968Y-36968D01*
X40500Y-37500D02*
X39968Y-36968D01*
X37598Y-35551D02*
X37755Y-35708D01*
X37598Y-34527D02*
X37598Y-35551D01*
X45393Y-23661D02*
X45732Y-24000D01*
X45732Y-24000D02*
X46500Y-24000D01*
X46500Y-30000D02*
X46460Y-30039D01*
X46460Y-30039D02*
X45748Y-30039D01*
X45393Y-24370D02*
X45551Y-24527D01*
X46972Y-24527D02*
X47500Y-24000D01*
X45551Y-24527D02*
X46972Y-24527D01*
X47500Y-30000D02*
X47027Y-30472D01*
X45984Y-30472D02*
X45748Y-30708D01*
X47027Y-30472D02*
X45984Y-30472D01*
X41238Y-29527D02*
X41496Y-29527D01*
X41889Y-29921D02*
X41889Y-30118D01*
X41496Y-29527D02*
X41889Y-29921D01*
X38388Y-32577D02*
X38388Y-27595D01*
X38388Y-27595D02*
X38503Y-27480D01*
X38578Y-26477D02*
X38578Y-27405D01*
X38578Y-27405D02*
X38503Y-27480D01*
X40103Y-28843D02*
X40103Y-28937D01*
X40039Y-28779D02*
X40103Y-28843D01*
X40820Y-29127D02*
X40629Y-28937D01*
X40629Y-28937D02*
X40103Y-28937D01*
X41238Y-29127D02*
X40820Y-29127D01*
G54D27*
X43188Y-34330D02*
X43503Y-34015D01*
X42519Y-35314D02*
X43188Y-34645D01*
X43188Y-34645D02*
X43188Y-34330D01*
G54D26*
X37500Y-23000D02*
X37500Y-22515D01*
G54D25*
X36697Y-22200D02*
X36574Y-22322D01*
X37184Y-22200D02*
X36697Y-22200D01*
X37480Y-22495D02*
X37184Y-22200D01*
G54D26*
X35944Y-23070D02*
X36181Y-22834D01*
X34960Y-23070D02*
X35944Y-23070D01*
X37610Y-23110D02*
X37500Y-23000D01*
X37610Y-23110D02*
X37913Y-23110D01*
X37500Y-22515D02*
X37480Y-22495D01*
G54D27*
X38897Y-27007D02*
X39566Y-27007D01*
X38346Y-24094D02*
X37952Y-24488D01*
G54D25*
X38385Y-24094D02*
X38346Y-24094D01*
G54D27*
X37952Y-24842D02*
X38188Y-25078D01*
X37952Y-24488D02*
X37952Y-24842D01*
G54D26*
X45000Y-22125D02*
X45000Y-21500D01*
X44803Y-22322D02*
X45000Y-22125D01*
G54D27*
X38346Y-24055D02*
X38346Y-23228D01*
G54D25*
X38385Y-24094D02*
X38346Y-24055D01*
G54D27*
X38228Y-23110D02*
X37913Y-23110D01*
X38346Y-23228D02*
X38228Y-23110D01*
G54D26*
X37755Y-30511D02*
X37998Y-30268D01*
X36338Y-30511D02*
X37755Y-30511D01*
X35984Y-30157D02*
X36338Y-30511D01*
X35984Y-29803D02*
X35984Y-30157D01*
G54D25*
X35866Y-29685D02*
X35984Y-29803D01*
X38188Y-26477D02*
X38188Y-25078D01*
X39503Y-28937D02*
X39463Y-28897D01*
G54D27*
X39463Y-28897D02*
X38740Y-28897D01*
G54D25*
X38038Y-29488D02*
X37998Y-29528D01*
X38188Y-27007D02*
X37952Y-27244D01*
X37952Y-27244D02*
X37952Y-27433D01*
X37952Y-27433D02*
X38038Y-27519D01*
X38038Y-27519D02*
X38038Y-29488D01*
X38188Y-26477D02*
X38188Y-27007D01*
G54D26*
X37998Y-29528D02*
X37998Y-30268D01*
G54D25*
X37998Y-30268D02*
X37998Y-32577D01*
G54D26*
X34960Y-25944D02*
X33779Y-25944D01*
X33779Y-25944D02*
X33149Y-26574D01*
X33149Y-26574D02*
X32519Y-26574D01*
X35118Y-25787D02*
X34960Y-25944D01*
G54D25*
X29370Y-36653D02*
X30669Y-36653D01*
X28897Y-36889D02*
X29133Y-36889D01*
X29133Y-36889D02*
X29370Y-36653D01*
X32007Y-37007D02*
X32500Y-37500D01*
X31023Y-37007D02*
X32007Y-37007D01*
X30669Y-36653D02*
X31023Y-37007D01*
G54D26*
X37500Y-28129D02*
X37500Y-29940D01*
X35708Y-27007D02*
X35708Y-27322D01*
X35708Y-27322D02*
X36220Y-27834D01*
X36220Y-27834D02*
X37204Y-27834D01*
X37204Y-27834D02*
X37500Y-28129D01*
X35433Y-26102D02*
X35433Y-26732D01*
X35118Y-25787D02*
X35433Y-26102D01*
X35433Y-26732D02*
X35708Y-27007D01*
G54D25*
X37500Y-29940D02*
X37519Y-29960D01*
X39448Y-31653D02*
X39763Y-31338D01*
X39763Y-31338D02*
X39763Y-30118D01*
X39763Y-30118D02*
X39842Y-30039D01*
X41889Y-29330D02*
X41242Y-29330D01*
X43779Y-25472D02*
X43700Y-25551D01*
X43700Y-25551D02*
X43700Y-27755D01*
X43700Y-27755D02*
X42125Y-29330D01*
X42125Y-29330D02*
X41889Y-29330D01*
X41242Y-29330D02*
X41238Y-29327D01*
X40772Y-29527D02*
X40772Y-29936D01*
X40772Y-29936D02*
X40669Y-30039D01*
X41238Y-29327D02*
X40972Y-29327D01*
X40972Y-29327D02*
X40772Y-29527D01*
X30500Y-36000D02*
X30500Y-35736D01*
X30000Y-35236D02*
X30000Y-33031D01*
X30500Y-35736D02*
X30000Y-35236D01*
X31500Y-36000D02*
X31500Y-35751D01*
X30984Y-34330D02*
X30984Y-33070D01*
X30944Y-34370D02*
X30984Y-34330D01*
X30944Y-35196D02*
X30944Y-34370D01*
X31500Y-35751D02*
X30944Y-35196D01*
G54D27*
X45000Y-20500D02*
X44000Y-20500D01*
G54D25*
X40236Y-34370D02*
X39803Y-34370D01*
X39803Y-34370D02*
X39763Y-34409D01*
X40905Y-34370D02*
X40944Y-34409D01*
X40905Y-34370D02*
X40236Y-34370D01*
X40354Y-34488D02*
X40354Y-36417D01*
X40236Y-34370D02*
X40354Y-34488D01*
X38661Y-34015D02*
X37952Y-34724D01*
X37952Y-34724D02*
X37952Y-35354D01*
X40669Y-36889D02*
X40354Y-36574D01*
X40354Y-36574D02*
X40354Y-36417D01*
X47223Y-32972D02*
X45058Y-32972D01*
X36338Y-23755D02*
X36181Y-23597D01*
X36181Y-23597D02*
X36181Y-23464D01*
X36417Y-28464D02*
X35708Y-28464D01*
X33779Y-26968D02*
X32519Y-26968D01*
X33897Y-26850D02*
X33779Y-26968D01*
X35708Y-28464D02*
X35669Y-28503D01*
X36417Y-28464D02*
X36377Y-28503D01*
X36496Y-31496D02*
X37125Y-30866D01*
X35669Y-31023D02*
X35748Y-31023D01*
X35748Y-31023D02*
X36496Y-31771D01*
X36496Y-31771D02*
X36496Y-31496D01*
X40172Y-29527D02*
X38897Y-29527D01*
X36732Y-29960D02*
X36929Y-29960D01*
X36417Y-29645D02*
X36732Y-29960D01*
X40172Y-29527D02*
X39685Y-29527D01*
X39173Y-29960D02*
X38858Y-30275D01*
X39251Y-29960D02*
X39173Y-29960D01*
X39685Y-29527D02*
X39251Y-29960D01*
X36968Y-27440D02*
X36850Y-27559D01*
X31732Y-32125D02*
X31732Y-30984D01*
X31653Y-32204D02*
X31732Y-32125D01*
X47913Y-29488D02*
X47322Y-29488D01*
X47007Y-29803D02*
X47007Y-29881D01*
X47322Y-29488D02*
X47007Y-29803D01*
X47952Y-28503D02*
X47086Y-28503D01*
X47086Y-28503D02*
X47007Y-28425D01*
X47952Y-27519D02*
X47283Y-27519D01*
X47283Y-27519D02*
X47086Y-27716D01*
X47952Y-26535D02*
X47952Y-27519D01*
X47952Y-26535D02*
X47283Y-26535D01*
X47283Y-26535D02*
X47086Y-26732D01*
X47952Y-25551D02*
X47244Y-25551D01*
X47244Y-25551D02*
X47047Y-25748D01*
X47874Y-23503D02*
X47322Y-23503D01*
X47952Y-23582D02*
X47874Y-23503D01*
X47952Y-24527D02*
X47952Y-23582D01*
X47322Y-23503D02*
X47125Y-23700D01*
X47952Y-24527D02*
X47362Y-24527D01*
X31968Y-22716D02*
X32716Y-22716D01*
X28740Y-32677D02*
X28740Y-33858D01*
X28740Y-30314D02*
X28740Y-31496D01*
X28740Y-27952D02*
X28740Y-29133D01*
X28740Y-25590D02*
X28740Y-26771D01*
X28740Y-23228D02*
X28740Y-24409D01*
X29133Y-22047D02*
X28740Y-22047D01*
X29921Y-21259D02*
X29133Y-22047D01*
X28740Y-35039D02*
X28740Y-33858D01*
X28661Y-35118D02*
X28740Y-35039D01*
X34842Y-23543D02*
X34606Y-23307D01*
X34409Y-22716D02*
X34212Y-22716D01*
X34606Y-22913D02*
X34409Y-22716D01*
X34606Y-23307D02*
X34606Y-22913D01*
X40314Y-27598D02*
X40157Y-27440D01*
X40866Y-28937D02*
X40669Y-28740D01*
X40669Y-28740D02*
X40551Y-28740D01*
X40551Y-28740D02*
X40236Y-28425D01*
X40236Y-28425D02*
X40236Y-28110D01*
X40236Y-28110D02*
X40314Y-28031D01*
X40314Y-28031D02*
X40314Y-27598D01*
X41238Y-28937D02*
X40866Y-28937D01*
X34724Y-34606D02*
X34724Y-33740D01*
X34448Y-34881D02*
X34724Y-34606D01*
X35472Y-19921D02*
X35354Y-19803D01*
X31141Y-19803D02*
X30866Y-20078D01*
X35354Y-19803D02*
X31141Y-19803D01*
X43503Y-19921D02*
X41496Y-19921D01*
X39527Y-19921D02*
X37519Y-19921D01*
X35472Y-19921D02*
X35433Y-19921D01*
X47223Y-36476D02*
X47834Y-35865D01*
X47952Y-26535D02*
X47952Y-25551D01*
X47952Y-29448D02*
X47952Y-28503D01*
X47913Y-29488D02*
X47952Y-29448D01*
X47834Y-32244D02*
X47834Y-30590D01*
X47834Y-34370D02*
X47834Y-33425D01*
X47834Y-35865D02*
X47834Y-35314D01*
X29921Y-37795D02*
X31102Y-38976D01*
X46456Y-38188D02*
X46456Y-37795D01*
X45669Y-38976D02*
X46456Y-38188D01*
X42519Y-38976D02*
X44488Y-38976D01*
X38976Y-38976D02*
X41141Y-38976D01*
X35039Y-38976D02*
X37007Y-38976D01*
X31889Y-38976D02*
X33070Y-38976D01*
X28740Y-37401D02*
X29133Y-37795D01*
X29133Y-37795D02*
X29921Y-37795D01*
X29921Y-21259D02*
X29500Y-21681D01*
G54D27*
X29500Y-21681D02*
X29500Y-23000D01*
G54D25*
X46456Y-37795D02*
X45751Y-38500D01*
G54D27*
X45751Y-38500D02*
X44000Y-38500D01*
G54D25*
X47223Y-36476D02*
X47223Y-37028D01*
X47223Y-37028D02*
X46456Y-37795D01*
X47223Y-36476D02*
X45058Y-36476D01*
X47223Y-32972D02*
X47223Y-36476D01*
X45058Y-32972D02*
X45058Y-34055D01*
X45058Y-34055D02*
X45019Y-34094D01*
G54D27*
X47500Y-32000D02*
X47500Y-32696D01*
G54D25*
X47500Y-32696D02*
X47223Y-32972D01*
X45019Y-33956D02*
X45019Y-34094D01*
X45039Y-33937D02*
X45019Y-33956D01*
X37007Y-23543D02*
X37204Y-23543D01*
X37204Y-23543D02*
X37598Y-23937D01*
X37007Y-24212D02*
X37165Y-24370D01*
X37007Y-24212D02*
X36811Y-24212D01*
X35054Y-23755D02*
X34842Y-23543D01*
X36353Y-23755D02*
X36338Y-23755D01*
X36338Y-23755D02*
X35054Y-23755D01*
X36811Y-24212D02*
X36353Y-23755D01*
X34212Y-22716D02*
X34448Y-22716D01*
X33464Y-22716D02*
X34212Y-22716D01*
X34724Y-33740D02*
X34527Y-33543D01*
X34527Y-33543D02*
X34527Y-32677D01*
X39960Y-31771D02*
X40118Y-30984D01*
X38188Y-32577D02*
X38188Y-27283D01*
X38378Y-27054D02*
X38378Y-26477D01*
X38307Y-27125D02*
X38378Y-27054D01*
X38307Y-27165D02*
X38307Y-27125D01*
X38188Y-27283D02*
X38307Y-27165D01*
X38582Y-33070D02*
X38582Y-33937D01*
X38188Y-32834D02*
X38346Y-32992D01*
X38346Y-32992D02*
X38503Y-32992D01*
X38503Y-32992D02*
X38582Y-33070D01*
X38188Y-32577D02*
X38188Y-32834D01*
X38582Y-33937D02*
X38661Y-34015D01*
X35138Y-29727D02*
X35475Y-29727D01*
X35475Y-29727D02*
X35669Y-29921D01*
X35669Y-29921D02*
X35669Y-31023D01*
X40172Y-30929D02*
X40172Y-29527D01*
X40118Y-30984D02*
X40172Y-30929D01*
X38378Y-26227D02*
X38503Y-26102D01*
X38378Y-26477D02*
X38378Y-26227D01*
X38503Y-24724D02*
X38385Y-24606D01*
X38503Y-26102D02*
X38503Y-24724D01*
X32500Y-33500D02*
X32500Y-34232D01*
X32500Y-35728D02*
X32500Y-36000D01*
X31968Y-35196D02*
X32500Y-35728D01*
X31968Y-34763D02*
X31968Y-35196D01*
X32500Y-34232D02*
X31968Y-34763D01*
G54D10*
G36*
X30486Y-35449D02*
X30363Y-35456D01*
X30212Y-35518D01*
X30184Y-35614D01*
X30175Y-35604D01*
X30175Y-35500D01*
X30161Y-35433D01*
X30161Y-35433D01*
X30123Y-35376D01*
X29916Y-35169D01*
X29949Y-35089D01*
X29950Y-34910D01*
X29881Y-34745D01*
X29755Y-34618D01*
X29675Y-34585D01*
X29675Y-33914D01*
X29754Y-33881D01*
X29881Y-33755D01*
X29949Y-33589D01*
X29950Y-33410D01*
X29881Y-33245D01*
X29755Y-33118D01*
X29675Y-33085D01*
X29675Y-32895D01*
X29796Y-32773D01*
X30404Y-32773D01*
X30376Y-32801D01*
X30338Y-32858D01*
X30325Y-32925D01*
X30325Y-33085D01*
X30245Y-33118D01*
X30118Y-33244D01*
X30050Y-33410D01*
X30049Y-33589D01*
X30118Y-33754D01*
X30244Y-33881D01*
X30325Y-33914D01*
X30325Y-34585D01*
X30245Y-34618D01*
X30118Y-34744D01*
X30050Y-34910D01*
X30049Y-35089D01*
X30118Y-35254D01*
X30244Y-35381D01*
X30410Y-35449D01*
X30486Y-35449D01*
X30486Y-35449D01*
G37*
G54D26*
X30486Y-35449D02*
X30363Y-35456D01*
X30212Y-35518D01*
X30184Y-35614D01*
X30175Y-35604D01*
X30175Y-35500D01*
X30161Y-35433D01*
X30161Y-35433D01*
X30123Y-35376D01*
X29916Y-35169D01*
X29949Y-35089D01*
X29950Y-34910D01*
X29881Y-34745D01*
X29755Y-34618D01*
X29675Y-34585D01*
X29675Y-33914D01*
X29754Y-33881D01*
X29881Y-33755D01*
X29949Y-33589D01*
X29950Y-33410D01*
X29881Y-33245D01*
X29755Y-33118D01*
X29675Y-33085D01*
X29675Y-32895D01*
X29796Y-32773D01*
X30404Y-32773D01*
X30376Y-32801D01*
X30338Y-32858D01*
X30325Y-32925D01*
X30325Y-33085D01*
X30245Y-33118D01*
X30118Y-33244D01*
X30050Y-33410D01*
X30049Y-33589D01*
X30118Y-33754D01*
X30244Y-33881D01*
X30325Y-33914D01*
X30325Y-34585D01*
X30245Y-34618D01*
X30118Y-34744D01*
X30050Y-34910D01*
X30049Y-35089D01*
X30118Y-35254D01*
X30244Y-35381D01*
X30410Y-35449D01*
X30486Y-35449D01*
G54D10*
G36*
X30576Y-36005D02*
X30505Y-36076D01*
X30500Y-36070D01*
X30494Y-36076D01*
X30423Y-36005D01*
X30429Y-36000D01*
X30423Y-35994D01*
X30494Y-35923D01*
X30500Y-35929D01*
X30505Y-35923D01*
X30576Y-35994D01*
X30570Y-36000D01*
X30576Y-36005D01*
X30576Y-36005D01*
G37*
G54D26*
X30576Y-36005D02*
X30505Y-36076D01*
X30500Y-36070D01*
X30494Y-36076D01*
X30423Y-36005D01*
X30429Y-36000D01*
X30423Y-35994D01*
X30494Y-35923D01*
X30500Y-35929D01*
X30505Y-35923D01*
X30576Y-35994D01*
X30570Y-36000D01*
X30576Y-36005D01*
G54D10*
G36*
X31868Y-32930D02*
X31846Y-32964D01*
X31832Y-33031D01*
X31832Y-33196D01*
X31755Y-33118D01*
X31589Y-33050D01*
X31410Y-33049D01*
X31245Y-33118D01*
X31118Y-33244D01*
X31050Y-33410D01*
X31049Y-33589D01*
X31118Y-33754D01*
X31244Y-33881D01*
X31325Y-33914D01*
X31325Y-34179D01*
X31289Y-34265D01*
X31289Y-34395D01*
X31338Y-34514D01*
X31384Y-34560D01*
X31245Y-34618D01*
X31118Y-34744D01*
X31050Y-34910D01*
X31049Y-35089D01*
X31118Y-35254D01*
X31244Y-35381D01*
X31410Y-35449D01*
X31486Y-35449D01*
X31363Y-35456D01*
X31212Y-35518D01*
X31184Y-35614D01*
X31159Y-35588D01*
X31159Y-35484D01*
X31145Y-35417D01*
X31107Y-35360D01*
X31107Y-35360D01*
X30916Y-35169D01*
X30949Y-35089D01*
X30950Y-34910D01*
X30881Y-34745D01*
X30755Y-34618D01*
X30675Y-34585D01*
X30675Y-33914D01*
X30754Y-33881D01*
X30881Y-33755D01*
X30949Y-33589D01*
X30950Y-33410D01*
X30881Y-33245D01*
X30755Y-33118D01*
X30675Y-33085D01*
X30675Y-32997D01*
X30741Y-32930D01*
X31868Y-32930D01*
X31868Y-32930D01*
G37*
G54D26*
X31868Y-32930D02*
X31846Y-32964D01*
X31832Y-33031D01*
X31832Y-33196D01*
X31755Y-33118D01*
X31589Y-33050D01*
X31410Y-33049D01*
X31245Y-33118D01*
X31118Y-33244D01*
X31050Y-33410D01*
X31049Y-33589D01*
X31118Y-33754D01*
X31244Y-33881D01*
X31325Y-33914D01*
X31325Y-34179D01*
X31289Y-34265D01*
X31289Y-34395D01*
X31338Y-34514D01*
X31384Y-34560D01*
X31245Y-34618D01*
X31118Y-34744D01*
X31050Y-34910D01*
X31049Y-35089D01*
X31118Y-35254D01*
X31244Y-35381D01*
X31410Y-35449D01*
X31486Y-35449D01*
X31363Y-35456D01*
X31212Y-35518D01*
X31184Y-35614D01*
X31159Y-35588D01*
X31159Y-35484D01*
X31145Y-35417D01*
X31107Y-35360D01*
X31107Y-35360D01*
X30916Y-35169D01*
X30949Y-35089D01*
X30950Y-34910D01*
X30881Y-34745D01*
X30755Y-34618D01*
X30675Y-34585D01*
X30675Y-33914D01*
X30754Y-33881D01*
X30881Y-33755D01*
X30949Y-33589D01*
X30950Y-33410D01*
X30881Y-33245D01*
X30755Y-33118D01*
X30675Y-33085D01*
X30675Y-32997D01*
X30741Y-32930D01*
X31868Y-32930D01*
G54D10*
G36*
X31979Y-36478D02*
X31788Y-36478D01*
X31815Y-36385D01*
X31500Y-36070D01*
X31494Y-36076D01*
X31423Y-36005D01*
X31429Y-36000D01*
X31423Y-35994D01*
X31494Y-35923D01*
X31500Y-35929D01*
X31505Y-35923D01*
X31576Y-35994D01*
X31570Y-36000D01*
X31794Y-36223D01*
X31806Y-36287D01*
X31844Y-36344D01*
X31979Y-36478D01*
X31979Y-36478D01*
G37*
G54D26*
X31979Y-36478D02*
X31788Y-36478D01*
X31815Y-36385D01*
X31500Y-36070D01*
X31494Y-36076D01*
X31423Y-36005D01*
X31429Y-36000D01*
X31423Y-35994D01*
X31494Y-35923D01*
X31500Y-35929D01*
X31505Y-35923D01*
X31576Y-35994D01*
X31570Y-36000D01*
X31794Y-36223D01*
X31806Y-36287D01*
X31844Y-36344D01*
X31979Y-36478D01*
G54D10*
G36*
X32419Y-32017D02*
X32014Y-32423D01*
X30888Y-32423D01*
X30927Y-32385D01*
X30949Y-32329D01*
X30950Y-32270D01*
X30950Y-31797D01*
X31265Y-31482D01*
X31303Y-31425D01*
X31303Y-31425D01*
X31316Y-31358D01*
X31316Y-31056D01*
X31533Y-30839D01*
X31571Y-30783D01*
X31584Y-30716D01*
X31584Y-30151D01*
X31691Y-30044D01*
X31732Y-30144D01*
X31823Y-30235D01*
X31823Y-30236D01*
X31732Y-30327D01*
X31682Y-30446D01*
X31682Y-30576D01*
X31732Y-30695D01*
X31823Y-30787D01*
X31942Y-30836D01*
X32072Y-30836D01*
X32187Y-30789D01*
X32187Y-31102D01*
X32200Y-31169D01*
X32238Y-31226D01*
X32305Y-31292D01*
X32305Y-31413D01*
X32296Y-31417D01*
X32204Y-31508D01*
X32155Y-31627D01*
X32155Y-31757D01*
X32204Y-31876D01*
X32295Y-31968D01*
X32415Y-32017D01*
X32419Y-32017D01*
X32419Y-32017D01*
G37*
G54D26*
X32419Y-32017D02*
X32014Y-32423D01*
X30888Y-32423D01*
X30927Y-32385D01*
X30949Y-32329D01*
X30950Y-32270D01*
X30950Y-31797D01*
X31265Y-31482D01*
X31303Y-31425D01*
X31303Y-31425D01*
X31316Y-31358D01*
X31316Y-31056D01*
X31533Y-30839D01*
X31571Y-30783D01*
X31584Y-30716D01*
X31584Y-30151D01*
X31691Y-30044D01*
X31732Y-30144D01*
X31823Y-30235D01*
X31823Y-30236D01*
X31732Y-30327D01*
X31682Y-30446D01*
X31682Y-30576D01*
X31732Y-30695D01*
X31823Y-30787D01*
X31942Y-30836D01*
X32072Y-30836D01*
X32187Y-30789D01*
X32187Y-31102D01*
X32200Y-31169D01*
X32238Y-31226D01*
X32305Y-31292D01*
X32305Y-31413D01*
X32296Y-31417D01*
X32204Y-31508D01*
X32155Y-31627D01*
X32155Y-31757D01*
X32204Y-31876D01*
X32295Y-31968D01*
X32415Y-32017D01*
X32419Y-32017D01*
G54D10*
G36*
X32576Y-33505D02*
X32505Y-33576D01*
X32500Y-33570D01*
X32494Y-33576D01*
X32423Y-33505D01*
X32429Y-33500D01*
X32423Y-33494D01*
X32494Y-33423D01*
X32500Y-33429D01*
X32505Y-33423D01*
X32576Y-33494D01*
X32570Y-33500D01*
X32576Y-33505D01*
X32576Y-33505D01*
G37*
G54D26*
X32576Y-33505D02*
X32505Y-33576D01*
X32500Y-33570D01*
X32494Y-33576D01*
X32423Y-33505D01*
X32429Y-33500D01*
X32423Y-33494D01*
X32494Y-33423D01*
X32500Y-33429D01*
X32505Y-33423D01*
X32576Y-33494D01*
X32570Y-33500D01*
X32576Y-33505D01*
G54D10*
G36*
X32576Y-36005D02*
X32505Y-36076D01*
X32500Y-36070D01*
X32494Y-36076D01*
X32423Y-36005D01*
X32429Y-36000D01*
X32423Y-35994D01*
X32494Y-35923D01*
X32500Y-35929D01*
X32505Y-35923D01*
X32576Y-35994D01*
X32570Y-36000D01*
X32576Y-36005D01*
X32576Y-36005D01*
G37*
G54D26*
X32576Y-36005D02*
X32505Y-36076D01*
X32500Y-36070D01*
X32494Y-36076D01*
X32423Y-36005D01*
X32429Y-36000D01*
X32423Y-35994D01*
X32494Y-35923D01*
X32500Y-35929D01*
X32505Y-35923D01*
X32576Y-35994D01*
X32570Y-36000D01*
X32576Y-36005D01*
G54D10*
G36*
X32777Y-34474D02*
X32669Y-34583D01*
X32589Y-34550D01*
X32410Y-34549D01*
X32245Y-34618D01*
X32118Y-34744D01*
X32050Y-34910D01*
X32049Y-35089D01*
X32118Y-35254D01*
X32244Y-35381D01*
X32410Y-35449D01*
X32486Y-35449D01*
X32363Y-35456D01*
X32212Y-35518D01*
X32184Y-35614D01*
X32143Y-35572D01*
X32143Y-35468D01*
X32130Y-35401D01*
X32130Y-35401D01*
X32092Y-35344D01*
X31916Y-35169D01*
X31949Y-35089D01*
X31950Y-34910D01*
X31916Y-34830D01*
X32131Y-34615D01*
X32169Y-34559D01*
X32182Y-34492D01*
X32182Y-33887D01*
X32184Y-33885D01*
X32212Y-33981D01*
X32418Y-34054D01*
X32636Y-34043D01*
X32777Y-33985D01*
X32777Y-34474D01*
X32777Y-34474D01*
G37*
G54D26*
X32777Y-34474D02*
X32669Y-34583D01*
X32589Y-34550D01*
X32410Y-34549D01*
X32245Y-34618D01*
X32118Y-34744D01*
X32050Y-34910D01*
X32049Y-35089D01*
X32118Y-35254D01*
X32244Y-35381D01*
X32410Y-35449D01*
X32486Y-35449D01*
X32363Y-35456D01*
X32212Y-35518D01*
X32184Y-35614D01*
X32143Y-35572D01*
X32143Y-35468D01*
X32130Y-35401D01*
X32130Y-35401D01*
X32092Y-35344D01*
X31916Y-35169D01*
X31949Y-35089D01*
X31950Y-34910D01*
X31916Y-34830D01*
X32131Y-34615D01*
X32169Y-34559D01*
X32182Y-34492D01*
X32182Y-33887D01*
X32184Y-33885D01*
X32212Y-33981D01*
X32418Y-34054D01*
X32636Y-34043D01*
X32777Y-33985D01*
X32777Y-34474D01*
G54D10*
G36*
X34053Y-36596D02*
X33537Y-36596D01*
X33491Y-36551D01*
X33636Y-36543D01*
X33787Y-36481D01*
X33815Y-36385D01*
X33500Y-36070D01*
X33494Y-36076D01*
X33423Y-36005D01*
X33429Y-36000D01*
X33423Y-35994D01*
X33494Y-35923D01*
X33500Y-35929D01*
X33815Y-35614D01*
X33787Y-35518D01*
X33592Y-35448D01*
X33754Y-35381D01*
X33881Y-35255D01*
X33949Y-35089D01*
X33950Y-34910D01*
X33881Y-34745D01*
X33755Y-34618D01*
X33589Y-34550D01*
X33410Y-34549D01*
X33245Y-34618D01*
X33118Y-34744D01*
X33050Y-34910D01*
X33049Y-35089D01*
X33118Y-35254D01*
X33244Y-35381D01*
X33410Y-35449D01*
X33486Y-35449D01*
X33363Y-35456D01*
X33212Y-35518D01*
X33184Y-35614D01*
X33167Y-35596D01*
X33167Y-35492D01*
X33167Y-35492D01*
X33153Y-35425D01*
X33115Y-35368D01*
X33115Y-35368D01*
X32916Y-35169D01*
X32949Y-35089D01*
X32950Y-34910D01*
X32916Y-34830D01*
X33076Y-34670D01*
X33114Y-34614D01*
X33127Y-34547D01*
X33127Y-33932D01*
X33170Y-33949D01*
X33229Y-33950D01*
X33829Y-33950D01*
X33884Y-33927D01*
X33927Y-33885D01*
X33949Y-33829D01*
X33950Y-33770D01*
X33950Y-33582D01*
X33958Y-33586D01*
X33958Y-35705D01*
X33950Y-35703D01*
X33885Y-35684D01*
X33570Y-36000D01*
X33885Y-36315D01*
X33973Y-36289D01*
X34009Y-36343D01*
X34005Y-36352D01*
X34005Y-36481D01*
X34053Y-36596D01*
X34053Y-36596D01*
G37*
G54D26*
X34053Y-36596D02*
X33537Y-36596D01*
X33491Y-36551D01*
X33636Y-36543D01*
X33787Y-36481D01*
X33815Y-36385D01*
X33500Y-36070D01*
X33494Y-36076D01*
X33423Y-36005D01*
X33429Y-36000D01*
X33423Y-35994D01*
X33494Y-35923D01*
X33500Y-35929D01*
X33815Y-35614D01*
X33787Y-35518D01*
X33592Y-35448D01*
X33754Y-35381D01*
X33881Y-35255D01*
X33949Y-35089D01*
X33950Y-34910D01*
X33881Y-34745D01*
X33755Y-34618D01*
X33589Y-34550D01*
X33410Y-34549D01*
X33245Y-34618D01*
X33118Y-34744D01*
X33050Y-34910D01*
X33049Y-35089D01*
X33118Y-35254D01*
X33244Y-35381D01*
X33410Y-35449D01*
X33486Y-35449D01*
X33363Y-35456D01*
X33212Y-35518D01*
X33184Y-35614D01*
X33167Y-35596D01*
X33167Y-35492D01*
X33167Y-35492D01*
X33153Y-35425D01*
X33115Y-35368D01*
X33115Y-35368D01*
X32916Y-35169D01*
X32949Y-35089D01*
X32950Y-34910D01*
X32916Y-34830D01*
X33076Y-34670D01*
X33114Y-34614D01*
X33127Y-34547D01*
X33127Y-33932D01*
X33170Y-33949D01*
X33229Y-33950D01*
X33829Y-33950D01*
X33884Y-33927D01*
X33927Y-33885D01*
X33949Y-33829D01*
X33950Y-33770D01*
X33950Y-33582D01*
X33958Y-33586D01*
X33958Y-35705D01*
X33950Y-35703D01*
X33885Y-35684D01*
X33570Y-36000D01*
X33885Y-36315D01*
X33973Y-36289D01*
X34009Y-36343D01*
X34005Y-36352D01*
X34005Y-36481D01*
X34053Y-36596D01*
G54D10*
G36*
X34982Y-36742D02*
X34887Y-36647D01*
X34830Y-36609D01*
X34763Y-36596D01*
X34608Y-36596D01*
X34655Y-36482D01*
X34655Y-36352D01*
X34606Y-36233D01*
X34515Y-36141D01*
X34395Y-36092D01*
X34308Y-36092D01*
X34308Y-33586D01*
X34317Y-33582D01*
X34409Y-33491D01*
X34458Y-33372D01*
X34458Y-33242D01*
X34409Y-33123D01*
X34318Y-33031D01*
X34198Y-32982D01*
X34069Y-32982D01*
X33950Y-33031D01*
X33896Y-33084D01*
X33885Y-33072D01*
X33829Y-33050D01*
X33770Y-33049D01*
X33170Y-33049D01*
X33127Y-33067D01*
X33127Y-32675D01*
X33930Y-31872D01*
X34788Y-31872D01*
X34788Y-31967D01*
X34811Y-32022D01*
X34853Y-32064D01*
X34909Y-32087D01*
X34963Y-32087D01*
X34963Y-36595D01*
X34977Y-36662D01*
X34982Y-36670D01*
X34982Y-36742D01*
X34982Y-36742D01*
G37*
G54D26*
X34982Y-36742D02*
X34887Y-36647D01*
X34830Y-36609D01*
X34763Y-36596D01*
X34608Y-36596D01*
X34655Y-36482D01*
X34655Y-36352D01*
X34606Y-36233D01*
X34515Y-36141D01*
X34395Y-36092D01*
X34308Y-36092D01*
X34308Y-33586D01*
X34317Y-33582D01*
X34409Y-33491D01*
X34458Y-33372D01*
X34458Y-33242D01*
X34409Y-33123D01*
X34318Y-33031D01*
X34198Y-32982D01*
X34069Y-32982D01*
X33950Y-33031D01*
X33896Y-33084D01*
X33885Y-33072D01*
X33829Y-33050D01*
X33770Y-33049D01*
X33170Y-33049D01*
X33127Y-33067D01*
X33127Y-32675D01*
X33930Y-31872D01*
X34788Y-31872D01*
X34788Y-31967D01*
X34811Y-32022D01*
X34853Y-32064D01*
X34909Y-32087D01*
X34963Y-32087D01*
X34963Y-36595D01*
X34977Y-36662D01*
X34982Y-36670D01*
X34982Y-36742D01*
G54D10*
G36*
X35397Y-26979D02*
X35368Y-26967D01*
X35309Y-26967D01*
X34909Y-26967D01*
X34854Y-26990D01*
X34851Y-26992D01*
X31332Y-26992D01*
X31265Y-27005D01*
X31208Y-27043D01*
X31198Y-27053D01*
X31198Y-26765D01*
X31529Y-26434D01*
X32225Y-26434D01*
X32194Y-26509D01*
X32194Y-26639D01*
X32244Y-26758D01*
X32335Y-26850D01*
X32454Y-26899D01*
X32584Y-26899D01*
X32703Y-26850D01*
X32779Y-26774D01*
X33149Y-26774D01*
X33226Y-26759D01*
X33291Y-26716D01*
X33862Y-26144D01*
X34960Y-26144D01*
X35037Y-26129D01*
X35063Y-26112D01*
X35160Y-26112D01*
X35233Y-26185D01*
X35233Y-26732D01*
X35248Y-26808D01*
X35291Y-26873D01*
X35397Y-26979D01*
X35397Y-26979D01*
G37*
G54D26*
X35397Y-26979D02*
X35368Y-26967D01*
X35309Y-26967D01*
X34909Y-26967D01*
X34854Y-26990D01*
X34851Y-26992D01*
X31332Y-26992D01*
X31265Y-27005D01*
X31208Y-27043D01*
X31198Y-27053D01*
X31198Y-26765D01*
X31529Y-26434D01*
X32225Y-26434D01*
X32194Y-26509D01*
X32194Y-26639D01*
X32244Y-26758D01*
X32335Y-26850D01*
X32454Y-26899D01*
X32584Y-26899D01*
X32703Y-26850D01*
X32779Y-26774D01*
X33149Y-26774D01*
X33226Y-26759D01*
X33291Y-26716D01*
X33862Y-26144D01*
X34960Y-26144D01*
X35037Y-26129D01*
X35063Y-26112D01*
X35160Y-26112D01*
X35233Y-26185D01*
X35233Y-26732D01*
X35248Y-26808D01*
X35291Y-26873D01*
X35397Y-26979D01*
G54D10*
G36*
X36091Y-22520D02*
X35997Y-22558D01*
X35905Y-22650D01*
X35856Y-22769D01*
X35856Y-22870D01*
X35220Y-22870D01*
X35144Y-22795D01*
X35025Y-22745D01*
X34896Y-22745D01*
X34776Y-22795D01*
X34687Y-22884D01*
X34687Y-22470D01*
X34649Y-22378D01*
X34579Y-22307D01*
X34487Y-22269D01*
X34388Y-22269D01*
X34325Y-22269D01*
X34262Y-22332D01*
X34262Y-22666D01*
X34625Y-22666D01*
X34687Y-22604D01*
X34687Y-22470D01*
X34687Y-22884D01*
X34687Y-22884D01*
X34687Y-22829D01*
X34625Y-22766D01*
X34262Y-22766D01*
X34262Y-22774D01*
X34162Y-22774D01*
X34162Y-22766D01*
X34162Y-22666D01*
X34162Y-22332D01*
X34100Y-22269D01*
X34037Y-22269D01*
X33937Y-22269D01*
X33845Y-22307D01*
X33838Y-22315D01*
X33831Y-22307D01*
X33739Y-22269D01*
X33640Y-22269D01*
X33577Y-22269D01*
X33514Y-22332D01*
X33514Y-22666D01*
X33800Y-22666D01*
X33877Y-22666D01*
X34162Y-22666D01*
X34162Y-22766D01*
X33877Y-22766D01*
X33800Y-22766D01*
X33514Y-22766D01*
X33514Y-22774D01*
X33414Y-22774D01*
X33414Y-22766D01*
X33414Y-22666D01*
X33414Y-22332D01*
X33352Y-22269D01*
X33289Y-22269D01*
X33189Y-22269D01*
X33097Y-22307D01*
X33090Y-22315D01*
X33083Y-22307D01*
X32991Y-22269D01*
X32892Y-22269D01*
X32829Y-22269D01*
X32766Y-22332D01*
X32766Y-22666D01*
X33052Y-22666D01*
X33129Y-22666D01*
X33414Y-22666D01*
X33414Y-22766D01*
X33129Y-22766D01*
X33052Y-22766D01*
X32766Y-22766D01*
X32766Y-23100D01*
X32829Y-23163D01*
X32892Y-23163D01*
X32991Y-23163D01*
X33083Y-23125D01*
X33090Y-23117D01*
X33097Y-23125D01*
X33189Y-23163D01*
X33227Y-23163D01*
X33189Y-23201D01*
X33187Y-23205D01*
X33154Y-23219D01*
X33112Y-23261D01*
X33090Y-23314D01*
X33068Y-23261D01*
X33026Y-23219D01*
X32971Y-23196D01*
X32911Y-23196D01*
X32666Y-23196D01*
X32666Y-23100D01*
X32666Y-22766D01*
X32381Y-22766D01*
X32304Y-22766D01*
X32018Y-22766D01*
X32018Y-23100D01*
X32081Y-23163D01*
X32143Y-23163D01*
X32243Y-23163D01*
X32335Y-23125D01*
X32342Y-23117D01*
X32349Y-23125D01*
X32441Y-23163D01*
X32541Y-23163D01*
X32604Y-23163D01*
X32666Y-23100D01*
X32666Y-23196D01*
X32461Y-23196D01*
X32406Y-23219D01*
X32364Y-23261D01*
X32342Y-23314D01*
X32320Y-23261D01*
X32278Y-23219D01*
X32223Y-23196D01*
X32163Y-23196D01*
X31713Y-23196D01*
X31658Y-23219D01*
X31631Y-23246D01*
X31631Y-23137D01*
X31693Y-23163D01*
X31793Y-23163D01*
X31856Y-23163D01*
X31918Y-23100D01*
X31918Y-22766D01*
X31910Y-22766D01*
X31910Y-22666D01*
X31918Y-22666D01*
X31918Y-22658D01*
X32018Y-22658D01*
X32018Y-22666D01*
X32304Y-22666D01*
X32381Y-22666D01*
X32666Y-22666D01*
X32666Y-22332D01*
X32604Y-22269D01*
X32541Y-22269D01*
X32441Y-22269D01*
X32349Y-22307D01*
X32342Y-22315D01*
X32335Y-22307D01*
X32261Y-22277D01*
X32355Y-22182D01*
X32795Y-22182D01*
X32862Y-22169D01*
X32862Y-22169D01*
X32919Y-22131D01*
X33115Y-21934D01*
X33115Y-21934D01*
X33115Y-21934D01*
X33153Y-21877D01*
X33167Y-21811D01*
X33167Y-21811D01*
X33167Y-21803D01*
X33244Y-21881D01*
X33410Y-21949D01*
X33589Y-21950D01*
X33754Y-21881D01*
X33881Y-21755D01*
X33949Y-21589D01*
X33950Y-21410D01*
X33881Y-21245D01*
X33755Y-21118D01*
X33589Y-21050D01*
X33410Y-21049D01*
X33245Y-21118D01*
X33167Y-21196D01*
X33167Y-21080D01*
X33330Y-20916D01*
X33410Y-20949D01*
X33589Y-20950D01*
X33754Y-20881D01*
X33801Y-20834D01*
X33801Y-20866D01*
X33814Y-20933D01*
X33852Y-20989D01*
X33970Y-21107D01*
X34027Y-21145D01*
X34027Y-21145D01*
X34094Y-21159D01*
X34204Y-21159D01*
X34118Y-21244D01*
X34050Y-21410D01*
X34049Y-21589D01*
X34118Y-21754D01*
X34244Y-21881D01*
X34410Y-21949D01*
X34589Y-21950D01*
X34754Y-21881D01*
X34867Y-21768D01*
X35308Y-22209D01*
X35304Y-22218D01*
X35304Y-22347D01*
X35354Y-22467D01*
X35445Y-22558D01*
X35564Y-22608D01*
X35694Y-22608D01*
X35813Y-22559D01*
X35905Y-22467D01*
X35944Y-22373D01*
X36091Y-22520D01*
X36091Y-22520D01*
G37*
G54D26*
X36091Y-22520D02*
X35997Y-22558D01*
X35905Y-22650D01*
X35856Y-22769D01*
X35856Y-22870D01*
X35220Y-22870D01*
X35144Y-22795D01*
X35025Y-22745D01*
X34896Y-22745D01*
X34776Y-22795D01*
X34687Y-22884D01*
X34687Y-22470D01*
X34649Y-22378D01*
X34579Y-22307D01*
X34487Y-22269D01*
X34388Y-22269D01*
X34325Y-22269D01*
X34262Y-22332D01*
X34262Y-22666D01*
X34625Y-22666D01*
X34687Y-22604D01*
X34687Y-22470D01*
X34687Y-22884D01*
X34687Y-22884D01*
X34687Y-22829D01*
X34625Y-22766D01*
X34262Y-22766D01*
X34262Y-22774D01*
X34162Y-22774D01*
X34162Y-22766D01*
X34162Y-22666D01*
X34162Y-22332D01*
X34100Y-22269D01*
X34037Y-22269D01*
X33937Y-22269D01*
X33845Y-22307D01*
X33838Y-22315D01*
X33831Y-22307D01*
X33739Y-22269D01*
X33640Y-22269D01*
X33577Y-22269D01*
X33514Y-22332D01*
X33514Y-22666D01*
X33800Y-22666D01*
X33877Y-22666D01*
X34162Y-22666D01*
X34162Y-22766D01*
X33877Y-22766D01*
X33800Y-22766D01*
X33514Y-22766D01*
X33514Y-22774D01*
X33414Y-22774D01*
X33414Y-22766D01*
X33414Y-22666D01*
X33414Y-22332D01*
X33352Y-22269D01*
X33289Y-22269D01*
X33189Y-22269D01*
X33097Y-22307D01*
X33090Y-22315D01*
X33083Y-22307D01*
X32991Y-22269D01*
X32892Y-22269D01*
X32829Y-22269D01*
X32766Y-22332D01*
X32766Y-22666D01*
X33052Y-22666D01*
X33129Y-22666D01*
X33414Y-22666D01*
X33414Y-22766D01*
X33129Y-22766D01*
X33052Y-22766D01*
X32766Y-22766D01*
X32766Y-23100D01*
X32829Y-23163D01*
X32892Y-23163D01*
X32991Y-23163D01*
X33083Y-23125D01*
X33090Y-23117D01*
X33097Y-23125D01*
X33189Y-23163D01*
X33227Y-23163D01*
X33189Y-23201D01*
X33187Y-23205D01*
X33154Y-23219D01*
X33112Y-23261D01*
X33090Y-23314D01*
X33068Y-23261D01*
X33026Y-23219D01*
X32971Y-23196D01*
X32911Y-23196D01*
X32666Y-23196D01*
X32666Y-23100D01*
X32666Y-22766D01*
X32381Y-22766D01*
X32304Y-22766D01*
X32018Y-22766D01*
X32018Y-23100D01*
X32081Y-23163D01*
X32143Y-23163D01*
X32243Y-23163D01*
X32335Y-23125D01*
X32342Y-23117D01*
X32349Y-23125D01*
X32441Y-23163D01*
X32541Y-23163D01*
X32604Y-23163D01*
X32666Y-23100D01*
X32666Y-23196D01*
X32461Y-23196D01*
X32406Y-23219D01*
X32364Y-23261D01*
X32342Y-23314D01*
X32320Y-23261D01*
X32278Y-23219D01*
X32223Y-23196D01*
X32163Y-23196D01*
X31713Y-23196D01*
X31658Y-23219D01*
X31631Y-23246D01*
X31631Y-23137D01*
X31693Y-23163D01*
X31793Y-23163D01*
X31856Y-23163D01*
X31918Y-23100D01*
X31918Y-22766D01*
X31910Y-22766D01*
X31910Y-22666D01*
X31918Y-22666D01*
X31918Y-22658D01*
X32018Y-22658D01*
X32018Y-22666D01*
X32304Y-22666D01*
X32381Y-22666D01*
X32666Y-22666D01*
X32666Y-22332D01*
X32604Y-22269D01*
X32541Y-22269D01*
X32441Y-22269D01*
X32349Y-22307D01*
X32342Y-22315D01*
X32335Y-22307D01*
X32261Y-22277D01*
X32355Y-22182D01*
X32795Y-22182D01*
X32862Y-22169D01*
X32862Y-22169D01*
X32919Y-22131D01*
X33115Y-21934D01*
X33115Y-21934D01*
X33115Y-21934D01*
X33153Y-21877D01*
X33167Y-21811D01*
X33167Y-21811D01*
X33167Y-21803D01*
X33244Y-21881D01*
X33410Y-21949D01*
X33589Y-21950D01*
X33754Y-21881D01*
X33881Y-21755D01*
X33949Y-21589D01*
X33950Y-21410D01*
X33881Y-21245D01*
X33755Y-21118D01*
X33589Y-21050D01*
X33410Y-21049D01*
X33245Y-21118D01*
X33167Y-21196D01*
X33167Y-21080D01*
X33330Y-20916D01*
X33410Y-20949D01*
X33589Y-20950D01*
X33754Y-20881D01*
X33801Y-20834D01*
X33801Y-20866D01*
X33814Y-20933D01*
X33852Y-20989D01*
X33970Y-21107D01*
X34027Y-21145D01*
X34027Y-21145D01*
X34094Y-21159D01*
X34204Y-21159D01*
X34118Y-21244D01*
X34050Y-21410D01*
X34049Y-21589D01*
X34118Y-21754D01*
X34244Y-21881D01*
X34410Y-21949D01*
X34589Y-21950D01*
X34754Y-21881D01*
X34867Y-21768D01*
X35308Y-22209D01*
X35304Y-22218D01*
X35304Y-22347D01*
X35354Y-22467D01*
X35445Y-22558D01*
X35564Y-22608D01*
X35694Y-22608D01*
X35813Y-22559D01*
X35905Y-22467D01*
X35944Y-22373D01*
X36091Y-22520D01*
G54D10*
G36*
X36639Y-28982D02*
X36460Y-29162D01*
X36178Y-29162D01*
X36220Y-29121D01*
X36269Y-29001D01*
X36269Y-28872D01*
X36220Y-28753D01*
X36129Y-28661D01*
X36009Y-28612D01*
X35880Y-28611D01*
X35761Y-28661D01*
X35669Y-28752D01*
X35619Y-28872D01*
X35619Y-28962D01*
X35488Y-28962D01*
X35489Y-28957D01*
X35489Y-28857D01*
X35480Y-28837D01*
X35488Y-28817D01*
X35489Y-28757D01*
X35489Y-28657D01*
X35482Y-28642D01*
X35488Y-28627D01*
X35489Y-28567D01*
X35489Y-28467D01*
X35480Y-28447D01*
X35488Y-28427D01*
X35489Y-28367D01*
X35489Y-28267D01*
X35480Y-28247D01*
X35488Y-28227D01*
X35489Y-28167D01*
X35489Y-28067D01*
X35482Y-28052D01*
X35488Y-28037D01*
X35489Y-27977D01*
X35489Y-27877D01*
X35480Y-27857D01*
X35488Y-27837D01*
X35489Y-27777D01*
X35489Y-27677D01*
X35480Y-27657D01*
X35488Y-27637D01*
X35489Y-27577D01*
X35489Y-27477D01*
X35482Y-27462D01*
X35488Y-27447D01*
X35489Y-27387D01*
X35489Y-27287D01*
X35480Y-27267D01*
X35488Y-27247D01*
X35489Y-27187D01*
X35489Y-27087D01*
X35477Y-27059D01*
X35508Y-27090D01*
X35508Y-27322D01*
X35523Y-27399D01*
X35567Y-27464D01*
X36079Y-27976D01*
X36079Y-27976D01*
X36122Y-28005D01*
X36143Y-28019D01*
X36143Y-28019D01*
X36220Y-28034D01*
X36623Y-28034D01*
X36614Y-28044D01*
X36564Y-28163D01*
X36564Y-28292D01*
X36614Y-28412D01*
X36639Y-28437D01*
X36639Y-28982D01*
X36639Y-28982D01*
G37*
G54D26*
X36639Y-28982D02*
X36460Y-29162D01*
X36178Y-29162D01*
X36220Y-29121D01*
X36269Y-29001D01*
X36269Y-28872D01*
X36220Y-28753D01*
X36129Y-28661D01*
X36009Y-28612D01*
X35880Y-28611D01*
X35761Y-28661D01*
X35669Y-28752D01*
X35619Y-28872D01*
X35619Y-28962D01*
X35488Y-28962D01*
X35489Y-28957D01*
X35489Y-28857D01*
X35480Y-28837D01*
X35488Y-28817D01*
X35489Y-28757D01*
X35489Y-28657D01*
X35482Y-28642D01*
X35488Y-28627D01*
X35489Y-28567D01*
X35489Y-28467D01*
X35480Y-28447D01*
X35488Y-28427D01*
X35489Y-28367D01*
X35489Y-28267D01*
X35480Y-28247D01*
X35488Y-28227D01*
X35489Y-28167D01*
X35489Y-28067D01*
X35482Y-28052D01*
X35488Y-28037D01*
X35489Y-27977D01*
X35489Y-27877D01*
X35480Y-27857D01*
X35488Y-27837D01*
X35489Y-27777D01*
X35489Y-27677D01*
X35480Y-27657D01*
X35488Y-27637D01*
X35489Y-27577D01*
X35489Y-27477D01*
X35482Y-27462D01*
X35488Y-27447D01*
X35489Y-27387D01*
X35489Y-27287D01*
X35480Y-27267D01*
X35488Y-27247D01*
X35489Y-27187D01*
X35489Y-27087D01*
X35477Y-27059D01*
X35508Y-27090D01*
X35508Y-27322D01*
X35523Y-27399D01*
X35567Y-27464D01*
X36079Y-27976D01*
X36079Y-27976D01*
X36122Y-28005D01*
X36143Y-28019D01*
X36143Y-28019D01*
X36220Y-28034D01*
X36623Y-28034D01*
X36614Y-28044D01*
X36564Y-28163D01*
X36564Y-28292D01*
X36614Y-28412D01*
X36639Y-28437D01*
X36639Y-28982D01*
G54D10*
G36*
X37423Y-24853D02*
X36351Y-23781D01*
X36294Y-23743D01*
X36227Y-23730D01*
X34587Y-23730D01*
X34587Y-23710D01*
X34587Y-23316D01*
X34564Y-23261D01*
X34543Y-23240D01*
X34527Y-23201D01*
X34488Y-23162D01*
X34579Y-23125D01*
X34635Y-23068D01*
X34635Y-23135D01*
X34684Y-23254D01*
X34776Y-23346D01*
X34895Y-23395D01*
X35024Y-23395D01*
X35144Y-23346D01*
X35220Y-23270D01*
X35944Y-23270D01*
X36021Y-23255D01*
X36086Y-23212D01*
X36138Y-23159D01*
X36245Y-23159D01*
X36321Y-23128D01*
X36321Y-23661D01*
X36334Y-23728D01*
X36372Y-23785D01*
X36726Y-24139D01*
X36783Y-24177D01*
X36783Y-24177D01*
X36850Y-24190D01*
X37171Y-24190D01*
X37423Y-24442D01*
X37423Y-24853D01*
X37423Y-24853D01*
G37*
G54D26*
X37423Y-24853D02*
X36351Y-23781D01*
X36294Y-23743D01*
X36227Y-23730D01*
X34587Y-23730D01*
X34587Y-23710D01*
X34587Y-23316D01*
X34564Y-23261D01*
X34543Y-23240D01*
X34527Y-23201D01*
X34488Y-23162D01*
X34579Y-23125D01*
X34635Y-23068D01*
X34635Y-23135D01*
X34684Y-23254D01*
X34776Y-23346D01*
X34895Y-23395D01*
X35024Y-23395D01*
X35144Y-23346D01*
X35220Y-23270D01*
X35944Y-23270D01*
X36021Y-23255D01*
X36086Y-23212D01*
X36138Y-23159D01*
X36245Y-23159D01*
X36321Y-23128D01*
X36321Y-23661D01*
X36334Y-23728D01*
X36372Y-23785D01*
X36726Y-24139D01*
X36783Y-24177D01*
X36783Y-24177D01*
X36850Y-24190D01*
X37171Y-24190D01*
X37423Y-24442D01*
X37423Y-24853D01*
G54D10*
G36*
X37798Y-30185D02*
X37673Y-30311D01*
X36421Y-30311D01*
X36184Y-30074D01*
X36184Y-29803D01*
X36179Y-29778D01*
X36191Y-29749D01*
X36191Y-29620D01*
X36146Y-29512D01*
X36476Y-29512D01*
X36491Y-29522D01*
X36567Y-29537D01*
X36644Y-29522D01*
X36709Y-29478D01*
X36930Y-29257D01*
X36985Y-29246D01*
X37066Y-29192D01*
X37120Y-29111D01*
X37139Y-29015D01*
X37139Y-28438D01*
X37165Y-28412D01*
X37214Y-28293D01*
X37214Y-28163D01*
X37189Y-28101D01*
X37300Y-28212D01*
X37300Y-29720D01*
X37244Y-29776D01*
X37194Y-29895D01*
X37194Y-30024D01*
X37244Y-30144D01*
X37335Y-30235D01*
X37454Y-30285D01*
X37584Y-30285D01*
X37703Y-30236D01*
X37795Y-30144D01*
X37798Y-30135D01*
X37798Y-30185D01*
X37798Y-30185D01*
G37*
G54D26*
X37798Y-30185D02*
X37673Y-30311D01*
X36421Y-30311D01*
X36184Y-30074D01*
X36184Y-29803D01*
X36179Y-29778D01*
X36191Y-29749D01*
X36191Y-29620D01*
X36146Y-29512D01*
X36476Y-29512D01*
X36491Y-29522D01*
X36567Y-29537D01*
X36644Y-29522D01*
X36709Y-29478D01*
X36930Y-29257D01*
X36985Y-29246D01*
X37066Y-29192D01*
X37120Y-29111D01*
X37139Y-29015D01*
X37139Y-28438D01*
X37165Y-28412D01*
X37214Y-28293D01*
X37214Y-28163D01*
X37189Y-28101D01*
X37300Y-28212D01*
X37300Y-29720D01*
X37244Y-29776D01*
X37194Y-29895D01*
X37194Y-30024D01*
X37244Y-30144D01*
X37335Y-30235D01*
X37454Y-30285D01*
X37584Y-30285D01*
X37703Y-30236D01*
X37795Y-30144D01*
X37798Y-30135D01*
X37798Y-30185D01*
G54D10*
G36*
X37823Y-31441D02*
X37742Y-31407D01*
X37612Y-31407D01*
X37493Y-31456D01*
X37401Y-31547D01*
X37360Y-31648D01*
X37348Y-31643D01*
X37219Y-31643D01*
X37099Y-31692D01*
X37008Y-31784D01*
X36958Y-31903D01*
X36958Y-32032D01*
X37007Y-32152D01*
X37082Y-32227D01*
X37029Y-32227D01*
X36929Y-32227D01*
X36908Y-32235D01*
X36888Y-32227D01*
X36829Y-32227D01*
X36729Y-32227D01*
X36714Y-32233D01*
X36698Y-32227D01*
X36639Y-32227D01*
X36539Y-32227D01*
X36518Y-32235D01*
X36498Y-32227D01*
X36439Y-32227D01*
X36339Y-32227D01*
X36318Y-32235D01*
X36298Y-32227D01*
X36239Y-32227D01*
X36139Y-32227D01*
X36124Y-32233D01*
X36108Y-32227D01*
X36049Y-32227D01*
X36003Y-32227D01*
X36003Y-32168D01*
X36010Y-32165D01*
X36102Y-32074D01*
X36151Y-31954D01*
X36151Y-31825D01*
X36102Y-31705D01*
X36011Y-31614D01*
X35891Y-31564D01*
X35762Y-31564D01*
X35647Y-31612D01*
X35647Y-31377D01*
X35634Y-31310D01*
X35596Y-31254D01*
X35515Y-31173D01*
X35488Y-31155D01*
X35489Y-31127D01*
X35489Y-31027D01*
X35480Y-31007D01*
X35488Y-30987D01*
X35489Y-30927D01*
X35489Y-30827D01*
X35480Y-30807D01*
X35488Y-30787D01*
X35489Y-30727D01*
X35489Y-30627D01*
X35482Y-30612D01*
X35488Y-30597D01*
X35489Y-30537D01*
X35489Y-30437D01*
X35480Y-30417D01*
X35488Y-30397D01*
X35489Y-30337D01*
X35489Y-30237D01*
X35480Y-30217D01*
X35488Y-30197D01*
X35489Y-30137D01*
X35489Y-30037D01*
X35482Y-30022D01*
X35488Y-30007D01*
X35488Y-29981D01*
X35551Y-29918D01*
X35581Y-29846D01*
X35590Y-29868D01*
X35681Y-29960D01*
X35784Y-30002D01*
X35784Y-30157D01*
X35799Y-30234D01*
X35842Y-30298D01*
X36197Y-30653D01*
X36262Y-30696D01*
X36262Y-30696D01*
X36338Y-30711D01*
X37755Y-30711D01*
X37823Y-30698D01*
X37823Y-31441D01*
X37823Y-31441D01*
G37*
G54D26*
X37823Y-31441D02*
X37742Y-31407D01*
X37612Y-31407D01*
X37493Y-31456D01*
X37401Y-31547D01*
X37360Y-31648D01*
X37348Y-31643D01*
X37219Y-31643D01*
X37099Y-31692D01*
X37008Y-31784D01*
X36958Y-31903D01*
X36958Y-32032D01*
X37007Y-32152D01*
X37082Y-32227D01*
X37029Y-32227D01*
X36929Y-32227D01*
X36908Y-32235D01*
X36888Y-32227D01*
X36829Y-32227D01*
X36729Y-32227D01*
X36714Y-32233D01*
X36698Y-32227D01*
X36639Y-32227D01*
X36539Y-32227D01*
X36518Y-32235D01*
X36498Y-32227D01*
X36439Y-32227D01*
X36339Y-32227D01*
X36318Y-32235D01*
X36298Y-32227D01*
X36239Y-32227D01*
X36139Y-32227D01*
X36124Y-32233D01*
X36108Y-32227D01*
X36049Y-32227D01*
X36003Y-32227D01*
X36003Y-32168D01*
X36010Y-32165D01*
X36102Y-32074D01*
X36151Y-31954D01*
X36151Y-31825D01*
X36102Y-31705D01*
X36011Y-31614D01*
X35891Y-31564D01*
X35762Y-31564D01*
X35647Y-31612D01*
X35647Y-31377D01*
X35634Y-31310D01*
X35596Y-31254D01*
X35515Y-31173D01*
X35488Y-31155D01*
X35489Y-31127D01*
X35489Y-31027D01*
X35480Y-31007D01*
X35488Y-30987D01*
X35489Y-30927D01*
X35489Y-30827D01*
X35480Y-30807D01*
X35488Y-30787D01*
X35489Y-30727D01*
X35489Y-30627D01*
X35482Y-30612D01*
X35488Y-30597D01*
X35489Y-30537D01*
X35489Y-30437D01*
X35480Y-30417D01*
X35488Y-30397D01*
X35489Y-30337D01*
X35489Y-30237D01*
X35480Y-30217D01*
X35488Y-30197D01*
X35489Y-30137D01*
X35489Y-30037D01*
X35482Y-30022D01*
X35488Y-30007D01*
X35488Y-29981D01*
X35551Y-29918D01*
X35581Y-29846D01*
X35590Y-29868D01*
X35681Y-29960D01*
X35784Y-30002D01*
X35784Y-30157D01*
X35799Y-30234D01*
X35842Y-30298D01*
X36197Y-30653D01*
X36262Y-30696D01*
X36262Y-30696D01*
X36338Y-30711D01*
X37755Y-30711D01*
X37823Y-30698D01*
X37823Y-31441D01*
G54D10*
G36*
X38013Y-26935D02*
X37829Y-27120D01*
X37791Y-27177D01*
X37777Y-27244D01*
X37777Y-27433D01*
X37791Y-27500D01*
X37829Y-27557D01*
X37863Y-27592D01*
X37863Y-29382D01*
X37857Y-29386D01*
X37814Y-29451D01*
X37798Y-29528D01*
X37798Y-29785D01*
X37795Y-29776D01*
X37704Y-29685D01*
X37700Y-29683D01*
X37700Y-28129D01*
X37684Y-28053D01*
X37684Y-28053D01*
X37641Y-27988D01*
X37346Y-27693D01*
X37281Y-27649D01*
X37204Y-27634D01*
X36303Y-27634D01*
X36237Y-27569D01*
X36363Y-27569D01*
X36483Y-27519D01*
X36574Y-27428D01*
X36624Y-27309D01*
X36624Y-27179D01*
X36574Y-27060D01*
X36483Y-26968D01*
X36364Y-26919D01*
X36234Y-26919D01*
X36225Y-26922D01*
X36123Y-26821D01*
X36139Y-26827D01*
X36198Y-26827D01*
X36298Y-26827D01*
X36318Y-26819D01*
X36339Y-26827D01*
X36398Y-26827D01*
X36498Y-26827D01*
X36513Y-26821D01*
X36529Y-26827D01*
X36588Y-26827D01*
X36688Y-26827D01*
X36708Y-26819D01*
X36729Y-26827D01*
X36788Y-26827D01*
X36888Y-26827D01*
X36908Y-26819D01*
X36929Y-26827D01*
X36988Y-26827D01*
X37088Y-26827D01*
X37103Y-26821D01*
X37119Y-26827D01*
X37178Y-26827D01*
X37278Y-26827D01*
X37298Y-26819D01*
X37319Y-26827D01*
X37378Y-26827D01*
X37478Y-26827D01*
X37498Y-26819D01*
X37519Y-26827D01*
X37578Y-26827D01*
X37678Y-26827D01*
X37693Y-26821D01*
X37709Y-26827D01*
X37768Y-26827D01*
X37868Y-26827D01*
X37888Y-26819D01*
X37909Y-26827D01*
X37968Y-26827D01*
X38013Y-26827D01*
X38013Y-26935D01*
X38013Y-26935D01*
G37*
G54D26*
X38013Y-26935D02*
X37829Y-27120D01*
X37791Y-27177D01*
X37777Y-27244D01*
X37777Y-27433D01*
X37791Y-27500D01*
X37829Y-27557D01*
X37863Y-27592D01*
X37863Y-29382D01*
X37857Y-29386D01*
X37814Y-29451D01*
X37798Y-29528D01*
X37798Y-29785D01*
X37795Y-29776D01*
X37704Y-29685D01*
X37700Y-29683D01*
X37700Y-28129D01*
X37684Y-28053D01*
X37684Y-28053D01*
X37641Y-27988D01*
X37346Y-27693D01*
X37281Y-27649D01*
X37204Y-27634D01*
X36303Y-27634D01*
X36237Y-27569D01*
X36363Y-27569D01*
X36483Y-27519D01*
X36574Y-27428D01*
X36624Y-27309D01*
X36624Y-27179D01*
X36574Y-27060D01*
X36483Y-26968D01*
X36364Y-26919D01*
X36234Y-26919D01*
X36225Y-26922D01*
X36123Y-26821D01*
X36139Y-26827D01*
X36198Y-26827D01*
X36298Y-26827D01*
X36318Y-26819D01*
X36339Y-26827D01*
X36398Y-26827D01*
X36498Y-26827D01*
X36513Y-26821D01*
X36529Y-26827D01*
X36588Y-26827D01*
X36688Y-26827D01*
X36708Y-26819D01*
X36729Y-26827D01*
X36788Y-26827D01*
X36888Y-26827D01*
X36908Y-26819D01*
X36929Y-26827D01*
X36988Y-26827D01*
X37088Y-26827D01*
X37103Y-26821D01*
X37119Y-26827D01*
X37178Y-26827D01*
X37278Y-26827D01*
X37298Y-26819D01*
X37319Y-26827D01*
X37378Y-26827D01*
X37478Y-26827D01*
X37498Y-26819D01*
X37519Y-26827D01*
X37578Y-26827D01*
X37678Y-26827D01*
X37693Y-26821D01*
X37709Y-26827D01*
X37768Y-26827D01*
X37868Y-26827D01*
X37888Y-26819D01*
X37909Y-26827D01*
X37968Y-26827D01*
X38013Y-26827D01*
X38013Y-26935D01*
G54D10*
G36*
X38096Y-23943D02*
X38063Y-24024D01*
X37775Y-24311D01*
X37765Y-24327D01*
X37760Y-24303D01*
X37760Y-24303D01*
X37722Y-24246D01*
X37401Y-23925D01*
X37444Y-23881D01*
X37482Y-23789D01*
X37482Y-23655D01*
X37420Y-23593D01*
X37057Y-23593D01*
X37057Y-23601D01*
X36957Y-23601D01*
X36957Y-23593D01*
X36950Y-23593D01*
X36950Y-23493D01*
X36957Y-23493D01*
X36957Y-23158D01*
X36895Y-23096D01*
X36832Y-23096D01*
X36732Y-23096D01*
X36671Y-23122D01*
X36671Y-23013D01*
X36697Y-23040D01*
X36752Y-23063D01*
X36812Y-23063D01*
X37262Y-23063D01*
X37308Y-23044D01*
X37315Y-23076D01*
X37346Y-23122D01*
X37282Y-23096D01*
X37183Y-23096D01*
X37120Y-23096D01*
X37057Y-23158D01*
X37057Y-23493D01*
X37420Y-23493D01*
X37482Y-23430D01*
X37482Y-23296D01*
X37460Y-23243D01*
X37468Y-23251D01*
X37468Y-23251D01*
X37512Y-23280D01*
X37533Y-23295D01*
X37533Y-23295D01*
X37610Y-23310D01*
X37610Y-23310D01*
X37653Y-23310D01*
X37729Y-23385D01*
X37848Y-23435D01*
X37977Y-23435D01*
X38096Y-23386D01*
X38096Y-23943D01*
X38096Y-23943D01*
G37*
G54D26*
X38096Y-23943D02*
X38063Y-24024D01*
X37775Y-24311D01*
X37765Y-24327D01*
X37760Y-24303D01*
X37760Y-24303D01*
X37722Y-24246D01*
X37401Y-23925D01*
X37444Y-23881D01*
X37482Y-23789D01*
X37482Y-23655D01*
X37420Y-23593D01*
X37057Y-23593D01*
X37057Y-23601D01*
X36957Y-23601D01*
X36957Y-23593D01*
X36950Y-23593D01*
X36950Y-23493D01*
X36957Y-23493D01*
X36957Y-23158D01*
X36895Y-23096D01*
X36832Y-23096D01*
X36732Y-23096D01*
X36671Y-23122D01*
X36671Y-23013D01*
X36697Y-23040D01*
X36752Y-23063D01*
X36812Y-23063D01*
X37262Y-23063D01*
X37308Y-23044D01*
X37315Y-23076D01*
X37346Y-23122D01*
X37282Y-23096D01*
X37183Y-23096D01*
X37120Y-23096D01*
X37057Y-23158D01*
X37057Y-23493D01*
X37420Y-23493D01*
X37482Y-23430D01*
X37482Y-23296D01*
X37460Y-23243D01*
X37468Y-23251D01*
X37468Y-23251D01*
X37512Y-23280D01*
X37533Y-23295D01*
X37533Y-23295D01*
X37610Y-23310D01*
X37610Y-23310D01*
X37653Y-23310D01*
X37729Y-23385D01*
X37848Y-23435D01*
X37977Y-23435D01*
X38096Y-23386D01*
X38096Y-23943D01*
G54D10*
G36*
X38466Y-26927D02*
X38403Y-26927D01*
X38403Y-27169D01*
X38320Y-27204D01*
X38228Y-27295D01*
X38178Y-27415D01*
X38178Y-27420D01*
X38162Y-27395D01*
X38162Y-27395D01*
X38127Y-27360D01*
X38127Y-27316D01*
X38312Y-27131D01*
X38350Y-27074D01*
X38350Y-27074D01*
X38363Y-27007D01*
X38363Y-26927D01*
X38341Y-26927D01*
X38341Y-26927D01*
X38363Y-26927D01*
X38363Y-26764D01*
X38366Y-26762D01*
X38383Y-26719D01*
X38401Y-26762D01*
X38403Y-26764D01*
X38403Y-26865D01*
X38403Y-26927D01*
X38466Y-26927D01*
X38466Y-26927D01*
X38466Y-26927D01*
G37*
G54D26*
X38466Y-26927D02*
X38403Y-26927D01*
X38403Y-27169D01*
X38320Y-27204D01*
X38228Y-27295D01*
X38178Y-27415D01*
X38178Y-27420D01*
X38162Y-27395D01*
X38162Y-27395D01*
X38127Y-27360D01*
X38127Y-27316D01*
X38312Y-27131D01*
X38350Y-27074D01*
X38350Y-27074D01*
X38363Y-27007D01*
X38363Y-26927D01*
X38341Y-26927D01*
X38341Y-26927D01*
X38363Y-26927D01*
X38363Y-26764D01*
X38366Y-26762D01*
X38383Y-26719D01*
X38401Y-26762D01*
X38403Y-26764D01*
X38403Y-26865D01*
X38403Y-26927D01*
X38466Y-26927D01*
X38466Y-26927D01*
G54D10*
G36*
X38603Y-26099D02*
X38570Y-26065D01*
X38478Y-26027D01*
X38466Y-26027D01*
X38403Y-26090D01*
X38403Y-26190D01*
X38401Y-26192D01*
X38383Y-26235D01*
X38366Y-26192D01*
X38363Y-26190D01*
X38363Y-26027D01*
X38291Y-26027D01*
X38291Y-26027D01*
X38363Y-26027D01*
X38363Y-25358D01*
X38372Y-25354D01*
X38464Y-25263D01*
X38513Y-25143D01*
X38514Y-25014D01*
X38464Y-24894D01*
X38373Y-24803D01*
X38253Y-24753D01*
X38217Y-24753D01*
X38202Y-24738D01*
X38202Y-24591D01*
X38375Y-24419D01*
X38450Y-24419D01*
X38569Y-24370D01*
X38603Y-24335D01*
X38603Y-26099D01*
X38603Y-26099D01*
G37*
G54D26*
X38603Y-26099D02*
X38570Y-26065D01*
X38478Y-26027D01*
X38466Y-26027D01*
X38403Y-26090D01*
X38403Y-26190D01*
X38401Y-26192D01*
X38383Y-26235D01*
X38366Y-26192D01*
X38363Y-26190D01*
X38363Y-26027D01*
X38291Y-26027D01*
X38291Y-26027D01*
X38363Y-26027D01*
X38363Y-25358D01*
X38372Y-25354D01*
X38464Y-25263D01*
X38513Y-25143D01*
X38514Y-25014D01*
X38464Y-24894D01*
X38373Y-24803D01*
X38253Y-24753D01*
X38217Y-24753D01*
X38202Y-24738D01*
X38202Y-24591D01*
X38375Y-24419D01*
X38450Y-24419D01*
X38569Y-24370D01*
X38603Y-24335D01*
X38603Y-26099D01*
G54D10*
G36*
X39327Y-36042D02*
X39301Y-36042D01*
X39245Y-36065D01*
X39203Y-36107D01*
X39180Y-36162D01*
X39180Y-36222D01*
X39180Y-36570D01*
X39021Y-36411D01*
X38964Y-36373D01*
X38897Y-36360D01*
X38655Y-36360D01*
X37879Y-35584D01*
X37773Y-35478D01*
X37773Y-34695D01*
X37820Y-34695D01*
X37939Y-34645D01*
X38031Y-34554D01*
X38080Y-34435D01*
X38080Y-34305D01*
X38031Y-34186D01*
X37940Y-34094D01*
X37820Y-34045D01*
X37691Y-34045D01*
X37573Y-34093D01*
X37573Y-32927D01*
X37578Y-32927D01*
X37678Y-32927D01*
X37698Y-32919D01*
X37719Y-32927D01*
X37778Y-32927D01*
X37878Y-32927D01*
X37898Y-32919D01*
X37919Y-32927D01*
X37935Y-32927D01*
X37997Y-32989D01*
X38089Y-33027D01*
X38101Y-33027D01*
X38163Y-32965D01*
X38163Y-32874D01*
X38176Y-32862D01*
X38193Y-32819D01*
X38211Y-32862D01*
X38213Y-32864D01*
X38213Y-32965D01*
X38276Y-33027D01*
X38288Y-33027D01*
X38380Y-32989D01*
X38442Y-32927D01*
X38468Y-32927D01*
X38488Y-32919D01*
X38509Y-32927D01*
X38568Y-32927D01*
X38668Y-32927D01*
X38683Y-32921D01*
X38699Y-32927D01*
X38758Y-32927D01*
X38803Y-32927D01*
X38803Y-34556D01*
X38793Y-34556D01*
X38674Y-34606D01*
X38582Y-34697D01*
X38533Y-34816D01*
X38533Y-34946D01*
X38582Y-35065D01*
X38673Y-35157D01*
X38793Y-35206D01*
X38922Y-35206D01*
X39042Y-35157D01*
X39133Y-35066D01*
X39183Y-34946D01*
X39183Y-34817D01*
X39172Y-34792D01*
X39176Y-34774D01*
X39327Y-34925D01*
X39327Y-35370D01*
X39252Y-35445D01*
X39202Y-35564D01*
X39202Y-35694D01*
X39251Y-35813D01*
X39327Y-35889D01*
X39327Y-36042D01*
X39327Y-36042D01*
G37*
G54D26*
X39327Y-36042D02*
X39301Y-36042D01*
X39245Y-36065D01*
X39203Y-36107D01*
X39180Y-36162D01*
X39180Y-36222D01*
X39180Y-36570D01*
X39021Y-36411D01*
X38964Y-36373D01*
X38897Y-36360D01*
X38655Y-36360D01*
X37879Y-35584D01*
X37773Y-35478D01*
X37773Y-34695D01*
X37820Y-34695D01*
X37939Y-34645D01*
X38031Y-34554D01*
X38080Y-34435D01*
X38080Y-34305D01*
X38031Y-34186D01*
X37940Y-34094D01*
X37820Y-34045D01*
X37691Y-34045D01*
X37573Y-34093D01*
X37573Y-32927D01*
X37578Y-32927D01*
X37678Y-32927D01*
X37698Y-32919D01*
X37719Y-32927D01*
X37778Y-32927D01*
X37878Y-32927D01*
X37898Y-32919D01*
X37919Y-32927D01*
X37935Y-32927D01*
X37997Y-32989D01*
X38089Y-33027D01*
X38101Y-33027D01*
X38163Y-32965D01*
X38163Y-32874D01*
X38176Y-32862D01*
X38193Y-32819D01*
X38211Y-32862D01*
X38213Y-32864D01*
X38213Y-32965D01*
X38276Y-33027D01*
X38288Y-33027D01*
X38380Y-32989D01*
X38442Y-32927D01*
X38468Y-32927D01*
X38488Y-32919D01*
X38509Y-32927D01*
X38568Y-32927D01*
X38668Y-32927D01*
X38683Y-32921D01*
X38699Y-32927D01*
X38758Y-32927D01*
X38803Y-32927D01*
X38803Y-34556D01*
X38793Y-34556D01*
X38674Y-34606D01*
X38582Y-34697D01*
X38533Y-34816D01*
X38533Y-34946D01*
X38582Y-35065D01*
X38673Y-35157D01*
X38793Y-35206D01*
X38922Y-35206D01*
X39042Y-35157D01*
X39133Y-35066D01*
X39183Y-34946D01*
X39183Y-34817D01*
X39172Y-34792D01*
X39176Y-34774D01*
X39327Y-34925D01*
X39327Y-35370D01*
X39252Y-35445D01*
X39202Y-35564D01*
X39202Y-35694D01*
X39251Y-35813D01*
X39327Y-35889D01*
X39327Y-36042D01*
G54D10*
G36*
X39919Y-29577D02*
X39859Y-29577D01*
X39797Y-29640D01*
X39797Y-29703D01*
X39797Y-29714D01*
X39778Y-29714D01*
X39658Y-29763D01*
X39567Y-29855D01*
X39517Y-29974D01*
X39517Y-30103D01*
X39566Y-30223D01*
X39588Y-30245D01*
X39588Y-31266D01*
X39522Y-31332D01*
X39513Y-31328D01*
X39384Y-31328D01*
X39264Y-31377D01*
X39173Y-31469D01*
X39123Y-31588D01*
X39123Y-31717D01*
X39146Y-31772D01*
X39120Y-31761D01*
X38990Y-31761D01*
X38871Y-31810D01*
X38779Y-31902D01*
X38730Y-32021D01*
X38730Y-32150D01*
X38761Y-32227D01*
X38699Y-32227D01*
X38684Y-32233D01*
X38668Y-32227D01*
X38609Y-32227D01*
X38563Y-32227D01*
X38563Y-29176D01*
X38675Y-29222D01*
X38804Y-29222D01*
X38924Y-29173D01*
X38949Y-29147D01*
X39228Y-29147D01*
X39228Y-29191D01*
X39250Y-29246D01*
X39293Y-29289D01*
X39348Y-29311D01*
X39407Y-29312D01*
X39657Y-29312D01*
X39713Y-29289D01*
X39755Y-29247D01*
X39778Y-29191D01*
X39778Y-29185D01*
X39825Y-29185D01*
X39797Y-29252D01*
X39797Y-29352D01*
X39797Y-29415D01*
X39859Y-29477D01*
X39919Y-29477D01*
X39909Y-29527D01*
X39919Y-29577D01*
X39919Y-29577D01*
G37*
G54D26*
X39919Y-29577D02*
X39859Y-29577D01*
X39797Y-29640D01*
X39797Y-29703D01*
X39797Y-29714D01*
X39778Y-29714D01*
X39658Y-29763D01*
X39567Y-29855D01*
X39517Y-29974D01*
X39517Y-30103D01*
X39566Y-30223D01*
X39588Y-30245D01*
X39588Y-31266D01*
X39522Y-31332D01*
X39513Y-31328D01*
X39384Y-31328D01*
X39264Y-31377D01*
X39173Y-31469D01*
X39123Y-31588D01*
X39123Y-31717D01*
X39146Y-31772D01*
X39120Y-31761D01*
X38990Y-31761D01*
X38871Y-31810D01*
X38779Y-31902D01*
X38730Y-32021D01*
X38730Y-32150D01*
X38761Y-32227D01*
X38699Y-32227D01*
X38684Y-32233D01*
X38668Y-32227D01*
X38609Y-32227D01*
X38563Y-32227D01*
X38563Y-29176D01*
X38675Y-29222D01*
X38804Y-29222D01*
X38924Y-29173D01*
X38949Y-29147D01*
X39228Y-29147D01*
X39228Y-29191D01*
X39250Y-29246D01*
X39293Y-29289D01*
X39348Y-29311D01*
X39407Y-29312D01*
X39657Y-29312D01*
X39713Y-29289D01*
X39755Y-29247D01*
X39778Y-29191D01*
X39778Y-29185D01*
X39825Y-29185D01*
X39797Y-29252D01*
X39797Y-29352D01*
X39797Y-29415D01*
X39859Y-29477D01*
X39919Y-29477D01*
X39909Y-29527D01*
X39919Y-29577D01*
G54D10*
G36*
X40897Y-28637D02*
X40889Y-28657D01*
X40888Y-28683D01*
X40826Y-28746D01*
X40788Y-28838D01*
X40788Y-28848D01*
X40753Y-28813D01*
X40696Y-28775D01*
X40629Y-28762D01*
X40378Y-28762D01*
X40378Y-28682D01*
X40355Y-28627D01*
X40313Y-28584D01*
X40298Y-28578D01*
X40223Y-28504D01*
X40104Y-28454D01*
X39975Y-28454D01*
X39855Y-28503D01*
X39764Y-28595D01*
X39752Y-28623D01*
X39713Y-28584D01*
X39658Y-28562D01*
X39598Y-28561D01*
X39348Y-28561D01*
X39293Y-28584D01*
X39251Y-28626D01*
X39242Y-28647D01*
X38949Y-28647D01*
X38924Y-28622D01*
X38805Y-28572D01*
X38675Y-28572D01*
X38563Y-28618D01*
X38563Y-27805D01*
X38568Y-27805D01*
X38687Y-27755D01*
X38779Y-27664D01*
X38828Y-27545D01*
X38828Y-27415D01*
X38786Y-27313D01*
X38832Y-27332D01*
X38962Y-27332D01*
X39081Y-27283D01*
X39107Y-27257D01*
X39357Y-27257D01*
X39382Y-27283D01*
X39501Y-27332D01*
X39631Y-27332D01*
X39667Y-27317D01*
X39667Y-27811D01*
X39635Y-27887D01*
X39635Y-28017D01*
X39684Y-28136D01*
X39776Y-28228D01*
X39895Y-28277D01*
X40024Y-28277D01*
X40144Y-28228D01*
X40235Y-28137D01*
X40285Y-28017D01*
X40285Y-27888D01*
X40236Y-27768D01*
X40144Y-27677D01*
X40025Y-27627D01*
X40017Y-27627D01*
X40017Y-27316D01*
X40033Y-27300D01*
X40376Y-27300D01*
X40376Y-27988D01*
X40367Y-27992D01*
X40275Y-28083D01*
X40226Y-28202D01*
X40226Y-28332D01*
X40275Y-28451D01*
X40366Y-28543D01*
X40486Y-28592D01*
X40615Y-28592D01*
X40735Y-28543D01*
X40826Y-28452D01*
X40876Y-28332D01*
X40876Y-28203D01*
X40826Y-28083D01*
X40735Y-27992D01*
X40726Y-27988D01*
X40726Y-27355D01*
X40739Y-27342D01*
X40888Y-27342D01*
X40888Y-27437D01*
X40897Y-27457D01*
X40889Y-27477D01*
X40888Y-27537D01*
X40888Y-27637D01*
X40897Y-27657D01*
X40889Y-27677D01*
X40888Y-27737D01*
X40888Y-27837D01*
X40895Y-27852D01*
X40889Y-27867D01*
X40888Y-27927D01*
X40888Y-28027D01*
X40897Y-28047D01*
X40889Y-28067D01*
X40888Y-28127D01*
X40888Y-28227D01*
X40897Y-28247D01*
X40889Y-28267D01*
X40888Y-28327D01*
X40888Y-28427D01*
X40895Y-28442D01*
X40889Y-28457D01*
X40888Y-28517D01*
X40888Y-28617D01*
X40897Y-28637D01*
X40897Y-28637D01*
G37*
G54D26*
X40897Y-28637D02*
X40889Y-28657D01*
X40888Y-28683D01*
X40826Y-28746D01*
X40788Y-28838D01*
X40788Y-28848D01*
X40753Y-28813D01*
X40696Y-28775D01*
X40629Y-28762D01*
X40378Y-28762D01*
X40378Y-28682D01*
X40355Y-28627D01*
X40313Y-28584D01*
X40298Y-28578D01*
X40223Y-28504D01*
X40104Y-28454D01*
X39975Y-28454D01*
X39855Y-28503D01*
X39764Y-28595D01*
X39752Y-28623D01*
X39713Y-28584D01*
X39658Y-28562D01*
X39598Y-28561D01*
X39348Y-28561D01*
X39293Y-28584D01*
X39251Y-28626D01*
X39242Y-28647D01*
X38949Y-28647D01*
X38924Y-28622D01*
X38805Y-28572D01*
X38675Y-28572D01*
X38563Y-28618D01*
X38563Y-27805D01*
X38568Y-27805D01*
X38687Y-27755D01*
X38779Y-27664D01*
X38828Y-27545D01*
X38828Y-27415D01*
X38786Y-27313D01*
X38832Y-27332D01*
X38962Y-27332D01*
X39081Y-27283D01*
X39107Y-27257D01*
X39357Y-27257D01*
X39382Y-27283D01*
X39501Y-27332D01*
X39631Y-27332D01*
X39667Y-27317D01*
X39667Y-27811D01*
X39635Y-27887D01*
X39635Y-28017D01*
X39684Y-28136D01*
X39776Y-28228D01*
X39895Y-28277D01*
X40024Y-28277D01*
X40144Y-28228D01*
X40235Y-28137D01*
X40285Y-28017D01*
X40285Y-27888D01*
X40236Y-27768D01*
X40144Y-27677D01*
X40025Y-27627D01*
X40017Y-27627D01*
X40017Y-27316D01*
X40033Y-27300D01*
X40376Y-27300D01*
X40376Y-27988D01*
X40367Y-27992D01*
X40275Y-28083D01*
X40226Y-28202D01*
X40226Y-28332D01*
X40275Y-28451D01*
X40366Y-28543D01*
X40486Y-28592D01*
X40615Y-28592D01*
X40735Y-28543D01*
X40826Y-28452D01*
X40876Y-28332D01*
X40876Y-28203D01*
X40826Y-28083D01*
X40735Y-27992D01*
X40726Y-27988D01*
X40726Y-27355D01*
X40739Y-27342D01*
X40888Y-27342D01*
X40888Y-27437D01*
X40897Y-27457D01*
X40889Y-27477D01*
X40888Y-27537D01*
X40888Y-27637D01*
X40897Y-27657D01*
X40889Y-27677D01*
X40888Y-27737D01*
X40888Y-27837D01*
X40895Y-27852D01*
X40889Y-27867D01*
X40888Y-27927D01*
X40888Y-28027D01*
X40897Y-28047D01*
X40889Y-28067D01*
X40888Y-28127D01*
X40888Y-28227D01*
X40897Y-28247D01*
X40889Y-28267D01*
X40888Y-28327D01*
X40888Y-28427D01*
X40895Y-28442D01*
X40889Y-28457D01*
X40888Y-28517D01*
X40888Y-28617D01*
X40897Y-28637D01*
G54D10*
G36*
X40901Y-31997D02*
X40866Y-31990D01*
X39842Y-31990D01*
X39775Y-32003D01*
X39735Y-31962D01*
X39678Y-31924D01*
X39643Y-31918D01*
X39724Y-31837D01*
X39773Y-31718D01*
X39773Y-31589D01*
X39770Y-31579D01*
X39887Y-31462D01*
X39887Y-31462D01*
X39887Y-31462D01*
X39925Y-31405D01*
X39938Y-31338D01*
X39938Y-31338D01*
X39938Y-30351D01*
X40026Y-30315D01*
X40117Y-30223D01*
X40167Y-30104D01*
X40167Y-29975D01*
X40122Y-29865D01*
X40122Y-29769D01*
X40157Y-29775D01*
X40222Y-29775D01*
X40222Y-29940D01*
X40284Y-30002D01*
X40344Y-30002D01*
X40344Y-30103D01*
X40393Y-30223D01*
X40484Y-30314D01*
X40513Y-30326D01*
X40446Y-30354D01*
X40354Y-30445D01*
X40304Y-30564D01*
X40304Y-30694D01*
X40354Y-30813D01*
X40445Y-30905D01*
X40564Y-30954D01*
X40632Y-30954D01*
X40691Y-31013D01*
X40565Y-31013D01*
X40446Y-31062D01*
X40354Y-31154D01*
X40304Y-31273D01*
X40304Y-31402D01*
X40354Y-31522D01*
X40445Y-31613D01*
X40564Y-31663D01*
X40694Y-31663D01*
X40813Y-31614D01*
X40888Y-31539D01*
X40888Y-31577D01*
X40895Y-31592D01*
X40889Y-31607D01*
X40888Y-31667D01*
X40888Y-31767D01*
X40897Y-31787D01*
X40889Y-31807D01*
X40888Y-31867D01*
X40888Y-31967D01*
X40901Y-31997D01*
X40901Y-31997D01*
G37*
G54D26*
X40901Y-31997D02*
X40866Y-31990D01*
X39842Y-31990D01*
X39775Y-32003D01*
X39735Y-31962D01*
X39678Y-31924D01*
X39643Y-31918D01*
X39724Y-31837D01*
X39773Y-31718D01*
X39773Y-31589D01*
X39770Y-31579D01*
X39887Y-31462D01*
X39887Y-31462D01*
X39887Y-31462D01*
X39925Y-31405D01*
X39938Y-31338D01*
X39938Y-31338D01*
X39938Y-30351D01*
X40026Y-30315D01*
X40117Y-30223D01*
X40167Y-30104D01*
X40167Y-29975D01*
X40122Y-29865D01*
X40122Y-29769D01*
X40157Y-29775D01*
X40222Y-29775D01*
X40222Y-29940D01*
X40284Y-30002D01*
X40344Y-30002D01*
X40344Y-30103D01*
X40393Y-30223D01*
X40484Y-30314D01*
X40513Y-30326D01*
X40446Y-30354D01*
X40354Y-30445D01*
X40304Y-30564D01*
X40304Y-30694D01*
X40354Y-30813D01*
X40445Y-30905D01*
X40564Y-30954D01*
X40632Y-30954D01*
X40691Y-31013D01*
X40565Y-31013D01*
X40446Y-31062D01*
X40354Y-31154D01*
X40304Y-31273D01*
X40304Y-31402D01*
X40354Y-31522D01*
X40445Y-31613D01*
X40564Y-31663D01*
X40694Y-31663D01*
X40813Y-31614D01*
X40888Y-31539D01*
X40888Y-31577D01*
X40895Y-31592D01*
X40889Y-31607D01*
X40888Y-31667D01*
X40888Y-31767D01*
X40897Y-31787D01*
X40889Y-31807D01*
X40888Y-31867D01*
X40888Y-31967D01*
X40901Y-31997D01*
G54D10*
G36*
X42123Y-26832D02*
X42047Y-26832D01*
X41980Y-26846D01*
X41923Y-26884D01*
X41884Y-26922D01*
X41875Y-26919D01*
X41746Y-26919D01*
X41627Y-26968D01*
X41564Y-27030D01*
X41524Y-26990D01*
X41468Y-26967D01*
X41409Y-26967D01*
X41009Y-26967D01*
X40954Y-26990D01*
X40951Y-26992D01*
X40719Y-26992D01*
X40723Y-26970D01*
X40723Y-26970D01*
X40723Y-26764D01*
X40726Y-26762D01*
X40748Y-26707D01*
X40749Y-26647D01*
X40749Y-26247D01*
X40726Y-26192D01*
X40723Y-26190D01*
X40723Y-23972D01*
X40871Y-23824D01*
X40906Y-23772D01*
X41002Y-23772D01*
X41057Y-23749D01*
X41100Y-23707D01*
X41122Y-23654D01*
X41143Y-23706D01*
X41185Y-23749D01*
X41241Y-23772D01*
X41300Y-23772D01*
X41595Y-23772D01*
X42123Y-24300D01*
X42123Y-26832D01*
X42123Y-26832D01*
G37*
G54D26*
X42123Y-26832D02*
X42047Y-26832D01*
X41980Y-26846D01*
X41923Y-26884D01*
X41884Y-26922D01*
X41875Y-26919D01*
X41746Y-26919D01*
X41627Y-26968D01*
X41564Y-27030D01*
X41524Y-26990D01*
X41468Y-26967D01*
X41409Y-26967D01*
X41009Y-26967D01*
X40954Y-26990D01*
X40951Y-26992D01*
X40719Y-26992D01*
X40723Y-26970D01*
X40723Y-26970D01*
X40723Y-26764D01*
X40726Y-26762D01*
X40748Y-26707D01*
X40749Y-26647D01*
X40749Y-26247D01*
X40726Y-26192D01*
X40723Y-26190D01*
X40723Y-23972D01*
X40871Y-23824D01*
X40906Y-23772D01*
X41002Y-23772D01*
X41057Y-23749D01*
X41100Y-23707D01*
X41122Y-23654D01*
X41143Y-23706D01*
X41185Y-23749D01*
X41241Y-23772D01*
X41300Y-23772D01*
X41595Y-23772D01*
X42123Y-24300D01*
X42123Y-26832D01*
G54D10*
G36*
X44313Y-24931D02*
X43797Y-24415D01*
X43797Y-23836D01*
X44220Y-23836D01*
X44220Y-23916D01*
X44242Y-23971D01*
X44284Y-24013D01*
X44290Y-24015D01*
X44285Y-24017D01*
X44242Y-24059D01*
X44220Y-24115D01*
X44220Y-24174D01*
X44220Y-24624D01*
X44242Y-24679D01*
X44284Y-24722D01*
X44313Y-24733D01*
X44313Y-24931D01*
X44313Y-24931D01*
G37*
G54D26*
X44313Y-24931D02*
X43797Y-24415D01*
X43797Y-23836D01*
X44220Y-23836D01*
X44220Y-23916D01*
X44242Y-23971D01*
X44284Y-24013D01*
X44290Y-24015D01*
X44285Y-24017D01*
X44242Y-24059D01*
X44220Y-24115D01*
X44220Y-24174D01*
X44220Y-24624D01*
X44242Y-24679D01*
X44284Y-24722D01*
X44313Y-24733D01*
X44313Y-24931D01*
G54D10*
G36*
X46161Y-24702D02*
X46118Y-24744D01*
X46066Y-24869D01*
X46057Y-24876D01*
X45899Y-25033D01*
X45861Y-25090D01*
X45848Y-25157D01*
X45848Y-25203D01*
X44718Y-26332D01*
X44680Y-26389D01*
X44667Y-26456D01*
X44667Y-27801D01*
X44565Y-27903D01*
X44249Y-27903D01*
X44257Y-27894D01*
X44295Y-27838D01*
X44295Y-27838D01*
X44308Y-27771D01*
X44308Y-26135D01*
X44611Y-25832D01*
X44649Y-25775D01*
X44649Y-25775D01*
X44663Y-25708D01*
X44663Y-24745D01*
X44793Y-24745D01*
X44848Y-24722D01*
X44890Y-24680D01*
X44913Y-24625D01*
X44913Y-24565D01*
X44913Y-24115D01*
X44891Y-24060D01*
X44848Y-24017D01*
X44843Y-24015D01*
X44848Y-24013D01*
X44890Y-23971D01*
X44913Y-23916D01*
X44913Y-23856D01*
X44913Y-23406D01*
X44896Y-23363D01*
X45064Y-23363D01*
X45046Y-23406D01*
X45046Y-23466D01*
X45046Y-23916D01*
X45069Y-23971D01*
X45111Y-24013D01*
X45117Y-24015D01*
X45111Y-24017D01*
X45069Y-24059D01*
X45046Y-24115D01*
X45046Y-24174D01*
X45046Y-24624D01*
X45069Y-24679D01*
X45111Y-24722D01*
X45166Y-24745D01*
X45226Y-24745D01*
X45620Y-24745D01*
X45675Y-24722D01*
X45695Y-24702D01*
X46161Y-24702D01*
X46161Y-24702D01*
G37*
G54D26*
X46161Y-24702D02*
X46118Y-24744D01*
X46066Y-24869D01*
X46057Y-24876D01*
X45899Y-25033D01*
X45861Y-25090D01*
X45848Y-25157D01*
X45848Y-25203D01*
X44718Y-26332D01*
X44680Y-26389D01*
X44667Y-26456D01*
X44667Y-27801D01*
X44565Y-27903D01*
X44249Y-27903D01*
X44257Y-27894D01*
X44295Y-27838D01*
X44295Y-27838D01*
X44308Y-27771D01*
X44308Y-26135D01*
X44611Y-25832D01*
X44649Y-25775D01*
X44649Y-25775D01*
X44663Y-25708D01*
X44663Y-24745D01*
X44793Y-24745D01*
X44848Y-24722D01*
X44890Y-24680D01*
X44913Y-24625D01*
X44913Y-24565D01*
X44913Y-24115D01*
X44891Y-24060D01*
X44848Y-24017D01*
X44843Y-24015D01*
X44848Y-24013D01*
X44890Y-23971D01*
X44913Y-23916D01*
X44913Y-23856D01*
X44913Y-23406D01*
X44896Y-23363D01*
X45064Y-23363D01*
X45046Y-23406D01*
X45046Y-23466D01*
X45046Y-23916D01*
X45069Y-23971D01*
X45111Y-24013D01*
X45117Y-24015D01*
X45111Y-24017D01*
X45069Y-24059D01*
X45046Y-24115D01*
X45046Y-24174D01*
X45046Y-24624D01*
X45069Y-24679D01*
X45111Y-24722D01*
X45166Y-24745D01*
X45226Y-24745D01*
X45620Y-24745D01*
X45675Y-24722D01*
X45695Y-24702D01*
X46161Y-24702D01*
G54D10*
G36*
X47851Y-22715D02*
X47755Y-22618D01*
X47589Y-22550D01*
X47410Y-22549D01*
X47245Y-22618D01*
X47118Y-22744D01*
X47050Y-22910D01*
X47049Y-23089D01*
X47083Y-23169D01*
X46949Y-23302D01*
X46950Y-23270D01*
X46950Y-22670D01*
X46927Y-22615D01*
X46885Y-22572D01*
X46829Y-22550D01*
X46770Y-22549D01*
X46170Y-22549D01*
X46115Y-22572D01*
X46072Y-22614D01*
X46050Y-22670D01*
X46049Y-22729D01*
X46049Y-22825D01*
X45554Y-22825D01*
X45554Y-20581D01*
X45543Y-20363D01*
X45481Y-20212D01*
X45385Y-20184D01*
X45315Y-20255D01*
X45315Y-20114D01*
X45287Y-20018D01*
X45081Y-19945D01*
X44863Y-19956D01*
X44712Y-20018D01*
X44684Y-20114D01*
X45000Y-20429D01*
X45315Y-20114D01*
X45315Y-20255D01*
X45070Y-20500D01*
X45385Y-20815D01*
X45481Y-20787D01*
X45554Y-20581D01*
X45554Y-22825D01*
X45450Y-22825D01*
X45450Y-21410D01*
X45381Y-21245D01*
X45255Y-21118D01*
X45089Y-21050D01*
X45013Y-21050D01*
X45136Y-21043D01*
X45287Y-20981D01*
X45315Y-20885D01*
X45000Y-20570D01*
X44929Y-20641D01*
X44929Y-20500D01*
X44614Y-20184D01*
X44518Y-20212D01*
X44501Y-20260D01*
X44481Y-20212D01*
X44385Y-20184D01*
X44315Y-20255D01*
X44315Y-20114D01*
X44287Y-20018D01*
X44081Y-19945D01*
X43863Y-19956D01*
X43712Y-20018D01*
X43684Y-20114D01*
X44000Y-20429D01*
X44315Y-20114D01*
X44315Y-20255D01*
X44070Y-20500D01*
X44385Y-20815D01*
X44481Y-20787D01*
X44498Y-20739D01*
X44518Y-20787D01*
X44614Y-20815D01*
X44929Y-20500D01*
X44929Y-20641D01*
X44684Y-20885D01*
X44712Y-20981D01*
X44907Y-21051D01*
X44745Y-21118D01*
X44618Y-21244D01*
X44550Y-21410D01*
X44549Y-21589D01*
X44618Y-21754D01*
X44744Y-21881D01*
X44800Y-21904D01*
X44800Y-21997D01*
X44738Y-21997D01*
X44619Y-22047D01*
X44527Y-22138D01*
X44478Y-22257D01*
X44478Y-22387D01*
X44527Y-22506D01*
X44618Y-22598D01*
X44738Y-22647D01*
X44867Y-22647D01*
X44987Y-22598D01*
X45078Y-22507D01*
X45128Y-22387D01*
X45128Y-22280D01*
X45141Y-22267D01*
X45141Y-22267D01*
X45170Y-22224D01*
X45184Y-22202D01*
X45184Y-22202D01*
X45199Y-22125D01*
X45200Y-22125D01*
X45200Y-21904D01*
X45254Y-21881D01*
X45381Y-21755D01*
X45449Y-21589D01*
X45450Y-21410D01*
X45450Y-22825D01*
X43456Y-22825D01*
X43389Y-22838D01*
X43332Y-22876D01*
X43332Y-22876D01*
X43332Y-22876D01*
X43245Y-22963D01*
X43245Y-22237D01*
X43588Y-21895D01*
X43626Y-21838D01*
X43638Y-21775D01*
X43744Y-21881D01*
X43910Y-21949D01*
X44089Y-21950D01*
X44254Y-21881D01*
X44381Y-21755D01*
X44449Y-21589D01*
X44450Y-21410D01*
X44381Y-21245D01*
X44255Y-21118D01*
X44089Y-21050D01*
X44013Y-21050D01*
X44136Y-21043D01*
X44287Y-20981D01*
X44315Y-20885D01*
X44000Y-20570D01*
X43994Y-20576D01*
X43923Y-20505D01*
X43929Y-20500D01*
X43614Y-20184D01*
X43518Y-20212D01*
X43448Y-20407D01*
X43381Y-20245D01*
X43255Y-20118D01*
X43089Y-20050D01*
X42910Y-20049D01*
X42745Y-20118D01*
X42618Y-20244D01*
X42550Y-20410D01*
X42549Y-20589D01*
X42618Y-20754D01*
X42744Y-20881D01*
X42910Y-20949D01*
X43089Y-20950D01*
X43169Y-20916D01*
X43289Y-21037D01*
X43289Y-21153D01*
X43255Y-21118D01*
X43089Y-21050D01*
X42910Y-21049D01*
X42745Y-21118D01*
X42655Y-21208D01*
X42655Y-20980D01*
X42641Y-20913D01*
X42604Y-20856D01*
X42416Y-20669D01*
X42449Y-20589D01*
X42450Y-20410D01*
X42381Y-20245D01*
X42255Y-20118D01*
X42089Y-20050D01*
X41910Y-20049D01*
X41745Y-20118D01*
X41618Y-20244D01*
X41550Y-20410D01*
X41549Y-20589D01*
X41618Y-20754D01*
X41744Y-20881D01*
X41910Y-20949D01*
X42089Y-20950D01*
X42169Y-20916D01*
X42305Y-21052D01*
X42305Y-21168D01*
X42255Y-21118D01*
X42089Y-21050D01*
X41910Y-21049D01*
X41745Y-21118D01*
X41671Y-21192D01*
X41671Y-20996D01*
X41657Y-20929D01*
X41657Y-20929D01*
X41619Y-20872D01*
X41416Y-20669D01*
X41449Y-20589D01*
X41450Y-20410D01*
X41381Y-20245D01*
X41255Y-20118D01*
X41089Y-20050D01*
X40910Y-20049D01*
X40745Y-20118D01*
X40618Y-20244D01*
X40550Y-20410D01*
X40549Y-20589D01*
X40618Y-20754D01*
X40744Y-20881D01*
X40910Y-20949D01*
X41089Y-20950D01*
X41169Y-20916D01*
X41321Y-21068D01*
X41321Y-21184D01*
X41255Y-21118D01*
X41089Y-21050D01*
X40910Y-21049D01*
X40745Y-21118D01*
X40647Y-21216D01*
X40647Y-20972D01*
X40634Y-20905D01*
X40596Y-20848D01*
X40416Y-20669D01*
X40449Y-20589D01*
X40450Y-20410D01*
X40381Y-20245D01*
X40255Y-20118D01*
X40089Y-20050D01*
X39910Y-20049D01*
X39745Y-20118D01*
X39618Y-20244D01*
X39550Y-20410D01*
X39549Y-20589D01*
X39618Y-20754D01*
X39744Y-20881D01*
X39910Y-20949D01*
X40089Y-20950D01*
X40169Y-20916D01*
X40297Y-21044D01*
X40297Y-21161D01*
X40255Y-21118D01*
X40089Y-21050D01*
X39910Y-21049D01*
X39745Y-21118D01*
X39663Y-21200D01*
X39663Y-20988D01*
X39663Y-20988D01*
X39649Y-20921D01*
X39611Y-20864D01*
X39611Y-20864D01*
X39416Y-20669D01*
X39449Y-20589D01*
X39450Y-20410D01*
X39381Y-20245D01*
X39255Y-20118D01*
X39089Y-20050D01*
X38910Y-20049D01*
X38745Y-20118D01*
X38618Y-20244D01*
X38550Y-20410D01*
X38549Y-20589D01*
X38618Y-20754D01*
X38744Y-20881D01*
X38910Y-20949D01*
X39089Y-20950D01*
X39169Y-20916D01*
X39313Y-21060D01*
X39313Y-21176D01*
X39255Y-21118D01*
X39089Y-21050D01*
X38910Y-21049D01*
X38745Y-21118D01*
X38639Y-21223D01*
X38639Y-20964D01*
X38626Y-20897D01*
X38626Y-20897D01*
X38588Y-20840D01*
X38416Y-20669D01*
X38449Y-20589D01*
X38450Y-20410D01*
X38381Y-20245D01*
X38255Y-20118D01*
X38089Y-20050D01*
X37910Y-20049D01*
X37745Y-20118D01*
X37618Y-20244D01*
X37550Y-20410D01*
X37549Y-20589D01*
X37618Y-20754D01*
X37744Y-20881D01*
X37910Y-20949D01*
X38089Y-20950D01*
X38169Y-20916D01*
X38289Y-21037D01*
X38289Y-21153D01*
X38255Y-21118D01*
X38089Y-21050D01*
X37910Y-21049D01*
X37745Y-21118D01*
X37694Y-21168D01*
X37694Y-21019D01*
X37694Y-21019D01*
X37681Y-20952D01*
X37643Y-20895D01*
X37643Y-20895D01*
X37416Y-20669D01*
X37449Y-20589D01*
X37450Y-20410D01*
X37381Y-20245D01*
X37255Y-20118D01*
X37089Y-20050D01*
X36910Y-20049D01*
X36745Y-20118D01*
X36618Y-20244D01*
X36550Y-20410D01*
X36549Y-20589D01*
X36618Y-20754D01*
X36744Y-20881D01*
X36910Y-20949D01*
X37089Y-20950D01*
X37169Y-20916D01*
X37344Y-21092D01*
X37344Y-21208D01*
X37255Y-21118D01*
X37089Y-21050D01*
X36910Y-21049D01*
X36745Y-21118D01*
X36710Y-21153D01*
X36710Y-21035D01*
X36697Y-20968D01*
X36659Y-20911D01*
X36416Y-20669D01*
X36449Y-20589D01*
X36450Y-20410D01*
X36381Y-20245D01*
X36255Y-20118D01*
X36089Y-20050D01*
X35910Y-20049D01*
X35745Y-20118D01*
X35618Y-20244D01*
X35550Y-20410D01*
X35549Y-20589D01*
X35618Y-20754D01*
X35744Y-20881D01*
X35910Y-20949D01*
X36089Y-20950D01*
X36169Y-20916D01*
X36302Y-21050D01*
X36270Y-21049D01*
X35670Y-21049D01*
X35615Y-21072D01*
X35572Y-21114D01*
X35550Y-21170D01*
X35549Y-21229D01*
X35549Y-21680D01*
X35371Y-21502D01*
X35371Y-21196D01*
X35358Y-21129D01*
X35358Y-21129D01*
X35320Y-21073D01*
X34950Y-20702D01*
X34950Y-20170D01*
X34927Y-20115D01*
X34885Y-20072D01*
X34829Y-20050D01*
X34770Y-20049D01*
X34170Y-20049D01*
X34115Y-20072D01*
X34072Y-20114D01*
X34070Y-20121D01*
X33863Y-19915D01*
X33807Y-19877D01*
X33741Y-19864D01*
X47851Y-19864D01*
X47851Y-22715D01*
X47851Y-22715D01*
G37*
G54D26*
X47851Y-22715D02*
X47755Y-22618D01*
X47589Y-22550D01*
X47410Y-22549D01*
X47245Y-22618D01*
X47118Y-22744D01*
X47050Y-22910D01*
X47049Y-23089D01*
X47083Y-23169D01*
X46949Y-23302D01*
X46950Y-23270D01*
X46950Y-22670D01*
X46927Y-22615D01*
X46885Y-22572D01*
X46829Y-22550D01*
X46770Y-22549D01*
X46170Y-22549D01*
X46115Y-22572D01*
X46072Y-22614D01*
X46050Y-22670D01*
X46049Y-22729D01*
X46049Y-22825D01*
X45554Y-22825D01*
X45554Y-20581D01*
X45543Y-20363D01*
X45481Y-20212D01*
X45385Y-20184D01*
X45315Y-20255D01*
X45315Y-20114D01*
X45287Y-20018D01*
X45081Y-19945D01*
X44863Y-19956D01*
X44712Y-20018D01*
X44684Y-20114D01*
X45000Y-20429D01*
X45315Y-20114D01*
X45315Y-20255D01*
X45070Y-20500D01*
X45385Y-20815D01*
X45481Y-20787D01*
X45554Y-20581D01*
X45554Y-22825D01*
X45450Y-22825D01*
X45450Y-21410D01*
X45381Y-21245D01*
X45255Y-21118D01*
X45089Y-21050D01*
X45013Y-21050D01*
X45136Y-21043D01*
X45287Y-20981D01*
X45315Y-20885D01*
X45000Y-20570D01*
X44929Y-20641D01*
X44929Y-20500D01*
X44614Y-20184D01*
X44518Y-20212D01*
X44501Y-20260D01*
X44481Y-20212D01*
X44385Y-20184D01*
X44315Y-20255D01*
X44315Y-20114D01*
X44287Y-20018D01*
X44081Y-19945D01*
X43863Y-19956D01*
X43712Y-20018D01*
X43684Y-20114D01*
X44000Y-20429D01*
X44315Y-20114D01*
X44315Y-20255D01*
X44070Y-20500D01*
X44385Y-20815D01*
X44481Y-20787D01*
X44498Y-20739D01*
X44518Y-20787D01*
X44614Y-20815D01*
X44929Y-20500D01*
X44929Y-20641D01*
X44684Y-20885D01*
X44712Y-20981D01*
X44907Y-21051D01*
X44745Y-21118D01*
X44618Y-21244D01*
X44550Y-21410D01*
X44549Y-21589D01*
X44618Y-21754D01*
X44744Y-21881D01*
X44800Y-21904D01*
X44800Y-21997D01*
X44738Y-21997D01*
X44619Y-22047D01*
X44527Y-22138D01*
X44478Y-22257D01*
X44478Y-22387D01*
X44527Y-22506D01*
X44618Y-22598D01*
X44738Y-22647D01*
X44867Y-22647D01*
X44987Y-22598D01*
X45078Y-22507D01*
X45128Y-22387D01*
X45128Y-22280D01*
X45141Y-22267D01*
X45141Y-22267D01*
X45170Y-22224D01*
X45184Y-22202D01*
X45184Y-22202D01*
X45199Y-22125D01*
X45200Y-22125D01*
X45200Y-21904D01*
X45254Y-21881D01*
X45381Y-21755D01*
X45449Y-21589D01*
X45450Y-21410D01*
X45450Y-22825D01*
X43456Y-22825D01*
X43389Y-22838D01*
X43332Y-22876D01*
X43332Y-22876D01*
X43332Y-22876D01*
X43245Y-22963D01*
X43245Y-22237D01*
X43588Y-21895D01*
X43626Y-21838D01*
X43638Y-21775D01*
X43744Y-21881D01*
X43910Y-21949D01*
X44089Y-21950D01*
X44254Y-21881D01*
X44381Y-21755D01*
X44449Y-21589D01*
X44450Y-21410D01*
X44381Y-21245D01*
X44255Y-21118D01*
X44089Y-21050D01*
X44013Y-21050D01*
X44136Y-21043D01*
X44287Y-20981D01*
X44315Y-20885D01*
X44000Y-20570D01*
X43994Y-20576D01*
X43923Y-20505D01*
X43929Y-20500D01*
X43614Y-20184D01*
X43518Y-20212D01*
X43448Y-20407D01*
X43381Y-20245D01*
X43255Y-20118D01*
X43089Y-20050D01*
X42910Y-20049D01*
X42745Y-20118D01*
X42618Y-20244D01*
X42550Y-20410D01*
X42549Y-20589D01*
X42618Y-20754D01*
X42744Y-20881D01*
X42910Y-20949D01*
X43089Y-20950D01*
X43169Y-20916D01*
X43289Y-21037D01*
X43289Y-21153D01*
X43255Y-21118D01*
X43089Y-21050D01*
X42910Y-21049D01*
X42745Y-21118D01*
X42655Y-21208D01*
X42655Y-20980D01*
X42641Y-20913D01*
X42604Y-20856D01*
X42416Y-20669D01*
X42449Y-20589D01*
X42450Y-20410D01*
X42381Y-20245D01*
X42255Y-20118D01*
X42089Y-20050D01*
X41910Y-20049D01*
X41745Y-20118D01*
X41618Y-20244D01*
X41550Y-20410D01*
X41549Y-20589D01*
X41618Y-20754D01*
X41744Y-20881D01*
X41910Y-20949D01*
X42089Y-20950D01*
X42169Y-20916D01*
X42305Y-21052D01*
X42305Y-21168D01*
X42255Y-21118D01*
X42089Y-21050D01*
X41910Y-21049D01*
X41745Y-21118D01*
X41671Y-21192D01*
X41671Y-20996D01*
X41657Y-20929D01*
X41657Y-20929D01*
X41619Y-20872D01*
X41416Y-20669D01*
X41449Y-20589D01*
X41450Y-20410D01*
X41381Y-20245D01*
X41255Y-20118D01*
X41089Y-20050D01*
X40910Y-20049D01*
X40745Y-20118D01*
X40618Y-20244D01*
X40550Y-20410D01*
X40549Y-20589D01*
X40618Y-20754D01*
X40744Y-20881D01*
X40910Y-20949D01*
X41089Y-20950D01*
X41169Y-20916D01*
X41321Y-21068D01*
X41321Y-21184D01*
X41255Y-21118D01*
X41089Y-21050D01*
X40910Y-21049D01*
X40745Y-21118D01*
X40647Y-21216D01*
X40647Y-20972D01*
X40634Y-20905D01*
X40596Y-20848D01*
X40416Y-20669D01*
X40449Y-20589D01*
X40450Y-20410D01*
X40381Y-20245D01*
X40255Y-20118D01*
X40089Y-20050D01*
X39910Y-20049D01*
X39745Y-20118D01*
X39618Y-20244D01*
X39550Y-20410D01*
X39549Y-20589D01*
X39618Y-20754D01*
X39744Y-20881D01*
X39910Y-20949D01*
X40089Y-20950D01*
X40169Y-20916D01*
X40297Y-21044D01*
X40297Y-21161D01*
X40255Y-21118D01*
X40089Y-21050D01*
X39910Y-21049D01*
X39745Y-21118D01*
X39663Y-21200D01*
X39663Y-20988D01*
X39663Y-20988D01*
X39649Y-20921D01*
X39611Y-20864D01*
X39611Y-20864D01*
X39416Y-20669D01*
X39449Y-20589D01*
X39450Y-20410D01*
X39381Y-20245D01*
X39255Y-20118D01*
X39089Y-20050D01*
X38910Y-20049D01*
X38745Y-20118D01*
X38618Y-20244D01*
X38550Y-20410D01*
X38549Y-20589D01*
X38618Y-20754D01*
X38744Y-20881D01*
X38910Y-20949D01*
X39089Y-20950D01*
X39169Y-20916D01*
X39313Y-21060D01*
X39313Y-21176D01*
X39255Y-21118D01*
X39089Y-21050D01*
X38910Y-21049D01*
X38745Y-21118D01*
X38639Y-21223D01*
X38639Y-20964D01*
X38626Y-20897D01*
X38626Y-20897D01*
X38588Y-20840D01*
X38416Y-20669D01*
X38449Y-20589D01*
X38450Y-20410D01*
X38381Y-20245D01*
X38255Y-20118D01*
X38089Y-20050D01*
X37910Y-20049D01*
X37745Y-20118D01*
X37618Y-20244D01*
X37550Y-20410D01*
X37549Y-20589D01*
X37618Y-20754D01*
X37744Y-20881D01*
X37910Y-20949D01*
X38089Y-20950D01*
X38169Y-20916D01*
X38289Y-21037D01*
X38289Y-21153D01*
X38255Y-21118D01*
X38089Y-21050D01*
X37910Y-21049D01*
X37745Y-21118D01*
X37694Y-21168D01*
X37694Y-21019D01*
X37694Y-21019D01*
X37681Y-20952D01*
X37643Y-20895D01*
X37643Y-20895D01*
X37416Y-20669D01*
X37449Y-20589D01*
X37450Y-20410D01*
X37381Y-20245D01*
X37255Y-20118D01*
X37089Y-20050D01*
X36910Y-20049D01*
X36745Y-20118D01*
X36618Y-20244D01*
X36550Y-20410D01*
X36549Y-20589D01*
X36618Y-20754D01*
X36744Y-20881D01*
X36910Y-20949D01*
X37089Y-20950D01*
X37169Y-20916D01*
X37344Y-21092D01*
X37344Y-21208D01*
X37255Y-21118D01*
X37089Y-21050D01*
X36910Y-21049D01*
X36745Y-21118D01*
X36710Y-21153D01*
X36710Y-21035D01*
X36697Y-20968D01*
X36659Y-20911D01*
X36416Y-20669D01*
X36449Y-20589D01*
X36450Y-20410D01*
X36381Y-20245D01*
X36255Y-20118D01*
X36089Y-20050D01*
X35910Y-20049D01*
X35745Y-20118D01*
X35618Y-20244D01*
X35550Y-20410D01*
X35549Y-20589D01*
X35618Y-20754D01*
X35744Y-20881D01*
X35910Y-20949D01*
X36089Y-20950D01*
X36169Y-20916D01*
X36302Y-21050D01*
X36270Y-21049D01*
X35670Y-21049D01*
X35615Y-21072D01*
X35572Y-21114D01*
X35550Y-21170D01*
X35549Y-21229D01*
X35549Y-21680D01*
X35371Y-21502D01*
X35371Y-21196D01*
X35358Y-21129D01*
X35358Y-21129D01*
X35320Y-21073D01*
X34950Y-20702D01*
X34950Y-20170D01*
X34927Y-20115D01*
X34885Y-20072D01*
X34829Y-20050D01*
X34770Y-20049D01*
X34170Y-20049D01*
X34115Y-20072D01*
X34072Y-20114D01*
X34070Y-20121D01*
X33863Y-19915D01*
X33807Y-19877D01*
X33741Y-19864D01*
X47851Y-19864D01*
X47851Y-22715D01*
G54D10*
G36*
X47851Y-23715D02*
X47755Y-23618D01*
X47589Y-23550D01*
X47410Y-23549D01*
X47245Y-23618D01*
X47118Y-23744D01*
X47050Y-23910D01*
X47049Y-24089D01*
X47083Y-24169D01*
X46899Y-24352D01*
X46783Y-24352D01*
X46881Y-24255D01*
X46949Y-24089D01*
X46950Y-23910D01*
X46881Y-23745D01*
X46854Y-23718D01*
X46956Y-23718D01*
X47023Y-23704D01*
X47023Y-23704D01*
X47080Y-23667D01*
X47330Y-23416D01*
X47410Y-23449D01*
X47589Y-23450D01*
X47754Y-23381D01*
X47851Y-23284D01*
X47851Y-23715D01*
X47851Y-23715D01*
G37*
G54D26*
X47851Y-23715D02*
X47755Y-23618D01*
X47589Y-23550D01*
X47410Y-23549D01*
X47245Y-23618D01*
X47118Y-23744D01*
X47050Y-23910D01*
X47049Y-24089D01*
X47083Y-24169D01*
X46899Y-24352D01*
X46783Y-24352D01*
X46881Y-24255D01*
X46949Y-24089D01*
X46950Y-23910D01*
X46881Y-23745D01*
X46854Y-23718D01*
X46956Y-23718D01*
X47023Y-23704D01*
X47023Y-23704D01*
X47080Y-23667D01*
X47330Y-23416D01*
X47410Y-23449D01*
X47589Y-23450D01*
X47754Y-23381D01*
X47851Y-23284D01*
X47851Y-23715D01*
G54D10*
G36*
X47851Y-24715D02*
X47755Y-24618D01*
X47589Y-24550D01*
X47410Y-24549D01*
X47245Y-24618D01*
X47118Y-24744D01*
X47050Y-24910D01*
X47049Y-25089D01*
X47083Y-25169D01*
X46955Y-25297D01*
X46838Y-25297D01*
X46881Y-25255D01*
X46949Y-25089D01*
X46950Y-24910D01*
X46881Y-24745D01*
X46838Y-24702D01*
X46972Y-24702D01*
X47039Y-24689D01*
X47039Y-24689D01*
X47096Y-24651D01*
X47330Y-24416D01*
X47410Y-24449D01*
X47589Y-24450D01*
X47754Y-24381D01*
X47851Y-24284D01*
X47851Y-24715D01*
X47851Y-24715D01*
G37*
G54D26*
X47851Y-24715D02*
X47755Y-24618D01*
X47589Y-24550D01*
X47410Y-24549D01*
X47245Y-24618D01*
X47118Y-24744D01*
X47050Y-24910D01*
X47049Y-25089D01*
X47083Y-25169D01*
X46955Y-25297D01*
X46838Y-25297D01*
X46881Y-25255D01*
X46949Y-25089D01*
X46950Y-24910D01*
X46881Y-24745D01*
X46838Y-24702D01*
X46972Y-24702D01*
X47039Y-24689D01*
X47039Y-24689D01*
X47096Y-24651D01*
X47330Y-24416D01*
X47410Y-24449D01*
X47589Y-24450D01*
X47754Y-24381D01*
X47851Y-24284D01*
X47851Y-24715D01*
G54D10*
G36*
X47851Y-25715D02*
X47755Y-25618D01*
X47589Y-25550D01*
X47410Y-25549D01*
X47245Y-25618D01*
X47118Y-25744D01*
X47050Y-25910D01*
X47049Y-26089D01*
X47083Y-26169D01*
X46892Y-26360D01*
X46775Y-26360D01*
X46881Y-26255D01*
X46949Y-26089D01*
X46950Y-25910D01*
X46881Y-25745D01*
X46783Y-25647D01*
X47027Y-25647D01*
X47094Y-25634D01*
X47094Y-25634D01*
X47151Y-25596D01*
X47330Y-25416D01*
X47410Y-25449D01*
X47589Y-25450D01*
X47754Y-25381D01*
X47851Y-25284D01*
X47851Y-25715D01*
X47851Y-25715D01*
G37*
G54D26*
X47851Y-25715D02*
X47755Y-25618D01*
X47589Y-25550D01*
X47410Y-25549D01*
X47245Y-25618D01*
X47118Y-25744D01*
X47050Y-25910D01*
X47049Y-26089D01*
X47083Y-26169D01*
X46892Y-26360D01*
X46775Y-26360D01*
X46881Y-26255D01*
X46949Y-26089D01*
X46950Y-25910D01*
X46881Y-25745D01*
X46783Y-25647D01*
X47027Y-25647D01*
X47094Y-25634D01*
X47094Y-25634D01*
X47151Y-25596D01*
X47330Y-25416D01*
X47410Y-25449D01*
X47589Y-25450D01*
X47754Y-25381D01*
X47851Y-25284D01*
X47851Y-25715D01*
G54D10*
G36*
X47851Y-26715D02*
X47755Y-26618D01*
X47589Y-26550D01*
X47410Y-26549D01*
X47245Y-26618D01*
X47118Y-26744D01*
X47050Y-26910D01*
X47049Y-27089D01*
X47083Y-27169D01*
X46947Y-27305D01*
X46831Y-27305D01*
X46881Y-27255D01*
X46949Y-27089D01*
X46950Y-26910D01*
X46881Y-26745D01*
X46846Y-26710D01*
X46964Y-26710D01*
X47031Y-26697D01*
X47031Y-26697D01*
X47088Y-26659D01*
X47330Y-26416D01*
X47410Y-26449D01*
X47589Y-26450D01*
X47754Y-26381D01*
X47851Y-26284D01*
X47851Y-26715D01*
X47851Y-26715D01*
G37*
G54D26*
X47851Y-26715D02*
X47755Y-26618D01*
X47589Y-26550D01*
X47410Y-26549D01*
X47245Y-26618D01*
X47118Y-26744D01*
X47050Y-26910D01*
X47049Y-27089D01*
X47083Y-27169D01*
X46947Y-27305D01*
X46831Y-27305D01*
X46881Y-27255D01*
X46949Y-27089D01*
X46950Y-26910D01*
X46881Y-26745D01*
X46846Y-26710D01*
X46964Y-26710D01*
X47031Y-26697D01*
X47031Y-26697D01*
X47088Y-26659D01*
X47330Y-26416D01*
X47410Y-26449D01*
X47589Y-26450D01*
X47754Y-26381D01*
X47851Y-26284D01*
X47851Y-26715D01*
G54D10*
G36*
X47851Y-28715D02*
X47755Y-28618D01*
X47589Y-28550D01*
X47410Y-28549D01*
X47245Y-28618D01*
X47118Y-28744D01*
X47050Y-28910D01*
X47049Y-29089D01*
X47083Y-29169D01*
X46939Y-29313D01*
X46823Y-29313D01*
X46881Y-29255D01*
X46949Y-29089D01*
X46950Y-28910D01*
X46881Y-28745D01*
X46755Y-28618D01*
X46589Y-28550D01*
X46410Y-28549D01*
X46245Y-28618D01*
X46119Y-28743D01*
X46119Y-28340D01*
X46161Y-28298D01*
X46244Y-28381D01*
X46410Y-28449D01*
X46589Y-28450D01*
X46754Y-28381D01*
X46881Y-28255D01*
X46949Y-28089D01*
X46950Y-27910D01*
X46881Y-27745D01*
X46791Y-27655D01*
X47019Y-27655D01*
X47086Y-27641D01*
X47086Y-27641D01*
X47143Y-27604D01*
X47330Y-27416D01*
X47410Y-27449D01*
X47589Y-27450D01*
X47754Y-27381D01*
X47851Y-27284D01*
X47851Y-27715D01*
X47755Y-27618D01*
X47589Y-27550D01*
X47410Y-27549D01*
X47245Y-27618D01*
X47118Y-27744D01*
X47050Y-27910D01*
X47049Y-28089D01*
X47118Y-28254D01*
X47244Y-28381D01*
X47410Y-28449D01*
X47589Y-28450D01*
X47754Y-28381D01*
X47851Y-28284D01*
X47851Y-28715D01*
X47851Y-28715D01*
G37*
G54D26*
X47851Y-28715D02*
X47755Y-28618D01*
X47589Y-28550D01*
X47410Y-28549D01*
X47245Y-28618D01*
X47118Y-28744D01*
X47050Y-28910D01*
X47049Y-29089D01*
X47083Y-29169D01*
X46939Y-29313D01*
X46823Y-29313D01*
X46881Y-29255D01*
X46949Y-29089D01*
X46950Y-28910D01*
X46881Y-28745D01*
X46755Y-28618D01*
X46589Y-28550D01*
X46410Y-28549D01*
X46245Y-28618D01*
X46119Y-28743D01*
X46119Y-28340D01*
X46161Y-28298D01*
X46244Y-28381D01*
X46410Y-28449D01*
X46589Y-28450D01*
X46754Y-28381D01*
X46881Y-28255D01*
X46949Y-28089D01*
X46950Y-27910D01*
X46881Y-27745D01*
X46791Y-27655D01*
X47019Y-27655D01*
X47086Y-27641D01*
X47086Y-27641D01*
X47143Y-27604D01*
X47330Y-27416D01*
X47410Y-27449D01*
X47589Y-27450D01*
X47754Y-27381D01*
X47851Y-27284D01*
X47851Y-27715D01*
X47755Y-27618D01*
X47589Y-27550D01*
X47410Y-27549D01*
X47245Y-27618D01*
X47118Y-27744D01*
X47050Y-27910D01*
X47049Y-28089D01*
X47118Y-28254D01*
X47244Y-28381D01*
X47410Y-28449D01*
X47589Y-28450D01*
X47754Y-28381D01*
X47851Y-28284D01*
X47851Y-28715D01*
G54D10*
G36*
X47851Y-29715D02*
X47755Y-29618D01*
X47589Y-29550D01*
X47410Y-29549D01*
X47245Y-29618D01*
X47118Y-29744D01*
X47050Y-29910D01*
X47049Y-30089D01*
X47083Y-30169D01*
X46955Y-30297D01*
X46838Y-30297D01*
X46881Y-30255D01*
X46949Y-30089D01*
X46950Y-29910D01*
X46881Y-29745D01*
X46799Y-29663D01*
X47011Y-29663D01*
X47078Y-29649D01*
X47078Y-29649D01*
X47135Y-29611D01*
X47330Y-29416D01*
X47410Y-29449D01*
X47589Y-29450D01*
X47754Y-29381D01*
X47851Y-29284D01*
X47851Y-29715D01*
X47851Y-29715D01*
G37*
G54D26*
X47851Y-29715D02*
X47755Y-29618D01*
X47589Y-29550D01*
X47410Y-29549D01*
X47245Y-29618D01*
X47118Y-29744D01*
X47050Y-29910D01*
X47049Y-30089D01*
X47083Y-30169D01*
X46955Y-30297D01*
X46838Y-30297D01*
X46881Y-30255D01*
X46949Y-30089D01*
X46950Y-29910D01*
X46881Y-29745D01*
X46799Y-29663D01*
X47011Y-29663D01*
X47078Y-29649D01*
X47078Y-29649D01*
X47135Y-29611D01*
X47330Y-29416D01*
X47410Y-29449D01*
X47589Y-29450D01*
X47754Y-29381D01*
X47851Y-29284D01*
X47851Y-29715D01*
G54D10*
G36*
X47851Y-30577D02*
X47815Y-30614D01*
X47787Y-30518D01*
X47592Y-30448D01*
X47754Y-30381D01*
X47851Y-30284D01*
X47851Y-30577D01*
X47851Y-30577D01*
G37*
G54D26*
X47851Y-30577D02*
X47815Y-30614D01*
X47787Y-30518D01*
X47592Y-30448D01*
X47754Y-30381D01*
X47851Y-30284D01*
X47851Y-30577D01*
G54D10*
G36*
X47851Y-39190D02*
X47173Y-39190D01*
X47173Y-37057D01*
X47173Y-36526D01*
X47173Y-36426D01*
X47173Y-35895D01*
X47173Y-33553D01*
X47173Y-33022D01*
X46544Y-33022D01*
X46481Y-33084D01*
X46481Y-33316D01*
X46481Y-33415D01*
X46520Y-33507D01*
X46590Y-33577D01*
X46682Y-33615D01*
X47111Y-33615D01*
X47173Y-33553D01*
X47173Y-35895D01*
X47111Y-35832D01*
X46682Y-35832D01*
X46590Y-35870D01*
X46520Y-35941D01*
X46481Y-36032D01*
X46481Y-36132D01*
X46481Y-36363D01*
X46544Y-36426D01*
X47173Y-36426D01*
X47173Y-36526D01*
X46544Y-36526D01*
X46481Y-36588D01*
X46481Y-36820D01*
X46481Y-36919D01*
X46520Y-37011D01*
X46590Y-37081D01*
X46682Y-37119D01*
X47111Y-37119D01*
X47173Y-37057D01*
X47173Y-39190D01*
X46370Y-39190D01*
X46370Y-35525D01*
X46370Y-33793D01*
X46320Y-33673D01*
X46228Y-33581D01*
X46108Y-33531D01*
X45978Y-33531D01*
X45857Y-33581D01*
X45800Y-33637D01*
X45800Y-33316D01*
X45800Y-32628D01*
X45800Y-32528D01*
X45762Y-32437D01*
X45692Y-32366D01*
X45600Y-32328D01*
X45171Y-32328D01*
X45108Y-32391D01*
X45108Y-32922D01*
X45738Y-32922D01*
X45800Y-32859D01*
X45800Y-32628D01*
X45800Y-33316D01*
X45800Y-33084D01*
X45738Y-33022D01*
X45108Y-33022D01*
X45108Y-33553D01*
X45171Y-33615D01*
X45600Y-33615D01*
X45692Y-33577D01*
X45762Y-33507D01*
X45800Y-33415D01*
X45800Y-33316D01*
X45800Y-33637D01*
X45765Y-33672D01*
X45716Y-33793D01*
X45715Y-33923D01*
X45765Y-34043D01*
X45857Y-34135D01*
X45977Y-34185D01*
X46107Y-34185D01*
X46227Y-34135D01*
X46320Y-34043D01*
X46369Y-33923D01*
X46370Y-33793D01*
X46370Y-35525D01*
X46320Y-35405D01*
X46228Y-35313D01*
X46108Y-35263D01*
X45978Y-35263D01*
X45857Y-35313D01*
X45765Y-35404D01*
X45716Y-35525D01*
X45715Y-35655D01*
X45765Y-35775D01*
X45857Y-35867D01*
X45977Y-35917D01*
X46107Y-35917D01*
X46227Y-35867D01*
X46320Y-35775D01*
X46369Y-35655D01*
X46370Y-35525D01*
X46370Y-39190D01*
X45800Y-39190D01*
X45800Y-36820D01*
X45800Y-36132D01*
X45800Y-36032D01*
X45762Y-35941D01*
X45692Y-35870D01*
X45600Y-35832D01*
X45217Y-35832D01*
X45275Y-35774D01*
X45324Y-35655D01*
X45324Y-35602D01*
X45502Y-35602D01*
X45557Y-35580D01*
X45600Y-35537D01*
X45622Y-35482D01*
X45622Y-35423D01*
X45622Y-35226D01*
X45610Y-35196D01*
X45622Y-35167D01*
X45622Y-35108D01*
X45622Y-34911D01*
X45610Y-34881D01*
X45622Y-34852D01*
X45622Y-34793D01*
X45622Y-34596D01*
X45610Y-34566D01*
X45622Y-34537D01*
X45622Y-34478D01*
X45622Y-34396D01*
X45684Y-34334D01*
X45722Y-34242D01*
X45722Y-34206D01*
X45722Y-33982D01*
X45722Y-33945D01*
X45684Y-33854D01*
X45614Y-33783D01*
X45522Y-33745D01*
X45132Y-33745D01*
X45069Y-33808D01*
X45069Y-34045D01*
X45660Y-34045D01*
X45722Y-33982D01*
X45722Y-34206D01*
X45660Y-34143D01*
X45069Y-34143D01*
X45069Y-34152D01*
X45008Y-34152D01*
X45008Y-33553D01*
X45008Y-33022D01*
X44379Y-33022D01*
X44316Y-33084D01*
X44316Y-33316D01*
X44316Y-33415D01*
X44355Y-33507D01*
X44425Y-33577D01*
X44517Y-33615D01*
X44946Y-33615D01*
X45008Y-33553D01*
X45008Y-34152D01*
X44969Y-34152D01*
X44969Y-34143D01*
X44969Y-34045D01*
X44969Y-33808D01*
X44907Y-33745D01*
X44517Y-33745D01*
X44425Y-33783D01*
X44355Y-33854D01*
X44316Y-33945D01*
X44316Y-33982D01*
X44379Y-34045D01*
X44969Y-34045D01*
X44969Y-34143D01*
X44379Y-34143D01*
X44316Y-34206D01*
X44316Y-34242D01*
X44332Y-34281D01*
X44226Y-34281D01*
X44107Y-34330D01*
X44015Y-34421D01*
X43966Y-34541D01*
X43966Y-34670D01*
X44015Y-34790D01*
X44067Y-34842D01*
X44015Y-34894D01*
X43966Y-35013D01*
X43966Y-35143D01*
X44015Y-35262D01*
X44107Y-35354D01*
X44226Y-35403D01*
X44355Y-35403D01*
X44416Y-35378D01*
X44416Y-35482D01*
X44439Y-35537D01*
X44481Y-35579D01*
X44536Y-35602D01*
X44596Y-35602D01*
X44674Y-35602D01*
X44674Y-35654D01*
X44724Y-35774D01*
X44782Y-35832D01*
X44517Y-35832D01*
X44425Y-35870D01*
X44355Y-35941D01*
X44316Y-36032D01*
X44316Y-36132D01*
X44316Y-36363D01*
X44379Y-36426D01*
X45008Y-36426D01*
X45008Y-36418D01*
X45108Y-36418D01*
X45108Y-36426D01*
X45738Y-36426D01*
X45800Y-36363D01*
X45800Y-36132D01*
X45800Y-36820D01*
X45800Y-36588D01*
X45738Y-36526D01*
X45108Y-36526D01*
X45108Y-37057D01*
X45171Y-37119D01*
X45600Y-37119D01*
X45692Y-37081D01*
X45762Y-37011D01*
X45800Y-36919D01*
X45800Y-36820D01*
X45800Y-39190D01*
X45008Y-39190D01*
X45008Y-37057D01*
X45008Y-36526D01*
X44379Y-36526D01*
X44316Y-36588D01*
X44316Y-36820D01*
X44316Y-36919D01*
X44355Y-37011D01*
X44425Y-37081D01*
X44517Y-37119D01*
X44946Y-37119D01*
X45008Y-37057D01*
X45008Y-39190D01*
X44554Y-39190D01*
X44554Y-38581D01*
X44543Y-38363D01*
X44481Y-38212D01*
X44450Y-38203D01*
X44450Y-37770D01*
X44450Y-37170D01*
X44427Y-37115D01*
X44385Y-37072D01*
X44329Y-37050D01*
X44270Y-37049D01*
X43670Y-37049D01*
X43615Y-37072D01*
X43572Y-37114D01*
X43550Y-37170D01*
X43549Y-37229D01*
X43549Y-37829D01*
X43572Y-37884D01*
X43614Y-37927D01*
X43670Y-37949D01*
X43729Y-37950D01*
X43985Y-37950D01*
X43863Y-37956D01*
X43712Y-38018D01*
X43684Y-38114D01*
X44000Y-38429D01*
X44315Y-38114D01*
X44287Y-38018D01*
X44095Y-37950D01*
X44329Y-37950D01*
X44384Y-37927D01*
X44427Y-37885D01*
X44449Y-37829D01*
X44450Y-37770D01*
X44450Y-38203D01*
X44385Y-38184D01*
X44070Y-38500D01*
X44385Y-38815D01*
X44481Y-38787D01*
X44554Y-38581D01*
X44554Y-39190D01*
X44315Y-39190D01*
X44315Y-38885D01*
X44000Y-38570D01*
X43929Y-38641D01*
X43929Y-38500D01*
X43614Y-38184D01*
X43518Y-38212D01*
X43501Y-38260D01*
X43481Y-38212D01*
X43450Y-38203D01*
X43450Y-37410D01*
X43381Y-37245D01*
X43255Y-37118D01*
X43089Y-37050D01*
X42910Y-37049D01*
X42745Y-37118D01*
X42618Y-37244D01*
X42550Y-37410D01*
X42549Y-37589D01*
X42618Y-37754D01*
X42744Y-37881D01*
X42910Y-37949D01*
X42986Y-37949D01*
X42863Y-37956D01*
X42712Y-38018D01*
X42684Y-38114D01*
X43000Y-38429D01*
X43315Y-38114D01*
X43287Y-38018D01*
X43092Y-37948D01*
X43254Y-37881D01*
X43381Y-37755D01*
X43449Y-37589D01*
X43450Y-37410D01*
X43450Y-38203D01*
X43385Y-38184D01*
X43070Y-38500D01*
X43385Y-38815D01*
X43481Y-38787D01*
X43498Y-38739D01*
X43518Y-38787D01*
X43614Y-38815D01*
X43929Y-38500D01*
X43929Y-38641D01*
X43684Y-38885D01*
X43712Y-38981D01*
X43918Y-39054D01*
X44136Y-39043D01*
X44287Y-38981D01*
X44315Y-38885D01*
X44315Y-39190D01*
X43315Y-39190D01*
X43315Y-38885D01*
X43000Y-38570D01*
X42929Y-38641D01*
X42929Y-38500D01*
X42614Y-38184D01*
X42518Y-38212D01*
X42501Y-38260D01*
X42481Y-38212D01*
X42450Y-38203D01*
X42450Y-37410D01*
X42381Y-37245D01*
X42255Y-37118D01*
X42089Y-37050D01*
X41910Y-37049D01*
X41745Y-37118D01*
X41618Y-37244D01*
X41550Y-37410D01*
X41549Y-37589D01*
X41618Y-37754D01*
X41744Y-37881D01*
X41910Y-37949D01*
X41986Y-37949D01*
X41863Y-37956D01*
X41712Y-38018D01*
X41684Y-38114D01*
X42000Y-38429D01*
X42315Y-38114D01*
X42287Y-38018D01*
X42092Y-37948D01*
X42254Y-37881D01*
X42381Y-37755D01*
X42449Y-37589D01*
X42450Y-37410D01*
X42450Y-38203D01*
X42385Y-38184D01*
X42070Y-38500D01*
X42385Y-38815D01*
X42481Y-38787D01*
X42498Y-38739D01*
X42518Y-38787D01*
X42614Y-38815D01*
X42929Y-38500D01*
X42929Y-38641D01*
X42684Y-38885D01*
X42712Y-38981D01*
X42918Y-39054D01*
X43136Y-39043D01*
X43287Y-38981D01*
X43315Y-38885D01*
X43315Y-39190D01*
X42315Y-39190D01*
X42315Y-38885D01*
X42000Y-38570D01*
X41929Y-38641D01*
X41929Y-38500D01*
X41614Y-38184D01*
X41518Y-38212D01*
X41445Y-38418D01*
X41456Y-38636D01*
X41518Y-38787D01*
X41614Y-38815D01*
X41929Y-38500D01*
X41929Y-38641D01*
X41684Y-38885D01*
X41712Y-38981D01*
X41918Y-39054D01*
X42136Y-39043D01*
X42287Y-38981D01*
X42315Y-38885D01*
X42315Y-39190D01*
X40950Y-39190D01*
X40950Y-38410D01*
X40881Y-38245D01*
X40755Y-38118D01*
X40589Y-38050D01*
X40410Y-38049D01*
X40245Y-38118D01*
X40118Y-38244D01*
X40050Y-38410D01*
X40049Y-38589D01*
X40118Y-38754D01*
X40244Y-38881D01*
X40410Y-38949D01*
X40589Y-38950D01*
X40754Y-38881D01*
X40881Y-38755D01*
X40949Y-38589D01*
X40950Y-38410D01*
X40950Y-39190D01*
X34950Y-39190D01*
X34950Y-38410D01*
X34881Y-38245D01*
X34755Y-38118D01*
X34589Y-38050D01*
X34410Y-38049D01*
X34245Y-38118D01*
X34118Y-38244D01*
X34050Y-38410D01*
X34049Y-38589D01*
X34118Y-38754D01*
X34244Y-38881D01*
X34410Y-38949D01*
X34589Y-38950D01*
X34754Y-38881D01*
X34881Y-38755D01*
X34949Y-38589D01*
X34950Y-38410D01*
X34950Y-39190D01*
X32815Y-39190D01*
X32815Y-38885D01*
X32500Y-38570D01*
X32429Y-38641D01*
X32429Y-38500D01*
X32114Y-38184D01*
X32018Y-38212D01*
X32001Y-38260D01*
X31981Y-38212D01*
X31885Y-38184D01*
X31570Y-38500D01*
X31885Y-38815D01*
X31981Y-38787D01*
X31998Y-38739D01*
X32018Y-38787D01*
X32114Y-38815D01*
X32429Y-38500D01*
X32429Y-38641D01*
X32184Y-38885D01*
X32212Y-38981D01*
X32418Y-39054D01*
X32636Y-39043D01*
X32787Y-38981D01*
X32815Y-38885D01*
X32815Y-39190D01*
X31815Y-39190D01*
X31815Y-38885D01*
X31500Y-38570D01*
X31429Y-38641D01*
X31429Y-38500D01*
X31114Y-38184D01*
X31018Y-38212D01*
X30945Y-38418D01*
X30956Y-38636D01*
X31018Y-38787D01*
X31114Y-38815D01*
X31429Y-38500D01*
X31429Y-38641D01*
X31184Y-38885D01*
X31212Y-38981D01*
X31418Y-39054D01*
X31636Y-39043D01*
X31787Y-38981D01*
X31815Y-38885D01*
X31815Y-39190D01*
X28525Y-39190D01*
X28525Y-19864D01*
X32203Y-19864D01*
X32137Y-19877D01*
X32080Y-19915D01*
X31844Y-20151D01*
X31822Y-20185D01*
X31755Y-20118D01*
X31589Y-20050D01*
X31410Y-20049D01*
X31245Y-20118D01*
X31118Y-20244D01*
X31050Y-20410D01*
X31049Y-20589D01*
X31083Y-20669D01*
X30939Y-20813D01*
X30901Y-20870D01*
X30887Y-20937D01*
X30887Y-22760D01*
X30881Y-22745D01*
X30755Y-22618D01*
X30589Y-22550D01*
X30410Y-22549D01*
X30245Y-22618D01*
X30118Y-22744D01*
X30050Y-22910D01*
X30050Y-22986D01*
X30043Y-22863D01*
X29981Y-22712D01*
X29885Y-22684D01*
X29815Y-22755D01*
X29815Y-22614D01*
X29787Y-22518D01*
X29581Y-22445D01*
X29363Y-22456D01*
X29212Y-22518D01*
X29184Y-22614D01*
X29500Y-22929D01*
X29815Y-22614D01*
X29815Y-22755D01*
X29570Y-23000D01*
X29885Y-23315D01*
X29981Y-23287D01*
X30051Y-23092D01*
X30118Y-23254D01*
X30244Y-23381D01*
X30410Y-23449D01*
X30589Y-23450D01*
X30754Y-23381D01*
X30881Y-23255D01*
X30887Y-23239D01*
X30887Y-23760D01*
X30881Y-23745D01*
X30755Y-23618D01*
X30589Y-23550D01*
X30410Y-23549D01*
X30245Y-23618D01*
X30118Y-23744D01*
X30050Y-23910D01*
X30050Y-23986D01*
X30043Y-23863D01*
X29981Y-23712D01*
X29885Y-23684D01*
X29815Y-23755D01*
X29815Y-23614D01*
X29787Y-23518D01*
X29739Y-23501D01*
X29787Y-23481D01*
X29815Y-23385D01*
X29500Y-23070D01*
X29429Y-23141D01*
X29429Y-23000D01*
X29114Y-22684D01*
X29018Y-22712D01*
X28945Y-22918D01*
X28956Y-23136D01*
X29018Y-23287D01*
X29114Y-23315D01*
X29429Y-23000D01*
X29429Y-23141D01*
X29184Y-23385D01*
X29212Y-23481D01*
X29260Y-23498D01*
X29212Y-23518D01*
X29184Y-23614D01*
X29500Y-23929D01*
X29815Y-23614D01*
X29815Y-23755D01*
X29570Y-24000D01*
X29576Y-24005D01*
X29505Y-24076D01*
X29500Y-24070D01*
X29429Y-24141D01*
X29429Y-24000D01*
X29114Y-23684D01*
X29018Y-23712D01*
X28945Y-23918D01*
X28956Y-24136D01*
X29018Y-24287D01*
X29114Y-24315D01*
X29429Y-24000D01*
X29429Y-24141D01*
X29184Y-24385D01*
X29212Y-24481D01*
X29407Y-24551D01*
X29245Y-24618D01*
X29118Y-24744D01*
X29050Y-24910D01*
X29049Y-25089D01*
X29118Y-25254D01*
X29244Y-25381D01*
X29410Y-25449D01*
X29589Y-25450D01*
X29754Y-25381D01*
X29881Y-25255D01*
X29949Y-25089D01*
X29950Y-24910D01*
X29916Y-24830D01*
X30084Y-24663D01*
X30200Y-24663D01*
X30118Y-24744D01*
X30050Y-24910D01*
X30049Y-25089D01*
X30118Y-25254D01*
X30239Y-25376D01*
X29948Y-25376D01*
X29881Y-25389D01*
X29825Y-25427D01*
X29669Y-25583D01*
X29589Y-25550D01*
X29410Y-25549D01*
X29245Y-25618D01*
X29118Y-25744D01*
X29050Y-25910D01*
X29049Y-26089D01*
X29118Y-26254D01*
X29244Y-26381D01*
X29410Y-26449D01*
X29589Y-26450D01*
X29754Y-26381D01*
X29881Y-26255D01*
X29949Y-26089D01*
X29950Y-25910D01*
X29916Y-25830D01*
X30021Y-25726D01*
X30137Y-25726D01*
X30118Y-25744D01*
X30050Y-25910D01*
X30049Y-26089D01*
X30118Y-26254D01*
X30184Y-26321D01*
X30003Y-26321D01*
X29936Y-26334D01*
X29880Y-26372D01*
X29669Y-26583D01*
X29589Y-26550D01*
X29410Y-26549D01*
X29245Y-26618D01*
X29118Y-26744D01*
X29050Y-26910D01*
X29049Y-27089D01*
X29118Y-27254D01*
X29244Y-27381D01*
X29410Y-27449D01*
X29589Y-27450D01*
X29754Y-27381D01*
X29881Y-27255D01*
X29949Y-27089D01*
X29950Y-26910D01*
X29916Y-26830D01*
X30076Y-26671D01*
X30192Y-26671D01*
X30118Y-26744D01*
X30050Y-26910D01*
X30049Y-27089D01*
X30118Y-27254D01*
X30168Y-27305D01*
X30019Y-27305D01*
X29952Y-27318D01*
X29895Y-27356D01*
X29895Y-27356D01*
X29895Y-27356D01*
X29669Y-27583D01*
X29589Y-27550D01*
X29410Y-27549D01*
X29245Y-27618D01*
X29118Y-27744D01*
X29050Y-27910D01*
X29049Y-28089D01*
X29118Y-28254D01*
X29244Y-28381D01*
X29410Y-28449D01*
X29589Y-28450D01*
X29754Y-28381D01*
X29881Y-28255D01*
X29949Y-28089D01*
X29950Y-27910D01*
X29916Y-27830D01*
X30092Y-27655D01*
X30208Y-27655D01*
X30118Y-27744D01*
X30050Y-27910D01*
X30049Y-28089D01*
X30118Y-28254D01*
X30192Y-28328D01*
X29996Y-28328D01*
X29929Y-28342D01*
X29872Y-28380D01*
X29669Y-28583D01*
X29589Y-28550D01*
X29410Y-28549D01*
X29245Y-28618D01*
X29118Y-28744D01*
X29050Y-28910D01*
X29049Y-29089D01*
X29118Y-29254D01*
X29244Y-29381D01*
X29410Y-29449D01*
X29589Y-29450D01*
X29754Y-29381D01*
X29881Y-29255D01*
X29949Y-29089D01*
X29950Y-28910D01*
X29916Y-28830D01*
X30068Y-28678D01*
X30184Y-28678D01*
X30118Y-28744D01*
X30050Y-28910D01*
X30049Y-29089D01*
X30118Y-29254D01*
X30176Y-29313D01*
X30011Y-29313D01*
X29944Y-29326D01*
X29888Y-29364D01*
X29669Y-29583D01*
X29589Y-29550D01*
X29410Y-29549D01*
X29245Y-29618D01*
X29118Y-29744D01*
X29050Y-29910D01*
X29049Y-30089D01*
X29118Y-30254D01*
X29244Y-30381D01*
X29410Y-30449D01*
X29589Y-30450D01*
X29754Y-30381D01*
X29881Y-30255D01*
X29949Y-30089D01*
X29950Y-29910D01*
X29916Y-29830D01*
X30084Y-29663D01*
X30200Y-29663D01*
X30118Y-29744D01*
X30050Y-29910D01*
X30049Y-30089D01*
X30118Y-30254D01*
X30200Y-30336D01*
X29988Y-30336D01*
X29921Y-30350D01*
X29864Y-30388D01*
X29864Y-30388D01*
X29864Y-30388D01*
X29669Y-30583D01*
X29589Y-30550D01*
X29410Y-30549D01*
X29245Y-30618D01*
X29118Y-30744D01*
X29050Y-30910D01*
X29049Y-31089D01*
X29118Y-31254D01*
X29244Y-31381D01*
X29410Y-31449D01*
X29589Y-31450D01*
X29754Y-31381D01*
X29881Y-31255D01*
X29949Y-31089D01*
X29950Y-30910D01*
X29916Y-30830D01*
X30060Y-30686D01*
X30176Y-30686D01*
X30118Y-30744D01*
X30050Y-30910D01*
X30049Y-31089D01*
X30118Y-31254D01*
X30145Y-31281D01*
X30043Y-31281D01*
X30043Y-31281D01*
X29976Y-31295D01*
X29919Y-31332D01*
X29919Y-31332D01*
X29669Y-31583D01*
X29589Y-31550D01*
X29410Y-31549D01*
X29245Y-31618D01*
X29118Y-31744D01*
X29050Y-31910D01*
X29049Y-32089D01*
X29118Y-32254D01*
X29244Y-32381D01*
X29410Y-32449D01*
X29589Y-32450D01*
X29754Y-32381D01*
X29881Y-32255D01*
X29949Y-32089D01*
X29950Y-31910D01*
X29916Y-31830D01*
X30050Y-31697D01*
X30049Y-31729D01*
X30049Y-32329D01*
X30072Y-32384D01*
X30111Y-32423D01*
X29724Y-32423D01*
X29724Y-32423D01*
X29657Y-32436D01*
X29600Y-32474D01*
X29600Y-32474D01*
X29376Y-32699D01*
X29338Y-32755D01*
X29325Y-32822D01*
X29325Y-33085D01*
X29245Y-33118D01*
X29118Y-33244D01*
X29050Y-33410D01*
X29049Y-33589D01*
X29118Y-33754D01*
X29244Y-33881D01*
X29325Y-33914D01*
X29325Y-34585D01*
X29245Y-34618D01*
X29118Y-34744D01*
X29050Y-34910D01*
X29049Y-35089D01*
X29118Y-35254D01*
X29244Y-35381D01*
X29410Y-35449D01*
X29589Y-35450D01*
X29669Y-35416D01*
X29802Y-35550D01*
X29770Y-35549D01*
X29170Y-35549D01*
X29115Y-35572D01*
X29072Y-35614D01*
X29050Y-35670D01*
X29049Y-35729D01*
X29049Y-36329D01*
X29072Y-36384D01*
X29114Y-36427D01*
X29170Y-36449D01*
X29229Y-36450D01*
X29829Y-36450D01*
X29881Y-36428D01*
X29931Y-36478D01*
X29370Y-36478D01*
X29303Y-36491D01*
X29246Y-36529D01*
X29121Y-36654D01*
X29081Y-36614D01*
X28962Y-36564D01*
X28833Y-36564D01*
X28713Y-36614D01*
X28622Y-36705D01*
X28572Y-36824D01*
X28572Y-36954D01*
X28621Y-37073D01*
X28713Y-37165D01*
X28832Y-37214D01*
X28962Y-37214D01*
X29081Y-37165D01*
X29172Y-37074D01*
X29180Y-37055D01*
X29200Y-37051D01*
X29200Y-37051D01*
X29257Y-37013D01*
X29442Y-36828D01*
X30596Y-36828D01*
X30899Y-37131D01*
X30956Y-37169D01*
X30956Y-37169D01*
X31023Y-37182D01*
X31180Y-37182D01*
X31118Y-37244D01*
X31050Y-37410D01*
X31049Y-37589D01*
X31118Y-37754D01*
X31244Y-37881D01*
X31410Y-37949D01*
X31486Y-37949D01*
X31363Y-37956D01*
X31212Y-38018D01*
X31184Y-38114D01*
X31500Y-38429D01*
X31815Y-38114D01*
X31787Y-38018D01*
X31592Y-37948D01*
X31754Y-37881D01*
X31881Y-37755D01*
X31949Y-37589D01*
X31950Y-37410D01*
X31881Y-37245D01*
X31819Y-37182D01*
X31935Y-37182D01*
X32083Y-37330D01*
X32050Y-37410D01*
X32049Y-37589D01*
X32118Y-37754D01*
X32244Y-37881D01*
X32410Y-37949D01*
X32486Y-37949D01*
X32363Y-37956D01*
X32212Y-38018D01*
X32184Y-38114D01*
X32500Y-38429D01*
X32505Y-38423D01*
X32576Y-38494D01*
X32570Y-38500D01*
X32885Y-38815D01*
X32981Y-38787D01*
X33051Y-38592D01*
X33118Y-38754D01*
X33244Y-38881D01*
X33410Y-38949D01*
X33589Y-38950D01*
X33754Y-38881D01*
X33881Y-38755D01*
X33949Y-38589D01*
X33950Y-38410D01*
X33881Y-38245D01*
X33755Y-38118D01*
X33589Y-38050D01*
X33410Y-38049D01*
X33330Y-38083D01*
X33167Y-37919D01*
X33167Y-37803D01*
X33244Y-37881D01*
X33410Y-37949D01*
X33589Y-37950D01*
X33754Y-37881D01*
X33881Y-37755D01*
X33949Y-37589D01*
X33950Y-37410D01*
X33881Y-37245D01*
X33755Y-37118D01*
X33720Y-37104D01*
X34279Y-37104D01*
X34245Y-37118D01*
X34118Y-37244D01*
X34050Y-37410D01*
X34049Y-37589D01*
X34118Y-37754D01*
X34244Y-37881D01*
X34410Y-37949D01*
X34589Y-37950D01*
X34754Y-37881D01*
X34825Y-37811D01*
X34825Y-38000D01*
X34838Y-38066D01*
X34876Y-38123D01*
X35083Y-38330D01*
X35050Y-38410D01*
X35049Y-38589D01*
X35118Y-38754D01*
X35244Y-38881D01*
X35410Y-38949D01*
X35589Y-38950D01*
X35754Y-38881D01*
X35881Y-38755D01*
X35949Y-38589D01*
X35950Y-38410D01*
X35881Y-38245D01*
X35755Y-38118D01*
X35589Y-38050D01*
X35410Y-38049D01*
X35330Y-38083D01*
X35175Y-37927D01*
X35175Y-37811D01*
X35244Y-37881D01*
X35410Y-37949D01*
X35589Y-37950D01*
X35754Y-37881D01*
X35881Y-37755D01*
X35887Y-37739D01*
X35887Y-38062D01*
X35901Y-38129D01*
X35939Y-38186D01*
X36083Y-38330D01*
X36050Y-38410D01*
X36049Y-38589D01*
X36118Y-38754D01*
X36244Y-38881D01*
X36410Y-38949D01*
X36589Y-38950D01*
X36754Y-38881D01*
X36881Y-38755D01*
X36949Y-38589D01*
X36950Y-38410D01*
X36881Y-38245D01*
X36755Y-38118D01*
X36589Y-38050D01*
X36410Y-38049D01*
X36330Y-38083D01*
X36237Y-37990D01*
X36237Y-37874D01*
X36244Y-37881D01*
X36410Y-37949D01*
X36589Y-37950D01*
X36754Y-37881D01*
X36793Y-37842D01*
X36793Y-37968D01*
X36806Y-38035D01*
X36844Y-38092D01*
X37083Y-38330D01*
X37050Y-38410D01*
X37049Y-38589D01*
X37118Y-38754D01*
X37244Y-38881D01*
X37410Y-38949D01*
X37589Y-38950D01*
X37754Y-38881D01*
X37881Y-38755D01*
X37949Y-38589D01*
X37950Y-38410D01*
X37881Y-38245D01*
X37755Y-38118D01*
X37589Y-38050D01*
X37410Y-38049D01*
X37330Y-38083D01*
X37143Y-37896D01*
X37143Y-37779D01*
X37244Y-37881D01*
X37410Y-37949D01*
X37589Y-37950D01*
X37754Y-37881D01*
X37856Y-37779D01*
X37856Y-38031D01*
X37869Y-38098D01*
X37907Y-38155D01*
X38083Y-38330D01*
X38050Y-38410D01*
X38049Y-38589D01*
X38118Y-38754D01*
X38244Y-38881D01*
X38410Y-38949D01*
X38589Y-38950D01*
X38754Y-38881D01*
X38881Y-38755D01*
X38949Y-38589D01*
X38950Y-38410D01*
X38881Y-38245D01*
X38755Y-38118D01*
X38589Y-38050D01*
X38410Y-38049D01*
X38330Y-38083D01*
X38206Y-37959D01*
X38206Y-37842D01*
X38244Y-37881D01*
X38410Y-37949D01*
X38589Y-37950D01*
X38754Y-37881D01*
X38801Y-37834D01*
X38801Y-37992D01*
X38814Y-38059D01*
X38852Y-38115D01*
X39078Y-38341D01*
X39050Y-38410D01*
X39049Y-38589D01*
X39118Y-38754D01*
X39244Y-38881D01*
X39410Y-38949D01*
X39589Y-38950D01*
X39754Y-38881D01*
X39881Y-38755D01*
X39949Y-38589D01*
X39950Y-38410D01*
X39881Y-38245D01*
X39755Y-38118D01*
X39589Y-38050D01*
X39410Y-38049D01*
X39319Y-38087D01*
X39151Y-37919D01*
X39151Y-37787D01*
X39244Y-37881D01*
X39410Y-37949D01*
X39589Y-37950D01*
X39754Y-37881D01*
X39881Y-37755D01*
X39949Y-37589D01*
X39950Y-37410D01*
X39881Y-37245D01*
X39779Y-37143D01*
X39896Y-37143D01*
X40049Y-37297D01*
X40049Y-37829D01*
X40072Y-37884D01*
X40114Y-37927D01*
X40170Y-37949D01*
X40229Y-37950D01*
X40829Y-37950D01*
X40884Y-37927D01*
X40927Y-37885D01*
X40949Y-37829D01*
X40950Y-37770D01*
X40950Y-37170D01*
X40927Y-37115D01*
X40885Y-37072D01*
X40829Y-37050D01*
X40770Y-37049D01*
X40297Y-37049D01*
X40139Y-36892D01*
X40241Y-36892D01*
X40304Y-36829D01*
X40304Y-36467D01*
X40304Y-36367D01*
X40304Y-36004D01*
X40241Y-35942D01*
X40107Y-35942D01*
X40016Y-35980D01*
X39945Y-36050D01*
X39907Y-36142D01*
X39907Y-36241D01*
X39907Y-36304D01*
X39969Y-36367D01*
X40304Y-36367D01*
X40304Y-36467D01*
X39969Y-36467D01*
X39907Y-36529D01*
X39907Y-36592D01*
X39907Y-36692D01*
X39945Y-36784D01*
X39955Y-36793D01*
X39403Y-36793D01*
X39402Y-36792D01*
X39754Y-36792D01*
X39809Y-36769D01*
X39851Y-36727D01*
X39874Y-36672D01*
X39874Y-36612D01*
X39874Y-36162D01*
X39851Y-36107D01*
X39809Y-36065D01*
X39754Y-36042D01*
X39727Y-36042D01*
X39727Y-35889D01*
X39802Y-35814D01*
X39852Y-35694D01*
X39852Y-35565D01*
X39803Y-35446D01*
X39727Y-35370D01*
X39727Y-34842D01*
X39712Y-34765D01*
X39712Y-34765D01*
X39697Y-34744D01*
X39668Y-34701D01*
X39668Y-34701D01*
X39353Y-34386D01*
X39353Y-33868D01*
X39656Y-34171D01*
X39713Y-34209D01*
X39713Y-34209D01*
X39780Y-34222D01*
X42498Y-34222D01*
X42474Y-34246D01*
X42436Y-34303D01*
X42423Y-34370D01*
X42423Y-34415D01*
X41924Y-34914D01*
X41915Y-34911D01*
X41786Y-34911D01*
X41666Y-34960D01*
X41575Y-35051D01*
X41525Y-35171D01*
X41525Y-35300D01*
X41574Y-35420D01*
X41661Y-35506D01*
X41644Y-35499D01*
X41584Y-35499D01*
X40875Y-35499D01*
X40820Y-35522D01*
X40778Y-35564D01*
X40755Y-35619D01*
X40755Y-35679D01*
X40755Y-36042D01*
X40692Y-35980D01*
X40600Y-35942D01*
X40466Y-35942D01*
X40404Y-36004D01*
X40404Y-36367D01*
X40412Y-36367D01*
X40412Y-36467D01*
X40404Y-36467D01*
X40404Y-36829D01*
X40466Y-36892D01*
X40600Y-36892D01*
X40692Y-36854D01*
X40762Y-36784D01*
X40767Y-36772D01*
X40777Y-36797D01*
X40820Y-36839D01*
X40875Y-36862D01*
X40934Y-36862D01*
X41643Y-36862D01*
X41699Y-36839D01*
X41741Y-36797D01*
X41764Y-36742D01*
X41764Y-36682D01*
X41764Y-36199D01*
X41855Y-36108D01*
X41864Y-36112D01*
X41993Y-36112D01*
X42112Y-36063D01*
X42204Y-35971D01*
X42254Y-35852D01*
X42254Y-35723D01*
X42204Y-35603D01*
X42113Y-35512D01*
X42057Y-35488D01*
X42125Y-35420D01*
X42175Y-35301D01*
X42175Y-35171D01*
X42171Y-35162D01*
X42722Y-34611D01*
X42722Y-34611D01*
X42722Y-34611D01*
X42760Y-34555D01*
X42773Y-34488D01*
X42773Y-34488D01*
X42773Y-34488D01*
X42773Y-34442D01*
X42952Y-34263D01*
X42938Y-34330D01*
X42938Y-34542D01*
X42491Y-34989D01*
X42455Y-34989D01*
X42335Y-35039D01*
X42244Y-35130D01*
X42194Y-35250D01*
X42194Y-35379D01*
X42244Y-35498D01*
X42335Y-35590D01*
X42454Y-35639D01*
X42584Y-35640D01*
X42647Y-35613D01*
X42645Y-35619D01*
X42645Y-35679D01*
X42645Y-36742D01*
X42667Y-36797D01*
X42710Y-36839D01*
X42765Y-36862D01*
X42824Y-36862D01*
X43533Y-36862D01*
X43589Y-36839D01*
X43631Y-36797D01*
X43654Y-36742D01*
X43654Y-36682D01*
X43654Y-35619D01*
X43631Y-35564D01*
X43589Y-35522D01*
X43534Y-35499D01*
X43474Y-35499D01*
X42794Y-35499D01*
X42795Y-35499D01*
X42844Y-35379D01*
X42844Y-35343D01*
X43365Y-34822D01*
X43419Y-34741D01*
X43438Y-34645D01*
X43438Y-34434D01*
X43532Y-34340D01*
X43568Y-34340D01*
X43687Y-34291D01*
X43779Y-34200D01*
X43828Y-34080D01*
X43828Y-33951D01*
X43779Y-33831D01*
X43688Y-33740D01*
X43568Y-33690D01*
X43525Y-33690D01*
X44336Y-32879D01*
X44379Y-32922D01*
X45008Y-32922D01*
X45008Y-32391D01*
X44946Y-32328D01*
X44584Y-32328D01*
X44584Y-32262D01*
X44659Y-32293D01*
X44788Y-32293D01*
X44908Y-32244D01*
X44999Y-32152D01*
X45049Y-32033D01*
X45049Y-31904D01*
X45000Y-31784D01*
X44959Y-31744D01*
X44993Y-31710D01*
X45196Y-31710D01*
X45263Y-31697D01*
X45263Y-31697D01*
X45320Y-31659D01*
X45445Y-31534D01*
X45538Y-31496D01*
X45629Y-31404D01*
X45679Y-31285D01*
X45679Y-31156D01*
X45649Y-31083D01*
X45974Y-31083D01*
X46029Y-31060D01*
X46049Y-31040D01*
X46049Y-31089D01*
X46118Y-31254D01*
X46244Y-31381D01*
X46410Y-31449D01*
X46589Y-31450D01*
X46754Y-31381D01*
X46881Y-31255D01*
X46949Y-31089D01*
X46949Y-31013D01*
X46956Y-31136D01*
X47018Y-31287D01*
X47114Y-31315D01*
X47429Y-31000D01*
X47423Y-30994D01*
X47494Y-30923D01*
X47500Y-30929D01*
X47505Y-30923D01*
X47576Y-30994D01*
X47570Y-31000D01*
X47576Y-31005D01*
X47505Y-31076D01*
X47500Y-31070D01*
X47184Y-31385D01*
X47212Y-31481D01*
X47260Y-31498D01*
X47212Y-31518D01*
X47184Y-31614D01*
X47500Y-31929D01*
X47505Y-31923D01*
X47576Y-31994D01*
X47570Y-32000D01*
X47576Y-32005D01*
X47505Y-32076D01*
X47500Y-32070D01*
X47494Y-32076D01*
X47429Y-32011D01*
X47423Y-32005D01*
X47429Y-32000D01*
X47114Y-31684D01*
X47018Y-31712D01*
X46948Y-31907D01*
X46881Y-31745D01*
X46755Y-31618D01*
X46589Y-31550D01*
X46410Y-31549D01*
X46245Y-31618D01*
X46118Y-31744D01*
X46050Y-31910D01*
X46049Y-32089D01*
X46118Y-32254D01*
X46244Y-32381D01*
X46410Y-32449D01*
X46514Y-32450D01*
X46481Y-32528D01*
X46481Y-32628D01*
X46481Y-32859D01*
X46544Y-32922D01*
X47173Y-32922D01*
X47173Y-32396D01*
X47184Y-32385D01*
X47212Y-32481D01*
X47273Y-32503D01*
X47273Y-32922D01*
X47281Y-32922D01*
X47281Y-33022D01*
X47273Y-33022D01*
X47273Y-33553D01*
X47336Y-33615D01*
X47765Y-33615D01*
X47851Y-33580D01*
X47851Y-35868D01*
X47765Y-35832D01*
X47336Y-35832D01*
X47273Y-35895D01*
X47273Y-36426D01*
X47281Y-36426D01*
X47281Y-36526D01*
X47273Y-36526D01*
X47273Y-37057D01*
X47336Y-37119D01*
X47765Y-37119D01*
X47851Y-37084D01*
X47851Y-39190D01*
X47851Y-39190D01*
G37*
G54D26*
X47851Y-39190D02*
X47173Y-39190D01*
X47173Y-37057D01*
X47173Y-36526D01*
X47173Y-36426D01*
X47173Y-35895D01*
X47173Y-33553D01*
X47173Y-33022D01*
X46544Y-33022D01*
X46481Y-33084D01*
X46481Y-33316D01*
X46481Y-33415D01*
X46520Y-33507D01*
X46590Y-33577D01*
X46682Y-33615D01*
X47111Y-33615D01*
X47173Y-33553D01*
X47173Y-35895D01*
X47111Y-35832D01*
X46682Y-35832D01*
X46590Y-35870D01*
X46520Y-35941D01*
X46481Y-36032D01*
X46481Y-36132D01*
X46481Y-36363D01*
X46544Y-36426D01*
X47173Y-36426D01*
X47173Y-36526D01*
X46544Y-36526D01*
X46481Y-36588D01*
X46481Y-36820D01*
X46481Y-36919D01*
X46520Y-37011D01*
X46590Y-37081D01*
X46682Y-37119D01*
X47111Y-37119D01*
X47173Y-37057D01*
X47173Y-39190D01*
X46370Y-39190D01*
X46370Y-35525D01*
X46370Y-33793D01*
X46320Y-33673D01*
X46228Y-33581D01*
X46108Y-33531D01*
X45978Y-33531D01*
X45857Y-33581D01*
X45800Y-33637D01*
X45800Y-33316D01*
X45800Y-32628D01*
X45800Y-32528D01*
X45762Y-32437D01*
X45692Y-32366D01*
X45600Y-32328D01*
X45171Y-32328D01*
X45108Y-32391D01*
X45108Y-32922D01*
X45738Y-32922D01*
X45800Y-32859D01*
X45800Y-32628D01*
X45800Y-33316D01*
X45800Y-33084D01*
X45738Y-33022D01*
X45108Y-33022D01*
X45108Y-33553D01*
X45171Y-33615D01*
X45600Y-33615D01*
X45692Y-33577D01*
X45762Y-33507D01*
X45800Y-33415D01*
X45800Y-33316D01*
X45800Y-33637D01*
X45765Y-33672D01*
X45716Y-33793D01*
X45715Y-33923D01*
X45765Y-34043D01*
X45857Y-34135D01*
X45977Y-34185D01*
X46107Y-34185D01*
X46227Y-34135D01*
X46320Y-34043D01*
X46369Y-33923D01*
X46370Y-33793D01*
X46370Y-35525D01*
X46320Y-35405D01*
X46228Y-35313D01*
X46108Y-35263D01*
X45978Y-35263D01*
X45857Y-35313D01*
X45765Y-35404D01*
X45716Y-35525D01*
X45715Y-35655D01*
X45765Y-35775D01*
X45857Y-35867D01*
X45977Y-35917D01*
X46107Y-35917D01*
X46227Y-35867D01*
X46320Y-35775D01*
X46369Y-35655D01*
X46370Y-35525D01*
X46370Y-39190D01*
X45800Y-39190D01*
X45800Y-36820D01*
X45800Y-36132D01*
X45800Y-36032D01*
X45762Y-35941D01*
X45692Y-35870D01*
X45600Y-35832D01*
X45217Y-35832D01*
X45275Y-35774D01*
X45324Y-35655D01*
X45324Y-35602D01*
X45502Y-35602D01*
X45557Y-35580D01*
X45600Y-35537D01*
X45622Y-35482D01*
X45622Y-35423D01*
X45622Y-35226D01*
X45610Y-35196D01*
X45622Y-35167D01*
X45622Y-35108D01*
X45622Y-34911D01*
X45610Y-34881D01*
X45622Y-34852D01*
X45622Y-34793D01*
X45622Y-34596D01*
X45610Y-34566D01*
X45622Y-34537D01*
X45622Y-34478D01*
X45622Y-34396D01*
X45684Y-34334D01*
X45722Y-34242D01*
X45722Y-34206D01*
X45722Y-33982D01*
X45722Y-33945D01*
X45684Y-33854D01*
X45614Y-33783D01*
X45522Y-33745D01*
X45132Y-33745D01*
X45069Y-33808D01*
X45069Y-34045D01*
X45660Y-34045D01*
X45722Y-33982D01*
X45722Y-34206D01*
X45660Y-34143D01*
X45069Y-34143D01*
X45069Y-34152D01*
X45008Y-34152D01*
X45008Y-33553D01*
X45008Y-33022D01*
X44379Y-33022D01*
X44316Y-33084D01*
X44316Y-33316D01*
X44316Y-33415D01*
X44355Y-33507D01*
X44425Y-33577D01*
X44517Y-33615D01*
X44946Y-33615D01*
X45008Y-33553D01*
X45008Y-34152D01*
X44969Y-34152D01*
X44969Y-34143D01*
X44969Y-34045D01*
X44969Y-33808D01*
X44907Y-33745D01*
X44517Y-33745D01*
X44425Y-33783D01*
X44355Y-33854D01*
X44316Y-33945D01*
X44316Y-33982D01*
X44379Y-34045D01*
X44969Y-34045D01*
X44969Y-34143D01*
X44379Y-34143D01*
X44316Y-34206D01*
X44316Y-34242D01*
X44332Y-34281D01*
X44226Y-34281D01*
X44107Y-34330D01*
X44015Y-34421D01*
X43966Y-34541D01*
X43966Y-34670D01*
X44015Y-34790D01*
X44067Y-34842D01*
X44015Y-34894D01*
X43966Y-35013D01*
X43966Y-35143D01*
X44015Y-35262D01*
X44107Y-35354D01*
X44226Y-35403D01*
X44355Y-35403D01*
X44416Y-35378D01*
X44416Y-35482D01*
X44439Y-35537D01*
X44481Y-35579D01*
X44536Y-35602D01*
X44596Y-35602D01*
X44674Y-35602D01*
X44674Y-35654D01*
X44724Y-35774D01*
X44782Y-35832D01*
X44517Y-35832D01*
X44425Y-35870D01*
X44355Y-35941D01*
X44316Y-36032D01*
X44316Y-36132D01*
X44316Y-36363D01*
X44379Y-36426D01*
X45008Y-36426D01*
X45008Y-36418D01*
X45108Y-36418D01*
X45108Y-36426D01*
X45738Y-36426D01*
X45800Y-36363D01*
X45800Y-36132D01*
X45800Y-36820D01*
X45800Y-36588D01*
X45738Y-36526D01*
X45108Y-36526D01*
X45108Y-37057D01*
X45171Y-37119D01*
X45600Y-37119D01*
X45692Y-37081D01*
X45762Y-37011D01*
X45800Y-36919D01*
X45800Y-36820D01*
X45800Y-39190D01*
X45008Y-39190D01*
X45008Y-37057D01*
X45008Y-36526D01*
X44379Y-36526D01*
X44316Y-36588D01*
X44316Y-36820D01*
X44316Y-36919D01*
X44355Y-37011D01*
X44425Y-37081D01*
X44517Y-37119D01*
X44946Y-37119D01*
X45008Y-37057D01*
X45008Y-39190D01*
X44554Y-39190D01*
X44554Y-38581D01*
X44543Y-38363D01*
X44481Y-38212D01*
X44450Y-38203D01*
X44450Y-37770D01*
X44450Y-37170D01*
X44427Y-37115D01*
X44385Y-37072D01*
X44329Y-37050D01*
X44270Y-37049D01*
X43670Y-37049D01*
X43615Y-37072D01*
X43572Y-37114D01*
X43550Y-37170D01*
X43549Y-37229D01*
X43549Y-37829D01*
X43572Y-37884D01*
X43614Y-37927D01*
X43670Y-37949D01*
X43729Y-37950D01*
X43985Y-37950D01*
X43863Y-37956D01*
X43712Y-38018D01*
X43684Y-38114D01*
X44000Y-38429D01*
X44315Y-38114D01*
X44287Y-38018D01*
X44095Y-37950D01*
X44329Y-37950D01*
X44384Y-37927D01*
X44427Y-37885D01*
X44449Y-37829D01*
X44450Y-37770D01*
X44450Y-38203D01*
X44385Y-38184D01*
X44070Y-38500D01*
X44385Y-38815D01*
X44481Y-38787D01*
X44554Y-38581D01*
X44554Y-39190D01*
X44315Y-39190D01*
X44315Y-38885D01*
X44000Y-38570D01*
X43929Y-38641D01*
X43929Y-38500D01*
X43614Y-38184D01*
X43518Y-38212D01*
X43501Y-38260D01*
X43481Y-38212D01*
X43450Y-38203D01*
X43450Y-37410D01*
X43381Y-37245D01*
X43255Y-37118D01*
X43089Y-37050D01*
X42910Y-37049D01*
X42745Y-37118D01*
X42618Y-37244D01*
X42550Y-37410D01*
X42549Y-37589D01*
X42618Y-37754D01*
X42744Y-37881D01*
X42910Y-37949D01*
X42986Y-37949D01*
X42863Y-37956D01*
X42712Y-38018D01*
X42684Y-38114D01*
X43000Y-38429D01*
X43315Y-38114D01*
X43287Y-38018D01*
X43092Y-37948D01*
X43254Y-37881D01*
X43381Y-37755D01*
X43449Y-37589D01*
X43450Y-37410D01*
X43450Y-38203D01*
X43385Y-38184D01*
X43070Y-38500D01*
X43385Y-38815D01*
X43481Y-38787D01*
X43498Y-38739D01*
X43518Y-38787D01*
X43614Y-38815D01*
X43929Y-38500D01*
X43929Y-38641D01*
X43684Y-38885D01*
X43712Y-38981D01*
X43918Y-39054D01*
X44136Y-39043D01*
X44287Y-38981D01*
X44315Y-38885D01*
X44315Y-39190D01*
X43315Y-39190D01*
X43315Y-38885D01*
X43000Y-38570D01*
X42929Y-38641D01*
X42929Y-38500D01*
X42614Y-38184D01*
X42518Y-38212D01*
X42501Y-38260D01*
X42481Y-38212D01*
X42450Y-38203D01*
X42450Y-37410D01*
X42381Y-37245D01*
X42255Y-37118D01*
X42089Y-37050D01*
X41910Y-37049D01*
X41745Y-37118D01*
X41618Y-37244D01*
X41550Y-37410D01*
X41549Y-37589D01*
X41618Y-37754D01*
X41744Y-37881D01*
X41910Y-37949D01*
X41986Y-37949D01*
X41863Y-37956D01*
X41712Y-38018D01*
X41684Y-38114D01*
X42000Y-38429D01*
X42315Y-38114D01*
X42287Y-38018D01*
X42092Y-37948D01*
X42254Y-37881D01*
X42381Y-37755D01*
X42449Y-37589D01*
X42450Y-37410D01*
X42450Y-38203D01*
X42385Y-38184D01*
X42070Y-38500D01*
X42385Y-38815D01*
X42481Y-38787D01*
X42498Y-38739D01*
X42518Y-38787D01*
X42614Y-38815D01*
X42929Y-38500D01*
X42929Y-38641D01*
X42684Y-38885D01*
X42712Y-38981D01*
X42918Y-39054D01*
X43136Y-39043D01*
X43287Y-38981D01*
X43315Y-38885D01*
X43315Y-39190D01*
X42315Y-39190D01*
X42315Y-38885D01*
X42000Y-38570D01*
X41929Y-38641D01*
X41929Y-38500D01*
X41614Y-38184D01*
X41518Y-38212D01*
X41445Y-38418D01*
X41456Y-38636D01*
X41518Y-38787D01*
X41614Y-38815D01*
X41929Y-38500D01*
X41929Y-38641D01*
X41684Y-38885D01*
X41712Y-38981D01*
X41918Y-39054D01*
X42136Y-39043D01*
X42287Y-38981D01*
X42315Y-38885D01*
X42315Y-39190D01*
X40950Y-39190D01*
X40950Y-38410D01*
X40881Y-38245D01*
X40755Y-38118D01*
X40589Y-38050D01*
X40410Y-38049D01*
X40245Y-38118D01*
X40118Y-38244D01*
X40050Y-38410D01*
X40049Y-38589D01*
X40118Y-38754D01*
X40244Y-38881D01*
X40410Y-38949D01*
X40589Y-38950D01*
X40754Y-38881D01*
X40881Y-38755D01*
X40949Y-38589D01*
X40950Y-38410D01*
X40950Y-39190D01*
X34950Y-39190D01*
X34950Y-38410D01*
X34881Y-38245D01*
X34755Y-38118D01*
X34589Y-38050D01*
X34410Y-38049D01*
X34245Y-38118D01*
X34118Y-38244D01*
X34050Y-38410D01*
X34049Y-38589D01*
X34118Y-38754D01*
X34244Y-38881D01*
X34410Y-38949D01*
X34589Y-38950D01*
X34754Y-38881D01*
X34881Y-38755D01*
X34949Y-38589D01*
X34950Y-38410D01*
X34950Y-39190D01*
X32815Y-39190D01*
X32815Y-38885D01*
X32500Y-38570D01*
X32429Y-38641D01*
X32429Y-38500D01*
X32114Y-38184D01*
X32018Y-38212D01*
X32001Y-38260D01*
X31981Y-38212D01*
X31885Y-38184D01*
X31570Y-38500D01*
X31885Y-38815D01*
X31981Y-38787D01*
X31998Y-38739D01*
X32018Y-38787D01*
X32114Y-38815D01*
X32429Y-38500D01*
X32429Y-38641D01*
X32184Y-38885D01*
X32212Y-38981D01*
X32418Y-39054D01*
X32636Y-39043D01*
X32787Y-38981D01*
X32815Y-38885D01*
X32815Y-39190D01*
X31815Y-39190D01*
X31815Y-38885D01*
X31500Y-38570D01*
X31429Y-38641D01*
X31429Y-38500D01*
X31114Y-38184D01*
X31018Y-38212D01*
X30945Y-38418D01*
X30956Y-38636D01*
X31018Y-38787D01*
X31114Y-38815D01*
X31429Y-38500D01*
X31429Y-38641D01*
X31184Y-38885D01*
X31212Y-38981D01*
X31418Y-39054D01*
X31636Y-39043D01*
X31787Y-38981D01*
X31815Y-38885D01*
X31815Y-39190D01*
X28525Y-39190D01*
X28525Y-19864D01*
X32203Y-19864D01*
X32137Y-19877D01*
X32080Y-19915D01*
X31844Y-20151D01*
X31822Y-20185D01*
X31755Y-20118D01*
X31589Y-20050D01*
X31410Y-20049D01*
X31245Y-20118D01*
X31118Y-20244D01*
X31050Y-20410D01*
X31049Y-20589D01*
X31083Y-20669D01*
X30939Y-20813D01*
X30901Y-20870D01*
X30887Y-20937D01*
X30887Y-22760D01*
X30881Y-22745D01*
X30755Y-22618D01*
X30589Y-22550D01*
X30410Y-22549D01*
X30245Y-22618D01*
X30118Y-22744D01*
X30050Y-22910D01*
X30050Y-22986D01*
X30043Y-22863D01*
X29981Y-22712D01*
X29885Y-22684D01*
X29815Y-22755D01*
X29815Y-22614D01*
X29787Y-22518D01*
X29581Y-22445D01*
X29363Y-22456D01*
X29212Y-22518D01*
X29184Y-22614D01*
X29500Y-22929D01*
X29815Y-22614D01*
X29815Y-22755D01*
X29570Y-23000D01*
X29885Y-23315D01*
X29981Y-23287D01*
X30051Y-23092D01*
X30118Y-23254D01*
X30244Y-23381D01*
X30410Y-23449D01*
X30589Y-23450D01*
X30754Y-23381D01*
X30881Y-23255D01*
X30887Y-23239D01*
X30887Y-23760D01*
X30881Y-23745D01*
X30755Y-23618D01*
X30589Y-23550D01*
X30410Y-23549D01*
X30245Y-23618D01*
X30118Y-23744D01*
X30050Y-23910D01*
X30050Y-23986D01*
X30043Y-23863D01*
X29981Y-23712D01*
X29885Y-23684D01*
X29815Y-23755D01*
X29815Y-23614D01*
X29787Y-23518D01*
X29739Y-23501D01*
X29787Y-23481D01*
X29815Y-23385D01*
X29500Y-23070D01*
X29429Y-23141D01*
X29429Y-23000D01*
X29114Y-22684D01*
X29018Y-22712D01*
X28945Y-22918D01*
X28956Y-23136D01*
X29018Y-23287D01*
X29114Y-23315D01*
X29429Y-23000D01*
X29429Y-23141D01*
X29184Y-23385D01*
X29212Y-23481D01*
X29260Y-23498D01*
X29212Y-23518D01*
X29184Y-23614D01*
X29500Y-23929D01*
X29815Y-23614D01*
X29815Y-23755D01*
X29570Y-24000D01*
X29576Y-24005D01*
X29505Y-24076D01*
X29500Y-24070D01*
X29429Y-24141D01*
X29429Y-24000D01*
X29114Y-23684D01*
X29018Y-23712D01*
X28945Y-23918D01*
X28956Y-24136D01*
X29018Y-24287D01*
X29114Y-24315D01*
X29429Y-24000D01*
X29429Y-24141D01*
X29184Y-24385D01*
X29212Y-24481D01*
X29407Y-24551D01*
X29245Y-24618D01*
X29118Y-24744D01*
X29050Y-24910D01*
X29049Y-25089D01*
X29118Y-25254D01*
X29244Y-25381D01*
X29410Y-25449D01*
X29589Y-25450D01*
X29754Y-25381D01*
X29881Y-25255D01*
X29949Y-25089D01*
X29950Y-24910D01*
X29916Y-24830D01*
X30084Y-24663D01*
X30200Y-24663D01*
X30118Y-24744D01*
X30050Y-24910D01*
X30049Y-25089D01*
X30118Y-25254D01*
X30239Y-25376D01*
X29948Y-25376D01*
X29881Y-25389D01*
X29825Y-25427D01*
X29669Y-25583D01*
X29589Y-25550D01*
X29410Y-25549D01*
X29245Y-25618D01*
X29118Y-25744D01*
X29050Y-25910D01*
X29049Y-26089D01*
X29118Y-26254D01*
X29244Y-26381D01*
X29410Y-26449D01*
X29589Y-26450D01*
X29754Y-26381D01*
X29881Y-26255D01*
X29949Y-26089D01*
X29950Y-25910D01*
X29916Y-25830D01*
X30021Y-25726D01*
X30137Y-25726D01*
X30118Y-25744D01*
X30050Y-25910D01*
X30049Y-26089D01*
X30118Y-26254D01*
X30184Y-26321D01*
X30003Y-26321D01*
X29936Y-26334D01*
X29880Y-26372D01*
X29669Y-26583D01*
X29589Y-26550D01*
X29410Y-26549D01*
X29245Y-26618D01*
X29118Y-26744D01*
X29050Y-26910D01*
X29049Y-27089D01*
X29118Y-27254D01*
X29244Y-27381D01*
X29410Y-27449D01*
X29589Y-27450D01*
X29754Y-27381D01*
X29881Y-27255D01*
X29949Y-27089D01*
X29950Y-26910D01*
X29916Y-26830D01*
X30076Y-26671D01*
X30192Y-26671D01*
X30118Y-26744D01*
X30050Y-26910D01*
X30049Y-27089D01*
X30118Y-27254D01*
X30168Y-27305D01*
X30019Y-27305D01*
X29952Y-27318D01*
X29895Y-27356D01*
X29895Y-27356D01*
X29895Y-27356D01*
X29669Y-27583D01*
X29589Y-27550D01*
X29410Y-27549D01*
X29245Y-27618D01*
X29118Y-27744D01*
X29050Y-27910D01*
X29049Y-28089D01*
X29118Y-28254D01*
X29244Y-28381D01*
X29410Y-28449D01*
X29589Y-28450D01*
X29754Y-28381D01*
X29881Y-28255D01*
X29949Y-28089D01*
X29950Y-27910D01*
X29916Y-27830D01*
X30092Y-27655D01*
X30208Y-27655D01*
X30118Y-27744D01*
X30050Y-27910D01*
X30049Y-28089D01*
X30118Y-28254D01*
X30192Y-28328D01*
X29996Y-28328D01*
X29929Y-28342D01*
X29872Y-28380D01*
X29669Y-28583D01*
X29589Y-28550D01*
X29410Y-28549D01*
X29245Y-28618D01*
X29118Y-28744D01*
X29050Y-28910D01*
X29049Y-29089D01*
X29118Y-29254D01*
X29244Y-29381D01*
X29410Y-29449D01*
X29589Y-29450D01*
X29754Y-29381D01*
X29881Y-29255D01*
X29949Y-29089D01*
X29950Y-28910D01*
X29916Y-28830D01*
X30068Y-28678D01*
X30184Y-28678D01*
X30118Y-28744D01*
X30050Y-28910D01*
X30049Y-29089D01*
X30118Y-29254D01*
X30176Y-29313D01*
X30011Y-29313D01*
X29944Y-29326D01*
X29888Y-29364D01*
X29669Y-29583D01*
X29589Y-29550D01*
X29410Y-29549D01*
X29245Y-29618D01*
X29118Y-29744D01*
X29050Y-29910D01*
X29049Y-30089D01*
X29118Y-30254D01*
X29244Y-30381D01*
X29410Y-30449D01*
X29589Y-30450D01*
X29754Y-30381D01*
X29881Y-30255D01*
X29949Y-30089D01*
X29950Y-29910D01*
X29916Y-29830D01*
X30084Y-29663D01*
X30200Y-29663D01*
X30118Y-29744D01*
X30050Y-29910D01*
X30049Y-30089D01*
X30118Y-30254D01*
X30200Y-30336D01*
X29988Y-30336D01*
X29921Y-30350D01*
X29864Y-30388D01*
X29864Y-30388D01*
X29864Y-30388D01*
X29669Y-30583D01*
X29589Y-30550D01*
X29410Y-30549D01*
X29245Y-30618D01*
X29118Y-30744D01*
X29050Y-30910D01*
X29049Y-31089D01*
X29118Y-31254D01*
X29244Y-31381D01*
X29410Y-31449D01*
X29589Y-31450D01*
X29754Y-31381D01*
X29881Y-31255D01*
X29949Y-31089D01*
X29950Y-30910D01*
X29916Y-30830D01*
X30060Y-30686D01*
X30176Y-30686D01*
X30118Y-30744D01*
X30050Y-30910D01*
X30049Y-31089D01*
X30118Y-31254D01*
X30145Y-31281D01*
X30043Y-31281D01*
X30043Y-31281D01*
X29976Y-31295D01*
X29919Y-31332D01*
X29919Y-31332D01*
X29669Y-31583D01*
X29589Y-31550D01*
X29410Y-31549D01*
X29245Y-31618D01*
X29118Y-31744D01*
X29050Y-31910D01*
X29049Y-32089D01*
X29118Y-32254D01*
X29244Y-32381D01*
X29410Y-32449D01*
X29589Y-32450D01*
X29754Y-32381D01*
X29881Y-32255D01*
X29949Y-32089D01*
X29950Y-31910D01*
X29916Y-31830D01*
X30050Y-31697D01*
X30049Y-31729D01*
X30049Y-32329D01*
X30072Y-32384D01*
X30111Y-32423D01*
X29724Y-32423D01*
X29724Y-32423D01*
X29657Y-32436D01*
X29600Y-32474D01*
X29600Y-32474D01*
X29376Y-32699D01*
X29338Y-32755D01*
X29325Y-32822D01*
X29325Y-33085D01*
X29245Y-33118D01*
X29118Y-33244D01*
X29050Y-33410D01*
X29049Y-33589D01*
X29118Y-33754D01*
X29244Y-33881D01*
X29325Y-33914D01*
X29325Y-34585D01*
X29245Y-34618D01*
X29118Y-34744D01*
X29050Y-34910D01*
X29049Y-35089D01*
X29118Y-35254D01*
X29244Y-35381D01*
X29410Y-35449D01*
X29589Y-35450D01*
X29669Y-35416D01*
X29802Y-35550D01*
X29770Y-35549D01*
X29170Y-35549D01*
X29115Y-35572D01*
X29072Y-35614D01*
X29050Y-35670D01*
X29049Y-35729D01*
X29049Y-36329D01*
X29072Y-36384D01*
X29114Y-36427D01*
X29170Y-36449D01*
X29229Y-36450D01*
X29829Y-36450D01*
X29881Y-36428D01*
X29931Y-36478D01*
X29370Y-36478D01*
X29303Y-36491D01*
X29246Y-36529D01*
X29121Y-36654D01*
X29081Y-36614D01*
X28962Y-36564D01*
X28833Y-36564D01*
X28713Y-36614D01*
X28622Y-36705D01*
X28572Y-36824D01*
X28572Y-36954D01*
X28621Y-37073D01*
X28713Y-37165D01*
X28832Y-37214D01*
X28962Y-37214D01*
X29081Y-37165D01*
X29172Y-37074D01*
X29180Y-37055D01*
X29200Y-37051D01*
X29200Y-37051D01*
X29257Y-37013D01*
X29442Y-36828D01*
X30596Y-36828D01*
X30899Y-37131D01*
X30956Y-37169D01*
X30956Y-37169D01*
X31023Y-37182D01*
X31180Y-37182D01*
X31118Y-37244D01*
X31050Y-37410D01*
X31049Y-37589D01*
X31118Y-37754D01*
X31244Y-37881D01*
X31410Y-37949D01*
X31486Y-37949D01*
X31363Y-37956D01*
X31212Y-38018D01*
X31184Y-38114D01*
X31500Y-38429D01*
X31815Y-38114D01*
X31787Y-38018D01*
X31592Y-37948D01*
X31754Y-37881D01*
X31881Y-37755D01*
X31949Y-37589D01*
X31950Y-37410D01*
X31881Y-37245D01*
X31819Y-37182D01*
X31935Y-37182D01*
X32083Y-37330D01*
X32050Y-37410D01*
X32049Y-37589D01*
X32118Y-37754D01*
X32244Y-37881D01*
X32410Y-37949D01*
X32486Y-37949D01*
X32363Y-37956D01*
X32212Y-38018D01*
X32184Y-38114D01*
X32500Y-38429D01*
X32505Y-38423D01*
X32576Y-38494D01*
X32570Y-38500D01*
X32885Y-38815D01*
X32981Y-38787D01*
X33051Y-38592D01*
X33118Y-38754D01*
X33244Y-38881D01*
X33410Y-38949D01*
X33589Y-38950D01*
X33754Y-38881D01*
X33881Y-38755D01*
X33949Y-38589D01*
X33950Y-38410D01*
X33881Y-38245D01*
X33755Y-38118D01*
X33589Y-38050D01*
X33410Y-38049D01*
X33330Y-38083D01*
X33167Y-37919D01*
X33167Y-37803D01*
X33244Y-37881D01*
X33410Y-37949D01*
X33589Y-37950D01*
X33754Y-37881D01*
X33881Y-37755D01*
X33949Y-37589D01*
X33950Y-37410D01*
X33881Y-37245D01*
X33755Y-37118D01*
X33720Y-37104D01*
X34279Y-37104D01*
X34245Y-37118D01*
X34118Y-37244D01*
X34050Y-37410D01*
X34049Y-37589D01*
X34118Y-37754D01*
X34244Y-37881D01*
X34410Y-37949D01*
X34589Y-37950D01*
X34754Y-37881D01*
X34825Y-37811D01*
X34825Y-38000D01*
X34838Y-38066D01*
X34876Y-38123D01*
X35083Y-38330D01*
X35050Y-38410D01*
X35049Y-38589D01*
X35118Y-38754D01*
X35244Y-38881D01*
X35410Y-38949D01*
X35589Y-38950D01*
X35754Y-38881D01*
X35881Y-38755D01*
X35949Y-38589D01*
X35950Y-38410D01*
X35881Y-38245D01*
X35755Y-38118D01*
X35589Y-38050D01*
X35410Y-38049D01*
X35330Y-38083D01*
X35175Y-37927D01*
X35175Y-37811D01*
X35244Y-37881D01*
X35410Y-37949D01*
X35589Y-37950D01*
X35754Y-37881D01*
X35881Y-37755D01*
X35887Y-37739D01*
X35887Y-38062D01*
X35901Y-38129D01*
X35939Y-38186D01*
X36083Y-38330D01*
X36050Y-38410D01*
X36049Y-38589D01*
X36118Y-38754D01*
X36244Y-38881D01*
X36410Y-38949D01*
X36589Y-38950D01*
X36754Y-38881D01*
X36881Y-38755D01*
X36949Y-38589D01*
X36950Y-38410D01*
X36881Y-38245D01*
X36755Y-38118D01*
X36589Y-38050D01*
X36410Y-38049D01*
X36330Y-38083D01*
X36237Y-37990D01*
X36237Y-37874D01*
X36244Y-37881D01*
X36410Y-37949D01*
X36589Y-37950D01*
X36754Y-37881D01*
X36793Y-37842D01*
X36793Y-37968D01*
X36806Y-38035D01*
X36844Y-38092D01*
X37083Y-38330D01*
X37050Y-38410D01*
X37049Y-38589D01*
X37118Y-38754D01*
X37244Y-38881D01*
X37410Y-38949D01*
X37589Y-38950D01*
X37754Y-38881D01*
X37881Y-38755D01*
X37949Y-38589D01*
X37950Y-38410D01*
X37881Y-38245D01*
X37755Y-38118D01*
X37589Y-38050D01*
X37410Y-38049D01*
X37330Y-38083D01*
X37143Y-37896D01*
X37143Y-37779D01*
X37244Y-37881D01*
X37410Y-37949D01*
X37589Y-37950D01*
X37754Y-37881D01*
X37856Y-37779D01*
X37856Y-38031D01*
X37869Y-38098D01*
X37907Y-38155D01*
X38083Y-38330D01*
X38050Y-38410D01*
X38049Y-38589D01*
X38118Y-38754D01*
X38244Y-38881D01*
X38410Y-38949D01*
X38589Y-38950D01*
X38754Y-38881D01*
X38881Y-38755D01*
X38949Y-38589D01*
X38950Y-38410D01*
X38881Y-38245D01*
X38755Y-38118D01*
X38589Y-38050D01*
X38410Y-38049D01*
X38330Y-38083D01*
X38206Y-37959D01*
X38206Y-37842D01*
X38244Y-37881D01*
X38410Y-37949D01*
X38589Y-37950D01*
X38754Y-37881D01*
X38801Y-37834D01*
X38801Y-37992D01*
X38814Y-38059D01*
X38852Y-38115D01*
X39078Y-38341D01*
X39050Y-38410D01*
X39049Y-38589D01*
X39118Y-38754D01*
X39244Y-38881D01*
X39410Y-38949D01*
X39589Y-38950D01*
X39754Y-38881D01*
X39881Y-38755D01*
X39949Y-38589D01*
X39950Y-38410D01*
X39881Y-38245D01*
X39755Y-38118D01*
X39589Y-38050D01*
X39410Y-38049D01*
X39319Y-38087D01*
X39151Y-37919D01*
X39151Y-37787D01*
X39244Y-37881D01*
X39410Y-37949D01*
X39589Y-37950D01*
X39754Y-37881D01*
X39881Y-37755D01*
X39949Y-37589D01*
X39950Y-37410D01*
X39881Y-37245D01*
X39779Y-37143D01*
X39896Y-37143D01*
X40049Y-37297D01*
X40049Y-37829D01*
X40072Y-37884D01*
X40114Y-37927D01*
X40170Y-37949D01*
X40229Y-37950D01*
X40829Y-37950D01*
X40884Y-37927D01*
X40927Y-37885D01*
X40949Y-37829D01*
X40950Y-37770D01*
X40950Y-37170D01*
X40927Y-37115D01*
X40885Y-37072D01*
X40829Y-37050D01*
X40770Y-37049D01*
X40297Y-37049D01*
X40139Y-36892D01*
X40241Y-36892D01*
X40304Y-36829D01*
X40304Y-36467D01*
X40304Y-36367D01*
X40304Y-36004D01*
X40241Y-35942D01*
X40107Y-35942D01*
X40016Y-35980D01*
X39945Y-36050D01*
X39907Y-36142D01*
X39907Y-36241D01*
X39907Y-36304D01*
X39969Y-36367D01*
X40304Y-36367D01*
X40304Y-36467D01*
X39969Y-36467D01*
X39907Y-36529D01*
X39907Y-36592D01*
X39907Y-36692D01*
X39945Y-36784D01*
X39955Y-36793D01*
X39403Y-36793D01*
X39402Y-36792D01*
X39754Y-36792D01*
X39809Y-36769D01*
X39851Y-36727D01*
X39874Y-36672D01*
X39874Y-36612D01*
X39874Y-36162D01*
X39851Y-36107D01*
X39809Y-36065D01*
X39754Y-36042D01*
X39727Y-36042D01*
X39727Y-35889D01*
X39802Y-35814D01*
X39852Y-35694D01*
X39852Y-35565D01*
X39803Y-35446D01*
X39727Y-35370D01*
X39727Y-34842D01*
X39712Y-34765D01*
X39712Y-34765D01*
X39697Y-34744D01*
X39668Y-34701D01*
X39668Y-34701D01*
X39353Y-34386D01*
X39353Y-33868D01*
X39656Y-34171D01*
X39713Y-34209D01*
X39713Y-34209D01*
X39780Y-34222D01*
X42498Y-34222D01*
X42474Y-34246D01*
X42436Y-34303D01*
X42423Y-34370D01*
X42423Y-34415D01*
X41924Y-34914D01*
X41915Y-34911D01*
X41786Y-34911D01*
X41666Y-34960D01*
X41575Y-35051D01*
X41525Y-35171D01*
X41525Y-35300D01*
X41574Y-35420D01*
X41661Y-35506D01*
X41644Y-35499D01*
X41584Y-35499D01*
X40875Y-35499D01*
X40820Y-35522D01*
X40778Y-35564D01*
X40755Y-35619D01*
X40755Y-35679D01*
X40755Y-36042D01*
X40692Y-35980D01*
X40600Y-35942D01*
X40466Y-35942D01*
X40404Y-36004D01*
X40404Y-36367D01*
X40412Y-36367D01*
X40412Y-36467D01*
X40404Y-36467D01*
X40404Y-36829D01*
X40466Y-36892D01*
X40600Y-36892D01*
X40692Y-36854D01*
X40762Y-36784D01*
X40767Y-36772D01*
X40777Y-36797D01*
X40820Y-36839D01*
X40875Y-36862D01*
X40934Y-36862D01*
X41643Y-36862D01*
X41699Y-36839D01*
X41741Y-36797D01*
X41764Y-36742D01*
X41764Y-36682D01*
X41764Y-36199D01*
X41855Y-36108D01*
X41864Y-36112D01*
X41993Y-36112D01*
X42112Y-36063D01*
X42204Y-35971D01*
X42254Y-35852D01*
X42254Y-35723D01*
X42204Y-35603D01*
X42113Y-35512D01*
X42057Y-35488D01*
X42125Y-35420D01*
X42175Y-35301D01*
X42175Y-35171D01*
X42171Y-35162D01*
X42722Y-34611D01*
X42722Y-34611D01*
X42722Y-34611D01*
X42760Y-34555D01*
X42773Y-34488D01*
X42773Y-34488D01*
X42773Y-34488D01*
X42773Y-34442D01*
X42952Y-34263D01*
X42938Y-34330D01*
X42938Y-34542D01*
X42491Y-34989D01*
X42455Y-34989D01*
X42335Y-35039D01*
X42244Y-35130D01*
X42194Y-35250D01*
X42194Y-35379D01*
X42244Y-35498D01*
X42335Y-35590D01*
X42454Y-35639D01*
X42584Y-35640D01*
X42647Y-35613D01*
X42645Y-35619D01*
X42645Y-35679D01*
X42645Y-36742D01*
X42667Y-36797D01*
X42710Y-36839D01*
X42765Y-36862D01*
X42824Y-36862D01*
X43533Y-36862D01*
X43589Y-36839D01*
X43631Y-36797D01*
X43654Y-36742D01*
X43654Y-36682D01*
X43654Y-35619D01*
X43631Y-35564D01*
X43589Y-35522D01*
X43534Y-35499D01*
X43474Y-35499D01*
X42794Y-35499D01*
X42795Y-35499D01*
X42844Y-35379D01*
X42844Y-35343D01*
X43365Y-34822D01*
X43419Y-34741D01*
X43438Y-34645D01*
X43438Y-34434D01*
X43532Y-34340D01*
X43568Y-34340D01*
X43687Y-34291D01*
X43779Y-34200D01*
X43828Y-34080D01*
X43828Y-33951D01*
X43779Y-33831D01*
X43688Y-33740D01*
X43568Y-33690D01*
X43525Y-33690D01*
X44336Y-32879D01*
X44379Y-32922D01*
X45008Y-32922D01*
X45008Y-32391D01*
X44946Y-32328D01*
X44584Y-32328D01*
X44584Y-32262D01*
X44659Y-32293D01*
X44788Y-32293D01*
X44908Y-32244D01*
X44999Y-32152D01*
X45049Y-32033D01*
X45049Y-31904D01*
X45000Y-31784D01*
X44959Y-31744D01*
X44993Y-31710D01*
X45196Y-31710D01*
X45263Y-31697D01*
X45263Y-31697D01*
X45320Y-31659D01*
X45445Y-31534D01*
X45538Y-31496D01*
X45629Y-31404D01*
X45679Y-31285D01*
X45679Y-31156D01*
X45649Y-31083D01*
X45974Y-31083D01*
X46029Y-31060D01*
X46049Y-31040D01*
X46049Y-31089D01*
X46118Y-31254D01*
X46244Y-31381D01*
X46410Y-31449D01*
X46589Y-31450D01*
X46754Y-31381D01*
X46881Y-31255D01*
X46949Y-31089D01*
X46949Y-31013D01*
X46956Y-31136D01*
X47018Y-31287D01*
X47114Y-31315D01*
X47429Y-31000D01*
X47423Y-30994D01*
X47494Y-30923D01*
X47500Y-30929D01*
X47505Y-30923D01*
X47576Y-30994D01*
X47570Y-31000D01*
X47576Y-31005D01*
X47505Y-31076D01*
X47500Y-31070D01*
X47184Y-31385D01*
X47212Y-31481D01*
X47260Y-31498D01*
X47212Y-31518D01*
X47184Y-31614D01*
X47500Y-31929D01*
X47505Y-31923D01*
X47576Y-31994D01*
X47570Y-32000D01*
X47576Y-32005D01*
X47505Y-32076D01*
X47500Y-32070D01*
X47494Y-32076D01*
X47429Y-32011D01*
X47423Y-32005D01*
X47429Y-32000D01*
X47114Y-31684D01*
X47018Y-31712D01*
X46948Y-31907D01*
X46881Y-31745D01*
X46755Y-31618D01*
X46589Y-31550D01*
X46410Y-31549D01*
X46245Y-31618D01*
X46118Y-31744D01*
X46050Y-31910D01*
X46049Y-32089D01*
X46118Y-32254D01*
X46244Y-32381D01*
X46410Y-32449D01*
X46514Y-32450D01*
X46481Y-32528D01*
X46481Y-32628D01*
X46481Y-32859D01*
X46544Y-32922D01*
X47173Y-32922D01*
X47173Y-32396D01*
X47184Y-32385D01*
X47212Y-32481D01*
X47273Y-32503D01*
X47273Y-32922D01*
X47281Y-32922D01*
X47281Y-33022D01*
X47273Y-33022D01*
X47273Y-33553D01*
X47336Y-33615D01*
X47765Y-33615D01*
X47851Y-33580D01*
X47851Y-35868D01*
X47765Y-35832D01*
X47336Y-35832D01*
X47273Y-35895D01*
X47273Y-36426D01*
X47281Y-36426D01*
X47281Y-36526D01*
X47273Y-36526D01*
X47273Y-37057D01*
X47336Y-37119D01*
X47765Y-37119D01*
X47851Y-37084D01*
X47851Y-39190D01*
M02*
