M48
;DRILL file {Pcbnew (2013-07-07 BZR 4022)-stable} date 2015/10/09 5:51:04
;FORMAT={3:3/ absolute / metric / suppress trailing zeros}
FMAT,2
METRIC,LZ
T1C0.635
T2C0.899
T3C1.016
T4C3.200
%
G90
G05
M71
T1
X0728Y-0892
X0729Y-095
X073Y-056
X073Y-059
X073Y-062
X073Y-065
X073Y-068
X073Y-071
X073Y-074
X073Y-077
X073Y-08
X073Y-083
X073Y-086
X0734Y-0937
X0784Y-051
X079Y-099
X0796Y-0622
X0799Y-0638
X0803Y-0872
X0804Y-0818
X0808Y-06
X081Y-099
X0813Y-0761
X0813Y-0775
X082Y-0626
X0825Y-0805
X0826Y-0675
X0831Y-0598
X0831Y-0783
X0833Y-0636
X084Y-099
X0843Y-0783
X085Y-0594
X0852Y-0775
X0861Y-0682
X0863Y-077
X0867Y-0846
X087Y-0594
X0872Y-0925
X0875Y-0886
X0877Y-083
X0882Y-0857
X0885Y-0598
X0888Y-0586
X089Y-099
X0892Y-0655
X0901Y-0506
X0901Y-0935
X0905Y-0566
X0906Y-0724
X0906Y-0788
X0907Y-0903
X0908Y-087
X091Y-081
X0911Y-0754
X0913Y-0735
X0919Y-058
X0919Y-0596
X0922Y-0692
X0925Y-0723
X0925Y-0753
X0927Y-0807
X0929Y-0567
X0937Y-0717
X0939Y-0697
X094Y-0572
X094Y-099
X0943Y-0784
X0944Y-0619
X0947Y-0812
X0953Y-0506
X0953Y-0761
X0955Y-0608
X0957Y-0806
X0959Y-0873
X0961Y-0574
X0963Y-0587
X0964Y-0898
X097Y-0637
X0975Y-0612
X0975Y-0625
X0978Y-0698
X0982Y-0864
X0984Y-0734
X0987Y-0886
X0988Y-0686
X0988Y-075
X099Y-099
X0992Y-0815
X1002Y-0804
X1004Y-0506
X1004Y-0905
X1005Y-0686
X101Y-0874
X1012Y-0763
X1015Y-071
X1015Y-0807
X1017Y-0731
X1019Y-0787
X102Y-0697
X1022Y-0873
X103Y-0718
X1032Y-0778
X1032Y-0796
X1033Y-0763
X1033Y-0937
X1038Y-0835
X104Y-0874
X1045Y-099
X1051Y-063
X1054Y-0506
X1057Y-0874
X1062Y-0692
X1063Y-0895
X1064Y-0745
X1064Y-0765
X1065Y-0909
X1074Y-0694
X1075Y-0824
X108Y-0897
X108Y-099
X11Y-0921
X1105Y-0506
X1105Y-0864
X1112Y-0647
X112Y-0615
X1125Y-0879
X1125Y-0891
X113Y-099
X1136Y-0812
X1138Y-0567
X1143Y-0904
X1144Y-0644
X1144Y-0862
X1152Y-0793
X116Y-099
X1215Y-0777
X1215Y-0819
X1215Y-0849
X1215Y-0873
X1215Y-0897
X1216Y-0597
X1217Y-0749
X1218Y-0623
X1218Y-0649
X1218Y-0674
X1218Y-0699
X1218Y-0724
T2
X116949Y-086
X116949Y-0904
T3
X07493Y-05842
X07493Y-06096
X07493Y-0635
X07493Y-06604
X07493Y-06858
X07493Y-07112
X07493Y-07366
X07493Y-0762
X07493Y-07874
X07493Y-08128
X07493Y-08509
X07493Y-0889
X07493Y-09144
X07747Y-05842
X07747Y-06096
X07747Y-0635
X07747Y-06604
X07747Y-06858
X07747Y-07112
X07747Y-07366
X07747Y-0762
X07747Y-07874
X07747Y-08128
X07747Y-08509
X07747Y-0889
X07747Y-09144
X08001Y-05207
X08001Y-05461
X08001Y-08509
X08001Y-0889
X08001Y-09144
X08001Y-09525
X08001Y-09779
X08255Y-05207
X08255Y-05461
X08255Y-08509
X08255Y-0889
X08255Y-09144
X08255Y-09525
X08255Y-09779
X08323Y-0746
X08509Y-05207
X08509Y-05461
X08509Y-08509
X08509Y-0889
X08509Y-09144
X08509Y-09525
X08509Y-09779
X08577Y-0746
X08763Y-05207
X08763Y-05461
X08763Y-09525
X08763Y-09779
X09017Y-09525
X09017Y-09779
X09144Y-05207
X09144Y-05461
X09271Y-09525
X09271Y-09779
X09398Y-05207
X09398Y-05461
X09525Y-09525
X09525Y-09779
X09652Y-05207
X09652Y-05461
X09779Y-09525
X09779Y-09779
X09906Y-05207
X09906Y-05461
X10033Y-09525
X10033Y-09779
X1016Y-05207
X1016Y-05461
X10287Y-09525
X10287Y-09779
X10414Y-05207
X10414Y-05461
X10668Y-05207
X10668Y-05461
X10668Y-09525
X10668Y-09779
X10922Y-05207
X10922Y-05461
X10922Y-09525
X10922Y-09779
X11176Y-05207
X11176Y-05461
X11176Y-09525
X11176Y-09779
X1143Y-05207
X1143Y-05461
X11811Y-05842
X11811Y-06096
X11811Y-0635
X11811Y-06604
X11811Y-06858
X11811Y-07112
X11811Y-07366
X11811Y-0762
X11811Y-07874
X11811Y-08128
X12065Y-05842
X12065Y-06096
X12065Y-0635
X12065Y-06604
X12065Y-06858
X12065Y-07112
X12065Y-07366
X12065Y-0762
X12065Y-07874
X12065Y-08128
T4
X076Y-054
X076Y-096
X118Y-054
X118Y-096
T0
M30
