M48
;DRILL file {Pcbnew (2013-07-07 BZR 4022)-stable} date 2015/08/01 18:05:45
;FORMAT={3:3/ absolute / metric / suppress trailing zeros}
FMAT,2
METRIC,LZ
T1C0.635
T2C0.899
T3C1.016
T4C3.200
%
G90
G05
M71
T1
X048Y-029
X048Y-034
X048Y-039
X048Y-044
X048Y-049
X048Y-054
X048Y-059
X048Y-064
X048Y-069
X048Y-074
X048Y-08
X048Y-085
X048Y-09
X048Y-095
X048Y-1
X048Y-106
X048Y-111
X055Y-022
X056Y-116
X058Y-077
X0593Y-0391
X05975Y-08975
X05975Y-09375
X06Y-022
X061Y-116
X0617Y-0401
X06225Y-07775
X06225Y-08625
X0625Y-06075
X06375Y-05775
X06375Y-10775
X0642Y-0401
X065Y-022
X06525Y-0535
X06525Y-07
X0655Y-08625
X0655Y-09
X0655Y-09375
X06575Y-07775
X066Y-116
X0661Y-0431
X0661Y-0461
X0665Y-06325
X067Y-04825
X06775Y-07
X06825Y-092
X0685Y-10775
X0686Y-0454
X06925Y-07775
X07Y-022
X07Y-04075
X07025Y-03725
X07075Y-07
X071Y-116
X072Y-06025
X0735Y-07
X0735Y-07775
X073512Y-04725
X075Y-022
X07525Y-07025
X0755Y-078
X076Y-116
X07625Y-04725
X07625Y-0865
X077Y-06125
X0775Y-0775
X079Y-073
X0795Y-04375
X0795Y-06725
X08Y-022
X08Y-08475
X08025Y-09125
X08025Y-09675
X08075Y-08375
X081Y-086
X0815Y-073
X08175Y-07
X082Y-06725
X08225Y-05525
X0826Y-0984
X0826Y-1017
X08275Y-04025
X083Y-05625
X08325Y-06425
X08325Y-07525
X0844Y-0983
X0844Y-1017
X0845Y-06725
X084512Y-0655
X08475Y-07525
X085Y-022
X08525Y-0375
X08525Y-08125
X08575Y-0685
X086Y-0515
X086Y-07225
X086Y-086
X0865Y-08325
X0865Y-08475
X0871Y-0934
X08725Y-06725
X0875Y-07075
X087738Y-0655
X0885Y-04025
X0889Y-0965
X0889Y-09906
X0889Y-1016
X0889Y-10414
X089Y-06725
X089Y-081
X089916Y-089662
X09025Y-0755
X0905Y-065
X0905Y-0921
X090678Y-08636
X09075Y-05225
X0911Y-042325
X09144Y-09652
X09144Y-09906
X09144Y-1016
X09144Y-10414
X0915Y-046
X0915Y-06175
X091948Y-084328
X09375Y-044
X09398Y-09144
X09398Y-09398
X09398Y-09652
X09398Y-09906
X09398Y-1016
X09398Y-10414
X09398Y-10668
X09398Y-10922
X09398Y-11176
X09398Y-1143
X094Y-07125
X09475Y-06925
X094996Y-083058
X095Y-022
X095Y-06475
X095Y-116
X09525Y-0625
X0959Y-0459
X096Y-04
X09652Y-09144
X09652Y-09398
X09652Y-09652
X09652Y-09906
X09652Y-1016
X09652Y-10414
X09652Y-10668
X09652Y-10922
X09652Y-11176
X09652Y-1143
X09725Y-07025
X0985Y-076
X09906Y-0889
X09906Y-09144
X09906Y-09398
X09906Y-09652
X09906Y-09906
X09906Y-1016
X09906Y-10414
X09906Y-10668
X09906Y-10922
X09906Y-11176
X09906Y-1143
X0995Y-05225
X1Y-022
X1Y-116
X10075Y-06375
X1015Y-0695
X1016Y-08636
X1016Y-0889
X1016Y-09144
X1016Y-09398
X1016Y-09652
X1016Y-09906
X1016Y-1016
X1016Y-10414
X1016Y-10668
X1016Y-10922
X1016Y-11176
X1016Y-1143
X10325Y-08225
X10375Y-046
X10414Y-08636
X10414Y-0889
X10414Y-09144
X10414Y-09398
X10414Y-09652
X10414Y-09906
X10414Y-1016
X10414Y-10414
X10414Y-10668
X10414Y-10922
X10414Y-11176
X10414Y-1143
X105Y-022
X105Y-116
X1052Y-0741
X10575Y-0695
X10668Y-08382
X10668Y-08636
X10668Y-0889
X10668Y-09144
X10668Y-09398
X10668Y-09652
X10668Y-09906
X10668Y-1016
X10668Y-10414
X10668Y-10668
X10668Y-10922
X10668Y-11176
X10668Y-1143
X10922Y-08382
X10922Y-08636
X10922Y-0889
X10922Y-09144
X10922Y-09398
X10922Y-09652
X10922Y-09906
X10922Y-1016
X10922Y-10414
X10922Y-10668
X10922Y-10922
X10922Y-11176
X10922Y-1143
X11Y-022
X11Y-116
X11176Y-08382
X11176Y-08636
X11176Y-0889
X11176Y-09144
X11176Y-09398
X11176Y-09652
X11176Y-09906
X11176Y-1016
X11176Y-10414
X11176Y-10668
X11176Y-10922
X11176Y-11176
X11176Y-1143
X11375Y-06625
X114Y-022
X1143Y-10668
X1143Y-10922
X1143Y-11176
X115Y-116
X117Y-063
X119Y-022
X124Y-026
X124Y-031
X124Y-036
X124Y-041
X124Y-046
X124Y-051
X124Y-056
X124Y-061
X124Y-066
X124Y-071
X124Y-076
X124Y-081
X124Y-086
X124Y-091
X124Y-096
X124Y-101
X124Y-106
X124Y-111
T2
X0829Y-114199
X0873Y-114199
T3
X0505Y-03471
X0505Y-03725
X0505Y-03979
X0505Y-04233
X0505Y-04487
X0505Y-04741
X0505Y-04995
X0505Y-05249
X0505Y-05503
X0505Y-05757
X0505Y-06011
X0505Y-06265
X0505Y-06519
X0505Y-06773
X0505Y-07027
X0505Y-07281
X0505Y-07535
X0505Y-07789
X0505Y-08043
X0505Y-08297
X0505Y-08551
X0505Y-08805
X0505Y-09059
X0505Y-09313
X0505Y-09567
X0505Y-09821
X0505Y-10075
X0505Y-10329
X0505Y-10583
X0505Y-10837
X05792Y-03473
X05792Y-03727
X059944Y-099162
X059944Y-102972
X06046Y-03473
X06046Y-03727
X062484Y-099162
X062484Y-102972
X063Y-03473
X063Y-03727
X06554Y-03473
X06554Y-03727
X06808Y-03473
X06808Y-03727
X06844Y-09673
X06844Y-09927
X07098Y-09673
X07098Y-09927
X07352Y-09673
X07352Y-09927
X07567Y-03475
X07606Y-09673
X07606Y-09927
X07821Y-03475
X08025Y-04698
X08025Y-04952
X08075Y-03475
X08329Y-03475
X08583Y-03475
X103124Y-063754
X105664Y-063754
X108204Y-063754
X110744Y-063754
X11075Y-04194
X11075Y-04448
X11075Y-04702
X11075Y-04956
X1215Y-03463
X1215Y-03717
X1215Y-03971
X1215Y-04225
X1215Y-04479
X1215Y-04733
X1215Y-04987
X1215Y-05241
X1215Y-05495
X1215Y-05749
X1215Y-06003
X1215Y-06257
X1215Y-06511
X1215Y-06765
X1215Y-07019
X1215Y-07273
X1215Y-07527
X1215Y-07781
X1215Y-08035
X1215Y-08289
X1215Y-08543
X1215Y-08797
X1215Y-09051
X1215Y-09305
X1215Y-09559
X1215Y-09813
X1215Y-10067
X1215Y-10321
X1215Y-10575
X1215Y-10829
T4
X0505Y-024
X0505Y-116
X1225Y-024
X1225Y-116
T0
M30
