G04 (created by PCBNEW (2013-07-07 BZR 4022)-stable) date 2015/09/29 23:49:40*
%MOIN*%
G04 Gerber Fmt 3.4, Leading zero omitted, Abs format*
%FSLAX34Y34*%
G01*
G70*
G90*
G04 APERTURE LIST*
%ADD10C,0.00393701*%
%ADD11C,0.00688976*%
%ADD12C,0.00787402*%
%ADD13C,0.011811*%
%ADD14C,0.00590551*%
%ADD15C,0.012*%
%ADD16C,0.01*%
%ADD17C,0.006*%
%ADD18C,0.015*%
%ADD19C,0.008*%
%ADD20C,0.005*%
%ADD21C,0.0045*%
G04 APERTURE END LIST*
G54D10*
G54D11*
X42971Y-34077D02*
X42986Y-34092D01*
X43001Y-34137D01*
X43001Y-34167D01*
X42986Y-34212D01*
X42956Y-34242D01*
X42926Y-34257D01*
X42866Y-34272D01*
X42821Y-34272D01*
X42761Y-34257D01*
X42731Y-34242D01*
X42701Y-34212D01*
X42686Y-34167D01*
X42686Y-34137D01*
X42701Y-34092D01*
X42716Y-34077D01*
X42851Y-33882D02*
X43001Y-33882D01*
X42686Y-33987D02*
X42851Y-33882D01*
X42686Y-33777D01*
X42821Y-33627D02*
X42806Y-33657D01*
X42791Y-33672D01*
X42761Y-33687D01*
X42746Y-33687D01*
X42716Y-33672D01*
X42701Y-33657D01*
X42686Y-33627D01*
X42686Y-33567D01*
X42701Y-33537D01*
X42716Y-33522D01*
X42746Y-33507D01*
X42761Y-33507D01*
X42791Y-33522D01*
X42806Y-33537D01*
X42821Y-33567D01*
X42821Y-33627D01*
X42836Y-33657D01*
X42851Y-33672D01*
X42881Y-33687D01*
X42941Y-33687D01*
X42971Y-33672D01*
X42986Y-33657D01*
X43001Y-33627D01*
X43001Y-33567D01*
X42986Y-33537D01*
X42971Y-33522D01*
X42941Y-33507D01*
X42881Y-33507D01*
X42851Y-33522D01*
X42836Y-33537D01*
X42821Y-33567D01*
X42971Y-33192D02*
X42986Y-33207D01*
X43001Y-33252D01*
X43001Y-33282D01*
X42986Y-33327D01*
X42956Y-33357D01*
X42926Y-33372D01*
X42866Y-33387D01*
X42821Y-33387D01*
X42761Y-33372D01*
X42731Y-33357D01*
X42701Y-33327D01*
X42686Y-33282D01*
X42686Y-33252D01*
X42701Y-33207D01*
X42716Y-33192D01*
X42686Y-32907D02*
X42686Y-33057D01*
X42836Y-33072D01*
X42821Y-33057D01*
X42806Y-33027D01*
X42806Y-32952D01*
X42821Y-32922D01*
X42836Y-32907D01*
X42866Y-32892D01*
X42941Y-32892D01*
X42971Y-32907D01*
X42986Y-32922D01*
X43001Y-32952D01*
X43001Y-33027D01*
X42986Y-33057D01*
X42971Y-33072D01*
X42716Y-32772D02*
X42701Y-32757D01*
X42686Y-32727D01*
X42686Y-32652D01*
X42701Y-32622D01*
X42716Y-32607D01*
X42746Y-32592D01*
X42776Y-32592D01*
X42821Y-32607D01*
X43001Y-32787D01*
X43001Y-32592D01*
X43001Y-32307D02*
X43001Y-32457D01*
X42686Y-32457D01*
X43001Y-32202D02*
X42686Y-32202D01*
X42686Y-32082D01*
X42701Y-32052D01*
X42716Y-32037D01*
X42746Y-32022D01*
X42791Y-32022D01*
X42821Y-32037D01*
X42836Y-32052D01*
X42851Y-32082D01*
X42851Y-32202D01*
X42836Y-31542D02*
X42836Y-31647D01*
X43001Y-31647D02*
X42686Y-31647D01*
X42686Y-31497D01*
X43001Y-31242D02*
X42836Y-31242D01*
X42806Y-31257D01*
X42791Y-31287D01*
X42791Y-31347D01*
X42806Y-31377D01*
X42986Y-31242D02*
X43001Y-31272D01*
X43001Y-31347D01*
X42986Y-31377D01*
X42956Y-31392D01*
X42926Y-31392D01*
X42896Y-31377D01*
X42881Y-31347D01*
X42881Y-31272D01*
X42866Y-31242D01*
X43001Y-31092D02*
X42791Y-31092D01*
X42821Y-31092D02*
X42806Y-31077D01*
X42791Y-31047D01*
X42791Y-31003D01*
X42806Y-30973D01*
X42836Y-30958D01*
X43001Y-30958D01*
X42836Y-30958D02*
X42806Y-30943D01*
X42791Y-30913D01*
X42791Y-30868D01*
X42806Y-30838D01*
X42836Y-30823D01*
X43001Y-30823D01*
X43001Y-30673D02*
X42791Y-30673D01*
X42686Y-30673D02*
X42701Y-30688D01*
X42716Y-30673D01*
X42701Y-30658D01*
X42686Y-30673D01*
X42716Y-30673D01*
X43001Y-30478D02*
X42986Y-30508D01*
X42956Y-30523D01*
X42686Y-30523D01*
X42791Y-30388D02*
X43001Y-30313D01*
X42791Y-30238D02*
X43001Y-30313D01*
X43076Y-30343D01*
X43091Y-30358D01*
X43106Y-30388D01*
X42836Y-29878D02*
X42836Y-29773D01*
X43001Y-29728D02*
X43001Y-29878D01*
X42686Y-29878D01*
X42686Y-29728D01*
X42791Y-29623D02*
X43001Y-29548D01*
X42791Y-29473D01*
X43001Y-29218D02*
X42836Y-29218D01*
X42806Y-29233D01*
X42791Y-29263D01*
X42791Y-29323D01*
X42806Y-29353D01*
X42986Y-29218D02*
X43001Y-29248D01*
X43001Y-29323D01*
X42986Y-29353D01*
X42956Y-29368D01*
X42926Y-29368D01*
X42896Y-29353D01*
X42881Y-29323D01*
X42881Y-29248D01*
X42866Y-29218D01*
X43001Y-29023D02*
X42986Y-29053D01*
X42956Y-29068D01*
X42686Y-29068D01*
X42791Y-28768D02*
X43001Y-28768D01*
X42791Y-28903D02*
X42956Y-28903D01*
X42986Y-28888D01*
X43001Y-28858D01*
X43001Y-28813D01*
X42986Y-28783D01*
X42971Y-28768D01*
X43001Y-28483D02*
X42836Y-28483D01*
X42806Y-28498D01*
X42791Y-28528D01*
X42791Y-28588D01*
X42806Y-28618D01*
X42986Y-28483D02*
X43001Y-28513D01*
X43001Y-28588D01*
X42986Y-28618D01*
X42956Y-28633D01*
X42926Y-28633D01*
X42896Y-28618D01*
X42881Y-28588D01*
X42881Y-28513D01*
X42866Y-28483D01*
X42791Y-28378D02*
X42791Y-28258D01*
X42686Y-28333D02*
X42956Y-28333D01*
X42986Y-28318D01*
X43001Y-28288D01*
X43001Y-28258D01*
X43001Y-28153D02*
X42791Y-28153D01*
X42686Y-28153D02*
X42701Y-28168D01*
X42716Y-28153D01*
X42701Y-28138D01*
X42686Y-28153D01*
X42716Y-28153D01*
X43001Y-27958D02*
X42986Y-27988D01*
X42971Y-28003D01*
X42941Y-28018D01*
X42851Y-28018D01*
X42821Y-28003D01*
X42806Y-27988D01*
X42791Y-27958D01*
X42791Y-27913D01*
X42806Y-27883D01*
X42821Y-27868D01*
X42851Y-27853D01*
X42941Y-27853D01*
X42971Y-27868D01*
X42986Y-27883D01*
X43001Y-27913D01*
X43001Y-27958D01*
X42791Y-27718D02*
X43001Y-27718D01*
X42821Y-27718D02*
X42806Y-27703D01*
X42791Y-27673D01*
X42791Y-27628D01*
X42806Y-27598D01*
X42836Y-27583D01*
X43001Y-27583D01*
X42836Y-27088D02*
X42851Y-27043D01*
X42866Y-27028D01*
X42896Y-27013D01*
X42941Y-27013D01*
X42971Y-27028D01*
X42986Y-27043D01*
X43001Y-27073D01*
X43001Y-27193D01*
X42686Y-27193D01*
X42686Y-27088D01*
X42701Y-27058D01*
X42716Y-27043D01*
X42746Y-27028D01*
X42776Y-27028D01*
X42806Y-27043D01*
X42821Y-27058D01*
X42836Y-27088D01*
X42836Y-27193D01*
X43001Y-26833D02*
X42986Y-26863D01*
X42971Y-26878D01*
X42941Y-26893D01*
X42851Y-26893D01*
X42821Y-26878D01*
X42806Y-26863D01*
X42791Y-26833D01*
X42791Y-26788D01*
X42806Y-26758D01*
X42821Y-26743D01*
X42851Y-26728D01*
X42941Y-26728D01*
X42971Y-26743D01*
X42986Y-26758D01*
X43001Y-26788D01*
X43001Y-26833D01*
X43001Y-26458D02*
X42836Y-26458D01*
X42806Y-26473D01*
X42791Y-26503D01*
X42791Y-26563D01*
X42806Y-26593D01*
X42986Y-26458D02*
X43001Y-26488D01*
X43001Y-26563D01*
X42986Y-26593D01*
X42956Y-26608D01*
X42926Y-26608D01*
X42896Y-26593D01*
X42881Y-26563D01*
X42881Y-26488D01*
X42866Y-26458D01*
X43001Y-26308D02*
X42791Y-26308D01*
X42851Y-26308D02*
X42821Y-26293D01*
X42806Y-26278D01*
X42791Y-26248D01*
X42791Y-26218D01*
X43001Y-25978D02*
X42686Y-25978D01*
X42986Y-25978D02*
X43001Y-26008D01*
X43001Y-26068D01*
X42986Y-26098D01*
X42971Y-26113D01*
X42941Y-26128D01*
X42851Y-26128D01*
X42821Y-26113D01*
X42806Y-26098D01*
X42791Y-26068D01*
X42791Y-26008D01*
X42806Y-25978D01*
X43511Y-28205D02*
X43196Y-28205D01*
X43316Y-28205D02*
X43301Y-28175D01*
X43301Y-28115D01*
X43316Y-28085D01*
X43331Y-28070D01*
X43361Y-28055D01*
X43451Y-28055D01*
X43481Y-28070D01*
X43496Y-28085D01*
X43511Y-28115D01*
X43511Y-28175D01*
X43496Y-28205D01*
X43301Y-27950D02*
X43511Y-27875D01*
X43301Y-27800D02*
X43511Y-27875D01*
X43586Y-27905D01*
X43601Y-27920D01*
X43616Y-27950D01*
X43346Y-27335D02*
X43346Y-27440D01*
X43511Y-27440D02*
X43196Y-27440D01*
X43196Y-27290D01*
X43301Y-27035D02*
X43511Y-27035D01*
X43301Y-27170D02*
X43466Y-27170D01*
X43496Y-27155D01*
X43511Y-27125D01*
X43511Y-27080D01*
X43496Y-27050D01*
X43481Y-27035D01*
X43511Y-26886D02*
X43301Y-26886D01*
X43331Y-26886D02*
X43316Y-26871D01*
X43301Y-26841D01*
X43301Y-26796D01*
X43316Y-26766D01*
X43346Y-26751D01*
X43511Y-26751D01*
X43346Y-26751D02*
X43316Y-26736D01*
X43301Y-26706D01*
X43301Y-26661D01*
X43316Y-26631D01*
X43346Y-26616D01*
X43511Y-26616D01*
X43511Y-26466D02*
X43301Y-26466D01*
X43196Y-26466D02*
X43211Y-26481D01*
X43226Y-26466D01*
X43211Y-26451D01*
X43196Y-26466D01*
X43226Y-26466D01*
X43301Y-26346D02*
X43511Y-26271D01*
X43301Y-26196D02*
X43511Y-26271D01*
X43586Y-26301D01*
X43601Y-26316D01*
X43616Y-26346D01*
X43511Y-25941D02*
X43346Y-25941D01*
X43316Y-25956D01*
X43301Y-25986D01*
X43301Y-26046D01*
X43316Y-26076D01*
X43496Y-25941D02*
X43511Y-25971D01*
X43511Y-26046D01*
X43496Y-26076D01*
X43466Y-26091D01*
X43436Y-26091D01*
X43406Y-26076D01*
X43391Y-26046D01*
X43391Y-25971D01*
X43376Y-25941D01*
X43511Y-25551D02*
X43196Y-25551D01*
X43511Y-25371D02*
X43331Y-25506D01*
X43196Y-25371D02*
X43376Y-25551D01*
X43511Y-25101D02*
X43346Y-25101D01*
X43316Y-25116D01*
X43301Y-25146D01*
X43301Y-25206D01*
X43316Y-25236D01*
X43496Y-25101D02*
X43511Y-25131D01*
X43511Y-25206D01*
X43496Y-25236D01*
X43466Y-25251D01*
X43436Y-25251D01*
X43406Y-25236D01*
X43391Y-25206D01*
X43391Y-25131D01*
X43376Y-25101D01*
X43301Y-24996D02*
X43301Y-24876D01*
X43196Y-24951D02*
X43466Y-24951D01*
X43496Y-24936D01*
X43511Y-24906D01*
X43511Y-24876D01*
X43511Y-24726D02*
X43496Y-24756D01*
X43481Y-24771D01*
X43451Y-24786D01*
X43361Y-24786D01*
X43331Y-24771D01*
X43316Y-24756D01*
X43301Y-24726D01*
X43301Y-24681D01*
X43316Y-24651D01*
X43331Y-24636D01*
X43361Y-24621D01*
X43451Y-24621D01*
X43481Y-24636D01*
X43496Y-24651D01*
X43511Y-24681D01*
X43511Y-24726D01*
X43511Y-24486D02*
X43196Y-24486D01*
X43511Y-24351D02*
X43346Y-24351D01*
X43316Y-24366D01*
X43301Y-24396D01*
X43301Y-24441D01*
X43316Y-24471D01*
X43331Y-24486D01*
G54D12*
X44488Y-30393D02*
X44370Y-30275D01*
X44488Y-30393D02*
X44370Y-30511D01*
X44251Y-30393D02*
X44488Y-30393D01*
X44094Y-30551D02*
X44251Y-30393D01*
X44214Y-34291D02*
X43820Y-34291D01*
X44101Y-34160D01*
X43820Y-34028D01*
X44214Y-34028D01*
X44214Y-33841D02*
X43820Y-33841D01*
X44008Y-33841D02*
X44008Y-33616D01*
X44214Y-33616D02*
X43820Y-33616D01*
X43952Y-33466D02*
X43952Y-33260D01*
X44214Y-33466D01*
X44214Y-33260D01*
X43820Y-33147D02*
X44214Y-32885D01*
X43820Y-32885D02*
X44214Y-33147D01*
X43820Y-32791D02*
X43820Y-32566D01*
X44214Y-32679D02*
X43820Y-32679D01*
X44101Y-32454D02*
X44101Y-32266D01*
X44214Y-32491D02*
X43820Y-32360D01*
X44214Y-32229D01*
X44214Y-31910D02*
X44214Y-32097D01*
X43820Y-32097D01*
X44195Y-31497D02*
X44214Y-31441D01*
X44214Y-31347D01*
X44195Y-31310D01*
X44176Y-31291D01*
X44139Y-31272D01*
X44101Y-31272D01*
X44064Y-31291D01*
X44045Y-31310D01*
X44026Y-31347D01*
X44008Y-31422D01*
X43989Y-31460D01*
X43970Y-31479D01*
X43933Y-31497D01*
X43895Y-31497D01*
X43858Y-31479D01*
X43839Y-31460D01*
X43820Y-31422D01*
X43820Y-31329D01*
X43839Y-31272D01*
X44195Y-30954D02*
X44214Y-30991D01*
X44214Y-31066D01*
X44195Y-31104D01*
X44158Y-31122D01*
X44008Y-31122D01*
X43970Y-31104D01*
X43952Y-31066D01*
X43952Y-30991D01*
X43970Y-30954D01*
X44008Y-30935D01*
X44045Y-30935D01*
X44083Y-31122D01*
X44214Y-30710D02*
X44195Y-30748D01*
X44158Y-30766D01*
X43820Y-30766D01*
X44724Y-24763D02*
X44527Y-24763D01*
X44724Y-24763D02*
X44724Y-24960D01*
X44527Y-24960D02*
X44724Y-24763D01*
X44527Y-25118D02*
X44527Y-24960D01*
X40000Y-23503D02*
X39921Y-23503D01*
X40236Y-23503D02*
X40000Y-23503D01*
X40236Y-23503D02*
X40236Y-23818D01*
X39881Y-23858D02*
X40236Y-23503D01*
X39881Y-24409D02*
X39881Y-23858D01*
X44686Y-28832D02*
X44293Y-28832D01*
X44536Y-28794D02*
X44686Y-28682D01*
X44424Y-28682D02*
X44574Y-28832D01*
X44686Y-28513D02*
X44293Y-28513D01*
X44480Y-28513D02*
X44480Y-28288D01*
X44686Y-28288D02*
X44293Y-28288D01*
X44424Y-28138D02*
X44424Y-27932D01*
X44686Y-28138D01*
X44686Y-27932D01*
X44293Y-27819D02*
X44686Y-27557D01*
X44293Y-27557D02*
X44686Y-27819D01*
X44293Y-27463D02*
X44293Y-27238D01*
X44686Y-27350D02*
X44293Y-27350D01*
X44574Y-27125D02*
X44574Y-26938D01*
X44686Y-27163D02*
X44293Y-27032D01*
X44686Y-26901D01*
X44686Y-26582D02*
X44686Y-26769D01*
X44293Y-26769D01*
X44668Y-26169D02*
X44686Y-26113D01*
X44686Y-26019D01*
X44668Y-25982D01*
X44649Y-25963D01*
X44611Y-25944D01*
X44574Y-25944D01*
X44536Y-25963D01*
X44518Y-25982D01*
X44499Y-26019D01*
X44480Y-26094D01*
X44461Y-26132D01*
X44443Y-26151D01*
X44405Y-26169D01*
X44368Y-26169D01*
X44330Y-26151D01*
X44311Y-26132D01*
X44293Y-26094D01*
X44293Y-26001D01*
X44311Y-25944D01*
X44668Y-25626D02*
X44686Y-25663D01*
X44686Y-25738D01*
X44668Y-25776D01*
X44630Y-25794D01*
X44480Y-25794D01*
X44443Y-25776D01*
X44424Y-25738D01*
X44424Y-25663D01*
X44443Y-25626D01*
X44480Y-25607D01*
X44518Y-25607D01*
X44555Y-25794D01*
X44686Y-25382D02*
X44668Y-25419D01*
X44630Y-25438D01*
X44293Y-25438D01*
X38790Y-24943D02*
X38847Y-24962D01*
X38940Y-24962D01*
X38978Y-24943D01*
X38997Y-24925D01*
X39015Y-24887D01*
X39015Y-24850D01*
X38997Y-24812D01*
X38978Y-24793D01*
X38940Y-24775D01*
X38865Y-24756D01*
X38828Y-24737D01*
X38809Y-24718D01*
X38790Y-24681D01*
X38790Y-24643D01*
X38809Y-24606D01*
X38828Y-24587D01*
X38865Y-24568D01*
X38959Y-24568D01*
X39015Y-24587D01*
X39165Y-24850D02*
X39353Y-24850D01*
X39128Y-24962D02*
X39259Y-24568D01*
X39390Y-24962D01*
X39746Y-24962D02*
X39615Y-24775D01*
X39521Y-24962D02*
X39521Y-24568D01*
X39671Y-24568D01*
X39709Y-24587D01*
X39728Y-24606D01*
X39746Y-24643D01*
X39746Y-24700D01*
X39728Y-24737D01*
X39709Y-24756D01*
X39671Y-24775D01*
X39521Y-24775D01*
X40196Y-24850D02*
X40384Y-24850D01*
X40159Y-24962D02*
X40290Y-24568D01*
X40421Y-24962D01*
X40553Y-24962D02*
X40553Y-24568D01*
X40646Y-24568D01*
X40703Y-24587D01*
X40740Y-24625D01*
X40759Y-24662D01*
X40778Y-24737D01*
X40778Y-24793D01*
X40759Y-24868D01*
X40740Y-24906D01*
X40703Y-24943D01*
X40646Y-24962D01*
X40553Y-24962D01*
X41171Y-24925D02*
X41152Y-24943D01*
X41096Y-24962D01*
X41059Y-24962D01*
X41002Y-24943D01*
X40965Y-24906D01*
X40946Y-24868D01*
X40928Y-24793D01*
X40928Y-24737D01*
X40946Y-24662D01*
X40965Y-24625D01*
X41002Y-24587D01*
X41059Y-24568D01*
X41096Y-24568D01*
X41152Y-24587D01*
X41171Y-24606D01*
X41621Y-24943D02*
X41677Y-24962D01*
X41771Y-24962D01*
X41809Y-24943D01*
X41827Y-24925D01*
X41846Y-24887D01*
X41846Y-24850D01*
X41827Y-24812D01*
X41809Y-24793D01*
X41771Y-24775D01*
X41696Y-24756D01*
X41659Y-24737D01*
X41640Y-24718D01*
X41621Y-24681D01*
X41621Y-24643D01*
X41640Y-24606D01*
X41659Y-24587D01*
X41696Y-24568D01*
X41790Y-24568D01*
X41846Y-24587D01*
X42165Y-24943D02*
X42127Y-24962D01*
X42052Y-24962D01*
X42015Y-24943D01*
X41996Y-24906D01*
X41996Y-24756D01*
X42015Y-24718D01*
X42052Y-24700D01*
X42127Y-24700D01*
X42165Y-24718D01*
X42184Y-24756D01*
X42184Y-24793D01*
X41996Y-24831D01*
X42409Y-24962D02*
X42371Y-24943D01*
X42352Y-24906D01*
X42352Y-24568D01*
X36537Y-24715D02*
X36143Y-24715D01*
X36143Y-24565D01*
X36162Y-24527D01*
X36181Y-24508D01*
X36218Y-24490D01*
X36274Y-24490D01*
X36312Y-24508D01*
X36331Y-24527D01*
X36349Y-24565D01*
X36349Y-24715D01*
X36537Y-24265D02*
X36518Y-24302D01*
X36499Y-24321D01*
X36462Y-24340D01*
X36349Y-24340D01*
X36312Y-24321D01*
X36293Y-24302D01*
X36274Y-24265D01*
X36274Y-24208D01*
X36293Y-24171D01*
X36312Y-24152D01*
X36349Y-24133D01*
X36462Y-24133D01*
X36499Y-24152D01*
X36518Y-24171D01*
X36537Y-24208D01*
X36537Y-24265D01*
X36274Y-24002D02*
X36537Y-23927D01*
X36349Y-23852D01*
X36537Y-23777D01*
X36274Y-23702D01*
X36518Y-23402D02*
X36537Y-23440D01*
X36537Y-23515D01*
X36518Y-23552D01*
X36481Y-23571D01*
X36331Y-23571D01*
X36293Y-23552D01*
X36274Y-23515D01*
X36274Y-23440D01*
X36293Y-23402D01*
X36331Y-23383D01*
X36368Y-23383D01*
X36406Y-23571D01*
X36537Y-23215D02*
X36274Y-23215D01*
X36349Y-23215D02*
X36312Y-23196D01*
X36293Y-23177D01*
X36274Y-23140D01*
X36274Y-23102D01*
X31868Y-25560D02*
X31868Y-25766D01*
X32074Y-25787D01*
X32053Y-25766D01*
X32033Y-25725D01*
X32033Y-25622D01*
X32053Y-25581D01*
X32074Y-25560D01*
X32115Y-25539D01*
X32218Y-25539D01*
X32260Y-25560D01*
X32280Y-25581D01*
X32301Y-25622D01*
X32301Y-25725D01*
X32280Y-25766D01*
X32260Y-25787D01*
X32260Y-25354D02*
X32280Y-25333D01*
X32301Y-25354D01*
X32280Y-25374D01*
X32260Y-25354D01*
X32301Y-25354D01*
X31868Y-25065D02*
X31868Y-25024D01*
X31888Y-24983D01*
X31909Y-24962D01*
X31950Y-24941D01*
X32033Y-24921D01*
X32136Y-24921D01*
X32218Y-24941D01*
X32260Y-24962D01*
X32280Y-24983D01*
X32301Y-25024D01*
X32301Y-25065D01*
X32280Y-25106D01*
X32260Y-25127D01*
X32218Y-25148D01*
X32136Y-25168D01*
X32033Y-25168D01*
X31950Y-25148D01*
X31909Y-25127D01*
X31888Y-25106D01*
X31868Y-25065D01*
X32553Y-25560D02*
X32553Y-25766D01*
X32759Y-25787D01*
X32738Y-25766D01*
X32718Y-25725D01*
X32718Y-25622D01*
X32738Y-25581D01*
X32759Y-25560D01*
X32800Y-25539D01*
X32903Y-25539D01*
X32945Y-25560D01*
X32965Y-25581D01*
X32986Y-25622D01*
X32986Y-25725D01*
X32965Y-25766D01*
X32945Y-25787D01*
X32945Y-25354D02*
X32965Y-25333D01*
X32986Y-25354D01*
X32965Y-25374D01*
X32945Y-25354D01*
X32986Y-25354D01*
X32986Y-24921D02*
X32986Y-25168D01*
X32986Y-25044D02*
X32553Y-25044D01*
X32615Y-25086D01*
X32656Y-25127D01*
X32676Y-25168D01*
X33238Y-25560D02*
X33238Y-25766D01*
X33444Y-25787D01*
X33423Y-25766D01*
X33403Y-25725D01*
X33403Y-25622D01*
X33423Y-25581D01*
X33444Y-25560D01*
X33485Y-25539D01*
X33588Y-25539D01*
X33630Y-25560D01*
X33650Y-25581D01*
X33671Y-25622D01*
X33671Y-25725D01*
X33650Y-25766D01*
X33630Y-25787D01*
X33630Y-25354D02*
X33650Y-25333D01*
X33671Y-25354D01*
X33650Y-25374D01*
X33630Y-25354D01*
X33671Y-25354D01*
X33279Y-25168D02*
X33258Y-25148D01*
X33238Y-25106D01*
X33238Y-25003D01*
X33258Y-24962D01*
X33279Y-24941D01*
X33320Y-24921D01*
X33362Y-24921D01*
X33423Y-24941D01*
X33671Y-25189D01*
X33671Y-24921D01*
X33923Y-25560D02*
X33923Y-25766D01*
X34129Y-25787D01*
X34108Y-25766D01*
X34088Y-25725D01*
X34088Y-25622D01*
X34108Y-25581D01*
X34129Y-25560D01*
X34170Y-25539D01*
X34273Y-25539D01*
X34315Y-25560D01*
X34335Y-25581D01*
X34356Y-25622D01*
X34356Y-25725D01*
X34335Y-25766D01*
X34315Y-25787D01*
X34315Y-25354D02*
X34335Y-25333D01*
X34356Y-25354D01*
X34335Y-25374D01*
X34315Y-25354D01*
X34356Y-25354D01*
X33923Y-25189D02*
X33923Y-24921D01*
X34088Y-25065D01*
X34088Y-25003D01*
X34108Y-24962D01*
X34129Y-24941D01*
X34170Y-24921D01*
X34273Y-24921D01*
X34315Y-24941D01*
X34335Y-24962D01*
X34356Y-25003D01*
X34356Y-25127D01*
X34335Y-25168D01*
X34315Y-25189D01*
G54D13*
X38661Y-22876D02*
X38661Y-22286D01*
X39055Y-22286D02*
X39167Y-22286D01*
X39223Y-22314D01*
X39280Y-22370D01*
X39308Y-22483D01*
X39308Y-22679D01*
X39280Y-22792D01*
X39223Y-22848D01*
X39167Y-22876D01*
X39055Y-22876D01*
X38998Y-22848D01*
X38942Y-22792D01*
X38914Y-22679D01*
X38914Y-22483D01*
X38942Y-22370D01*
X38998Y-22314D01*
X39055Y-22286D01*
X39673Y-22286D02*
X39730Y-22286D01*
X39786Y-22314D01*
X39814Y-22342D01*
X39842Y-22398D01*
X39870Y-22511D01*
X39870Y-22651D01*
X39842Y-22764D01*
X39814Y-22820D01*
X39786Y-22848D01*
X39730Y-22876D01*
X39673Y-22876D01*
X39617Y-22848D01*
X39589Y-22820D01*
X39561Y-22764D01*
X39533Y-22651D01*
X39533Y-22511D01*
X39561Y-22398D01*
X39589Y-22342D01*
X39617Y-22314D01*
X39673Y-22286D01*
X45750Y-29448D02*
X45160Y-29448D01*
X45160Y-29055D02*
X45160Y-28942D01*
X45188Y-28886D01*
X45244Y-28830D01*
X45357Y-28802D01*
X45553Y-28802D01*
X45666Y-28830D01*
X45722Y-28886D01*
X45750Y-28942D01*
X45750Y-29055D01*
X45722Y-29111D01*
X45666Y-29167D01*
X45553Y-29195D01*
X45357Y-29195D01*
X45244Y-29167D01*
X45188Y-29111D01*
X45160Y-29055D01*
X45160Y-28605D02*
X45160Y-28239D01*
X45385Y-28436D01*
X45385Y-28352D01*
X45413Y-28295D01*
X45441Y-28267D01*
X45497Y-28239D01*
X45638Y-28239D01*
X45694Y-28267D01*
X45722Y-28295D01*
X45750Y-28352D01*
X45750Y-28520D01*
X45722Y-28577D01*
X45694Y-28605D01*
X35905Y-36735D02*
X35905Y-36144D01*
X36299Y-36144D02*
X36411Y-36144D01*
X36467Y-36172D01*
X36524Y-36228D01*
X36552Y-36341D01*
X36552Y-36538D01*
X36524Y-36650D01*
X36467Y-36706D01*
X36411Y-36735D01*
X36299Y-36735D01*
X36242Y-36706D01*
X36186Y-36650D01*
X36158Y-36538D01*
X36158Y-36341D01*
X36186Y-36228D01*
X36242Y-36172D01*
X36299Y-36144D01*
X37114Y-36735D02*
X36777Y-36735D01*
X36946Y-36735D02*
X36946Y-36144D01*
X36889Y-36228D01*
X36833Y-36285D01*
X36777Y-36313D01*
X31853Y-31929D02*
X31262Y-31929D01*
X31262Y-31535D02*
X31262Y-31422D01*
X31290Y-31366D01*
X31347Y-31310D01*
X31459Y-31282D01*
X31656Y-31282D01*
X31768Y-31310D01*
X31825Y-31366D01*
X31853Y-31422D01*
X31853Y-31535D01*
X31825Y-31591D01*
X31768Y-31647D01*
X31656Y-31676D01*
X31459Y-31676D01*
X31347Y-31647D01*
X31290Y-31591D01*
X31262Y-31535D01*
X31318Y-31057D02*
X31290Y-31029D01*
X31262Y-30973D01*
X31262Y-30832D01*
X31290Y-30776D01*
X31318Y-30748D01*
X31375Y-30719D01*
X31431Y-30719D01*
X31515Y-30748D01*
X31853Y-31085D01*
X31853Y-30719D01*
X31740Y-28624D02*
X31768Y-28540D01*
X31796Y-28512D01*
X31853Y-28484D01*
X31937Y-28484D01*
X31993Y-28512D01*
X32021Y-28540D01*
X32050Y-28596D01*
X32050Y-28821D01*
X31459Y-28821D01*
X31459Y-28624D01*
X31487Y-28568D01*
X31515Y-28540D01*
X31571Y-28512D01*
X31628Y-28512D01*
X31684Y-28540D01*
X31712Y-28568D01*
X31740Y-28624D01*
X31740Y-28821D01*
X31881Y-28259D02*
X31881Y-27978D01*
X32050Y-28315D02*
X31459Y-28118D01*
X32050Y-27921D01*
X31459Y-27809D02*
X31459Y-27471D01*
X32050Y-27640D02*
X31459Y-27640D01*
X32769Y-28413D02*
X32769Y-27964D01*
X33714Y-28413D02*
X33714Y-27964D01*
X33939Y-28188D02*
X33489Y-28188D01*
G54D14*
X43503Y-36811D02*
X43503Y-35551D01*
X40826Y-36811D02*
X40826Y-35551D01*
X43582Y-36811D02*
X43582Y-35551D01*
X41733Y-35549D02*
X40833Y-35549D01*
X40833Y-36813D02*
X41733Y-36813D01*
X42677Y-36811D02*
X43582Y-36811D01*
X43582Y-35551D02*
X42677Y-35551D01*
G54D15*
X29000Y-34500D02*
X34000Y-34500D01*
X34000Y-34500D02*
X34000Y-36500D01*
X34000Y-36500D02*
X29000Y-36500D01*
X29000Y-36500D02*
X29000Y-34500D01*
X34000Y-34000D02*
X34000Y-33000D01*
X29000Y-33000D02*
X29000Y-34000D01*
X34000Y-34000D02*
X29000Y-34000D01*
X29000Y-33000D02*
X34000Y-33000D01*
G54D16*
X31000Y-20000D02*
X35000Y-20000D01*
X31000Y-21000D02*
X35000Y-21000D01*
X35000Y-21000D02*
X35000Y-20000D01*
X31000Y-20000D02*
X31000Y-21000D01*
X35000Y-22000D02*
X31000Y-22000D01*
X35000Y-21000D02*
X31000Y-21000D01*
X31000Y-21000D02*
X31000Y-22000D01*
X35000Y-22000D02*
X35000Y-21000D01*
G54D17*
X34267Y-28870D02*
X34267Y-29870D01*
X34267Y-29870D02*
X32267Y-29870D01*
X32267Y-29870D02*
X32267Y-28870D01*
X32267Y-28870D02*
X34267Y-28870D01*
G54D18*
X35515Y-19976D02*
X45476Y-19976D01*
X45476Y-19976D02*
X45476Y-22023D01*
X45476Y-22023D02*
X35476Y-22023D01*
X35500Y-20000D02*
X35500Y-22000D01*
X28976Y-32484D02*
X28976Y-22523D01*
X28976Y-22523D02*
X31023Y-22523D01*
X31023Y-22523D02*
X31023Y-32523D01*
X29000Y-32500D02*
X31000Y-32500D01*
X48023Y-22515D02*
X48023Y-32476D01*
X48023Y-32476D02*
X45976Y-32476D01*
X45976Y-32476D02*
X45976Y-22476D01*
X48000Y-22500D02*
X46000Y-22500D01*
X40984Y-39023D02*
X31023Y-39023D01*
X31023Y-39023D02*
X31023Y-36976D01*
X31023Y-36976D02*
X41023Y-36976D01*
X41000Y-39000D02*
X41000Y-37000D01*
G54D14*
X39232Y-36102D02*
X40649Y-36102D01*
X40649Y-36102D02*
X40649Y-36732D01*
X40649Y-36732D02*
X39232Y-36732D01*
X39232Y-36732D02*
X39232Y-36102D01*
X33149Y-23838D02*
X33149Y-22421D01*
X33149Y-22421D02*
X33779Y-22421D01*
X33779Y-22421D02*
X33779Y-23838D01*
X33779Y-23838D02*
X33149Y-23838D01*
X33897Y-23838D02*
X33897Y-22421D01*
X33897Y-22421D02*
X34527Y-22421D01*
X34527Y-22421D02*
X34527Y-23838D01*
X34527Y-23838D02*
X33897Y-23838D01*
X37322Y-22421D02*
X37322Y-23838D01*
X37322Y-23838D02*
X36692Y-23838D01*
X36692Y-23838D02*
X36692Y-22421D01*
X36692Y-22421D02*
X37322Y-22421D01*
X32401Y-23838D02*
X32401Y-22421D01*
X32401Y-22421D02*
X33031Y-22421D01*
X33031Y-22421D02*
X33031Y-23838D01*
X33031Y-23838D02*
X32401Y-23838D01*
X31653Y-23838D02*
X31653Y-22421D01*
X31653Y-22421D02*
X32283Y-22421D01*
X32283Y-22421D02*
X32283Y-23838D01*
X32283Y-23838D02*
X31653Y-23838D01*
G54D19*
X35838Y-27127D02*
G75*
G03X35838Y-27127I-200J0D01*
G74*
G01*
X35688Y-26777D02*
X35438Y-27027D01*
X35538Y-32277D02*
X35438Y-32177D01*
X40838Y-32277D02*
X40938Y-32177D01*
X40938Y-26877D02*
X40838Y-26777D01*
X35438Y-27027D02*
X35438Y-32177D01*
X35538Y-32277D02*
X40838Y-32277D01*
X40938Y-32177D02*
X40938Y-26877D01*
X40838Y-26777D02*
X35688Y-26777D01*
G54D14*
X44625Y-30393D02*
X46043Y-30393D01*
X46043Y-30393D02*
X46043Y-31023D01*
X46043Y-31023D02*
X44625Y-31023D01*
X44625Y-31023D02*
X44625Y-30393D01*
X44625Y-29724D02*
X46043Y-29724D01*
X46043Y-29724D02*
X46043Y-30354D01*
X46043Y-30354D02*
X44625Y-30354D01*
X44625Y-30354D02*
X44625Y-29724D01*
X44271Y-24055D02*
X45688Y-24055D01*
X45688Y-24055D02*
X45688Y-24685D01*
X45688Y-24685D02*
X44271Y-24685D01*
X44271Y-24685D02*
X44271Y-24055D01*
X44271Y-23346D02*
X45688Y-23346D01*
X45688Y-23346D02*
X45688Y-23976D01*
X45688Y-23976D02*
X44271Y-23976D01*
X44271Y-23976D02*
X44271Y-23346D01*
X41181Y-23720D02*
X41181Y-22303D01*
X41181Y-22303D02*
X41811Y-22303D01*
X41811Y-22303D02*
X41811Y-23720D01*
X41811Y-23720D02*
X41181Y-23720D01*
X40433Y-23720D02*
X40433Y-22303D01*
X40433Y-22303D02*
X41062Y-22303D01*
X41062Y-22303D02*
X41062Y-23720D01*
X41062Y-23720D02*
X40433Y-23720D01*
X41929Y-23720D02*
X41929Y-22303D01*
X41929Y-22303D02*
X42559Y-22303D01*
X42559Y-22303D02*
X42559Y-23720D01*
X42559Y-23720D02*
X41929Y-23720D01*
G54D19*
X41500Y-37000D02*
X44500Y-37000D01*
X44500Y-39000D02*
X41500Y-39000D01*
X41500Y-39000D02*
X41500Y-37000D01*
X44500Y-37000D02*
X44500Y-39000D01*
G54D14*
X40472Y-29330D02*
X40472Y-29291D01*
X40472Y-29330D02*
X40472Y-29763D01*
G54D20*
X40022Y-29277D02*
X40922Y-29277D01*
X40922Y-29277D02*
X40922Y-29777D01*
X40922Y-29777D02*
X40022Y-29777D01*
X40022Y-29777D02*
X40022Y-29277D01*
G54D14*
X39803Y-28740D02*
X39803Y-28700D01*
X39803Y-28740D02*
X39803Y-29173D01*
G54D20*
X39353Y-28687D02*
X40253Y-28687D01*
X40253Y-28687D02*
X40253Y-29187D01*
X40253Y-29187D02*
X39353Y-29187D01*
X39353Y-29187D02*
X39353Y-28687D01*
G54D18*
X47794Y-36240D02*
X47794Y-33208D01*
X48188Y-36240D02*
X48188Y-33208D01*
X48188Y-33208D02*
X44566Y-33208D01*
X44566Y-33208D02*
X44566Y-36240D01*
X44566Y-36240D02*
X48188Y-36240D01*
G54D20*
X43142Y-35466D02*
X43142Y-35190D01*
X43208Y-35190D01*
X43247Y-35203D01*
X43274Y-35229D01*
X43287Y-35255D01*
X43300Y-35308D01*
X43300Y-35347D01*
X43287Y-35400D01*
X43274Y-35426D01*
X43247Y-35452D01*
X43208Y-35466D01*
X43142Y-35466D01*
X43392Y-35190D02*
X43563Y-35190D01*
X43471Y-35295D01*
X43510Y-35295D01*
X43537Y-35308D01*
X43550Y-35321D01*
X43563Y-35347D01*
X43563Y-35413D01*
X43550Y-35439D01*
X43537Y-35452D01*
X43510Y-35466D01*
X43431Y-35466D01*
X43405Y-35452D01*
X43392Y-35439D01*
X40812Y-35387D02*
X40812Y-35111D01*
X40877Y-35111D01*
X40917Y-35124D01*
X40943Y-35150D01*
X40956Y-35177D01*
X40969Y-35229D01*
X40969Y-35269D01*
X40956Y-35321D01*
X40943Y-35347D01*
X40917Y-35374D01*
X40877Y-35387D01*
X40812Y-35387D01*
X41088Y-35387D02*
X41088Y-35111D01*
X41272Y-35111D02*
X41324Y-35111D01*
X41351Y-35124D01*
X41377Y-35150D01*
X41390Y-35203D01*
X41390Y-35295D01*
X41377Y-35347D01*
X41351Y-35374D01*
X41324Y-35387D01*
X41272Y-35387D01*
X41245Y-35374D01*
X41219Y-35347D01*
X41206Y-35295D01*
X41206Y-35203D01*
X41219Y-35150D01*
X41245Y-35124D01*
X41272Y-35111D01*
X41508Y-35387D02*
X41508Y-35111D01*
X41574Y-35111D01*
X41613Y-35124D01*
X41640Y-35150D01*
X41653Y-35177D01*
X41666Y-35229D01*
X41666Y-35269D01*
X41653Y-35321D01*
X41640Y-35347D01*
X41613Y-35374D01*
X41574Y-35387D01*
X41508Y-35387D01*
X41784Y-35242D02*
X41876Y-35242D01*
X41916Y-35387D02*
X41784Y-35387D01*
X41784Y-35111D01*
X41916Y-35111D01*
X42021Y-35374D02*
X42060Y-35387D01*
X42126Y-35387D01*
X42152Y-35374D01*
X42165Y-35361D01*
X42179Y-35334D01*
X42179Y-35308D01*
X42165Y-35282D01*
X42152Y-35269D01*
X42126Y-35255D01*
X42073Y-35242D01*
X42047Y-35229D01*
X42034Y-35216D01*
X42021Y-35190D01*
X42021Y-35163D01*
X42034Y-35137D01*
X42047Y-35124D01*
X42073Y-35111D01*
X42139Y-35111D01*
X42179Y-35124D01*
X42455Y-35361D02*
X42441Y-35374D01*
X42402Y-35387D01*
X42376Y-35387D01*
X42336Y-35374D01*
X42310Y-35347D01*
X42297Y-35321D01*
X42284Y-35269D01*
X42284Y-35229D01*
X42297Y-35177D01*
X42310Y-35150D01*
X42336Y-35124D01*
X42376Y-35111D01*
X42402Y-35111D01*
X42441Y-35124D01*
X42455Y-35137D01*
X42573Y-35387D02*
X42573Y-35111D01*
X42573Y-35242D02*
X42731Y-35242D01*
X42731Y-35387D02*
X42731Y-35111D01*
G54D19*
X34217Y-35201D02*
X34217Y-34801D01*
X34369Y-34801D01*
X34407Y-34820D01*
X34426Y-34839D01*
X34445Y-34877D01*
X34445Y-34934D01*
X34426Y-34972D01*
X34407Y-34991D01*
X34369Y-35010D01*
X34217Y-35010D01*
X34617Y-35201D02*
X34617Y-34934D01*
X34617Y-35010D02*
X34636Y-34972D01*
X34655Y-34953D01*
X34693Y-34934D01*
X34731Y-34934D01*
X34922Y-35201D02*
X34883Y-35182D01*
X34864Y-35163D01*
X34845Y-35125D01*
X34845Y-35010D01*
X34864Y-34972D01*
X34883Y-34953D01*
X34922Y-34934D01*
X34979Y-34934D01*
X35017Y-34953D01*
X35036Y-34972D01*
X35055Y-35010D01*
X35055Y-35125D01*
X35036Y-35163D01*
X35017Y-35182D01*
X34979Y-35201D01*
X34922Y-35201D01*
X35398Y-34934D02*
X35398Y-35258D01*
X35379Y-35296D01*
X35360Y-35315D01*
X35322Y-35334D01*
X35264Y-35334D01*
X35226Y-35315D01*
X35398Y-35182D02*
X35360Y-35201D01*
X35283Y-35201D01*
X35245Y-35182D01*
X35226Y-35163D01*
X35207Y-35125D01*
X35207Y-35010D01*
X35226Y-34972D01*
X35245Y-34953D01*
X35283Y-34934D01*
X35360Y-34934D01*
X35398Y-34953D01*
X35493Y-35239D02*
X35798Y-35239D01*
X36007Y-34801D02*
X36007Y-35086D01*
X35988Y-35144D01*
X35950Y-35182D01*
X35893Y-35201D01*
X35855Y-35201D01*
X36141Y-34801D02*
X36369Y-34801D01*
X36255Y-35201D02*
X36255Y-34801D01*
X36483Y-35086D02*
X36674Y-35086D01*
X36445Y-35201D02*
X36579Y-34801D01*
X36712Y-35201D01*
X37055Y-34820D02*
X37017Y-34801D01*
X36960Y-34801D01*
X36902Y-34820D01*
X36864Y-34858D01*
X36845Y-34896D01*
X36826Y-34972D01*
X36826Y-35029D01*
X36845Y-35106D01*
X36864Y-35144D01*
X36902Y-35182D01*
X36960Y-35201D01*
X36998Y-35201D01*
X37055Y-35182D01*
X37074Y-35163D01*
X37074Y-35029D01*
X36998Y-35029D01*
X37455Y-35201D02*
X37226Y-35201D01*
X37341Y-35201D02*
X37341Y-34801D01*
X37302Y-34858D01*
X37264Y-34896D01*
X37226Y-34915D01*
X34235Y-33665D02*
X34235Y-33265D01*
X34387Y-33265D01*
X34425Y-33284D01*
X34444Y-33303D01*
X34463Y-33342D01*
X34463Y-33399D01*
X34444Y-33437D01*
X34425Y-33456D01*
X34387Y-33475D01*
X34235Y-33475D01*
X34635Y-33665D02*
X34635Y-33399D01*
X34635Y-33475D02*
X34654Y-33437D01*
X34673Y-33418D01*
X34711Y-33399D01*
X34749Y-33399D01*
X34939Y-33665D02*
X34901Y-33646D01*
X34882Y-33627D01*
X34863Y-33589D01*
X34863Y-33475D01*
X34882Y-33437D01*
X34901Y-33418D01*
X34939Y-33399D01*
X34996Y-33399D01*
X35035Y-33418D01*
X35054Y-33437D01*
X35073Y-33475D01*
X35073Y-33589D01*
X35054Y-33627D01*
X35035Y-33646D01*
X34996Y-33665D01*
X34939Y-33665D01*
X35415Y-33399D02*
X35415Y-33722D01*
X35396Y-33761D01*
X35377Y-33780D01*
X35339Y-33799D01*
X35282Y-33799D01*
X35244Y-33780D01*
X35415Y-33646D02*
X35377Y-33665D01*
X35301Y-33665D01*
X35263Y-33646D01*
X35244Y-33627D01*
X35225Y-33589D01*
X35225Y-33475D01*
X35244Y-33437D01*
X35263Y-33418D01*
X35301Y-33399D01*
X35377Y-33399D01*
X35415Y-33418D01*
X35511Y-33703D02*
X35815Y-33703D01*
X35892Y-33646D02*
X35949Y-33665D01*
X36044Y-33665D01*
X36082Y-33646D01*
X36101Y-33627D01*
X36120Y-33589D01*
X36120Y-33551D01*
X36101Y-33513D01*
X36082Y-33494D01*
X36044Y-33475D01*
X35968Y-33456D01*
X35930Y-33437D01*
X35911Y-33418D01*
X35892Y-33380D01*
X35892Y-33342D01*
X35911Y-33303D01*
X35930Y-33284D01*
X35968Y-33265D01*
X36063Y-33265D01*
X36120Y-33284D01*
X36254Y-33265D02*
X36349Y-33665D01*
X36425Y-33380D01*
X36501Y-33665D01*
X36596Y-33265D01*
X36749Y-33665D02*
X36749Y-33265D01*
X36844Y-33265D01*
X36901Y-33284D01*
X36939Y-33322D01*
X36958Y-33361D01*
X36977Y-33437D01*
X36977Y-33494D01*
X36958Y-33570D01*
X36939Y-33608D01*
X36901Y-33646D01*
X36844Y-33665D01*
X36749Y-33665D01*
X37358Y-33665D02*
X37130Y-33665D01*
X37244Y-33665D02*
X37244Y-33265D01*
X37206Y-33322D01*
X37168Y-33361D01*
X37130Y-33380D01*
X35634Y-23517D02*
X35234Y-23517D01*
X35234Y-23364D01*
X35253Y-23326D01*
X35272Y-23307D01*
X35310Y-23288D01*
X35367Y-23288D01*
X35405Y-23307D01*
X35424Y-23326D01*
X35443Y-23364D01*
X35443Y-23517D01*
X35634Y-22907D02*
X35634Y-23136D01*
X35634Y-23021D02*
X35234Y-23021D01*
X35291Y-23060D01*
X35329Y-23098D01*
X35348Y-23136D01*
X35234Y-22774D02*
X35234Y-22526D01*
X35386Y-22660D01*
X35386Y-22602D01*
X35405Y-22564D01*
X35424Y-22545D01*
X35462Y-22526D01*
X35558Y-22526D01*
X35596Y-22545D01*
X35615Y-22564D01*
X35634Y-22602D01*
X35634Y-22717D01*
X35615Y-22755D01*
X35596Y-22774D01*
X35634Y-24895D02*
X35234Y-24895D01*
X35234Y-24742D01*
X35253Y-24704D01*
X35272Y-24685D01*
X35310Y-24666D01*
X35367Y-24666D01*
X35405Y-24685D01*
X35424Y-24704D01*
X35443Y-24742D01*
X35443Y-24895D01*
X35634Y-24285D02*
X35634Y-24514D01*
X35634Y-24399D02*
X35234Y-24399D01*
X35291Y-24438D01*
X35329Y-24476D01*
X35348Y-24514D01*
X35272Y-24133D02*
X35253Y-24114D01*
X35234Y-24076D01*
X35234Y-23980D01*
X35253Y-23942D01*
X35272Y-23923D01*
X35310Y-23904D01*
X35348Y-23904D01*
X35405Y-23923D01*
X35634Y-24152D01*
X35634Y-23904D01*
G54D17*
X32903Y-30241D02*
X32903Y-29941D01*
X33017Y-29941D01*
X33046Y-29955D01*
X33060Y-29970D01*
X33074Y-29998D01*
X33074Y-30041D01*
X33060Y-30070D01*
X33046Y-30084D01*
X33017Y-30098D01*
X32903Y-30098D01*
X33360Y-30241D02*
X33189Y-30241D01*
X33274Y-30241D02*
X33274Y-29941D01*
X33246Y-29984D01*
X33217Y-30012D01*
X33189Y-30027D01*
X33646Y-30241D02*
X33474Y-30241D01*
X33560Y-30241D02*
X33560Y-29941D01*
X33532Y-29984D01*
X33503Y-30012D01*
X33474Y-30027D01*
G54D16*
X43759Y-22642D02*
X43759Y-22242D01*
X43912Y-22242D01*
X43950Y-22261D01*
X43969Y-22280D01*
X43988Y-22318D01*
X43988Y-22375D01*
X43969Y-22413D01*
X43950Y-22432D01*
X43912Y-22451D01*
X43759Y-22451D01*
X44178Y-22642D02*
X44255Y-22642D01*
X44293Y-22623D01*
X44312Y-22604D01*
X44350Y-22546D01*
X44369Y-22470D01*
X44369Y-22318D01*
X44350Y-22280D01*
X44331Y-22261D01*
X44293Y-22242D01*
X44217Y-22242D01*
X44178Y-22261D01*
X44159Y-22280D01*
X44140Y-22318D01*
X44140Y-22413D01*
X44159Y-22451D01*
X44178Y-22470D01*
X44217Y-22489D01*
X44293Y-22489D01*
X44331Y-22470D01*
X44350Y-22451D01*
X44369Y-22413D01*
G54D19*
X35273Y-18785D02*
X35254Y-18804D01*
X35197Y-18823D01*
X35159Y-18823D01*
X35102Y-18804D01*
X35064Y-18766D01*
X35045Y-18728D01*
X35026Y-18651D01*
X35026Y-18594D01*
X35045Y-18518D01*
X35064Y-18480D01*
X35102Y-18442D01*
X35159Y-18423D01*
X35197Y-18423D01*
X35254Y-18442D01*
X35273Y-18461D01*
X35521Y-18423D02*
X35597Y-18423D01*
X35635Y-18442D01*
X35673Y-18480D01*
X35692Y-18556D01*
X35692Y-18689D01*
X35673Y-18766D01*
X35635Y-18804D01*
X35597Y-18823D01*
X35521Y-18823D01*
X35483Y-18804D01*
X35445Y-18766D01*
X35426Y-18689D01*
X35426Y-18556D01*
X35445Y-18480D01*
X35483Y-18442D01*
X35521Y-18423D01*
X35864Y-18823D02*
X35864Y-18423D01*
X36092Y-18823D01*
X36092Y-18423D01*
X36283Y-18823D02*
X36283Y-18423D01*
X36511Y-18823D01*
X36511Y-18423D01*
X36607Y-18861D02*
X36911Y-18861D01*
X37216Y-18823D02*
X36988Y-18823D01*
X37102Y-18823D02*
X37102Y-18423D01*
X37064Y-18480D01*
X37026Y-18518D01*
X36988Y-18537D01*
X37464Y-18423D02*
X37502Y-18423D01*
X37540Y-18442D01*
X37559Y-18461D01*
X37578Y-18499D01*
X37597Y-18575D01*
X37597Y-18670D01*
X37578Y-18747D01*
X37559Y-18785D01*
X37540Y-18804D01*
X37502Y-18823D01*
X37464Y-18823D01*
X37426Y-18804D01*
X37407Y-18785D01*
X37388Y-18747D01*
X37369Y-18670D01*
X37369Y-18575D01*
X37388Y-18499D01*
X37407Y-18461D01*
X37426Y-18442D01*
X37464Y-18423D01*
X37731Y-18423D02*
X37997Y-18823D01*
X37997Y-18423D02*
X37731Y-18823D01*
X38131Y-18461D02*
X38150Y-18442D01*
X38188Y-18423D01*
X38283Y-18423D01*
X38321Y-18442D01*
X38340Y-18461D01*
X38359Y-18499D01*
X38359Y-18537D01*
X38340Y-18594D01*
X38111Y-18823D01*
X38359Y-18823D01*
G54D16*
X31697Y-26988D02*
X31297Y-26988D01*
X31297Y-26835D01*
X31316Y-26797D01*
X31335Y-26778D01*
X31373Y-26759D01*
X31430Y-26759D01*
X31468Y-26778D01*
X31487Y-26797D01*
X31506Y-26835D01*
X31506Y-26988D01*
X31297Y-26626D02*
X31297Y-26359D01*
X31697Y-26531D01*
G54D19*
X26541Y-27954D02*
X26560Y-27973D01*
X26579Y-28030D01*
X26579Y-28068D01*
X26560Y-28125D01*
X26522Y-28164D01*
X26483Y-28183D01*
X26407Y-28202D01*
X26350Y-28202D01*
X26274Y-28183D01*
X26236Y-28164D01*
X26198Y-28125D01*
X26179Y-28068D01*
X26179Y-28030D01*
X26198Y-27973D01*
X26217Y-27954D01*
X26179Y-27706D02*
X26179Y-27630D01*
X26198Y-27592D01*
X26236Y-27554D01*
X26312Y-27535D01*
X26445Y-27535D01*
X26522Y-27554D01*
X26560Y-27592D01*
X26579Y-27630D01*
X26579Y-27706D01*
X26560Y-27744D01*
X26522Y-27783D01*
X26445Y-27802D01*
X26312Y-27802D01*
X26236Y-27783D01*
X26198Y-27744D01*
X26179Y-27706D01*
X26579Y-27364D02*
X26179Y-27364D01*
X26579Y-27135D01*
X26179Y-27135D01*
X26579Y-26944D02*
X26179Y-26944D01*
X26579Y-26716D01*
X26179Y-26716D01*
X26617Y-26621D02*
X26617Y-26316D01*
X26579Y-26011D02*
X26579Y-26240D01*
X26579Y-26125D02*
X26179Y-26125D01*
X26236Y-26164D01*
X26274Y-26202D01*
X26293Y-26240D01*
X26179Y-25764D02*
X26179Y-25725D01*
X26198Y-25687D01*
X26217Y-25668D01*
X26255Y-25649D01*
X26331Y-25630D01*
X26426Y-25630D01*
X26503Y-25649D01*
X26541Y-25668D01*
X26560Y-25687D01*
X26579Y-25725D01*
X26579Y-25764D01*
X26560Y-25802D01*
X26541Y-25821D01*
X26503Y-25840D01*
X26426Y-25859D01*
X26331Y-25859D01*
X26255Y-25840D01*
X26217Y-25821D01*
X26198Y-25802D01*
X26179Y-25764D01*
X26179Y-25497D02*
X26579Y-25230D01*
X26179Y-25230D02*
X26579Y-25497D01*
X26217Y-25097D02*
X26198Y-25078D01*
X26179Y-25040D01*
X26179Y-24944D01*
X26198Y-24906D01*
X26217Y-24887D01*
X26255Y-24868D01*
X26293Y-24868D01*
X26350Y-24887D01*
X26579Y-25116D01*
X26579Y-24868D01*
G54D16*
X45752Y-27847D02*
X45352Y-27847D01*
X45352Y-27695D01*
X45371Y-27657D01*
X45390Y-27638D01*
X45428Y-27619D01*
X45485Y-27619D01*
X45523Y-27638D01*
X45542Y-27657D01*
X45561Y-27695D01*
X45561Y-27847D01*
X45752Y-27238D02*
X45752Y-27466D01*
X45752Y-27352D02*
X45352Y-27352D01*
X45409Y-27390D01*
X45447Y-27428D01*
X45466Y-27466D01*
X45352Y-26990D02*
X45352Y-26952D01*
X45371Y-26914D01*
X45390Y-26895D01*
X45428Y-26876D01*
X45504Y-26857D01*
X45600Y-26857D01*
X45676Y-26876D01*
X45714Y-26895D01*
X45733Y-26914D01*
X45752Y-26952D01*
X45752Y-26990D01*
X45733Y-27028D01*
X45714Y-27047D01*
X45676Y-27066D01*
X45600Y-27086D01*
X45504Y-27086D01*
X45428Y-27066D01*
X45390Y-27047D01*
X45371Y-27028D01*
X45352Y-26990D01*
G54D19*
X48824Y-28938D02*
X48843Y-28957D01*
X48862Y-29014D01*
X48862Y-29053D01*
X48843Y-29110D01*
X48805Y-29148D01*
X48767Y-29167D01*
X48691Y-29186D01*
X48634Y-29186D01*
X48557Y-29167D01*
X48519Y-29148D01*
X48481Y-29110D01*
X48462Y-29053D01*
X48462Y-29014D01*
X48481Y-28957D01*
X48500Y-28938D01*
X48462Y-28691D02*
X48462Y-28614D01*
X48481Y-28576D01*
X48519Y-28538D01*
X48596Y-28519D01*
X48729Y-28519D01*
X48805Y-28538D01*
X48843Y-28576D01*
X48862Y-28614D01*
X48862Y-28691D01*
X48843Y-28729D01*
X48805Y-28767D01*
X48729Y-28786D01*
X48596Y-28786D01*
X48519Y-28767D01*
X48481Y-28729D01*
X48462Y-28691D01*
X48862Y-28348D02*
X48462Y-28348D01*
X48862Y-28119D01*
X48462Y-28119D01*
X48862Y-27929D02*
X48462Y-27929D01*
X48862Y-27700D01*
X48462Y-27700D01*
X48900Y-27605D02*
X48900Y-27300D01*
X48862Y-26995D02*
X48862Y-27224D01*
X48862Y-27110D02*
X48462Y-27110D01*
X48519Y-27148D01*
X48557Y-27186D01*
X48576Y-27224D01*
X48462Y-26748D02*
X48462Y-26710D01*
X48481Y-26672D01*
X48500Y-26653D01*
X48538Y-26633D01*
X48615Y-26614D01*
X48710Y-26614D01*
X48786Y-26633D01*
X48824Y-26653D01*
X48843Y-26672D01*
X48862Y-26710D01*
X48862Y-26748D01*
X48843Y-26786D01*
X48824Y-26805D01*
X48786Y-26824D01*
X48710Y-26843D01*
X48615Y-26843D01*
X48538Y-26824D01*
X48500Y-26805D01*
X48481Y-26786D01*
X48462Y-26748D01*
X48462Y-26481D02*
X48862Y-26214D01*
X48462Y-26214D02*
X48862Y-26481D01*
X48500Y-26081D02*
X48481Y-26062D01*
X48462Y-26024D01*
X48462Y-25929D01*
X48481Y-25891D01*
X48500Y-25872D01*
X48538Y-25853D01*
X48576Y-25853D01*
X48634Y-25872D01*
X48862Y-26100D01*
X48862Y-25853D01*
G54D16*
X37421Y-36776D02*
X37421Y-36376D01*
X37573Y-36376D01*
X37611Y-36395D01*
X37630Y-36414D01*
X37649Y-36452D01*
X37649Y-36509D01*
X37630Y-36547D01*
X37611Y-36566D01*
X37573Y-36585D01*
X37421Y-36585D01*
X37878Y-36547D02*
X37840Y-36528D01*
X37821Y-36509D01*
X37802Y-36471D01*
X37802Y-36452D01*
X37821Y-36414D01*
X37840Y-36395D01*
X37878Y-36376D01*
X37954Y-36376D01*
X37992Y-36395D01*
X38011Y-36414D01*
X38030Y-36452D01*
X38030Y-36471D01*
X38011Y-36509D01*
X37992Y-36528D01*
X37954Y-36547D01*
X37878Y-36547D01*
X37840Y-36566D01*
X37821Y-36585D01*
X37802Y-36623D01*
X37802Y-36699D01*
X37821Y-36737D01*
X37840Y-36757D01*
X37878Y-36776D01*
X37954Y-36776D01*
X37992Y-36757D01*
X38011Y-36737D01*
X38030Y-36699D01*
X38030Y-36623D01*
X38011Y-36585D01*
X37992Y-36566D01*
X37954Y-36547D01*
G54D19*
X34486Y-40241D02*
X34467Y-40260D01*
X34410Y-40280D01*
X34372Y-40280D01*
X34315Y-40260D01*
X34276Y-40222D01*
X34257Y-40184D01*
X34238Y-40108D01*
X34238Y-40051D01*
X34257Y-39975D01*
X34276Y-39937D01*
X34315Y-39899D01*
X34372Y-39880D01*
X34410Y-39880D01*
X34467Y-39899D01*
X34486Y-39918D01*
X34734Y-39880D02*
X34810Y-39880D01*
X34848Y-39899D01*
X34886Y-39937D01*
X34905Y-40013D01*
X34905Y-40146D01*
X34886Y-40222D01*
X34848Y-40260D01*
X34810Y-40280D01*
X34734Y-40280D01*
X34695Y-40260D01*
X34657Y-40222D01*
X34638Y-40146D01*
X34638Y-40013D01*
X34657Y-39937D01*
X34695Y-39899D01*
X34734Y-39880D01*
X35076Y-40280D02*
X35076Y-39880D01*
X35305Y-40280D01*
X35305Y-39880D01*
X35495Y-40280D02*
X35495Y-39880D01*
X35724Y-40280D01*
X35724Y-39880D01*
X35819Y-40318D02*
X36124Y-40318D01*
X36429Y-40280D02*
X36200Y-40280D01*
X36315Y-40280D02*
X36315Y-39880D01*
X36276Y-39937D01*
X36238Y-39975D01*
X36200Y-39994D01*
X36676Y-39880D02*
X36715Y-39880D01*
X36753Y-39899D01*
X36772Y-39918D01*
X36791Y-39956D01*
X36810Y-40032D01*
X36810Y-40127D01*
X36791Y-40203D01*
X36772Y-40241D01*
X36753Y-40260D01*
X36715Y-40280D01*
X36676Y-40280D01*
X36638Y-40260D01*
X36619Y-40241D01*
X36600Y-40203D01*
X36581Y-40127D01*
X36581Y-40032D01*
X36600Y-39956D01*
X36619Y-39918D01*
X36638Y-39899D01*
X36676Y-39880D01*
X36943Y-39880D02*
X37210Y-40280D01*
X37210Y-39880D02*
X36943Y-40280D01*
X37343Y-39918D02*
X37362Y-39899D01*
X37400Y-39880D01*
X37495Y-39880D01*
X37534Y-39899D01*
X37553Y-39918D01*
X37572Y-39956D01*
X37572Y-39994D01*
X37553Y-40051D01*
X37324Y-40280D01*
X37572Y-40280D01*
G54D21*
X38270Y-36479D02*
X38261Y-36488D01*
X38235Y-36498D01*
X38218Y-36498D01*
X38192Y-36488D01*
X38175Y-36469D01*
X38167Y-36450D01*
X38158Y-36412D01*
X38158Y-36383D01*
X38167Y-36345D01*
X38175Y-36326D01*
X38192Y-36307D01*
X38218Y-36298D01*
X38235Y-36298D01*
X38261Y-36307D01*
X38270Y-36317D01*
X38441Y-36498D02*
X38338Y-36498D01*
X38390Y-36498D02*
X38390Y-36298D01*
X38372Y-36326D01*
X38355Y-36345D01*
X38338Y-36355D01*
X38510Y-36317D02*
X38518Y-36307D01*
X38535Y-36298D01*
X38578Y-36298D01*
X38595Y-36307D01*
X38604Y-36317D01*
X38612Y-36336D01*
X38612Y-36355D01*
X38604Y-36383D01*
X38501Y-36498D01*
X38612Y-36498D01*
X33584Y-24699D02*
X33384Y-24699D01*
X33384Y-24656D01*
X33394Y-24631D01*
X33413Y-24614D01*
X33432Y-24605D01*
X33470Y-24596D01*
X33499Y-24596D01*
X33537Y-24605D01*
X33556Y-24614D01*
X33575Y-24631D01*
X33584Y-24656D01*
X33584Y-24699D01*
X33384Y-24442D02*
X33384Y-24476D01*
X33394Y-24494D01*
X33403Y-24502D01*
X33432Y-24519D01*
X33470Y-24528D01*
X33546Y-24528D01*
X33565Y-24519D01*
X33575Y-24511D01*
X33584Y-24494D01*
X33584Y-24459D01*
X33575Y-24442D01*
X33565Y-24434D01*
X33546Y-24425D01*
X33499Y-24425D01*
X33480Y-24434D01*
X33470Y-24442D01*
X33461Y-24459D01*
X33461Y-24494D01*
X33470Y-24511D01*
X33480Y-24519D01*
X33499Y-24528D01*
X34332Y-24699D02*
X34132Y-24699D01*
X34132Y-24656D01*
X34142Y-24631D01*
X34161Y-24614D01*
X34180Y-24605D01*
X34218Y-24596D01*
X34247Y-24596D01*
X34285Y-24605D01*
X34304Y-24614D01*
X34323Y-24631D01*
X34332Y-24656D01*
X34332Y-24699D01*
X34132Y-24536D02*
X34132Y-24416D01*
X34332Y-24494D01*
X36931Y-24936D02*
X36731Y-24936D01*
X36731Y-24893D01*
X36740Y-24867D01*
X36759Y-24850D01*
X36778Y-24841D01*
X36817Y-24833D01*
X36845Y-24833D01*
X36883Y-24841D01*
X36902Y-24850D01*
X36921Y-24867D01*
X36931Y-24893D01*
X36931Y-24936D01*
X36750Y-24764D02*
X36740Y-24756D01*
X36731Y-24738D01*
X36731Y-24696D01*
X36740Y-24678D01*
X36750Y-24670D01*
X36769Y-24661D01*
X36788Y-24661D01*
X36817Y-24670D01*
X36931Y-24773D01*
X36931Y-24661D01*
X32836Y-24699D02*
X32636Y-24699D01*
X32636Y-24656D01*
X32646Y-24631D01*
X32665Y-24614D01*
X32684Y-24605D01*
X32722Y-24596D01*
X32751Y-24596D01*
X32789Y-24605D01*
X32808Y-24614D01*
X32827Y-24631D01*
X32836Y-24656D01*
X32836Y-24699D01*
X32636Y-24434D02*
X32636Y-24519D01*
X32732Y-24528D01*
X32722Y-24519D01*
X32713Y-24502D01*
X32713Y-24459D01*
X32722Y-24442D01*
X32732Y-24434D01*
X32751Y-24425D01*
X32798Y-24425D01*
X32817Y-24434D01*
X32827Y-24442D01*
X32836Y-24459D01*
X32836Y-24502D01*
X32827Y-24519D01*
X32817Y-24528D01*
X32049Y-24699D02*
X31849Y-24699D01*
X31849Y-24656D01*
X31858Y-24631D01*
X31878Y-24614D01*
X31897Y-24605D01*
X31935Y-24596D01*
X31963Y-24596D01*
X32001Y-24605D01*
X32020Y-24614D01*
X32039Y-24631D01*
X32049Y-24656D01*
X32049Y-24699D01*
X31916Y-24442D02*
X32049Y-24442D01*
X31839Y-24485D02*
X31982Y-24528D01*
X31982Y-24416D01*
G54D19*
X41230Y-32359D02*
X41230Y-32845D01*
X41249Y-32902D01*
X41268Y-32930D01*
X41306Y-32959D01*
X41383Y-32959D01*
X41421Y-32930D01*
X41440Y-32902D01*
X41459Y-32845D01*
X41459Y-32359D01*
X41859Y-32959D02*
X41630Y-32959D01*
X41744Y-32959D02*
X41744Y-32359D01*
X41706Y-32445D01*
X41668Y-32502D01*
X41630Y-32530D01*
X24792Y-31653D02*
X24820Y-31672D01*
X24849Y-31730D01*
X24849Y-31768D01*
X24820Y-31825D01*
X24763Y-31863D01*
X24706Y-31882D01*
X24592Y-31901D01*
X24506Y-31901D01*
X24392Y-31882D01*
X24334Y-31863D01*
X24277Y-31825D01*
X24249Y-31768D01*
X24249Y-31730D01*
X24277Y-31672D01*
X24306Y-31653D01*
X24563Y-31406D02*
X24849Y-31406D01*
X24249Y-31539D02*
X24563Y-31406D01*
X24249Y-31272D01*
X24506Y-31082D02*
X24477Y-31120D01*
X24449Y-31139D01*
X24392Y-31158D01*
X24363Y-31158D01*
X24306Y-31139D01*
X24277Y-31120D01*
X24249Y-31082D01*
X24249Y-31006D01*
X24277Y-30968D01*
X24306Y-30949D01*
X24363Y-30930D01*
X24392Y-30930D01*
X24449Y-30949D01*
X24477Y-30968D01*
X24506Y-31006D01*
X24506Y-31082D01*
X24534Y-31120D01*
X24563Y-31139D01*
X24620Y-31158D01*
X24734Y-31158D01*
X24792Y-31139D01*
X24820Y-31120D01*
X24849Y-31082D01*
X24849Y-31006D01*
X24820Y-30968D01*
X24792Y-30949D01*
X24734Y-30930D01*
X24620Y-30930D01*
X24563Y-30949D01*
X24534Y-30968D01*
X24506Y-31006D01*
X24792Y-30530D02*
X24820Y-30549D01*
X24849Y-30606D01*
X24849Y-30644D01*
X24820Y-30701D01*
X24763Y-30739D01*
X24706Y-30758D01*
X24592Y-30777D01*
X24506Y-30777D01*
X24392Y-30758D01*
X24334Y-30739D01*
X24277Y-30701D01*
X24249Y-30644D01*
X24249Y-30606D01*
X24277Y-30549D01*
X24306Y-30530D01*
X24249Y-30168D02*
X24249Y-30358D01*
X24534Y-30377D01*
X24506Y-30358D01*
X24477Y-30320D01*
X24477Y-30225D01*
X24506Y-30187D01*
X24534Y-30168D01*
X24592Y-30149D01*
X24734Y-30149D01*
X24792Y-30168D01*
X24820Y-30187D01*
X24849Y-30225D01*
X24849Y-30320D01*
X24820Y-30358D01*
X24792Y-30377D01*
X24306Y-29996D02*
X24277Y-29977D01*
X24249Y-29939D01*
X24249Y-29844D01*
X24277Y-29806D01*
X24306Y-29787D01*
X24363Y-29768D01*
X24420Y-29768D01*
X24506Y-29787D01*
X24849Y-30015D01*
X24849Y-29768D01*
X24849Y-29406D02*
X24849Y-29596D01*
X24249Y-29596D01*
X24849Y-29272D02*
X24249Y-29272D01*
X24249Y-29120D01*
X24277Y-29082D01*
X24306Y-29063D01*
X24363Y-29044D01*
X24449Y-29044D01*
X24506Y-29063D01*
X24534Y-29082D01*
X24563Y-29120D01*
X24563Y-29272D01*
X24906Y-28968D02*
X24906Y-28663D01*
X24849Y-28358D02*
X24849Y-28587D01*
X24849Y-28472D02*
X24249Y-28472D01*
X24334Y-28510D01*
X24392Y-28549D01*
X24420Y-28587D01*
X24249Y-28110D02*
X24249Y-28072D01*
X24277Y-28034D01*
X24306Y-28015D01*
X24363Y-27996D01*
X24477Y-27977D01*
X24620Y-27977D01*
X24734Y-27996D01*
X24792Y-28015D01*
X24820Y-28034D01*
X24849Y-28072D01*
X24849Y-28110D01*
X24820Y-28149D01*
X24792Y-28168D01*
X24734Y-28187D01*
X24620Y-28206D01*
X24477Y-28206D01*
X24363Y-28187D01*
X24306Y-28168D01*
X24277Y-28149D01*
X24249Y-28110D01*
X24249Y-27730D02*
X24249Y-27691D01*
X24277Y-27653D01*
X24306Y-27634D01*
X24363Y-27615D01*
X24477Y-27596D01*
X24620Y-27596D01*
X24734Y-27615D01*
X24792Y-27634D01*
X24820Y-27653D01*
X24849Y-27691D01*
X24849Y-27730D01*
X24820Y-27768D01*
X24792Y-27787D01*
X24734Y-27806D01*
X24620Y-27825D01*
X24477Y-27825D01*
X24363Y-27806D01*
X24306Y-27787D01*
X24277Y-27768D01*
X24249Y-27730D01*
X24249Y-27482D02*
X24249Y-27253D01*
X24849Y-27368D02*
X24249Y-27368D01*
X24906Y-26853D02*
X24877Y-26891D01*
X24820Y-26930D01*
X24734Y-26987D01*
X24706Y-27025D01*
X24706Y-27063D01*
X24849Y-27044D02*
X24820Y-27082D01*
X24763Y-27120D01*
X24649Y-27139D01*
X24449Y-27139D01*
X24334Y-27120D01*
X24277Y-27082D01*
X24249Y-27044D01*
X24249Y-26968D01*
X24277Y-26930D01*
X24334Y-26891D01*
X24449Y-26872D01*
X24649Y-26872D01*
X24763Y-26891D01*
X24820Y-26930D01*
X24849Y-26968D01*
X24849Y-27044D01*
X24534Y-26568D02*
X24534Y-26701D01*
X24849Y-26701D02*
X24249Y-26701D01*
X24249Y-26510D01*
X24849Y-26358D02*
X24249Y-26358D01*
X24249Y-26206D01*
X24277Y-26168D01*
X24306Y-26149D01*
X24363Y-26130D01*
X24449Y-26130D01*
X24506Y-26149D01*
X24534Y-26168D01*
X24563Y-26206D01*
X24563Y-26358D01*
G54D21*
X44726Y-31340D02*
X44666Y-31245D01*
X44623Y-31340D02*
X44623Y-31140D01*
X44692Y-31140D01*
X44709Y-31150D01*
X44718Y-31159D01*
X44726Y-31178D01*
X44726Y-31207D01*
X44718Y-31226D01*
X44709Y-31236D01*
X44692Y-31245D01*
X44623Y-31245D01*
X44795Y-31159D02*
X44803Y-31150D01*
X44821Y-31140D01*
X44863Y-31140D01*
X44881Y-31150D01*
X44889Y-31159D01*
X44898Y-31178D01*
X44898Y-31197D01*
X44889Y-31226D01*
X44786Y-31340D01*
X44898Y-31340D01*
X44966Y-31159D02*
X44975Y-31150D01*
X44992Y-31140D01*
X45035Y-31140D01*
X45052Y-31150D01*
X45061Y-31159D01*
X45069Y-31178D01*
X45069Y-31197D01*
X45061Y-31226D01*
X44958Y-31340D01*
X45069Y-31340D01*
X43900Y-30120D02*
X43840Y-30025D01*
X43797Y-30120D02*
X43797Y-29920D01*
X43865Y-29920D01*
X43882Y-29929D01*
X43891Y-29939D01*
X43900Y-29958D01*
X43900Y-29986D01*
X43891Y-30006D01*
X43882Y-30015D01*
X43865Y-30025D01*
X43797Y-30025D01*
X43968Y-29939D02*
X43977Y-29929D01*
X43994Y-29920D01*
X44037Y-29920D01*
X44054Y-29929D01*
X44062Y-29939D01*
X44071Y-29958D01*
X44071Y-29977D01*
X44062Y-30006D01*
X43960Y-30120D01*
X44071Y-30120D01*
X44182Y-29920D02*
X44200Y-29920D01*
X44217Y-29929D01*
X44225Y-29939D01*
X44234Y-29958D01*
X44242Y-29996D01*
X44242Y-30044D01*
X44234Y-30082D01*
X44225Y-30101D01*
X44217Y-30110D01*
X44200Y-30120D01*
X44182Y-30120D01*
X44165Y-30110D01*
X44157Y-30101D01*
X44148Y-30082D01*
X44140Y-30044D01*
X44140Y-29996D01*
X44148Y-29958D01*
X44157Y-29939D01*
X44165Y-29929D01*
X44182Y-29920D01*
X43506Y-24647D02*
X43446Y-24552D01*
X43403Y-24647D02*
X43403Y-24447D01*
X43472Y-24447D01*
X43489Y-24457D01*
X43497Y-24466D01*
X43506Y-24485D01*
X43506Y-24514D01*
X43497Y-24533D01*
X43489Y-24543D01*
X43472Y-24552D01*
X43403Y-24552D01*
X43574Y-24466D02*
X43583Y-24457D01*
X43600Y-24447D01*
X43643Y-24447D01*
X43660Y-24457D01*
X43669Y-24466D01*
X43677Y-24485D01*
X43677Y-24505D01*
X43669Y-24533D01*
X43566Y-24647D01*
X43677Y-24647D01*
X43849Y-24647D02*
X43746Y-24647D01*
X43797Y-24647D02*
X43797Y-24447D01*
X43780Y-24476D01*
X43763Y-24495D01*
X43746Y-24505D01*
X43466Y-23742D02*
X43406Y-23647D01*
X43364Y-23742D02*
X43364Y-23542D01*
X43432Y-23542D01*
X43449Y-23551D01*
X43458Y-23561D01*
X43466Y-23580D01*
X43466Y-23609D01*
X43458Y-23628D01*
X43449Y-23637D01*
X43432Y-23647D01*
X43364Y-23647D01*
X43638Y-23742D02*
X43535Y-23742D01*
X43586Y-23742D02*
X43586Y-23542D01*
X43569Y-23570D01*
X43552Y-23589D01*
X43535Y-23599D01*
X43724Y-23742D02*
X43758Y-23742D01*
X43775Y-23732D01*
X43784Y-23723D01*
X43801Y-23694D01*
X43809Y-23656D01*
X43809Y-23580D01*
X43801Y-23561D01*
X43792Y-23551D01*
X43775Y-23542D01*
X43741Y-23542D01*
X43724Y-23551D01*
X43715Y-23561D01*
X43706Y-23580D01*
X43706Y-23628D01*
X43715Y-23647D01*
X43724Y-23656D01*
X43741Y-23666D01*
X43775Y-23666D01*
X43792Y-23656D01*
X43801Y-23647D01*
X43809Y-23628D01*
X41577Y-24328D02*
X41481Y-24388D01*
X41577Y-24431D02*
X41377Y-24431D01*
X41377Y-24362D01*
X41386Y-24345D01*
X41396Y-24336D01*
X41415Y-24328D01*
X41443Y-24328D01*
X41462Y-24336D01*
X41472Y-24345D01*
X41481Y-24362D01*
X41481Y-24431D01*
X41577Y-24156D02*
X41577Y-24259D01*
X41577Y-24208D02*
X41377Y-24208D01*
X41405Y-24225D01*
X41424Y-24242D01*
X41434Y-24259D01*
X41377Y-24096D02*
X41377Y-23985D01*
X41453Y-24045D01*
X41453Y-24019D01*
X41462Y-24002D01*
X41472Y-23994D01*
X41491Y-23985D01*
X41538Y-23985D01*
X41557Y-23994D01*
X41567Y-24002D01*
X41577Y-24019D01*
X41577Y-24071D01*
X41567Y-24088D01*
X41557Y-24096D01*
X40828Y-24328D02*
X40733Y-24388D01*
X40828Y-24431D02*
X40628Y-24431D01*
X40628Y-24362D01*
X40638Y-24345D01*
X40648Y-24336D01*
X40667Y-24328D01*
X40695Y-24328D01*
X40714Y-24336D01*
X40724Y-24345D01*
X40733Y-24362D01*
X40733Y-24431D01*
X40828Y-24156D02*
X40828Y-24259D01*
X40828Y-24208D02*
X40628Y-24208D01*
X40657Y-24225D01*
X40676Y-24242D01*
X40686Y-24259D01*
X40695Y-24002D02*
X40828Y-24002D01*
X40619Y-24045D02*
X40762Y-24088D01*
X40762Y-23976D01*
X42325Y-24328D02*
X42229Y-24388D01*
X42325Y-24431D02*
X42125Y-24431D01*
X42125Y-24362D01*
X42134Y-24345D01*
X42144Y-24336D01*
X42163Y-24328D01*
X42191Y-24328D01*
X42210Y-24336D01*
X42220Y-24345D01*
X42229Y-24362D01*
X42229Y-24431D01*
X42325Y-24156D02*
X42325Y-24259D01*
X42325Y-24208D02*
X42125Y-24208D01*
X42153Y-24225D01*
X42172Y-24242D01*
X42182Y-24259D01*
X42144Y-24088D02*
X42134Y-24079D01*
X42125Y-24062D01*
X42125Y-24019D01*
X42134Y-24002D01*
X42144Y-23994D01*
X42163Y-23985D01*
X42182Y-23985D01*
X42210Y-23994D01*
X42325Y-24096D01*
X42325Y-23985D01*
G54D19*
X43799Y-36815D02*
X43799Y-36415D01*
X43951Y-36415D01*
X43989Y-36434D01*
X44008Y-36453D01*
X44027Y-36491D01*
X44027Y-36548D01*
X44008Y-36586D01*
X43989Y-36605D01*
X43951Y-36624D01*
X43799Y-36624D01*
X44408Y-36815D02*
X44180Y-36815D01*
X44294Y-36815D02*
X44294Y-36415D01*
X44256Y-36472D01*
X44218Y-36510D01*
X44180Y-36529D01*
G54D21*
X40335Y-30071D02*
X40361Y-30080D01*
X40403Y-30080D01*
X40421Y-30071D01*
X40429Y-30061D01*
X40438Y-30042D01*
X40438Y-30023D01*
X40429Y-30004D01*
X40421Y-29995D01*
X40403Y-29985D01*
X40369Y-29976D01*
X40352Y-29966D01*
X40343Y-29957D01*
X40335Y-29938D01*
X40335Y-29919D01*
X40343Y-29900D01*
X40352Y-29890D01*
X40369Y-29880D01*
X40412Y-29880D01*
X40438Y-29890D01*
X40609Y-30080D02*
X40506Y-30080D01*
X40558Y-30080D02*
X40558Y-29880D01*
X40541Y-29909D01*
X40523Y-29928D01*
X40506Y-29938D01*
X39666Y-29480D02*
X39691Y-29490D01*
X39734Y-29490D01*
X39751Y-29480D01*
X39760Y-29471D01*
X39768Y-29452D01*
X39768Y-29433D01*
X39760Y-29414D01*
X39751Y-29404D01*
X39734Y-29395D01*
X39700Y-29385D01*
X39683Y-29376D01*
X39674Y-29366D01*
X39666Y-29347D01*
X39666Y-29328D01*
X39674Y-29309D01*
X39683Y-29299D01*
X39700Y-29290D01*
X39743Y-29290D01*
X39768Y-29299D01*
X39923Y-29357D02*
X39923Y-29490D01*
X39880Y-29280D02*
X39837Y-29423D01*
X39948Y-29423D01*
G54D19*
X48648Y-32013D02*
X48629Y-32032D01*
X48571Y-32051D01*
X48533Y-32051D01*
X48476Y-32032D01*
X48438Y-31994D01*
X48419Y-31956D01*
X48400Y-31880D01*
X48400Y-31823D01*
X48419Y-31746D01*
X48438Y-31708D01*
X48476Y-31670D01*
X48533Y-31651D01*
X48571Y-31651D01*
X48629Y-31670D01*
X48648Y-31689D01*
X48895Y-31651D02*
X48971Y-31651D01*
X49010Y-31670D01*
X49048Y-31708D01*
X49067Y-31785D01*
X49067Y-31918D01*
X49048Y-31994D01*
X49010Y-32032D01*
X48971Y-32051D01*
X48895Y-32051D01*
X48857Y-32032D01*
X48819Y-31994D01*
X48800Y-31918D01*
X48800Y-31785D01*
X48819Y-31708D01*
X48857Y-31670D01*
X48895Y-31651D01*
X49238Y-32051D02*
X49238Y-31651D01*
X49467Y-32051D01*
X49467Y-31651D01*
X49867Y-32051D02*
X49638Y-32051D01*
X49752Y-32051D02*
X49752Y-31651D01*
X49714Y-31708D01*
X49676Y-31746D01*
X49638Y-31765D01*
M02*
