G04 (created by PCBNEW (2013-07-07 BZR 4022)-stable) date 2015/09/29 23:49:40*
%MOIN*%
G04 Gerber Fmt 3.4, Leading zero omitted, Abs format*
%FSLAX34Y34*%
G01*
G70*
G90*
G04 APERTURE LIST*
%ADD10C,0.00393701*%
%ADD11C,0.00787402*%
%ADD12C,0.00629921*%
%ADD13C,0.00688976*%
%ADD14C,0.00590551*%
%ADD15C,0.005*%
%ADD16C,0.0045*%
G04 APERTURE END LIST*
G54D10*
G54D11*
X38149Y-29960D02*
X39370Y-29960D01*
X37322Y-28188D02*
X37322Y-28661D01*
X36574Y-30708D02*
X37440Y-30708D01*
X29055Y-36574D02*
X29055Y-35472D01*
X30000Y-36574D02*
X29055Y-36574D01*
X30000Y-35472D02*
X30000Y-36574D01*
X28976Y-35472D02*
X30000Y-35472D01*
X32952Y-33937D02*
X32952Y-32992D01*
X34094Y-33937D02*
X32952Y-33937D01*
X34094Y-32992D02*
X34094Y-33937D01*
X32952Y-32992D02*
X34094Y-32992D01*
G54D12*
X30492Y-36646D02*
X30400Y-36922D01*
X30308Y-36646D01*
X30216Y-36922D02*
X30216Y-36646D01*
X30111Y-36646D01*
X30085Y-36660D01*
X30072Y-36673D01*
X30059Y-36699D01*
X30059Y-36738D01*
X30072Y-36765D01*
X30085Y-36778D01*
X30111Y-36791D01*
X30216Y-36791D01*
X29783Y-36922D02*
X29875Y-36791D01*
X29940Y-36922D02*
X29940Y-36646D01*
X29835Y-36646D01*
X29809Y-36660D01*
X29796Y-36673D01*
X29783Y-36699D01*
X29783Y-36738D01*
X29796Y-36765D01*
X29809Y-36778D01*
X29835Y-36791D01*
X29940Y-36791D01*
X29612Y-36646D02*
X29560Y-36646D01*
X29534Y-36660D01*
X29507Y-36686D01*
X29494Y-36738D01*
X29494Y-36830D01*
X29507Y-36883D01*
X29534Y-36909D01*
X29560Y-36922D01*
X29612Y-36922D01*
X29639Y-36909D01*
X29665Y-36883D01*
X29678Y-36830D01*
X29678Y-36738D01*
X29665Y-36686D01*
X29639Y-36660D01*
X29612Y-36646D01*
X29232Y-36660D02*
X29258Y-36646D01*
X29297Y-36646D01*
X29337Y-36660D01*
X29363Y-36686D01*
X29376Y-36712D01*
X29389Y-36765D01*
X29389Y-36804D01*
X29376Y-36856D01*
X29363Y-36883D01*
X29337Y-36909D01*
X29297Y-36922D01*
X29271Y-36922D01*
X29232Y-36909D01*
X29219Y-36896D01*
X29219Y-36804D01*
X29271Y-36804D01*
X34114Y-34048D02*
X34022Y-34324D01*
X33930Y-34048D01*
X33838Y-34324D02*
X33838Y-34048D01*
X33733Y-34048D01*
X33707Y-34061D01*
X33694Y-34074D01*
X33681Y-34101D01*
X33681Y-34140D01*
X33694Y-34166D01*
X33707Y-34179D01*
X33733Y-34192D01*
X33838Y-34192D01*
X33405Y-34324D02*
X33497Y-34192D01*
X33562Y-34324D02*
X33562Y-34048D01*
X33458Y-34048D01*
X33431Y-34061D01*
X33418Y-34074D01*
X33405Y-34101D01*
X33405Y-34140D01*
X33418Y-34166D01*
X33431Y-34179D01*
X33458Y-34192D01*
X33562Y-34192D01*
X33234Y-34048D02*
X33182Y-34048D01*
X33156Y-34061D01*
X33129Y-34087D01*
X33116Y-34140D01*
X33116Y-34232D01*
X33129Y-34284D01*
X33156Y-34311D01*
X33182Y-34324D01*
X33234Y-34324D01*
X33261Y-34311D01*
X33287Y-34284D01*
X33300Y-34232D01*
X33300Y-34140D01*
X33287Y-34087D01*
X33261Y-34061D01*
X33234Y-34048D01*
X32854Y-34061D02*
X32880Y-34048D01*
X32919Y-34048D01*
X32959Y-34061D01*
X32985Y-34087D01*
X32998Y-34114D01*
X33011Y-34166D01*
X33011Y-34206D01*
X32998Y-34258D01*
X32985Y-34284D01*
X32959Y-34311D01*
X32919Y-34324D01*
X32893Y-34324D01*
X32854Y-34311D01*
X32841Y-34297D01*
X32841Y-34206D01*
X32893Y-34206D01*
G54D11*
X28976Y-24488D02*
X28976Y-22519D01*
X30944Y-24488D02*
X28976Y-24488D01*
X30944Y-22519D02*
X30944Y-24488D01*
X28976Y-22519D02*
X30944Y-22519D01*
X30944Y-39055D02*
X30944Y-36968D01*
X33031Y-39055D02*
X30944Y-39055D01*
X33031Y-36929D02*
X33031Y-39055D01*
X30944Y-36929D02*
X33031Y-36929D01*
X46023Y-32440D02*
X46023Y-30511D01*
X47874Y-32440D02*
X46023Y-32440D01*
X47874Y-30511D02*
X47874Y-32440D01*
X46023Y-30511D02*
X47874Y-30511D01*
X43464Y-19960D02*
X43425Y-19960D01*
X43464Y-21968D02*
X43464Y-19960D01*
X45511Y-21968D02*
X43464Y-21968D01*
X45511Y-19960D02*
X45511Y-21968D01*
X43503Y-19960D02*
X45511Y-19960D01*
G54D13*
X45757Y-22716D02*
X45442Y-22716D01*
X45442Y-22926D02*
X45442Y-22986D01*
X45457Y-23016D01*
X45487Y-23046D01*
X45547Y-23061D01*
X45652Y-23061D01*
X45712Y-23046D01*
X45742Y-23016D01*
X45757Y-22986D01*
X45757Y-22926D01*
X45742Y-22896D01*
X45712Y-22866D01*
X45652Y-22851D01*
X45547Y-22851D01*
X45487Y-22866D01*
X45457Y-22896D01*
X45442Y-22926D01*
X45442Y-23256D02*
X45442Y-23286D01*
X45457Y-23316D01*
X45472Y-23331D01*
X45502Y-23346D01*
X45562Y-23361D01*
X45637Y-23361D01*
X45697Y-23346D01*
X45727Y-23331D01*
X45742Y-23316D01*
X45757Y-23286D01*
X45757Y-23256D01*
X45742Y-23226D01*
X45727Y-23211D01*
X45697Y-23196D01*
X45637Y-23181D01*
X45562Y-23181D01*
X45502Y-23196D01*
X45472Y-23211D01*
X45457Y-23226D01*
X45442Y-23256D01*
G54D11*
X45905Y-22519D02*
X45944Y-22519D01*
X45905Y-23543D02*
X45905Y-22519D01*
X45984Y-23543D02*
X45905Y-23543D01*
X47913Y-23543D02*
X45984Y-23543D01*
X47913Y-22519D02*
X47913Y-23543D01*
X45944Y-22519D02*
X47913Y-22519D01*
X47364Y-34040D02*
X47176Y-33908D01*
X47364Y-33815D02*
X46970Y-33815D01*
X46970Y-33965D01*
X46989Y-34002D01*
X47007Y-34021D01*
X47045Y-34040D01*
X47101Y-34040D01*
X47139Y-34021D01*
X47157Y-34002D01*
X47176Y-33965D01*
X47176Y-33815D01*
X47345Y-34358D02*
X47364Y-34321D01*
X47364Y-34246D01*
X47345Y-34208D01*
X47307Y-34190D01*
X47157Y-34190D01*
X47120Y-34208D01*
X47101Y-34246D01*
X47101Y-34321D01*
X47120Y-34358D01*
X47157Y-34377D01*
X47195Y-34377D01*
X47232Y-34190D01*
X47101Y-34508D02*
X47364Y-34602D01*
X47101Y-34696D01*
X47326Y-34846D02*
X47345Y-34865D01*
X47364Y-34846D01*
X47345Y-34827D01*
X47326Y-34846D01*
X47364Y-34846D01*
X47157Y-35164D02*
X47176Y-35221D01*
X47195Y-35239D01*
X47232Y-35258D01*
X47289Y-35258D01*
X47326Y-35239D01*
X47345Y-35221D01*
X47364Y-35183D01*
X47364Y-35033D01*
X46970Y-35033D01*
X46970Y-35164D01*
X46989Y-35202D01*
X47007Y-35221D01*
X47045Y-35239D01*
X47082Y-35239D01*
X47120Y-35221D01*
X47139Y-35202D01*
X47157Y-35164D01*
X47157Y-35033D01*
X45671Y-37167D02*
X45539Y-37560D01*
X45408Y-37167D01*
X45277Y-37560D02*
X45277Y-37167D01*
X45183Y-37167D01*
X45127Y-37185D01*
X45089Y-37223D01*
X45071Y-37260D01*
X45052Y-37335D01*
X45052Y-37392D01*
X45071Y-37467D01*
X45089Y-37504D01*
X45127Y-37542D01*
X45183Y-37560D01*
X45277Y-37560D01*
X44883Y-37560D02*
X44883Y-37167D01*
X44790Y-37167D01*
X44733Y-37185D01*
X44696Y-37223D01*
X44677Y-37260D01*
X44658Y-37335D01*
X44658Y-37392D01*
X44677Y-37467D01*
X44696Y-37504D01*
X44733Y-37542D01*
X44790Y-37560D01*
X44883Y-37560D01*
X45408Y-38445D02*
X45446Y-38427D01*
X45502Y-38427D01*
X45558Y-38445D01*
X45596Y-38483D01*
X45614Y-38520D01*
X45633Y-38595D01*
X45633Y-38652D01*
X45614Y-38727D01*
X45596Y-38764D01*
X45558Y-38802D01*
X45502Y-38820D01*
X45464Y-38820D01*
X45408Y-38802D01*
X45389Y-38783D01*
X45389Y-38652D01*
X45464Y-38652D01*
X45221Y-38820D02*
X45221Y-38427D01*
X44996Y-38820D01*
X44996Y-38427D01*
X44808Y-38820D02*
X44808Y-38427D01*
X44715Y-38427D01*
X44658Y-38445D01*
X44621Y-38483D01*
X44602Y-38520D01*
X44583Y-38595D01*
X44583Y-38652D01*
X44602Y-38727D01*
X44621Y-38764D01*
X44658Y-38802D01*
X44715Y-38820D01*
X44808Y-38820D01*
X43937Y-23425D02*
X43937Y-23582D01*
X43937Y-23425D02*
X44133Y-23425D01*
X44251Y-23740D02*
X43937Y-23425D01*
X44686Y-24176D02*
X44499Y-24045D01*
X44686Y-23952D02*
X44293Y-23952D01*
X44293Y-24101D01*
X44311Y-24139D01*
X44330Y-24158D01*
X44368Y-24176D01*
X44424Y-24176D01*
X44461Y-24158D01*
X44480Y-24139D01*
X44499Y-24101D01*
X44499Y-23952D01*
X44480Y-24345D02*
X44480Y-24476D01*
X44686Y-24533D02*
X44686Y-24345D01*
X44293Y-24345D01*
X44293Y-24533D01*
X44311Y-24908D02*
X44293Y-24870D01*
X44293Y-24814D01*
X44311Y-24758D01*
X44349Y-24720D01*
X44386Y-24701D01*
X44461Y-24683D01*
X44518Y-24683D01*
X44593Y-24701D01*
X44630Y-24720D01*
X44668Y-24758D01*
X44686Y-24814D01*
X44686Y-24851D01*
X44668Y-24908D01*
X44649Y-24926D01*
X44518Y-24926D01*
X44518Y-24851D01*
X44923Y-23914D02*
X44923Y-24158D01*
X45073Y-24026D01*
X45073Y-24083D01*
X45091Y-24120D01*
X45110Y-24139D01*
X45148Y-24158D01*
X45241Y-24158D01*
X45279Y-24139D01*
X45298Y-24120D01*
X45316Y-24083D01*
X45316Y-23970D01*
X45298Y-23933D01*
X45279Y-23914D01*
X45279Y-24326D02*
X45298Y-24345D01*
X45316Y-24326D01*
X45298Y-24308D01*
X45279Y-24326D01*
X45316Y-24326D01*
X44923Y-24476D02*
X44923Y-24720D01*
X45073Y-24589D01*
X45073Y-24645D01*
X45091Y-24683D01*
X45110Y-24701D01*
X45148Y-24720D01*
X45241Y-24720D01*
X45279Y-24701D01*
X45298Y-24683D01*
X45316Y-24645D01*
X45316Y-24533D01*
X45298Y-24495D01*
X45279Y-24476D01*
X44923Y-24833D02*
X45316Y-24964D01*
X44923Y-25095D01*
X45298Y-25508D02*
X45316Y-25564D01*
X45316Y-25658D01*
X45298Y-25695D01*
X45279Y-25714D01*
X45241Y-25733D01*
X45204Y-25733D01*
X45166Y-25714D01*
X45148Y-25695D01*
X45129Y-25658D01*
X45110Y-25583D01*
X45091Y-25545D01*
X45073Y-25526D01*
X45035Y-25508D01*
X44998Y-25508D01*
X44960Y-25526D01*
X44941Y-25545D01*
X44923Y-25583D01*
X44923Y-25676D01*
X44941Y-25733D01*
X45316Y-26126D02*
X45129Y-25995D01*
X45316Y-25901D02*
X44923Y-25901D01*
X44923Y-26051D01*
X44941Y-26089D01*
X44960Y-26107D01*
X44998Y-26126D01*
X45054Y-26126D01*
X45091Y-26107D01*
X45110Y-26089D01*
X45129Y-26051D01*
X45129Y-25901D01*
X45279Y-26520D02*
X45298Y-26501D01*
X45316Y-26445D01*
X45316Y-26407D01*
X45298Y-26351D01*
X45260Y-26314D01*
X45223Y-26295D01*
X45148Y-26276D01*
X45091Y-26276D01*
X45016Y-26295D01*
X44979Y-26314D01*
X44941Y-26351D01*
X44923Y-26407D01*
X44923Y-26445D01*
X44941Y-26501D01*
X44960Y-26520D01*
X45553Y-24139D02*
X45553Y-23952D01*
X45740Y-23933D01*
X45721Y-23952D01*
X45703Y-23989D01*
X45703Y-24083D01*
X45721Y-24120D01*
X45740Y-24139D01*
X45778Y-24158D01*
X45871Y-24158D01*
X45909Y-24139D01*
X45928Y-24120D01*
X45946Y-24083D01*
X45946Y-23989D01*
X45928Y-23952D01*
X45909Y-23933D01*
X45553Y-24270D02*
X45946Y-24401D01*
X45553Y-24533D01*
X34960Y-30866D02*
X34803Y-30866D01*
X34960Y-30866D02*
X34960Y-31023D01*
X34842Y-30984D02*
X34960Y-30866D01*
X33464Y-30984D02*
X34842Y-30984D01*
X31576Y-30084D02*
X31576Y-29896D01*
X31764Y-29878D01*
X31745Y-29896D01*
X31726Y-29934D01*
X31726Y-30028D01*
X31745Y-30065D01*
X31764Y-30084D01*
X31801Y-30103D01*
X31895Y-30103D01*
X31932Y-30084D01*
X31951Y-30065D01*
X31970Y-30028D01*
X31970Y-29934D01*
X31951Y-29896D01*
X31932Y-29878D01*
X31576Y-30215D02*
X31970Y-30346D01*
X31576Y-30478D01*
X32600Y-29896D02*
X32206Y-29896D01*
X32206Y-30046D01*
X32225Y-30084D01*
X32244Y-30103D01*
X32281Y-30121D01*
X32337Y-30121D01*
X32375Y-30103D01*
X32394Y-30084D01*
X32412Y-30046D01*
X32412Y-29896D01*
X32600Y-30515D02*
X32412Y-30384D01*
X32600Y-30290D02*
X32206Y-30290D01*
X32206Y-30440D01*
X32225Y-30478D01*
X32244Y-30496D01*
X32281Y-30515D01*
X32337Y-30515D01*
X32375Y-30496D01*
X32394Y-30478D01*
X32412Y-30440D01*
X32412Y-30290D01*
X32206Y-30759D02*
X32206Y-30834D01*
X32225Y-30871D01*
X32262Y-30909D01*
X32337Y-30928D01*
X32469Y-30928D01*
X32544Y-30909D01*
X32581Y-30871D01*
X32600Y-30834D01*
X32600Y-30759D01*
X32581Y-30721D01*
X32544Y-30684D01*
X32469Y-30665D01*
X32337Y-30665D01*
X32262Y-30684D01*
X32225Y-30721D01*
X32206Y-30759D01*
X32225Y-31302D02*
X32206Y-31265D01*
X32206Y-31209D01*
X32225Y-31152D01*
X32262Y-31115D01*
X32300Y-31096D01*
X32375Y-31077D01*
X32431Y-31077D01*
X32506Y-31096D01*
X32544Y-31115D01*
X32581Y-31152D01*
X32600Y-31209D01*
X32600Y-31246D01*
X32581Y-31302D01*
X32562Y-31321D01*
X32431Y-31321D01*
X32431Y-31246D01*
X32836Y-29859D02*
X32836Y-30103D01*
X32986Y-29971D01*
X32986Y-30028D01*
X33005Y-30065D01*
X33023Y-30084D01*
X33061Y-30103D01*
X33155Y-30103D01*
X33192Y-30084D01*
X33211Y-30065D01*
X33230Y-30028D01*
X33230Y-29915D01*
X33211Y-29878D01*
X33192Y-29859D01*
X33192Y-30271D02*
X33211Y-30290D01*
X33230Y-30271D01*
X33211Y-30253D01*
X33192Y-30271D01*
X33230Y-30271D01*
X32836Y-30421D02*
X32836Y-30665D01*
X32986Y-30534D01*
X32986Y-30590D01*
X33005Y-30628D01*
X33023Y-30646D01*
X33061Y-30665D01*
X33155Y-30665D01*
X33192Y-30646D01*
X33211Y-30628D01*
X33230Y-30590D01*
X33230Y-30478D01*
X33211Y-30440D01*
X33192Y-30421D01*
X32836Y-30778D02*
X33230Y-30909D01*
X32836Y-31040D01*
G54D13*
X36989Y-28368D02*
X36989Y-28228D01*
X37130Y-28214D01*
X37116Y-28228D01*
X37102Y-28256D01*
X37102Y-28326D01*
X37116Y-28354D01*
X37130Y-28368D01*
X37158Y-28383D01*
X37228Y-28383D01*
X37256Y-28368D01*
X37270Y-28354D01*
X37284Y-28326D01*
X37284Y-28256D01*
X37270Y-28228D01*
X37256Y-28214D01*
X36989Y-28467D02*
X37284Y-28565D01*
X36989Y-28664D01*
X37443Y-30336D02*
X37260Y-30336D01*
X37359Y-30448D01*
X37317Y-30448D01*
X37289Y-30462D01*
X37275Y-30476D01*
X37260Y-30504D01*
X37260Y-30575D01*
X37275Y-30603D01*
X37289Y-30617D01*
X37317Y-30631D01*
X37401Y-30631D01*
X37429Y-30617D01*
X37443Y-30603D01*
X37134Y-30603D02*
X37120Y-30617D01*
X37134Y-30631D01*
X37148Y-30617D01*
X37134Y-30603D01*
X37134Y-30631D01*
X37021Y-30336D02*
X36839Y-30336D01*
X36937Y-30448D01*
X36895Y-30448D01*
X36867Y-30462D01*
X36853Y-30476D01*
X36839Y-30504D01*
X36839Y-30575D01*
X36853Y-30603D01*
X36867Y-30617D01*
X36895Y-30631D01*
X36979Y-30631D01*
X37007Y-30617D01*
X37021Y-30603D01*
X36754Y-30336D02*
X36656Y-30631D01*
X36557Y-30336D01*
G54D11*
X38110Y-30118D02*
X38188Y-30196D01*
X38110Y-30118D02*
X38188Y-30039D01*
X38385Y-30118D02*
X38110Y-30118D01*
X38503Y-30000D02*
X38385Y-30118D01*
X38228Y-28700D02*
X38228Y-28897D01*
X38228Y-28700D02*
X38464Y-28700D01*
X38503Y-28976D02*
X38228Y-28700D01*
X38503Y-29370D02*
X38503Y-28976D01*
X39386Y-29529D02*
X39255Y-29923D01*
X39124Y-29529D01*
X38862Y-29716D02*
X38805Y-29735D01*
X38787Y-29754D01*
X38768Y-29791D01*
X38768Y-29848D01*
X38787Y-29885D01*
X38805Y-29904D01*
X38843Y-29923D01*
X38993Y-29923D01*
X38993Y-29529D01*
X38862Y-29529D01*
X38824Y-29548D01*
X38805Y-29566D01*
X38787Y-29604D01*
X38787Y-29641D01*
X38805Y-29679D01*
X38824Y-29698D01*
X38862Y-29716D01*
X38993Y-29716D01*
X38618Y-29810D02*
X38430Y-29810D01*
X38655Y-29923D02*
X38524Y-29529D01*
X38393Y-29923D01*
X38318Y-29529D02*
X38093Y-29529D01*
X38205Y-29923D02*
X38205Y-29529D01*
X42440Y-32992D02*
X42677Y-32992D01*
X42440Y-32992D02*
X42440Y-33267D01*
X42795Y-33346D02*
X42440Y-32992D01*
X44212Y-33346D02*
X42795Y-33346D01*
X45427Y-31970D02*
X45614Y-31970D01*
X45633Y-32157D01*
X45614Y-32139D01*
X45577Y-32120D01*
X45483Y-32120D01*
X45446Y-32139D01*
X45427Y-32157D01*
X45408Y-32195D01*
X45408Y-32289D01*
X45427Y-32326D01*
X45446Y-32345D01*
X45483Y-32364D01*
X45577Y-32364D01*
X45614Y-32345D01*
X45633Y-32326D01*
X45296Y-31970D02*
X45164Y-32364D01*
X45033Y-31970D01*
X45614Y-32994D02*
X45614Y-32600D01*
X45352Y-32600D02*
X45277Y-32600D01*
X45239Y-32619D01*
X45202Y-32656D01*
X45183Y-32731D01*
X45183Y-32862D01*
X45202Y-32937D01*
X45239Y-32975D01*
X45277Y-32994D01*
X45352Y-32994D01*
X45389Y-32975D01*
X45427Y-32937D01*
X45446Y-32862D01*
X45446Y-32731D01*
X45427Y-32656D01*
X45389Y-32619D01*
X45352Y-32600D01*
X45052Y-32600D02*
X44808Y-32600D01*
X44940Y-32750D01*
X44883Y-32750D01*
X44846Y-32769D01*
X44827Y-32787D01*
X44808Y-32825D01*
X44808Y-32919D01*
X44827Y-32956D01*
X44846Y-32975D01*
X44883Y-32994D01*
X44996Y-32994D01*
X45033Y-32975D01*
X45052Y-32956D01*
X45652Y-33230D02*
X45408Y-33230D01*
X45539Y-33380D01*
X45483Y-33380D01*
X45446Y-33398D01*
X45427Y-33417D01*
X45408Y-33455D01*
X45408Y-33548D01*
X45427Y-33586D01*
X45446Y-33605D01*
X45483Y-33623D01*
X45596Y-33623D01*
X45633Y-33605D01*
X45652Y-33586D01*
X45239Y-33586D02*
X45221Y-33605D01*
X45239Y-33623D01*
X45258Y-33605D01*
X45239Y-33586D01*
X45239Y-33623D01*
X45089Y-33230D02*
X44846Y-33230D01*
X44977Y-33380D01*
X44921Y-33380D01*
X44883Y-33398D01*
X44865Y-33417D01*
X44846Y-33455D01*
X44846Y-33548D01*
X44865Y-33586D01*
X44883Y-33605D01*
X44921Y-33623D01*
X45033Y-33623D01*
X45071Y-33605D01*
X45089Y-33586D01*
X44733Y-33230D02*
X44602Y-33623D01*
X44471Y-33230D01*
X38582Y-31377D02*
X38464Y-31496D01*
X38582Y-31377D02*
X38700Y-31496D01*
X38582Y-31574D02*
X38582Y-31377D01*
X38818Y-31811D02*
X38582Y-31574D01*
X39212Y-31811D02*
X38818Y-31811D01*
X39411Y-31276D02*
X39411Y-31520D01*
X39561Y-31389D01*
X39561Y-31445D01*
X39580Y-31482D01*
X39598Y-31501D01*
X39636Y-31520D01*
X39730Y-31520D01*
X39767Y-31501D01*
X39786Y-31482D01*
X39805Y-31445D01*
X39805Y-31332D01*
X39786Y-31295D01*
X39767Y-31276D01*
X39767Y-31689D02*
X39786Y-31707D01*
X39805Y-31689D01*
X39786Y-31670D01*
X39767Y-31689D01*
X39805Y-31689D01*
X39411Y-31839D02*
X39411Y-32082D01*
X39561Y-31951D01*
X39561Y-32007D01*
X39580Y-32045D01*
X39598Y-32064D01*
X39636Y-32082D01*
X39730Y-32082D01*
X39767Y-32064D01*
X39786Y-32045D01*
X39805Y-32007D01*
X39805Y-31895D01*
X39786Y-31857D01*
X39767Y-31839D01*
X39411Y-32195D02*
X39805Y-32326D01*
X39411Y-32457D01*
X40434Y-31314D02*
X40041Y-31314D01*
X40041Y-31576D02*
X40041Y-31651D01*
X40059Y-31689D01*
X40097Y-31726D01*
X40172Y-31745D01*
X40303Y-31745D01*
X40378Y-31726D01*
X40416Y-31689D01*
X40434Y-31651D01*
X40434Y-31576D01*
X40416Y-31539D01*
X40378Y-31501D01*
X40303Y-31482D01*
X40172Y-31482D01*
X40097Y-31501D01*
X40059Y-31539D01*
X40041Y-31576D01*
X40434Y-32120D02*
X40434Y-31895D01*
X40434Y-32007D02*
X40041Y-32007D01*
X40097Y-31970D01*
X40134Y-31932D01*
X40153Y-31895D01*
X40671Y-31501D02*
X40671Y-31314D01*
X40858Y-31295D01*
X40839Y-31314D01*
X40821Y-31351D01*
X40821Y-31445D01*
X40839Y-31482D01*
X40858Y-31501D01*
X40896Y-31520D01*
X40989Y-31520D01*
X41027Y-31501D01*
X41046Y-31482D01*
X41064Y-31445D01*
X41064Y-31351D01*
X41046Y-31314D01*
X41027Y-31295D01*
X40671Y-31632D02*
X41064Y-31764D01*
X40671Y-31895D01*
X35652Y-24332D02*
X35408Y-24332D01*
X35539Y-24482D01*
X35483Y-24482D01*
X35446Y-24501D01*
X35427Y-24520D01*
X35408Y-24557D01*
X35408Y-24651D01*
X35427Y-24688D01*
X35446Y-24707D01*
X35483Y-24726D01*
X35596Y-24726D01*
X35633Y-24707D01*
X35652Y-24688D01*
X35239Y-24688D02*
X35221Y-24707D01*
X35239Y-24726D01*
X35258Y-24707D01*
X35239Y-24688D01*
X35239Y-24726D01*
X35089Y-24332D02*
X34846Y-24332D01*
X34977Y-24482D01*
X34921Y-24482D01*
X34883Y-24501D01*
X34865Y-24520D01*
X34846Y-24557D01*
X34846Y-24651D01*
X34865Y-24688D01*
X34883Y-24707D01*
X34921Y-24726D01*
X35033Y-24726D01*
X35071Y-24707D01*
X35089Y-24688D01*
X34733Y-24332D02*
X34602Y-24726D01*
X34471Y-24332D01*
X35614Y-25356D02*
X35614Y-24962D01*
X35352Y-24962D02*
X35277Y-24962D01*
X35239Y-24981D01*
X35202Y-25018D01*
X35183Y-25093D01*
X35183Y-25224D01*
X35202Y-25299D01*
X35239Y-25337D01*
X35277Y-25356D01*
X35352Y-25356D01*
X35389Y-25337D01*
X35427Y-25299D01*
X35446Y-25224D01*
X35446Y-25093D01*
X35427Y-25018D01*
X35389Y-24981D01*
X35352Y-24962D01*
X35033Y-25000D02*
X35014Y-24981D01*
X34977Y-24962D01*
X34883Y-24962D01*
X34846Y-24981D01*
X34827Y-25000D01*
X34808Y-25037D01*
X34808Y-25074D01*
X34827Y-25131D01*
X35052Y-25356D01*
X34808Y-25356D01*
X35427Y-25592D02*
X35614Y-25592D01*
X35633Y-25779D01*
X35614Y-25761D01*
X35577Y-25742D01*
X35483Y-25742D01*
X35446Y-25761D01*
X35427Y-25779D01*
X35408Y-25817D01*
X35408Y-25911D01*
X35427Y-25948D01*
X35446Y-25967D01*
X35483Y-25986D01*
X35577Y-25986D01*
X35614Y-25967D01*
X35633Y-25948D01*
X35296Y-25592D02*
X35164Y-25986D01*
X35033Y-25592D01*
X42322Y-27755D02*
X42322Y-27598D01*
X42322Y-27755D02*
X42559Y-27755D01*
X42598Y-27480D02*
X42322Y-27755D01*
X43267Y-27480D02*
X42598Y-27480D01*
X43427Y-27446D02*
X43427Y-27259D01*
X43614Y-27240D01*
X43595Y-27259D01*
X43577Y-27296D01*
X43577Y-27390D01*
X43595Y-27427D01*
X43614Y-27446D01*
X43652Y-27465D01*
X43745Y-27465D01*
X43783Y-27446D01*
X43802Y-27427D01*
X43820Y-27390D01*
X43820Y-27296D01*
X43802Y-27259D01*
X43783Y-27240D01*
X43427Y-27577D02*
X43820Y-27709D01*
X43427Y-27840D01*
X44450Y-27259D02*
X44056Y-27259D01*
X44056Y-27521D02*
X44056Y-27596D01*
X44075Y-27634D01*
X44113Y-27671D01*
X44188Y-27690D01*
X44319Y-27690D01*
X44394Y-27671D01*
X44431Y-27634D01*
X44450Y-27596D01*
X44450Y-27521D01*
X44431Y-27484D01*
X44394Y-27446D01*
X44319Y-27427D01*
X44188Y-27427D01*
X44113Y-27446D01*
X44075Y-27484D01*
X44056Y-27521D01*
X44056Y-27934D02*
X44056Y-27971D01*
X44075Y-28008D01*
X44094Y-28027D01*
X44131Y-28046D01*
X44206Y-28065D01*
X44300Y-28065D01*
X44375Y-28046D01*
X44413Y-28027D01*
X44431Y-28008D01*
X44450Y-27971D01*
X44450Y-27934D01*
X44431Y-27896D01*
X44413Y-27877D01*
X44375Y-27859D01*
X44300Y-27840D01*
X44206Y-27840D01*
X44131Y-27859D01*
X44094Y-27877D01*
X44075Y-27896D01*
X44056Y-27934D01*
X44686Y-27221D02*
X44686Y-27465D01*
X44836Y-27334D01*
X44836Y-27390D01*
X44855Y-27427D01*
X44874Y-27446D01*
X44911Y-27465D01*
X45005Y-27465D01*
X45043Y-27446D01*
X45061Y-27427D01*
X45080Y-27390D01*
X45080Y-27277D01*
X45061Y-27240D01*
X45043Y-27221D01*
X45043Y-27634D02*
X45061Y-27652D01*
X45080Y-27634D01*
X45061Y-27615D01*
X45043Y-27634D01*
X45080Y-27634D01*
X44686Y-27784D02*
X44686Y-28027D01*
X44836Y-27896D01*
X44836Y-27952D01*
X44855Y-27990D01*
X44874Y-28008D01*
X44911Y-28027D01*
X45005Y-28027D01*
X45043Y-28008D01*
X45061Y-27990D01*
X45080Y-27952D01*
X45080Y-27840D01*
X45061Y-27802D01*
X45043Y-27784D01*
X44686Y-28140D02*
X45080Y-28271D01*
X44686Y-28402D01*
G54D14*
X42283Y-26496D02*
X42283Y-24370D01*
X41692Y-24173D02*
X40433Y-24173D01*
X42125Y-26496D02*
X42283Y-26496D01*
X39803Y-24370D02*
X39803Y-26496D01*
X39803Y-26496D02*
X39960Y-26496D01*
X36496Y-29330D02*
X36496Y-28858D01*
X36456Y-29094D02*
X36102Y-28858D01*
X36102Y-29330D02*
X36456Y-29094D01*
X36102Y-29330D02*
X36102Y-28858D01*
X35433Y-29448D02*
X37244Y-29448D01*
X37244Y-29448D02*
X37244Y-28740D01*
X37244Y-28740D02*
X35433Y-28740D01*
X35433Y-28740D02*
X35433Y-29448D01*
X31299Y-32834D02*
X31299Y-31574D01*
X33976Y-32834D02*
X33976Y-31574D01*
X31220Y-32834D02*
X31220Y-31574D01*
X33069Y-31572D02*
X33969Y-31572D01*
X33969Y-32836D02*
X33069Y-32836D01*
X32125Y-32834D02*
X31220Y-32834D01*
X31220Y-31574D02*
X32125Y-31574D01*
X39133Y-30826D02*
X39015Y-30669D01*
X38779Y-30826D02*
X39133Y-30826D01*
X39133Y-30826D02*
X39015Y-30984D01*
X37992Y-30826D02*
X38110Y-30669D01*
X38307Y-30826D02*
X37992Y-30826D01*
X37992Y-30826D02*
X38110Y-30984D01*
X41692Y-32244D02*
X41535Y-32362D01*
X41692Y-32598D02*
X41692Y-32244D01*
X41692Y-32244D02*
X41850Y-32362D01*
X41692Y-33385D02*
X41535Y-33267D01*
X41692Y-33070D02*
X41692Y-33385D01*
X41692Y-33385D02*
X41850Y-33267D01*
X36377Y-25748D02*
X36535Y-25629D01*
X36377Y-25393D02*
X36377Y-25748D01*
X36377Y-25748D02*
X36220Y-25629D01*
X36377Y-24606D02*
X36535Y-24724D01*
X36377Y-24921D02*
X36377Y-24606D01*
X36377Y-24606D02*
X36220Y-24724D01*
X41535Y-28346D02*
X41653Y-28503D01*
X41889Y-28346D02*
X41535Y-28346D01*
X41535Y-28346D02*
X41653Y-28188D01*
X42677Y-28346D02*
X42559Y-28503D01*
X42362Y-28346D02*
X42677Y-28346D01*
X42677Y-28346D02*
X42559Y-28188D01*
X36023Y-30314D02*
X35905Y-30157D01*
X35669Y-30314D02*
X36023Y-30314D01*
X36023Y-30314D02*
X35905Y-30472D01*
X34881Y-30314D02*
X35000Y-30157D01*
X35196Y-30314D02*
X34881Y-30314D01*
X34881Y-30314D02*
X35000Y-30472D01*
X44527Y-22795D02*
X44409Y-22637D01*
X44173Y-22795D02*
X44527Y-22795D01*
X44527Y-22795D02*
X44409Y-22952D01*
X43385Y-22795D02*
X43503Y-22637D01*
X43700Y-22795D02*
X43385Y-22795D01*
X43385Y-22795D02*
X43503Y-22952D01*
X41122Y-32519D02*
X39704Y-32519D01*
X39704Y-32519D02*
X39704Y-33149D01*
X39704Y-33149D02*
X41122Y-33149D01*
X41122Y-33149D02*
X41122Y-32519D01*
X36830Y-30905D02*
X35413Y-30905D01*
X35413Y-30905D02*
X35413Y-31535D01*
X35413Y-31535D02*
X36830Y-31535D01*
X36830Y-31535D02*
X36830Y-30905D01*
X35885Y-33700D02*
X34468Y-33700D01*
X34468Y-33700D02*
X34468Y-34330D01*
X34468Y-34330D02*
X35885Y-34330D01*
X35885Y-34330D02*
X35885Y-33700D01*
X35885Y-27047D02*
X37303Y-27047D01*
X37303Y-27047D02*
X37303Y-26417D01*
X37303Y-26417D02*
X35885Y-26417D01*
X35885Y-26417D02*
X35885Y-27047D01*
X38070Y-27854D02*
X38070Y-26437D01*
X38070Y-26437D02*
X37440Y-26437D01*
X37440Y-26437D02*
X37440Y-27854D01*
X37440Y-27854D02*
X38070Y-27854D01*
X31496Y-28248D02*
X31496Y-29665D01*
X31496Y-29665D02*
X32125Y-29665D01*
X32125Y-29665D02*
X32125Y-28248D01*
X32125Y-28248D02*
X31496Y-28248D01*
X32874Y-21988D02*
X32874Y-23405D01*
X32874Y-23405D02*
X33503Y-23405D01*
X33503Y-23405D02*
X33503Y-21988D01*
X33503Y-21988D02*
X32874Y-21988D01*
X33779Y-22027D02*
X33779Y-23444D01*
X33779Y-23444D02*
X34409Y-23444D01*
X34409Y-23444D02*
X34409Y-22027D01*
X34409Y-22027D02*
X33779Y-22027D01*
X39015Y-27972D02*
X39015Y-29389D01*
X39015Y-29389D02*
X39645Y-29389D01*
X39645Y-29389D02*
X39645Y-27972D01*
X39645Y-27972D02*
X39015Y-27972D01*
X45314Y-35492D02*
X45314Y-34074D01*
X45314Y-34074D02*
X44685Y-34074D01*
X44685Y-34074D02*
X44685Y-35492D01*
X44685Y-35492D02*
X45314Y-35492D01*
X44330Y-36791D02*
X44330Y-35374D01*
X44330Y-35374D02*
X43700Y-35374D01*
X43700Y-35374D02*
X43700Y-36791D01*
X43700Y-36791D02*
X44330Y-36791D01*
X37637Y-32185D02*
X37637Y-33602D01*
X37637Y-33602D02*
X38267Y-33602D01*
X38267Y-33602D02*
X38267Y-32185D01*
X38267Y-32185D02*
X37637Y-32185D01*
X36929Y-32185D02*
X36929Y-33602D01*
X36929Y-33602D02*
X37559Y-33602D01*
X37559Y-33602D02*
X37559Y-32185D01*
X37559Y-32185D02*
X36929Y-32185D01*
X34212Y-31594D02*
X34212Y-33011D01*
X34212Y-33011D02*
X34842Y-33011D01*
X34842Y-33011D02*
X34842Y-31594D01*
X34842Y-31594D02*
X34212Y-31594D01*
X32814Y-25000D02*
X34232Y-25000D01*
X34232Y-25000D02*
X34232Y-24370D01*
X34232Y-24370D02*
X32814Y-24370D01*
X32814Y-24370D02*
X32814Y-25000D01*
X32814Y-24291D02*
X34232Y-24291D01*
X34232Y-24291D02*
X34232Y-23661D01*
X34232Y-23661D02*
X32814Y-23661D01*
X32814Y-23661D02*
X32814Y-24291D01*
X38685Y-32311D02*
X38685Y-33728D01*
X38685Y-33728D02*
X39314Y-33728D01*
X39314Y-33728D02*
X39314Y-32311D01*
X39314Y-32311D02*
X38685Y-32311D01*
X43858Y-26594D02*
X43858Y-25177D01*
X43858Y-25177D02*
X43228Y-25177D01*
X43228Y-25177D02*
X43228Y-26594D01*
X43228Y-26594D02*
X43858Y-26594D01*
X43110Y-26594D02*
X43110Y-25177D01*
X43110Y-25177D02*
X42480Y-25177D01*
X42480Y-25177D02*
X42480Y-26594D01*
X42480Y-26594D02*
X43110Y-26594D01*
X40866Y-28562D02*
X40866Y-27145D01*
X40866Y-27145D02*
X40236Y-27145D01*
X40236Y-27145D02*
X40236Y-28562D01*
X40236Y-28562D02*
X40866Y-28562D01*
X39724Y-28996D02*
X39724Y-30413D01*
X39724Y-30413D02*
X40354Y-30413D01*
X40354Y-30413D02*
X40354Y-28996D01*
X40354Y-28996D02*
X39724Y-28996D01*
X40433Y-28996D02*
X40433Y-30413D01*
X40433Y-30413D02*
X41062Y-30413D01*
X41062Y-30413D02*
X41062Y-28996D01*
X41062Y-28996D02*
X40433Y-28996D01*
X41574Y-29035D02*
X41574Y-30452D01*
X41574Y-30452D02*
X42204Y-30452D01*
X42204Y-30452D02*
X42204Y-29035D01*
X42204Y-29035D02*
X41574Y-29035D01*
X39665Y-27244D02*
X38248Y-27244D01*
X38248Y-27244D02*
X38248Y-27874D01*
X38248Y-27874D02*
X39665Y-27874D01*
X39665Y-27874D02*
X39665Y-27244D01*
X37677Y-26279D02*
X37677Y-24862D01*
X37677Y-24862D02*
X37047Y-24862D01*
X37047Y-24862D02*
X37047Y-26279D01*
X37047Y-26279D02*
X37677Y-26279D01*
X37814Y-26299D02*
X39232Y-26299D01*
X39232Y-26299D02*
X39232Y-25669D01*
X39232Y-25669D02*
X37814Y-25669D01*
X37814Y-25669D02*
X37814Y-26299D01*
X38129Y-22795D02*
X36712Y-22795D01*
X36712Y-22795D02*
X36712Y-23425D01*
X36712Y-23425D02*
X38129Y-23425D01*
X38129Y-23425D02*
X38129Y-22795D01*
X38937Y-23366D02*
X38937Y-24783D01*
X38937Y-24783D02*
X39566Y-24783D01*
X39566Y-24783D02*
X39566Y-23366D01*
X39566Y-23366D02*
X38937Y-23366D01*
X37814Y-25551D02*
X39232Y-25551D01*
X39232Y-25551D02*
X39232Y-24921D01*
X39232Y-24921D02*
X37814Y-24921D01*
X37814Y-24921D02*
X37814Y-25551D01*
X42677Y-23366D02*
X42677Y-24783D01*
X42677Y-24783D02*
X43307Y-24783D01*
X43307Y-24783D02*
X43307Y-23366D01*
X43307Y-23366D02*
X42677Y-23366D01*
X31929Y-22027D02*
X31929Y-23444D01*
X31929Y-23444D02*
X32559Y-23444D01*
X32559Y-23444D02*
X32559Y-22027D01*
X32559Y-22027D02*
X31929Y-22027D01*
X31220Y-22027D02*
X31220Y-23444D01*
X31220Y-23444D02*
X31850Y-23444D01*
X31850Y-23444D02*
X31850Y-22027D01*
X31850Y-22027D02*
X31220Y-22027D01*
X42578Y-29527D02*
X43996Y-29527D01*
X43996Y-29527D02*
X43996Y-28897D01*
X43996Y-28897D02*
X42578Y-28897D01*
X42578Y-28897D02*
X42578Y-29527D01*
X42578Y-32834D02*
X43996Y-32834D01*
X43996Y-32834D02*
X43996Y-32204D01*
X43996Y-32204D02*
X42578Y-32204D01*
X42578Y-32204D02*
X42578Y-32834D01*
X34842Y-27440D02*
X34173Y-27440D01*
X34173Y-27440D02*
X34173Y-26614D01*
X34173Y-26614D02*
X34842Y-26614D01*
X31614Y-27440D02*
X32244Y-27440D01*
X32244Y-27440D02*
X32244Y-26614D01*
X32244Y-26614D02*
X31614Y-26614D01*
X34910Y-27047D02*
G75*
G03X34910Y-27047I-1681J0D01*
G74*
G01*
X38070Y-29389D02*
X38070Y-27972D01*
X38070Y-27972D02*
X37440Y-27972D01*
X37440Y-27972D02*
X37440Y-29389D01*
X37440Y-29389D02*
X38070Y-29389D01*
X36594Y-30236D02*
X38011Y-30236D01*
X38011Y-30236D02*
X38011Y-29606D01*
X38011Y-29606D02*
X36594Y-29606D01*
X36594Y-29606D02*
X36594Y-30236D01*
X36220Y-32185D02*
X36220Y-33602D01*
X36220Y-33602D02*
X36850Y-33602D01*
X36850Y-33602D02*
X36850Y-32185D01*
X36850Y-32185D02*
X36220Y-32185D01*
X35511Y-32185D02*
X35511Y-33602D01*
X35511Y-33602D02*
X36141Y-33602D01*
X36141Y-33602D02*
X36141Y-32185D01*
X36141Y-32185D02*
X35511Y-32185D01*
X42283Y-36988D02*
X42283Y-35570D01*
X42283Y-35570D02*
X41653Y-35570D01*
X41653Y-35570D02*
X41653Y-36988D01*
X41653Y-36988D02*
X42283Y-36988D01*
X32539Y-24842D02*
X31122Y-24842D01*
X31122Y-24842D02*
X31122Y-25472D01*
X31122Y-25472D02*
X32539Y-25472D01*
X32539Y-25472D02*
X32539Y-24842D01*
X32539Y-24173D02*
X31122Y-24173D01*
X31122Y-24173D02*
X31122Y-24803D01*
X31122Y-24803D02*
X32539Y-24803D01*
X32539Y-24803D02*
X32539Y-24173D01*
X46023Y-30807D02*
X46023Y-29389D01*
X46023Y-29389D02*
X45393Y-29389D01*
X45393Y-29389D02*
X45393Y-30807D01*
X45393Y-30807D02*
X46023Y-30807D01*
X40275Y-35118D02*
X40275Y-34527D01*
X40275Y-34527D02*
X34960Y-34527D01*
X34960Y-34527D02*
X34960Y-35078D01*
X34960Y-36181D02*
X34960Y-36850D01*
X34960Y-36850D02*
X40275Y-36850D01*
X40275Y-36850D02*
X40275Y-36181D01*
X42322Y-29803D02*
X42322Y-31929D01*
X43425Y-31929D02*
X43425Y-29803D01*
X41362Y-27206D02*
X41362Y-27525D01*
X41344Y-27562D01*
X41325Y-27581D01*
X41287Y-27600D01*
X41212Y-27600D01*
X41175Y-27581D01*
X41156Y-27562D01*
X41137Y-27525D01*
X41137Y-27206D01*
X40969Y-27244D02*
X40950Y-27225D01*
X40913Y-27206D01*
X40819Y-27206D01*
X40781Y-27225D01*
X40763Y-27244D01*
X40744Y-27281D01*
X40744Y-27319D01*
X40763Y-27375D01*
X40988Y-27600D01*
X40744Y-27600D01*
X42844Y-22718D02*
X42844Y-22324D01*
X42619Y-22718D01*
X42619Y-22324D01*
X42319Y-22324D02*
X42319Y-22605D01*
X42337Y-22662D01*
X42375Y-22699D01*
X42431Y-22718D01*
X42469Y-22718D01*
X42131Y-22718D02*
X42131Y-22324D01*
X42000Y-22605D01*
X41869Y-22324D01*
X41869Y-22718D01*
X41700Y-22362D02*
X41681Y-22343D01*
X41644Y-22324D01*
X41550Y-22324D01*
X41512Y-22343D01*
X41494Y-22362D01*
X41475Y-22399D01*
X41475Y-22437D01*
X41494Y-22493D01*
X41719Y-22718D01*
X41475Y-22718D01*
X41250Y-22493D02*
X41287Y-22474D01*
X41306Y-22455D01*
X41325Y-22418D01*
X41325Y-22399D01*
X41306Y-22362D01*
X41287Y-22343D01*
X41250Y-22324D01*
X41175Y-22324D01*
X41137Y-22343D01*
X41119Y-22362D01*
X41100Y-22399D01*
X41100Y-22418D01*
X41119Y-22455D01*
X41137Y-22474D01*
X41175Y-22493D01*
X41250Y-22493D01*
X41287Y-22512D01*
X41306Y-22530D01*
X41325Y-22568D01*
X41325Y-22643D01*
X41306Y-22680D01*
X41287Y-22699D01*
X41250Y-22718D01*
X41175Y-22718D01*
X41137Y-22699D01*
X41119Y-22680D01*
X41100Y-22643D01*
X41100Y-22568D01*
X41119Y-22530D01*
X41137Y-22512D01*
X41175Y-22493D01*
X40763Y-22455D02*
X40763Y-22718D01*
X40856Y-22305D02*
X40950Y-22587D01*
X40706Y-22587D01*
X40369Y-22324D02*
X40556Y-22324D01*
X40575Y-22512D01*
X40556Y-22493D01*
X40519Y-22474D01*
X40425Y-22474D01*
X40388Y-22493D01*
X40369Y-22512D01*
X40350Y-22549D01*
X40350Y-22643D01*
X40369Y-22680D01*
X40388Y-22699D01*
X40425Y-22718D01*
X40519Y-22718D01*
X40556Y-22699D01*
X40575Y-22680D01*
X40181Y-22718D02*
X40181Y-22324D01*
X40088Y-22324D01*
X40031Y-22343D01*
X39994Y-22380D01*
X39975Y-22418D01*
X39956Y-22493D01*
X39956Y-22549D01*
X39975Y-22624D01*
X39994Y-22662D01*
X40031Y-22699D01*
X40088Y-22718D01*
X40181Y-22718D01*
X39600Y-22718D02*
X39788Y-22718D01*
X39788Y-22324D01*
X39263Y-22718D02*
X39488Y-22718D01*
X39375Y-22718D02*
X39375Y-22324D01*
X39413Y-22380D01*
X39450Y-22418D01*
X39488Y-22437D01*
X35211Y-29253D02*
X35211Y-28860D01*
X35118Y-28860D01*
X35061Y-28878D01*
X35024Y-28916D01*
X35005Y-28953D01*
X34986Y-29028D01*
X34986Y-29085D01*
X35005Y-29160D01*
X35024Y-29197D01*
X35061Y-29235D01*
X35118Y-29253D01*
X35211Y-29253D01*
X34761Y-29028D02*
X34799Y-29010D01*
X34818Y-28991D01*
X34836Y-28953D01*
X34836Y-28935D01*
X34818Y-28897D01*
X34799Y-28878D01*
X34761Y-28860D01*
X34686Y-28860D01*
X34649Y-28878D01*
X34630Y-28897D01*
X34611Y-28935D01*
X34611Y-28953D01*
X34630Y-28991D01*
X34649Y-29010D01*
X34686Y-29028D01*
X34761Y-29028D01*
X34799Y-29047D01*
X34818Y-29066D01*
X34836Y-29103D01*
X34836Y-29178D01*
X34818Y-29216D01*
X34799Y-29235D01*
X34761Y-29253D01*
X34686Y-29253D01*
X34649Y-29235D01*
X34630Y-29216D01*
X34611Y-29178D01*
X34611Y-29103D01*
X34630Y-29066D01*
X34649Y-29047D01*
X34686Y-29028D01*
X28016Y-28211D02*
X27960Y-28230D01*
X27866Y-28230D01*
X27829Y-28211D01*
X27810Y-28192D01*
X27791Y-28155D01*
X27791Y-28117D01*
X27810Y-28080D01*
X27829Y-28061D01*
X27866Y-28042D01*
X27941Y-28023D01*
X27979Y-28005D01*
X27997Y-27986D01*
X28016Y-27949D01*
X28016Y-27911D01*
X27997Y-27874D01*
X27979Y-27855D01*
X27941Y-27836D01*
X27847Y-27836D01*
X27791Y-27855D01*
X27454Y-28211D02*
X27491Y-28230D01*
X27566Y-28230D01*
X27604Y-28211D01*
X27622Y-28192D01*
X27641Y-28155D01*
X27641Y-28042D01*
X27622Y-28005D01*
X27604Y-27986D01*
X27566Y-27967D01*
X27491Y-27967D01*
X27454Y-27986D01*
X27285Y-28230D02*
X27285Y-27836D01*
X27116Y-28230D02*
X27116Y-28023D01*
X27135Y-27986D01*
X27172Y-27967D01*
X27229Y-27967D01*
X27266Y-27986D01*
X27285Y-28005D01*
X26872Y-28230D02*
X26910Y-28211D01*
X26929Y-28192D01*
X26947Y-28155D01*
X26947Y-28042D01*
X26929Y-28005D01*
X26910Y-27986D01*
X26872Y-27967D01*
X26816Y-27967D01*
X26779Y-27986D01*
X26760Y-28005D01*
X26741Y-28042D01*
X26741Y-28155D01*
X26760Y-28192D01*
X26779Y-28211D01*
X26816Y-28230D01*
X26872Y-28230D01*
X26629Y-27967D02*
X26479Y-27967D01*
X26572Y-27836D02*
X26572Y-28173D01*
X26554Y-28211D01*
X26516Y-28230D01*
X26479Y-28230D01*
X26404Y-27967D02*
X26254Y-27967D01*
X26347Y-27836D02*
X26347Y-28173D01*
X26329Y-28211D01*
X26291Y-28230D01*
X26254Y-28230D01*
X26122Y-28230D02*
X26122Y-27836D01*
X26085Y-28080D02*
X25973Y-28230D01*
X25973Y-27967D02*
X26122Y-28117D01*
X25841Y-27967D02*
X25748Y-28230D01*
X25654Y-27967D02*
X25748Y-28230D01*
X25785Y-28323D01*
X25804Y-28342D01*
X25841Y-28361D01*
X24998Y-28230D02*
X25223Y-28230D01*
X25110Y-28230D02*
X25110Y-27836D01*
X25148Y-27892D01*
X25185Y-27930D01*
X25223Y-27949D01*
X24848Y-28117D02*
X24660Y-28117D01*
X24885Y-28230D02*
X24754Y-27836D01*
X24623Y-28230D01*
G54D15*
X34061Y-31489D02*
X34061Y-31213D01*
X33996Y-31213D01*
X33956Y-31226D01*
X33930Y-31253D01*
X33917Y-31279D01*
X33904Y-31331D01*
X33904Y-31371D01*
X33917Y-31423D01*
X33930Y-31450D01*
X33956Y-31476D01*
X33996Y-31489D01*
X34061Y-31489D01*
X33641Y-31489D02*
X33799Y-31489D01*
X33720Y-31489D02*
X33720Y-31213D01*
X33746Y-31253D01*
X33772Y-31279D01*
X33799Y-31292D01*
X33485Y-32827D02*
X33328Y-32827D01*
X33406Y-33103D02*
X33406Y-32827D01*
X33275Y-32827D02*
X33183Y-33103D01*
X33091Y-32827D01*
X33012Y-33090D02*
X32973Y-33103D01*
X32907Y-33103D01*
X32881Y-33090D01*
X32868Y-33077D01*
X32854Y-33051D01*
X32854Y-33024D01*
X32868Y-32998D01*
X32881Y-32985D01*
X32907Y-32972D01*
X32960Y-32959D01*
X32986Y-32946D01*
X32999Y-32932D01*
X33012Y-32906D01*
X33012Y-32880D01*
X32999Y-32854D01*
X32986Y-32840D01*
X32960Y-32827D01*
X32894Y-32827D01*
X32854Y-32840D01*
X32526Y-33103D02*
X32526Y-32827D01*
X32460Y-32827D01*
X32421Y-32840D01*
X32394Y-32867D01*
X32381Y-32893D01*
X32368Y-32946D01*
X32368Y-32985D01*
X32381Y-33038D01*
X32394Y-33064D01*
X32421Y-33090D01*
X32460Y-33103D01*
X32526Y-33103D01*
X32250Y-33103D02*
X32250Y-32827D01*
X32066Y-32827D02*
X32013Y-32827D01*
X31987Y-32840D01*
X31961Y-32867D01*
X31948Y-32919D01*
X31948Y-33011D01*
X31961Y-33064D01*
X31987Y-33090D01*
X32013Y-33103D01*
X32066Y-33103D01*
X32092Y-33090D01*
X32118Y-33064D01*
X32132Y-33011D01*
X32132Y-32919D01*
X32118Y-32867D01*
X32092Y-32840D01*
X32066Y-32827D01*
X31829Y-33103D02*
X31829Y-32827D01*
X31764Y-32827D01*
X31724Y-32840D01*
X31698Y-32867D01*
X31685Y-32893D01*
X31672Y-32946D01*
X31672Y-32985D01*
X31685Y-33038D01*
X31698Y-33064D01*
X31724Y-33090D01*
X31764Y-33103D01*
X31829Y-33103D01*
X31553Y-32959D02*
X31461Y-32959D01*
X31422Y-33103D02*
X31553Y-33103D01*
X31553Y-32827D01*
X31422Y-32827D01*
G54D16*
X38362Y-31567D02*
X38336Y-31577D01*
X38293Y-31577D01*
X38276Y-31567D01*
X38268Y-31557D01*
X38259Y-31538D01*
X38259Y-31519D01*
X38268Y-31500D01*
X38276Y-31491D01*
X38293Y-31481D01*
X38328Y-31472D01*
X38345Y-31462D01*
X38353Y-31453D01*
X38362Y-31434D01*
X38362Y-31415D01*
X38353Y-31396D01*
X38345Y-31386D01*
X38328Y-31377D01*
X38285Y-31377D01*
X38259Y-31386D01*
X38182Y-31472D02*
X38122Y-31472D01*
X38096Y-31577D02*
X38182Y-31577D01*
X38182Y-31377D01*
X38096Y-31377D01*
X37933Y-31577D02*
X38019Y-31577D01*
X38019Y-31377D01*
X37796Y-31443D02*
X37796Y-31577D01*
X37839Y-31367D02*
X37882Y-31510D01*
X37770Y-31510D01*
X41055Y-33369D02*
X41065Y-33395D01*
X41065Y-33438D01*
X41055Y-33455D01*
X41046Y-33464D01*
X41027Y-33472D01*
X41008Y-33472D01*
X40989Y-33464D01*
X40979Y-33455D01*
X40969Y-33438D01*
X40960Y-33404D01*
X40950Y-33387D01*
X40941Y-33378D01*
X40922Y-33369D01*
X40903Y-33369D01*
X40884Y-33378D01*
X40874Y-33387D01*
X40865Y-33404D01*
X40865Y-33447D01*
X40874Y-33472D01*
X40960Y-33549D02*
X40960Y-33609D01*
X41065Y-33635D02*
X41065Y-33549D01*
X40865Y-33549D01*
X40865Y-33635D01*
X41065Y-33798D02*
X41065Y-33712D01*
X40865Y-33712D01*
X40865Y-33944D02*
X40865Y-33858D01*
X40960Y-33849D01*
X40950Y-33858D01*
X40941Y-33875D01*
X40941Y-33918D01*
X40950Y-33935D01*
X40960Y-33944D01*
X40979Y-33952D01*
X41027Y-33952D01*
X41046Y-33944D01*
X41055Y-33935D01*
X41065Y-33918D01*
X41065Y-33875D01*
X41055Y-33858D01*
X41046Y-33849D01*
X36173Y-23448D02*
X36183Y-23474D01*
X36183Y-23517D01*
X36173Y-23534D01*
X36164Y-23543D01*
X36145Y-23551D01*
X36126Y-23551D01*
X36107Y-23543D01*
X36097Y-23534D01*
X36088Y-23517D01*
X36078Y-23483D01*
X36069Y-23465D01*
X36059Y-23457D01*
X36040Y-23448D01*
X36021Y-23448D01*
X36002Y-23457D01*
X35992Y-23465D01*
X35983Y-23483D01*
X35983Y-23525D01*
X35992Y-23551D01*
X36078Y-23628D02*
X36078Y-23688D01*
X36183Y-23714D02*
X36183Y-23628D01*
X35983Y-23628D01*
X35983Y-23714D01*
X36183Y-23877D02*
X36183Y-23791D01*
X35983Y-23791D01*
X36002Y-23928D02*
X35992Y-23937D01*
X35983Y-23954D01*
X35983Y-23997D01*
X35992Y-24014D01*
X36002Y-24023D01*
X36021Y-24031D01*
X36040Y-24031D01*
X36069Y-24023D01*
X36183Y-23920D01*
X36183Y-24031D01*
X43913Y-28496D02*
X43887Y-28506D01*
X43844Y-28506D01*
X43827Y-28496D01*
X43819Y-28487D01*
X43810Y-28468D01*
X43810Y-28449D01*
X43819Y-28429D01*
X43827Y-28420D01*
X43844Y-28410D01*
X43879Y-28401D01*
X43896Y-28391D01*
X43904Y-28382D01*
X43913Y-28363D01*
X43913Y-28344D01*
X43904Y-28325D01*
X43896Y-28315D01*
X43879Y-28306D01*
X43836Y-28306D01*
X43810Y-28315D01*
X43733Y-28401D02*
X43673Y-28401D01*
X43647Y-28506D02*
X43733Y-28506D01*
X43733Y-28306D01*
X43647Y-28306D01*
X43484Y-28506D02*
X43570Y-28506D01*
X43570Y-28306D01*
X43330Y-28506D02*
X43433Y-28506D01*
X43382Y-28506D02*
X43382Y-28306D01*
X43399Y-28334D01*
X43416Y-28353D01*
X43433Y-28363D01*
X35055Y-29677D02*
X35029Y-29687D01*
X34986Y-29687D01*
X34969Y-29677D01*
X34960Y-29668D01*
X34952Y-29649D01*
X34952Y-29630D01*
X34960Y-29611D01*
X34969Y-29601D01*
X34986Y-29592D01*
X35020Y-29582D01*
X35038Y-29572D01*
X35046Y-29563D01*
X35055Y-29544D01*
X35055Y-29525D01*
X35046Y-29506D01*
X35038Y-29496D01*
X35020Y-29487D01*
X34978Y-29487D01*
X34952Y-29496D01*
X34875Y-29582D02*
X34815Y-29582D01*
X34789Y-29687D02*
X34875Y-29687D01*
X34875Y-29487D01*
X34789Y-29487D01*
X34626Y-29687D02*
X34712Y-29687D01*
X34712Y-29487D01*
X34583Y-29487D02*
X34463Y-29487D01*
X34540Y-29687D01*
X45763Y-22276D02*
X45738Y-22285D01*
X45695Y-22285D01*
X45678Y-22276D01*
X45669Y-22266D01*
X45661Y-22247D01*
X45661Y-22228D01*
X45669Y-22209D01*
X45678Y-22199D01*
X45695Y-22190D01*
X45729Y-22180D01*
X45746Y-22171D01*
X45755Y-22161D01*
X45763Y-22142D01*
X45763Y-22123D01*
X45755Y-22104D01*
X45746Y-22095D01*
X45729Y-22085D01*
X45686Y-22085D01*
X45661Y-22095D01*
X45583Y-22180D02*
X45523Y-22180D01*
X45498Y-22285D02*
X45583Y-22285D01*
X45583Y-22085D01*
X45498Y-22085D01*
X45335Y-22285D02*
X45421Y-22285D01*
X45421Y-22085D01*
X45292Y-22085D02*
X45181Y-22085D01*
X45241Y-22161D01*
X45215Y-22161D01*
X45198Y-22171D01*
X45189Y-22180D01*
X45181Y-22199D01*
X45181Y-22247D01*
X45189Y-22266D01*
X45198Y-22276D01*
X45215Y-22285D01*
X45266Y-22285D01*
X45283Y-22276D01*
X45292Y-22266D01*
X40548Y-33368D02*
X40557Y-33378D01*
X40583Y-33388D01*
X40600Y-33388D01*
X40625Y-33378D01*
X40643Y-33359D01*
X40651Y-33340D01*
X40660Y-33302D01*
X40660Y-33273D01*
X40651Y-33235D01*
X40643Y-33216D01*
X40625Y-33197D01*
X40600Y-33188D01*
X40583Y-33188D01*
X40557Y-33197D01*
X40548Y-33207D01*
X40480Y-33207D02*
X40471Y-33197D01*
X40454Y-33188D01*
X40411Y-33188D01*
X40394Y-33197D01*
X40385Y-33207D01*
X40377Y-33226D01*
X40377Y-33245D01*
X40385Y-33273D01*
X40488Y-33388D01*
X40377Y-33388D01*
X40214Y-33188D02*
X40300Y-33188D01*
X40308Y-33283D01*
X40300Y-33273D01*
X40283Y-33264D01*
X40240Y-33264D01*
X40223Y-33273D01*
X40214Y-33283D01*
X40205Y-33302D01*
X40205Y-33349D01*
X40214Y-33368D01*
X40223Y-33378D01*
X40240Y-33388D01*
X40283Y-33388D01*
X40300Y-33378D01*
X40308Y-33368D01*
X36257Y-31754D02*
X36266Y-31764D01*
X36291Y-31773D01*
X36308Y-31773D01*
X36334Y-31764D01*
X36351Y-31745D01*
X36360Y-31726D01*
X36368Y-31688D01*
X36368Y-31659D01*
X36360Y-31621D01*
X36351Y-31602D01*
X36334Y-31583D01*
X36308Y-31573D01*
X36291Y-31573D01*
X36266Y-31583D01*
X36257Y-31592D01*
X36188Y-31592D02*
X36180Y-31583D01*
X36163Y-31573D01*
X36120Y-31573D01*
X36103Y-31583D01*
X36094Y-31592D01*
X36086Y-31611D01*
X36086Y-31631D01*
X36094Y-31659D01*
X36197Y-31773D01*
X36086Y-31773D01*
X35931Y-31640D02*
X35931Y-31773D01*
X35974Y-31564D02*
X36017Y-31707D01*
X35906Y-31707D01*
X35312Y-34550D02*
X35321Y-34559D01*
X35346Y-34569D01*
X35363Y-34569D01*
X35389Y-34559D01*
X35406Y-34540D01*
X35415Y-34521D01*
X35423Y-34483D01*
X35423Y-34454D01*
X35415Y-34416D01*
X35406Y-34397D01*
X35389Y-34378D01*
X35363Y-34369D01*
X35346Y-34369D01*
X35321Y-34378D01*
X35312Y-34388D01*
X35141Y-34569D02*
X35243Y-34569D01*
X35192Y-34569D02*
X35192Y-34369D01*
X35209Y-34397D01*
X35226Y-34416D01*
X35243Y-34426D01*
X34969Y-34569D02*
X35072Y-34569D01*
X35021Y-34569D02*
X35021Y-34369D01*
X35038Y-34397D01*
X35055Y-34416D01*
X35072Y-34426D01*
X35731Y-26695D02*
X35740Y-26686D01*
X35750Y-26661D01*
X35750Y-26643D01*
X35740Y-26618D01*
X35721Y-26601D01*
X35702Y-26592D01*
X35664Y-26583D01*
X35635Y-26583D01*
X35597Y-26592D01*
X35578Y-26601D01*
X35559Y-26618D01*
X35550Y-26643D01*
X35550Y-26661D01*
X35559Y-26686D01*
X35569Y-26695D01*
X35569Y-26763D02*
X35559Y-26772D01*
X35550Y-26789D01*
X35550Y-26832D01*
X35559Y-26849D01*
X35569Y-26858D01*
X35588Y-26866D01*
X35607Y-26866D01*
X35635Y-26858D01*
X35750Y-26755D01*
X35750Y-26866D01*
X35569Y-26935D02*
X35559Y-26943D01*
X35550Y-26961D01*
X35550Y-27003D01*
X35559Y-27021D01*
X35569Y-27029D01*
X35588Y-27038D01*
X35607Y-27038D01*
X35635Y-27029D01*
X35750Y-26926D01*
X35750Y-27038D01*
X37345Y-27410D02*
X37354Y-27402D01*
X37364Y-27376D01*
X37364Y-27359D01*
X37354Y-27333D01*
X37335Y-27316D01*
X37316Y-27308D01*
X37278Y-27299D01*
X37250Y-27299D01*
X37212Y-27308D01*
X37192Y-27316D01*
X37173Y-27333D01*
X37164Y-27359D01*
X37164Y-27376D01*
X37173Y-27402D01*
X37183Y-27410D01*
X37164Y-27565D02*
X37164Y-27530D01*
X37173Y-27513D01*
X37183Y-27505D01*
X37212Y-27488D01*
X37250Y-27479D01*
X37326Y-27479D01*
X37345Y-27488D01*
X37354Y-27496D01*
X37364Y-27513D01*
X37364Y-27548D01*
X37354Y-27565D01*
X37345Y-27573D01*
X37326Y-27582D01*
X37278Y-27582D01*
X37259Y-27573D01*
X37250Y-27565D01*
X37240Y-27548D01*
X37240Y-27513D01*
X37250Y-27496D01*
X37259Y-27488D01*
X37278Y-27479D01*
X31321Y-29293D02*
X31331Y-29285D01*
X31340Y-29259D01*
X31340Y-29242D01*
X31331Y-29216D01*
X31312Y-29199D01*
X31293Y-29190D01*
X31255Y-29182D01*
X31226Y-29182D01*
X31188Y-29190D01*
X31169Y-29199D01*
X31150Y-29216D01*
X31140Y-29242D01*
X31140Y-29259D01*
X31150Y-29285D01*
X31159Y-29293D01*
X31159Y-29362D02*
X31150Y-29370D01*
X31140Y-29388D01*
X31140Y-29430D01*
X31150Y-29448D01*
X31159Y-29456D01*
X31178Y-29465D01*
X31197Y-29465D01*
X31226Y-29456D01*
X31340Y-29353D01*
X31340Y-29465D01*
X31140Y-29619D02*
X31140Y-29585D01*
X31150Y-29568D01*
X31159Y-29559D01*
X31188Y-29542D01*
X31226Y-29533D01*
X31302Y-29533D01*
X31321Y-29542D01*
X31331Y-29550D01*
X31340Y-29568D01*
X31340Y-29602D01*
X31331Y-29619D01*
X31321Y-29628D01*
X31302Y-29636D01*
X31255Y-29636D01*
X31236Y-29628D01*
X31226Y-29619D01*
X31216Y-29602D01*
X31216Y-29568D01*
X31226Y-29550D01*
X31236Y-29542D01*
X31255Y-29533D01*
X33742Y-22647D02*
X33647Y-22587D01*
X33742Y-22544D02*
X33542Y-22544D01*
X33542Y-22612D01*
X33551Y-22630D01*
X33561Y-22638D01*
X33580Y-22647D01*
X33609Y-22647D01*
X33628Y-22638D01*
X33637Y-22630D01*
X33647Y-22612D01*
X33647Y-22544D01*
X33742Y-22732D02*
X33742Y-22767D01*
X33732Y-22784D01*
X33723Y-22792D01*
X33694Y-22810D01*
X33656Y-22818D01*
X33580Y-22818D01*
X33561Y-22810D01*
X33551Y-22801D01*
X33542Y-22784D01*
X33542Y-22750D01*
X33551Y-22732D01*
X33561Y-22724D01*
X33580Y-22715D01*
X33628Y-22715D01*
X33647Y-22724D01*
X33656Y-22732D01*
X33666Y-22750D01*
X33666Y-22784D01*
X33656Y-22801D01*
X33647Y-22810D01*
X33628Y-22818D01*
X34647Y-22600D02*
X34552Y-22540D01*
X34647Y-22497D02*
X34447Y-22497D01*
X34447Y-22566D01*
X34457Y-22583D01*
X34466Y-22592D01*
X34485Y-22600D01*
X34514Y-22600D01*
X34533Y-22592D01*
X34543Y-22583D01*
X34552Y-22566D01*
X34552Y-22497D01*
X34647Y-22772D02*
X34647Y-22669D01*
X34647Y-22720D02*
X34447Y-22720D01*
X34476Y-22703D01*
X34495Y-22686D01*
X34505Y-22669D01*
X34447Y-22883D02*
X34447Y-22900D01*
X34457Y-22917D01*
X34466Y-22926D01*
X34485Y-22935D01*
X34524Y-22943D01*
X34571Y-22943D01*
X34609Y-22935D01*
X34628Y-22926D01*
X34638Y-22917D01*
X34647Y-22900D01*
X34647Y-22883D01*
X34638Y-22866D01*
X34628Y-22857D01*
X34609Y-22849D01*
X34571Y-22840D01*
X34524Y-22840D01*
X34485Y-22849D01*
X34466Y-22857D01*
X34457Y-22866D01*
X34447Y-22883D01*
X39865Y-28316D02*
X39874Y-28307D01*
X39884Y-28282D01*
X39884Y-28265D01*
X39874Y-28239D01*
X39855Y-28222D01*
X39836Y-28213D01*
X39798Y-28205D01*
X39769Y-28205D01*
X39731Y-28213D01*
X39712Y-28222D01*
X39693Y-28239D01*
X39684Y-28265D01*
X39684Y-28282D01*
X39693Y-28307D01*
X39703Y-28316D01*
X39684Y-28376D02*
X39684Y-28487D01*
X39760Y-28427D01*
X39760Y-28453D01*
X39769Y-28470D01*
X39779Y-28479D01*
X39798Y-28487D01*
X39846Y-28487D01*
X39865Y-28479D01*
X39874Y-28470D01*
X39884Y-28453D01*
X39884Y-28402D01*
X39874Y-28385D01*
X39865Y-28376D01*
X44589Y-34687D02*
X44598Y-34678D01*
X44608Y-34653D01*
X44608Y-34636D01*
X44598Y-34610D01*
X44579Y-34593D01*
X44560Y-34584D01*
X44522Y-34576D01*
X44494Y-34576D01*
X44456Y-34584D01*
X44437Y-34593D01*
X44418Y-34610D01*
X44408Y-34636D01*
X44408Y-34653D01*
X44418Y-34678D01*
X44427Y-34687D01*
X44608Y-34858D02*
X44608Y-34756D01*
X44608Y-34807D02*
X44408Y-34807D01*
X44437Y-34790D01*
X44456Y-34773D01*
X44465Y-34756D01*
X44475Y-35013D02*
X44608Y-35013D01*
X44398Y-34970D02*
X44541Y-34927D01*
X44541Y-35038D01*
X43519Y-35648D02*
X43519Y-35588D01*
X43624Y-35588D02*
X43424Y-35588D01*
X43424Y-35674D01*
X43624Y-35837D02*
X43624Y-35734D01*
X43624Y-35785D02*
X43424Y-35785D01*
X43452Y-35768D01*
X43471Y-35751D01*
X43481Y-35734D01*
X38269Y-31899D02*
X38174Y-31839D01*
X38269Y-31796D02*
X38069Y-31796D01*
X38069Y-31864D01*
X38079Y-31881D01*
X38088Y-31890D01*
X38108Y-31899D01*
X38136Y-31899D01*
X38155Y-31890D01*
X38165Y-31881D01*
X38174Y-31864D01*
X38174Y-31796D01*
X38088Y-31967D02*
X38079Y-31976D01*
X38069Y-31993D01*
X38069Y-32036D01*
X38079Y-32053D01*
X38088Y-32061D01*
X38108Y-32070D01*
X38127Y-32070D01*
X38155Y-32061D01*
X38269Y-31959D01*
X38269Y-32070D01*
X37403Y-34182D02*
X37308Y-34122D01*
X37403Y-34079D02*
X37203Y-34079D01*
X37203Y-34148D01*
X37213Y-34165D01*
X37222Y-34174D01*
X37241Y-34182D01*
X37270Y-34182D01*
X37289Y-34174D01*
X37299Y-34165D01*
X37308Y-34148D01*
X37308Y-34079D01*
X37403Y-34354D02*
X37403Y-34251D01*
X37403Y-34302D02*
X37203Y-34302D01*
X37232Y-34285D01*
X37251Y-34268D01*
X37260Y-34251D01*
X35101Y-32600D02*
X35110Y-32592D01*
X35120Y-32566D01*
X35120Y-32549D01*
X35110Y-32523D01*
X35091Y-32506D01*
X35072Y-32497D01*
X35034Y-32489D01*
X35006Y-32489D01*
X34967Y-32497D01*
X34948Y-32506D01*
X34929Y-32523D01*
X34920Y-32549D01*
X34920Y-32566D01*
X34929Y-32592D01*
X34939Y-32600D01*
X35120Y-32772D02*
X35120Y-32669D01*
X35120Y-32720D02*
X34920Y-32720D01*
X34948Y-32703D01*
X34967Y-32686D01*
X34977Y-32669D01*
X34920Y-32832D02*
X34920Y-32943D01*
X34996Y-32883D01*
X34996Y-32909D01*
X35006Y-32926D01*
X35015Y-32935D01*
X35034Y-32943D01*
X35082Y-32943D01*
X35101Y-32935D01*
X35110Y-32926D01*
X35120Y-32909D01*
X35120Y-32857D01*
X35110Y-32840D01*
X35101Y-32832D01*
X33821Y-25258D02*
X33829Y-25268D01*
X33855Y-25277D01*
X33872Y-25277D01*
X33898Y-25268D01*
X33915Y-25249D01*
X33923Y-25230D01*
X33932Y-25192D01*
X33932Y-25163D01*
X33923Y-25125D01*
X33915Y-25106D01*
X33898Y-25087D01*
X33872Y-25077D01*
X33855Y-25077D01*
X33829Y-25087D01*
X33821Y-25096D01*
X33743Y-25277D02*
X33743Y-25077D01*
X33683Y-25220D01*
X33623Y-25077D01*
X33623Y-25277D01*
X33503Y-25077D02*
X33469Y-25077D01*
X33452Y-25087D01*
X33435Y-25106D01*
X33426Y-25144D01*
X33426Y-25211D01*
X33435Y-25249D01*
X33452Y-25268D01*
X33469Y-25277D01*
X33503Y-25277D01*
X33521Y-25268D01*
X33538Y-25249D01*
X33546Y-25211D01*
X33546Y-25144D01*
X33538Y-25106D01*
X33521Y-25087D01*
X33503Y-25077D01*
X33349Y-25277D02*
X33349Y-25077D01*
X33306Y-25077D01*
X33281Y-25087D01*
X33263Y-25106D01*
X33255Y-25125D01*
X33246Y-25163D01*
X33246Y-25192D01*
X33255Y-25230D01*
X33263Y-25249D01*
X33281Y-25268D01*
X33306Y-25277D01*
X33349Y-25277D01*
X33178Y-25096D02*
X33169Y-25087D01*
X33152Y-25077D01*
X33109Y-25077D01*
X33092Y-25087D01*
X33083Y-25096D01*
X33075Y-25115D01*
X33075Y-25134D01*
X33083Y-25163D01*
X33186Y-25277D01*
X33075Y-25277D01*
X32600Y-23998D02*
X32609Y-24008D01*
X32634Y-24017D01*
X32652Y-24017D01*
X32677Y-24008D01*
X32694Y-23989D01*
X32703Y-23970D01*
X32712Y-23932D01*
X32712Y-23903D01*
X32703Y-23865D01*
X32694Y-23846D01*
X32677Y-23827D01*
X32652Y-23817D01*
X32634Y-23817D01*
X32609Y-23827D01*
X32600Y-23837D01*
X32523Y-24017D02*
X32523Y-23817D01*
X32463Y-23960D01*
X32403Y-23817D01*
X32403Y-24017D01*
X32283Y-23817D02*
X32249Y-23817D01*
X32232Y-23827D01*
X32214Y-23846D01*
X32206Y-23884D01*
X32206Y-23951D01*
X32214Y-23989D01*
X32232Y-24008D01*
X32249Y-24017D01*
X32283Y-24017D01*
X32300Y-24008D01*
X32317Y-23989D01*
X32326Y-23951D01*
X32326Y-23884D01*
X32317Y-23846D01*
X32300Y-23827D01*
X32283Y-23817D01*
X32129Y-24017D02*
X32129Y-23817D01*
X32086Y-23817D01*
X32060Y-23827D01*
X32043Y-23846D01*
X32034Y-23865D01*
X32026Y-23903D01*
X32026Y-23932D01*
X32034Y-23970D01*
X32043Y-23989D01*
X32060Y-24008D01*
X32086Y-24017D01*
X32129Y-24017D01*
X31854Y-24017D02*
X31957Y-24017D01*
X31906Y-24017D02*
X31906Y-23817D01*
X31923Y-23846D01*
X31940Y-23865D01*
X31957Y-23875D01*
X39195Y-33946D02*
X39205Y-33937D01*
X39214Y-33912D01*
X39214Y-33894D01*
X39205Y-33869D01*
X39186Y-33852D01*
X39167Y-33843D01*
X39129Y-33834D01*
X39100Y-33834D01*
X39062Y-33843D01*
X39043Y-33852D01*
X39024Y-33869D01*
X39014Y-33894D01*
X39014Y-33912D01*
X39024Y-33937D01*
X39033Y-33946D01*
X39081Y-34100D02*
X39214Y-34100D01*
X39005Y-34057D02*
X39148Y-34014D01*
X39148Y-34126D01*
X43605Y-26820D02*
X43614Y-26811D01*
X43624Y-26786D01*
X43624Y-26768D01*
X43614Y-26743D01*
X43595Y-26726D01*
X43576Y-26717D01*
X43538Y-26708D01*
X43509Y-26708D01*
X43471Y-26717D01*
X43452Y-26726D01*
X43433Y-26743D01*
X43424Y-26768D01*
X43424Y-26786D01*
X43433Y-26811D01*
X43443Y-26820D01*
X43424Y-26880D02*
X43424Y-27000D01*
X43624Y-26923D01*
X42896Y-26820D02*
X42906Y-26811D01*
X42915Y-26786D01*
X42915Y-26768D01*
X42906Y-26743D01*
X42887Y-26726D01*
X42867Y-26717D01*
X42829Y-26708D01*
X42801Y-26708D01*
X42763Y-26717D01*
X42744Y-26726D01*
X42725Y-26743D01*
X42715Y-26768D01*
X42715Y-26786D01*
X42725Y-26811D01*
X42734Y-26820D01*
X42715Y-26983D02*
X42715Y-26897D01*
X42810Y-26888D01*
X42801Y-26897D01*
X42791Y-26914D01*
X42791Y-26957D01*
X42801Y-26974D01*
X42810Y-26983D01*
X42829Y-26991D01*
X42877Y-26991D01*
X42896Y-26983D01*
X42906Y-26974D01*
X42915Y-26957D01*
X42915Y-26914D01*
X42906Y-26897D01*
X42896Y-26888D01*
X40140Y-27844D02*
X40150Y-27835D01*
X40159Y-27809D01*
X40159Y-27792D01*
X40150Y-27766D01*
X40131Y-27749D01*
X40112Y-27741D01*
X40073Y-27732D01*
X40045Y-27732D01*
X40007Y-27741D01*
X39988Y-27749D01*
X39969Y-27766D01*
X39959Y-27792D01*
X39959Y-27809D01*
X39969Y-27835D01*
X39978Y-27844D01*
X40045Y-27946D02*
X40035Y-27929D01*
X40026Y-27921D01*
X40007Y-27912D01*
X39997Y-27912D01*
X39978Y-27921D01*
X39969Y-27929D01*
X39959Y-27946D01*
X39959Y-27981D01*
X39969Y-27998D01*
X39978Y-28006D01*
X39997Y-28015D01*
X40007Y-28015D01*
X40026Y-28006D01*
X40035Y-27998D01*
X40045Y-27981D01*
X40045Y-27946D01*
X40054Y-27929D01*
X40064Y-27921D01*
X40083Y-27912D01*
X40121Y-27912D01*
X40140Y-27921D01*
X40150Y-27929D01*
X40159Y-27946D01*
X40159Y-27981D01*
X40150Y-27998D01*
X40140Y-28006D01*
X40121Y-28015D01*
X40083Y-28015D01*
X40064Y-28006D01*
X40054Y-27998D01*
X40045Y-27981D01*
X39628Y-29884D02*
X39638Y-29875D01*
X39647Y-29850D01*
X39647Y-29832D01*
X39638Y-29807D01*
X39619Y-29790D01*
X39600Y-29781D01*
X39562Y-29772D01*
X39533Y-29772D01*
X39495Y-29781D01*
X39476Y-29790D01*
X39457Y-29807D01*
X39447Y-29832D01*
X39447Y-29850D01*
X39457Y-29875D01*
X39466Y-29884D01*
X39647Y-30055D02*
X39647Y-29952D01*
X39647Y-30004D02*
X39447Y-30004D01*
X39476Y-29987D01*
X39495Y-29970D01*
X39505Y-29952D01*
X39447Y-30115D02*
X39447Y-30235D01*
X39647Y-30158D01*
X41282Y-29569D02*
X41291Y-29560D01*
X41301Y-29535D01*
X41301Y-29517D01*
X41291Y-29492D01*
X41272Y-29475D01*
X41253Y-29466D01*
X41215Y-29457D01*
X41187Y-29457D01*
X41149Y-29466D01*
X41129Y-29475D01*
X41110Y-29492D01*
X41101Y-29517D01*
X41101Y-29535D01*
X41110Y-29560D01*
X41120Y-29569D01*
X41301Y-29740D02*
X41301Y-29637D01*
X41301Y-29689D02*
X41101Y-29689D01*
X41129Y-29672D01*
X41149Y-29655D01*
X41158Y-29637D01*
X41101Y-29852D02*
X41101Y-29869D01*
X41110Y-29886D01*
X41120Y-29895D01*
X41139Y-29903D01*
X41177Y-29912D01*
X41225Y-29912D01*
X41263Y-29903D01*
X41282Y-29895D01*
X41291Y-29886D01*
X41301Y-29869D01*
X41301Y-29852D01*
X41291Y-29835D01*
X41282Y-29826D01*
X41263Y-29817D01*
X41225Y-29809D01*
X41177Y-29809D01*
X41139Y-29817D01*
X41120Y-29826D01*
X41110Y-29835D01*
X41101Y-29852D01*
X41951Y-30678D02*
X41961Y-30670D01*
X41970Y-30644D01*
X41970Y-30627D01*
X41961Y-30601D01*
X41942Y-30584D01*
X41923Y-30575D01*
X41885Y-30567D01*
X41856Y-30567D01*
X41818Y-30575D01*
X41799Y-30584D01*
X41780Y-30601D01*
X41770Y-30627D01*
X41770Y-30644D01*
X41780Y-30670D01*
X41789Y-30678D01*
X41970Y-30764D02*
X41970Y-30798D01*
X41961Y-30815D01*
X41951Y-30824D01*
X41923Y-30841D01*
X41885Y-30850D01*
X41808Y-30850D01*
X41789Y-30841D01*
X41780Y-30832D01*
X41770Y-30815D01*
X41770Y-30781D01*
X41780Y-30764D01*
X41789Y-30755D01*
X41808Y-30747D01*
X41856Y-30747D01*
X41875Y-30755D01*
X41885Y-30764D01*
X41894Y-30781D01*
X41894Y-30815D01*
X41885Y-30832D01*
X41875Y-30841D01*
X41856Y-30850D01*
X38698Y-28132D02*
X38706Y-28142D01*
X38732Y-28151D01*
X38749Y-28151D01*
X38775Y-28142D01*
X38792Y-28123D01*
X38801Y-28104D01*
X38809Y-28066D01*
X38809Y-28037D01*
X38801Y-27999D01*
X38792Y-27980D01*
X38775Y-27961D01*
X38749Y-27951D01*
X38732Y-27951D01*
X38706Y-27961D01*
X38698Y-27970D01*
X38526Y-28151D02*
X38629Y-28151D01*
X38578Y-28151D02*
X38578Y-27951D01*
X38595Y-27980D01*
X38612Y-27999D01*
X38629Y-28008D01*
X38364Y-27951D02*
X38449Y-27951D01*
X38458Y-28047D01*
X38449Y-28037D01*
X38432Y-28028D01*
X38389Y-28028D01*
X38372Y-28037D01*
X38364Y-28047D01*
X38355Y-28066D01*
X38355Y-28113D01*
X38364Y-28132D01*
X38372Y-28142D01*
X38389Y-28151D01*
X38432Y-28151D01*
X38449Y-28142D01*
X38458Y-28132D01*
X37438Y-24746D02*
X37447Y-24756D01*
X37472Y-24765D01*
X37489Y-24765D01*
X37515Y-24756D01*
X37532Y-24737D01*
X37541Y-24718D01*
X37549Y-24680D01*
X37549Y-24651D01*
X37541Y-24613D01*
X37532Y-24594D01*
X37515Y-24575D01*
X37489Y-24565D01*
X37472Y-24565D01*
X37447Y-24575D01*
X37438Y-24585D01*
X37267Y-24765D02*
X37369Y-24765D01*
X37318Y-24765D02*
X37318Y-24565D01*
X37335Y-24594D01*
X37352Y-24613D01*
X37369Y-24623D01*
X37112Y-24565D02*
X37147Y-24565D01*
X37164Y-24575D01*
X37172Y-24585D01*
X37189Y-24613D01*
X37198Y-24651D01*
X37198Y-24727D01*
X37189Y-24746D01*
X37181Y-24756D01*
X37164Y-24765D01*
X37129Y-24765D01*
X37112Y-24756D01*
X37104Y-24746D01*
X37095Y-24727D01*
X37095Y-24680D01*
X37104Y-24661D01*
X37112Y-24651D01*
X37129Y-24642D01*
X37164Y-24642D01*
X37181Y-24651D01*
X37189Y-24661D01*
X37198Y-24680D01*
X39478Y-26046D02*
X39487Y-26055D01*
X39513Y-26065D01*
X39530Y-26065D01*
X39555Y-26055D01*
X39573Y-26036D01*
X39581Y-26017D01*
X39590Y-25979D01*
X39590Y-25950D01*
X39581Y-25912D01*
X39573Y-25893D01*
X39555Y-25874D01*
X39530Y-25865D01*
X39513Y-25865D01*
X39487Y-25874D01*
X39478Y-25884D01*
X39307Y-26065D02*
X39410Y-26065D01*
X39358Y-26065D02*
X39358Y-25865D01*
X39375Y-25893D01*
X39393Y-25912D01*
X39410Y-25922D01*
X37470Y-23663D02*
X37530Y-23568D01*
X37573Y-23663D02*
X37573Y-23463D01*
X37505Y-23463D01*
X37488Y-23473D01*
X37479Y-23482D01*
X37470Y-23501D01*
X37470Y-23530D01*
X37479Y-23549D01*
X37488Y-23558D01*
X37505Y-23568D01*
X37573Y-23568D01*
X37316Y-23530D02*
X37316Y-23663D01*
X37359Y-23454D02*
X37402Y-23596D01*
X37290Y-23596D01*
X38802Y-23427D02*
X38811Y-23419D01*
X38821Y-23393D01*
X38821Y-23376D01*
X38811Y-23350D01*
X38792Y-23333D01*
X38773Y-23324D01*
X38735Y-23316D01*
X38706Y-23316D01*
X38668Y-23324D01*
X38649Y-23333D01*
X38630Y-23350D01*
X38621Y-23376D01*
X38621Y-23393D01*
X38630Y-23419D01*
X38640Y-23427D01*
X38640Y-23496D02*
X38630Y-23504D01*
X38621Y-23521D01*
X38621Y-23564D01*
X38630Y-23581D01*
X38640Y-23590D01*
X38659Y-23599D01*
X38678Y-23599D01*
X38706Y-23590D01*
X38821Y-23487D01*
X38821Y-23599D01*
X38821Y-23770D02*
X38821Y-23667D01*
X38821Y-23719D02*
X38621Y-23719D01*
X38649Y-23701D01*
X38668Y-23684D01*
X38678Y-23667D01*
X39478Y-25298D02*
X39487Y-25307D01*
X39513Y-25317D01*
X39530Y-25317D01*
X39555Y-25307D01*
X39573Y-25288D01*
X39581Y-25269D01*
X39590Y-25231D01*
X39590Y-25202D01*
X39581Y-25164D01*
X39573Y-25145D01*
X39555Y-25126D01*
X39530Y-25117D01*
X39513Y-25117D01*
X39487Y-25126D01*
X39478Y-25136D01*
X39410Y-25136D02*
X39401Y-25126D01*
X39384Y-25117D01*
X39341Y-25117D01*
X39324Y-25126D01*
X39315Y-25136D01*
X39307Y-25155D01*
X39307Y-25174D01*
X39315Y-25202D01*
X39418Y-25317D01*
X39307Y-25317D01*
X43605Y-24293D02*
X43614Y-24285D01*
X43624Y-24259D01*
X43624Y-24242D01*
X43614Y-24216D01*
X43595Y-24199D01*
X43576Y-24190D01*
X43538Y-24182D01*
X43509Y-24182D01*
X43471Y-24190D01*
X43452Y-24199D01*
X43433Y-24216D01*
X43424Y-24242D01*
X43424Y-24259D01*
X43433Y-24285D01*
X43443Y-24293D01*
X43443Y-24362D02*
X43433Y-24370D01*
X43424Y-24388D01*
X43424Y-24430D01*
X43433Y-24448D01*
X43443Y-24456D01*
X43462Y-24465D01*
X43481Y-24465D01*
X43509Y-24456D01*
X43624Y-24353D01*
X43624Y-24465D01*
X43424Y-24525D02*
X43424Y-24636D01*
X43500Y-24576D01*
X43500Y-24602D01*
X43509Y-24619D01*
X43519Y-24628D01*
X43538Y-24636D01*
X43586Y-24636D01*
X43605Y-24628D01*
X43614Y-24619D01*
X43624Y-24602D01*
X43624Y-24550D01*
X43614Y-24533D01*
X43605Y-24525D01*
X32274Y-23702D02*
X32334Y-23607D01*
X32376Y-23702D02*
X32376Y-23502D01*
X32308Y-23502D01*
X32291Y-23512D01*
X32282Y-23522D01*
X32274Y-23541D01*
X32274Y-23569D01*
X32282Y-23588D01*
X32291Y-23598D01*
X32308Y-23607D01*
X32376Y-23607D01*
X32171Y-23588D02*
X32188Y-23579D01*
X32196Y-23569D01*
X32205Y-23550D01*
X32205Y-23541D01*
X32196Y-23522D01*
X32188Y-23512D01*
X32171Y-23502D01*
X32136Y-23502D01*
X32119Y-23512D01*
X32111Y-23522D01*
X32102Y-23541D01*
X32102Y-23550D01*
X32111Y-23569D01*
X32119Y-23579D01*
X32136Y-23588D01*
X32171Y-23588D01*
X32188Y-23598D01*
X32196Y-23607D01*
X32205Y-23626D01*
X32205Y-23664D01*
X32196Y-23683D01*
X32188Y-23693D01*
X32171Y-23702D01*
X32136Y-23702D01*
X32119Y-23693D01*
X32111Y-23683D01*
X32102Y-23664D01*
X32102Y-23626D01*
X32111Y-23607D01*
X32119Y-23598D01*
X32136Y-23588D01*
X31104Y-22095D02*
X31009Y-22035D01*
X31104Y-21993D02*
X30904Y-21993D01*
X30904Y-22061D01*
X30914Y-22078D01*
X30923Y-22087D01*
X30942Y-22095D01*
X30971Y-22095D01*
X30990Y-22087D01*
X30999Y-22078D01*
X31009Y-22061D01*
X31009Y-21993D01*
X30904Y-22155D02*
X30904Y-22275D01*
X31104Y-22198D01*
X44485Y-29077D02*
X44494Y-29087D01*
X44520Y-29096D01*
X44537Y-29096D01*
X44562Y-29087D01*
X44580Y-29068D01*
X44588Y-29049D01*
X44597Y-29010D01*
X44597Y-28982D01*
X44588Y-28944D01*
X44580Y-28925D01*
X44562Y-28906D01*
X44537Y-28896D01*
X44520Y-28896D01*
X44494Y-28906D01*
X44485Y-28915D01*
X44417Y-28915D02*
X44408Y-28906D01*
X44391Y-28896D01*
X44348Y-28896D01*
X44331Y-28906D01*
X44322Y-28915D01*
X44314Y-28934D01*
X44314Y-28953D01*
X44322Y-28982D01*
X44425Y-29096D01*
X44314Y-29096D01*
X44202Y-28896D02*
X44185Y-28896D01*
X44168Y-28906D01*
X44160Y-28915D01*
X44151Y-28934D01*
X44142Y-28972D01*
X44142Y-29020D01*
X44151Y-29058D01*
X44160Y-29077D01*
X44168Y-29087D01*
X44185Y-29096D01*
X44202Y-29096D01*
X44220Y-29087D01*
X44228Y-29077D01*
X44237Y-29058D01*
X44245Y-29020D01*
X44245Y-28972D01*
X44237Y-28934D01*
X44228Y-28915D01*
X44220Y-28906D01*
X44202Y-28896D01*
X44013Y-32109D02*
X44021Y-32118D01*
X44047Y-32128D01*
X44064Y-32128D01*
X44090Y-32118D01*
X44107Y-32099D01*
X44116Y-32080D01*
X44124Y-32042D01*
X44124Y-32013D01*
X44116Y-31975D01*
X44107Y-31956D01*
X44090Y-31937D01*
X44064Y-31928D01*
X44047Y-31928D01*
X44021Y-31937D01*
X44013Y-31947D01*
X43841Y-32128D02*
X43944Y-32128D01*
X43893Y-32128D02*
X43893Y-31928D01*
X43910Y-31956D01*
X43927Y-31975D01*
X43944Y-31985D01*
X43756Y-32128D02*
X43721Y-32128D01*
X43704Y-32118D01*
X43696Y-32109D01*
X43679Y-32080D01*
X43670Y-32042D01*
X43670Y-31966D01*
X43679Y-31947D01*
X43687Y-31937D01*
X43704Y-31928D01*
X43739Y-31928D01*
X43756Y-31937D01*
X43764Y-31947D01*
X43773Y-31966D01*
X43773Y-32013D01*
X43764Y-32032D01*
X43756Y-32042D01*
X43739Y-32052D01*
X43704Y-32052D01*
X43687Y-32042D01*
X43679Y-32032D01*
X43670Y-32013D01*
G54D14*
X35144Y-28387D02*
X35331Y-28387D01*
X35331Y-27994D01*
X34806Y-28387D02*
X35031Y-28387D01*
X34919Y-28387D02*
X34919Y-27994D01*
X34956Y-28050D01*
X34994Y-28087D01*
X35031Y-28106D01*
X27864Y-27101D02*
X27864Y-27364D01*
X27958Y-26951D02*
X28052Y-27232D01*
X27808Y-27232D01*
X27658Y-27326D02*
X27639Y-27345D01*
X27658Y-27364D01*
X27677Y-27345D01*
X27658Y-27326D01*
X27658Y-27364D01*
X27508Y-26970D02*
X27245Y-26970D01*
X27414Y-27364D01*
X26927Y-27101D02*
X26927Y-27364D01*
X27095Y-27101D02*
X27095Y-27307D01*
X27077Y-27345D01*
X27039Y-27364D01*
X26983Y-27364D01*
X26946Y-27345D01*
X26927Y-27326D01*
G54D16*
X38378Y-28248D02*
X38388Y-28274D01*
X38388Y-28317D01*
X38378Y-28334D01*
X38368Y-28342D01*
X38349Y-28351D01*
X38330Y-28351D01*
X38311Y-28342D01*
X38302Y-28334D01*
X38292Y-28317D01*
X38283Y-28282D01*
X38273Y-28265D01*
X38264Y-28257D01*
X38245Y-28248D01*
X38226Y-28248D01*
X38207Y-28257D01*
X38197Y-28265D01*
X38188Y-28282D01*
X38188Y-28325D01*
X38197Y-28351D01*
X38207Y-28420D02*
X38197Y-28428D01*
X38188Y-28445D01*
X38188Y-28488D01*
X38197Y-28505D01*
X38207Y-28514D01*
X38226Y-28522D01*
X38245Y-28522D01*
X38273Y-28514D01*
X38388Y-28411D01*
X38388Y-28522D01*
X37420Y-29520D02*
X37394Y-29529D01*
X37352Y-29529D01*
X37334Y-29520D01*
X37326Y-29510D01*
X37317Y-29491D01*
X37317Y-29472D01*
X37326Y-29453D01*
X37334Y-29444D01*
X37352Y-29434D01*
X37386Y-29425D01*
X37403Y-29415D01*
X37412Y-29405D01*
X37420Y-29386D01*
X37420Y-29367D01*
X37412Y-29348D01*
X37403Y-29339D01*
X37386Y-29329D01*
X37343Y-29329D01*
X37317Y-29339D01*
X37257Y-29329D02*
X37146Y-29329D01*
X37206Y-29405D01*
X37180Y-29405D01*
X37163Y-29415D01*
X37154Y-29425D01*
X37146Y-29444D01*
X37146Y-29491D01*
X37154Y-29510D01*
X37163Y-29520D01*
X37180Y-29529D01*
X37232Y-29529D01*
X37249Y-29520D01*
X37257Y-29510D01*
X36616Y-34018D02*
X36521Y-33958D01*
X36616Y-33915D02*
X36416Y-33915D01*
X36416Y-33983D01*
X36425Y-34001D01*
X36435Y-34009D01*
X36454Y-34018D01*
X36483Y-34018D01*
X36502Y-34009D01*
X36511Y-34001D01*
X36521Y-33983D01*
X36521Y-33915D01*
X36616Y-34189D02*
X36616Y-34086D01*
X36616Y-34138D02*
X36416Y-34138D01*
X36444Y-34121D01*
X36464Y-34103D01*
X36473Y-34086D01*
X36502Y-34292D02*
X36492Y-34275D01*
X36483Y-34266D01*
X36464Y-34258D01*
X36454Y-34258D01*
X36435Y-34266D01*
X36425Y-34275D01*
X36416Y-34292D01*
X36416Y-34326D01*
X36425Y-34343D01*
X36435Y-34352D01*
X36454Y-34361D01*
X36464Y-34361D01*
X36483Y-34352D01*
X36492Y-34343D01*
X36502Y-34326D01*
X36502Y-34292D01*
X36511Y-34275D01*
X36521Y-34266D01*
X36540Y-34258D01*
X36578Y-34258D01*
X36597Y-34266D01*
X36606Y-34275D01*
X36616Y-34292D01*
X36616Y-34326D01*
X36606Y-34343D01*
X36597Y-34352D01*
X36578Y-34361D01*
X36540Y-34361D01*
X36521Y-34352D01*
X36511Y-34343D01*
X36502Y-34326D01*
X35435Y-32915D02*
X35340Y-32855D01*
X35435Y-32812D02*
X35235Y-32812D01*
X35235Y-32881D01*
X35244Y-32898D01*
X35254Y-32907D01*
X35273Y-32915D01*
X35301Y-32915D01*
X35320Y-32907D01*
X35330Y-32898D01*
X35340Y-32881D01*
X35340Y-32812D01*
X35435Y-33087D02*
X35435Y-32984D01*
X35435Y-33035D02*
X35235Y-33035D01*
X35263Y-33018D01*
X35282Y-33001D01*
X35292Y-32984D01*
X35235Y-33147D02*
X35235Y-33267D01*
X35435Y-33190D01*
X41577Y-36269D02*
X41481Y-36209D01*
X41577Y-36166D02*
X41377Y-36166D01*
X41377Y-36234D01*
X41386Y-36252D01*
X41396Y-36260D01*
X41415Y-36269D01*
X41443Y-36269D01*
X41462Y-36260D01*
X41472Y-36252D01*
X41481Y-36234D01*
X41481Y-36166D01*
X41377Y-36432D02*
X41377Y-36346D01*
X41472Y-36337D01*
X41462Y-36346D01*
X41453Y-36363D01*
X41453Y-36406D01*
X41462Y-36423D01*
X41472Y-36432D01*
X41491Y-36440D01*
X41538Y-36440D01*
X41557Y-36432D01*
X41567Y-36423D01*
X41577Y-36406D01*
X41577Y-36363D01*
X41567Y-36346D01*
X41557Y-36337D01*
X31493Y-25789D02*
X31553Y-25694D01*
X31596Y-25789D02*
X31596Y-25589D01*
X31527Y-25589D01*
X31510Y-25599D01*
X31502Y-25608D01*
X31493Y-25627D01*
X31493Y-25656D01*
X31502Y-25675D01*
X31510Y-25684D01*
X31527Y-25694D01*
X31596Y-25694D01*
X31322Y-25789D02*
X31425Y-25789D01*
X31373Y-25789D02*
X31373Y-25589D01*
X31390Y-25618D01*
X31407Y-25637D01*
X31425Y-25646D01*
X31167Y-25589D02*
X31202Y-25589D01*
X31219Y-25599D01*
X31227Y-25608D01*
X31245Y-25637D01*
X31253Y-25675D01*
X31253Y-25751D01*
X31245Y-25770D01*
X31236Y-25780D01*
X31219Y-25789D01*
X31185Y-25789D01*
X31167Y-25780D01*
X31159Y-25770D01*
X31150Y-25751D01*
X31150Y-25703D01*
X31159Y-25684D01*
X31167Y-25675D01*
X31185Y-25665D01*
X31219Y-25665D01*
X31236Y-25675D01*
X31245Y-25684D01*
X31253Y-25703D01*
X31454Y-24057D02*
X31514Y-23962D01*
X31557Y-24057D02*
X31557Y-23857D01*
X31488Y-23857D01*
X31471Y-23866D01*
X31462Y-23876D01*
X31454Y-23895D01*
X31454Y-23923D01*
X31462Y-23943D01*
X31471Y-23952D01*
X31488Y-23962D01*
X31557Y-23962D01*
X31282Y-24057D02*
X31385Y-24057D01*
X31334Y-24057D02*
X31334Y-23857D01*
X31351Y-23885D01*
X31368Y-23904D01*
X31385Y-23914D01*
X31120Y-23857D02*
X31205Y-23857D01*
X31214Y-23952D01*
X31205Y-23943D01*
X31188Y-23933D01*
X31145Y-23933D01*
X31128Y-23943D01*
X31120Y-23952D01*
X31111Y-23971D01*
X31111Y-24019D01*
X31120Y-24038D01*
X31128Y-24047D01*
X31145Y-24057D01*
X31188Y-24057D01*
X31205Y-24047D01*
X31214Y-24038D01*
X45317Y-30002D02*
X45221Y-29942D01*
X45317Y-29899D02*
X45117Y-29899D01*
X45117Y-29968D01*
X45126Y-29985D01*
X45136Y-29993D01*
X45155Y-30002D01*
X45183Y-30002D01*
X45202Y-29993D01*
X45212Y-29985D01*
X45221Y-29968D01*
X45221Y-29899D01*
X45317Y-30173D02*
X45317Y-30070D01*
X45317Y-30122D02*
X45117Y-30122D01*
X45145Y-30105D01*
X45164Y-30088D01*
X45174Y-30070D01*
X45317Y-30345D02*
X45317Y-30242D01*
X45317Y-30293D02*
X45117Y-30293D01*
X45145Y-30276D01*
X45164Y-30259D01*
X45174Y-30242D01*
G54D14*
X41209Y-36411D02*
X40894Y-36884D01*
X40894Y-36411D02*
X41209Y-36884D01*
X40736Y-36456D02*
X40714Y-36434D01*
X40669Y-36411D01*
X40556Y-36411D01*
X40511Y-36434D01*
X40489Y-36456D01*
X40466Y-36501D01*
X40466Y-36546D01*
X40489Y-36614D01*
X40759Y-36884D01*
X40466Y-36884D01*
X39367Y-40019D02*
X39339Y-39991D01*
X39282Y-39963D01*
X39142Y-39963D01*
X39086Y-39991D01*
X39057Y-40019D01*
X39029Y-40075D01*
X39029Y-40132D01*
X39057Y-40216D01*
X39395Y-40553D01*
X39029Y-40553D01*
X38523Y-40160D02*
X38523Y-40553D01*
X38664Y-39935D02*
X38804Y-40357D01*
X38439Y-40357D01*
X38214Y-40553D02*
X38214Y-39963D01*
X38017Y-40385D01*
X37820Y-39963D01*
X37820Y-40553D01*
X37539Y-40553D02*
X37539Y-39963D01*
X37539Y-40244D02*
X37201Y-40244D01*
X37201Y-40553D02*
X37201Y-39963D01*
X36976Y-40160D02*
X36667Y-40160D01*
X36976Y-40553D01*
X36667Y-40553D01*
X43577Y-30444D02*
X44049Y-30759D01*
X43577Y-30759D02*
X44049Y-30444D01*
X44049Y-31186D02*
X44049Y-30916D01*
X44049Y-31051D02*
X43577Y-31051D01*
X43644Y-31006D01*
X43689Y-30961D01*
X43712Y-30916D01*
X44848Y-39845D02*
X44482Y-39845D01*
X44679Y-40070D01*
X44595Y-40070D01*
X44538Y-40098D01*
X44510Y-40126D01*
X44482Y-40182D01*
X44482Y-40323D01*
X44510Y-40379D01*
X44538Y-40407D01*
X44595Y-40435D01*
X44763Y-40435D01*
X44820Y-40407D01*
X44848Y-40379D01*
X44257Y-39901D02*
X44229Y-39873D01*
X44173Y-39845D01*
X44032Y-39845D01*
X43976Y-39873D01*
X43948Y-39901D01*
X43920Y-39957D01*
X43920Y-40014D01*
X43948Y-40098D01*
X44285Y-40435D01*
X43920Y-40435D01*
X43667Y-40379D02*
X43638Y-40407D01*
X43667Y-40435D01*
X43695Y-40407D01*
X43667Y-40379D01*
X43667Y-40435D01*
X43442Y-39845D02*
X43048Y-39845D01*
X43301Y-40435D01*
X42570Y-39845D02*
X42682Y-39845D01*
X42739Y-39873D01*
X42767Y-39901D01*
X42823Y-39985D01*
X42851Y-40098D01*
X42851Y-40323D01*
X42823Y-40379D01*
X42795Y-40407D01*
X42739Y-40435D01*
X42626Y-40435D01*
X42570Y-40407D01*
X42542Y-40379D01*
X42514Y-40323D01*
X42514Y-40182D01*
X42542Y-40126D01*
X42570Y-40098D01*
X42626Y-40070D01*
X42739Y-40070D01*
X42795Y-40098D01*
X42823Y-40126D01*
X42851Y-40182D01*
X42176Y-40098D02*
X42232Y-40070D01*
X42260Y-40042D01*
X42289Y-39985D01*
X42289Y-39957D01*
X42260Y-39901D01*
X42232Y-39873D01*
X42176Y-39845D01*
X42064Y-39845D01*
X42007Y-39873D01*
X41979Y-39901D01*
X41951Y-39957D01*
X41951Y-39985D01*
X41979Y-40042D01*
X42007Y-40070D01*
X42064Y-40098D01*
X42176Y-40098D01*
X42232Y-40126D01*
X42260Y-40154D01*
X42289Y-40210D01*
X42289Y-40323D01*
X42260Y-40379D01*
X42232Y-40407D01*
X42176Y-40435D01*
X42064Y-40435D01*
X42007Y-40407D01*
X41979Y-40379D01*
X41951Y-40323D01*
X41951Y-40210D01*
X41979Y-40154D01*
X42007Y-40126D01*
X42064Y-40098D01*
X41698Y-40435D02*
X41698Y-39845D01*
X41642Y-40210D02*
X41473Y-40435D01*
X41473Y-40042D02*
X41698Y-40267D01*
X41220Y-40435D02*
X41220Y-39845D01*
X41220Y-40126D02*
X40883Y-40126D01*
X40883Y-40435D02*
X40883Y-39845D01*
X40658Y-40042D02*
X40348Y-40042D01*
X40658Y-40435D01*
X40348Y-40435D01*
M02*
