G04 (created by PCBNEW (2013-07-07 BZR 4022)-stable) date 2015/09/29 23:49:40*
%MOIN*%
G04 Gerber Fmt 3.4, Leading zero omitted, Abs format*
%FSLAX34Y34*%
G01*
G70*
G90*
G04 APERTURE LIST*
%ADD10C,0.00393701*%
%ADD11R,0.0629921X0.11811*%
%ADD12R,0.19X0.165*%
%ADD13R,0.0590551X0.0590551*%
%ADD14R,0.0944882X0.1063*%
%ADD15R,0.0393701X0.0787402*%
%ADD16R,0.0787402X0.0393701*%
%ADD17R,0.06X0.06*%
%ADD18C,0.06*%
%ADD19C,0.177165*%
%ADD20R,0.0393701X0.045*%
%ADD21R,0.045X0.0393701*%
%ADD22R,0.102362X0.177165*%
%ADD23R,0.23622X0.0787402*%
%ADD24R,0.0866142X0.0669291*%
%ADD25C,0.0354*%
%ADD26C,0.035*%
%ADD27C,0.005*%
%ADD28C,0.01*%
%ADD29C,0.02*%
G04 APERTURE END LIST*
G54D10*
G54D11*
X40005Y-23645D03*
X42120Y-23645D03*
G54D12*
X41062Y-26061D03*
G54D13*
X35787Y-29094D03*
X36889Y-29094D03*
G54D14*
X31653Y-32204D03*
X33543Y-32204D03*
G54D15*
X38543Y-30826D03*
X39370Y-30826D03*
X37755Y-30826D03*
G54D16*
X41692Y-32834D03*
X41692Y-32007D03*
X41692Y-33622D03*
X36377Y-25157D03*
X36377Y-25984D03*
X36377Y-24370D03*
G54D15*
X42125Y-28346D03*
X41299Y-28346D03*
X42913Y-28346D03*
X35433Y-30314D03*
X36259Y-30314D03*
X34645Y-30314D03*
X43937Y-22795D03*
X44763Y-22795D03*
X43149Y-22795D03*
G54D17*
X29500Y-36000D03*
G54D18*
X29500Y-35000D03*
X30500Y-36000D03*
X30500Y-35000D03*
X31500Y-36000D03*
X31500Y-35000D03*
X32500Y-36000D03*
X32500Y-35000D03*
X33500Y-36000D03*
X33500Y-35000D03*
G54D17*
X33500Y-33500D03*
G54D18*
X32500Y-33500D03*
X31500Y-33500D03*
X30500Y-33500D03*
X29500Y-33500D03*
G54D17*
X34500Y-20500D03*
G54D18*
X33500Y-20500D03*
X32500Y-20500D03*
X31500Y-20500D03*
G54D17*
X31500Y-21500D03*
G54D18*
X32500Y-21500D03*
X33500Y-21500D03*
X34500Y-21500D03*
G54D17*
X33767Y-29370D03*
G54D18*
X32767Y-29370D03*
G54D17*
X36000Y-21500D03*
G54D18*
X36000Y-20500D03*
X37000Y-21500D03*
X37000Y-20500D03*
X38000Y-21500D03*
X38000Y-20500D03*
X39000Y-21500D03*
X39000Y-20500D03*
X40000Y-21500D03*
X40000Y-20500D03*
X41000Y-21500D03*
X41000Y-20500D03*
X42000Y-21500D03*
X42000Y-20500D03*
X43000Y-21500D03*
X43000Y-20500D03*
X44000Y-21500D03*
X44000Y-20500D03*
X45000Y-21500D03*
X45000Y-20500D03*
G54D17*
X30500Y-32000D03*
G54D18*
X29500Y-32000D03*
X30500Y-31000D03*
X29500Y-31000D03*
X30500Y-30000D03*
X29500Y-30000D03*
X30500Y-29000D03*
X29500Y-29000D03*
X30500Y-28000D03*
X29500Y-28000D03*
X30500Y-27000D03*
X29500Y-27000D03*
X30500Y-26000D03*
X29500Y-26000D03*
X30500Y-25000D03*
X29500Y-25000D03*
X30500Y-24000D03*
X29500Y-24000D03*
X30500Y-23000D03*
X29500Y-23000D03*
G54D17*
X46500Y-23000D03*
G54D18*
X47500Y-23000D03*
X46500Y-24000D03*
X47500Y-24000D03*
X46500Y-25000D03*
X47500Y-25000D03*
X46500Y-26000D03*
X47500Y-26000D03*
X46500Y-27000D03*
X47500Y-27000D03*
X46500Y-28000D03*
X47500Y-28000D03*
X46500Y-29000D03*
X47500Y-29000D03*
X46500Y-30000D03*
X47500Y-30000D03*
X46500Y-31000D03*
X47500Y-31000D03*
X46500Y-32000D03*
X47500Y-32000D03*
G54D17*
X40500Y-37500D03*
G54D18*
X40500Y-38500D03*
X39500Y-37500D03*
X39500Y-38500D03*
X38500Y-37500D03*
X38500Y-38500D03*
X37500Y-37500D03*
X37500Y-38500D03*
X36500Y-37500D03*
X36500Y-38500D03*
X35500Y-37500D03*
X35500Y-38500D03*
X34500Y-37500D03*
X34500Y-38500D03*
X33500Y-37500D03*
X33500Y-38500D03*
X32500Y-37500D03*
X32500Y-38500D03*
X31500Y-37500D03*
X31500Y-38500D03*
G54D19*
X46456Y-37795D03*
X29921Y-21259D03*
X46456Y-21259D03*
X29921Y-37795D03*
G54D20*
X40826Y-32834D03*
X40000Y-32834D03*
X36535Y-31220D03*
X35708Y-31220D03*
X35590Y-34015D03*
X34763Y-34015D03*
X36181Y-26732D03*
X37007Y-26732D03*
G54D21*
X37755Y-27559D03*
X37755Y-26732D03*
X31811Y-28543D03*
X31811Y-29370D03*
X33188Y-22283D03*
X33188Y-23110D03*
X34094Y-22322D03*
X34094Y-23149D03*
X39330Y-28267D03*
X39330Y-29094D03*
X45000Y-35196D03*
X45000Y-34370D03*
X44015Y-36496D03*
X44015Y-35669D03*
X37952Y-32480D03*
X37952Y-33307D03*
X37244Y-32480D03*
X37244Y-33307D03*
X34527Y-31889D03*
X34527Y-32716D03*
G54D20*
X33110Y-24685D03*
X33937Y-24685D03*
X33110Y-23976D03*
X33937Y-23976D03*
G54D21*
X39000Y-32606D03*
X39000Y-33433D03*
X43543Y-26299D03*
X43543Y-25472D03*
X42795Y-26299D03*
X42795Y-25472D03*
X40551Y-28267D03*
X40551Y-27440D03*
X40039Y-29291D03*
X40039Y-30118D03*
X40748Y-29291D03*
X40748Y-30118D03*
X41889Y-29330D03*
X41889Y-30157D03*
G54D20*
X39370Y-27559D03*
X38543Y-27559D03*
G54D21*
X37362Y-25984D03*
X37362Y-25157D03*
G54D20*
X38110Y-25984D03*
X38937Y-25984D03*
X37834Y-23110D03*
X37007Y-23110D03*
G54D21*
X39251Y-23661D03*
X39251Y-24488D03*
G54D20*
X38110Y-25236D03*
X38937Y-25236D03*
G54D21*
X42992Y-23661D03*
X42992Y-24488D03*
X32244Y-22322D03*
X32244Y-23149D03*
X31535Y-22322D03*
X31535Y-23149D03*
G54D20*
X42874Y-29212D03*
X43700Y-29212D03*
X42874Y-32519D03*
X43700Y-32519D03*
G54D22*
X31653Y-27047D03*
X34803Y-27047D03*
G54D21*
X37755Y-29094D03*
X37755Y-28267D03*
G54D20*
X36889Y-29921D03*
X37716Y-29921D03*
G54D21*
X36535Y-32480D03*
X36535Y-33307D03*
X35826Y-32480D03*
X35826Y-33307D03*
X41968Y-36692D03*
X41968Y-35866D03*
G54D20*
X32244Y-25157D03*
X31417Y-25157D03*
X32244Y-24488D03*
X31417Y-24488D03*
G54D21*
X45708Y-30511D03*
X45708Y-29685D03*
G54D17*
X44000Y-37500D03*
G54D18*
X44000Y-38500D03*
X43000Y-37500D03*
X43000Y-38500D03*
X42000Y-37500D03*
X42000Y-38500D03*
G54D23*
X35590Y-35629D03*
X39527Y-35629D03*
G54D24*
X42874Y-31692D03*
X42874Y-30039D03*
G54D25*
X46042Y-35590D03*
X46042Y-33858D03*
G54D26*
X31614Y-34330D03*
X32480Y-31692D03*
X42283Y-27322D03*
X41811Y-27244D03*
X39960Y-27952D03*
X35472Y-36811D03*
X41850Y-35236D03*
X38858Y-34881D03*
X35748Y-34251D03*
X35708Y-35551D03*
X39527Y-35629D03*
X40629Y-31338D03*
X40629Y-30629D03*
X32283Y-24645D03*
X32795Y-25039D03*
X37283Y-31968D03*
X37677Y-31732D03*
X44724Y-31968D03*
X42322Y-32440D03*
X45354Y-31220D03*
X39055Y-32086D03*
X37834Y-22598D03*
X33976Y-30314D03*
X35629Y-22283D03*
X33543Y-30511D03*
X33188Y-30826D03*
X32716Y-30826D03*
X35944Y-28937D03*
X44291Y-34606D03*
X44291Y-35078D03*
X32007Y-30511D03*
X36889Y-28228D03*
X40551Y-28267D03*
X35826Y-31889D03*
X36299Y-27244D03*
X40866Y-32874D03*
X32007Y-29960D03*
X31811Y-23622D03*
X32716Y-23543D03*
X37007Y-22519D03*
X41929Y-35787D03*
X43307Y-36259D03*
X45000Y-35590D03*
X33464Y-23385D03*
X34251Y-23385D03*
X31456Y-25118D03*
X31338Y-24488D03*
X34330Y-36417D03*
X34133Y-33307D03*
X37755Y-34370D03*
X41889Y-30118D03*
X38503Y-27480D03*
X40039Y-28779D03*
X42519Y-35314D03*
X43503Y-34015D03*
X36181Y-22834D03*
X36574Y-22322D03*
X34960Y-23070D03*
X39566Y-27007D03*
X38897Y-27007D03*
X44803Y-22322D03*
X37913Y-23110D03*
X35866Y-29685D03*
X38188Y-25078D03*
X38740Y-28897D03*
X38385Y-24094D03*
X32519Y-26574D03*
X28897Y-36889D03*
X37519Y-29960D03*
X35118Y-25787D03*
X39448Y-31653D03*
X39842Y-30039D03*
X43779Y-25472D03*
X41889Y-29330D03*
X40669Y-30039D03*
X39763Y-34409D03*
X40944Y-34409D03*
X41614Y-34409D03*
X40236Y-34370D03*
X37952Y-35354D03*
X40669Y-36889D03*
X36181Y-23464D03*
X33897Y-26850D03*
X35669Y-28503D03*
X36417Y-28464D03*
X37125Y-30866D03*
X36496Y-31771D03*
X38897Y-29527D03*
X36417Y-29645D03*
X36968Y-27440D03*
X31653Y-32204D03*
X45039Y-25354D03*
X44094Y-24212D03*
X47952Y-27519D03*
X47874Y-23503D03*
X41377Y-24803D03*
X28700Y-37401D03*
X28740Y-33858D03*
X28740Y-32677D03*
X28740Y-31496D03*
X28740Y-30314D03*
X28740Y-29133D03*
X28740Y-27952D03*
X28740Y-26771D03*
X28740Y-25590D03*
X28740Y-24409D03*
X28740Y-23228D03*
X28740Y-22047D03*
X28661Y-35118D03*
X40157Y-27440D03*
X34448Y-34881D03*
X30866Y-20078D03*
X43503Y-19921D03*
X41496Y-19921D03*
X39527Y-19921D03*
X37519Y-19921D03*
X35472Y-19921D03*
X47952Y-24527D03*
X47952Y-25551D03*
X47952Y-26535D03*
X47952Y-28503D03*
X47913Y-29488D03*
X47834Y-30590D03*
X47834Y-32244D03*
X47834Y-33425D03*
X47834Y-34370D03*
X47834Y-35314D03*
X45669Y-38976D03*
X44488Y-38976D03*
X42519Y-38976D03*
X41141Y-38976D03*
X38976Y-38976D03*
X37007Y-38976D03*
X35039Y-38976D03*
X33070Y-38976D03*
X31889Y-38976D03*
X31102Y-38976D03*
X45039Y-33937D03*
X37598Y-23937D03*
X37165Y-24370D03*
X34842Y-23543D03*
X34724Y-33740D03*
X34527Y-32677D03*
X39960Y-31771D03*
X38661Y-34015D03*
X35669Y-31023D03*
X40118Y-30984D03*
X38385Y-24606D03*
G54D27*
X32716Y-34330D02*
X32834Y-34212D01*
X31614Y-34330D02*
X32716Y-34330D01*
X32834Y-34212D02*
X32952Y-34094D01*
X32480Y-32362D02*
X32480Y-31692D01*
X32952Y-32834D02*
X32480Y-32362D01*
X32952Y-34094D02*
X32952Y-32834D01*
X33500Y-35000D02*
X33500Y-34444D01*
X33267Y-34212D02*
X32834Y-34212D01*
X33500Y-34444D02*
X33267Y-34212D01*
X42283Y-27322D02*
X42795Y-26811D01*
X42795Y-26811D02*
X42795Y-26299D01*
X43543Y-26299D02*
X43543Y-26574D01*
X41811Y-27519D02*
X41811Y-27244D01*
X42007Y-27716D02*
X41811Y-27519D01*
X42401Y-27716D02*
X42007Y-27716D01*
X43543Y-26574D02*
X42401Y-27716D01*
X39803Y-28307D02*
X39370Y-28307D01*
X39330Y-28267D02*
X39370Y-28307D01*
X39960Y-27952D02*
X39960Y-28149D01*
X39960Y-28149D02*
X39803Y-28307D01*
X34500Y-38500D02*
X35000Y-38000D01*
X35000Y-37283D02*
X35472Y-36811D01*
X35000Y-38000D02*
X35000Y-37283D01*
X39763Y-35039D02*
X41259Y-35039D01*
X41456Y-35236D02*
X41850Y-35236D01*
X39763Y-35039D02*
X38661Y-35039D01*
X41259Y-35039D02*
X41456Y-35236D01*
G54D28*
X38661Y-35039D02*
X38346Y-35039D01*
G54D27*
X35590Y-35236D02*
X35590Y-35629D01*
G54D28*
X35984Y-34842D02*
X35590Y-35236D01*
X38149Y-34842D02*
X35984Y-34842D01*
X38346Y-35039D02*
X38149Y-34842D01*
G54D27*
X38700Y-35039D02*
X38661Y-35039D01*
G54D28*
X38858Y-34881D02*
X38700Y-35039D01*
X35590Y-34015D02*
X35748Y-34173D01*
G54D27*
X35748Y-34173D02*
X35748Y-34251D01*
X35708Y-35551D02*
X35669Y-35551D01*
X35669Y-35551D02*
X35590Y-35629D01*
G54D28*
X42874Y-31692D02*
X42519Y-31338D01*
X42519Y-31338D02*
X40629Y-31338D01*
X42874Y-31692D02*
X42874Y-32519D01*
X42598Y-30748D02*
X40748Y-30748D01*
X42598Y-30748D02*
X42874Y-30472D01*
X42874Y-30039D02*
X42874Y-30472D01*
X40748Y-30748D02*
X40629Y-30629D01*
X42874Y-29212D02*
X42874Y-30039D01*
G54D27*
X32244Y-24488D02*
X32677Y-24488D01*
X33110Y-24055D02*
X33110Y-23976D01*
X32677Y-24488D02*
X33110Y-24055D01*
X32244Y-24606D02*
X32244Y-24488D01*
X32283Y-24645D02*
X32244Y-24606D01*
X32795Y-25039D02*
X32795Y-25000D01*
X32795Y-25000D02*
X33110Y-24685D01*
X32677Y-25157D02*
X32244Y-25157D01*
X32795Y-25039D02*
X32677Y-25157D01*
X37244Y-32480D02*
X36535Y-32480D01*
X37165Y-32401D02*
X37244Y-32480D01*
X37165Y-32086D02*
X37165Y-32401D01*
X37283Y-31968D02*
X37165Y-32086D01*
X37677Y-31732D02*
X37559Y-31732D01*
X36220Y-32086D02*
X35826Y-32480D01*
X36614Y-32086D02*
X36220Y-32086D01*
X37047Y-31653D02*
X36614Y-32086D01*
X37480Y-31653D02*
X37047Y-31653D01*
X37559Y-31732D02*
X37480Y-31653D01*
X37952Y-32007D02*
X37952Y-32480D01*
X37677Y-31732D02*
X37952Y-32007D01*
X45708Y-30511D02*
X45354Y-30866D01*
X44724Y-32716D02*
X44724Y-31968D01*
X42322Y-32440D02*
X42440Y-32559D01*
X42440Y-32559D02*
X42440Y-32834D01*
X42440Y-32834D02*
X42952Y-33346D01*
X42952Y-33346D02*
X44094Y-33346D01*
X44094Y-33346D02*
X44724Y-32716D01*
X45354Y-31220D02*
X45354Y-30866D01*
X39000Y-32606D02*
X39000Y-32141D01*
X39000Y-32141D02*
X39055Y-32086D01*
X36507Y-22007D02*
X36000Y-21500D01*
X37244Y-22007D02*
X36507Y-22007D01*
X37834Y-22598D02*
X37244Y-22007D01*
X35866Y-23779D02*
X35866Y-22519D01*
X33976Y-30314D02*
X33897Y-30314D01*
X35078Y-24566D02*
X35866Y-23779D01*
X35078Y-24685D02*
X35078Y-24566D01*
X34881Y-24881D02*
X35078Y-24685D01*
X34881Y-25472D02*
X34881Y-24881D01*
X34645Y-25708D02*
X34881Y-25472D01*
X34015Y-25708D02*
X34645Y-25708D01*
X33385Y-26338D02*
X34015Y-25708D01*
X33385Y-27913D02*
X33385Y-26338D01*
X34291Y-28818D02*
X33385Y-27913D01*
X34291Y-29645D02*
X34291Y-28818D01*
X33858Y-30078D02*
X34291Y-29645D01*
X33858Y-30275D02*
X33858Y-30078D01*
X33897Y-30314D02*
X33858Y-30275D01*
X35866Y-22519D02*
X35629Y-22283D01*
X31500Y-21500D02*
X31500Y-22287D01*
X31500Y-22287D02*
X31535Y-22322D01*
X34685Y-24842D02*
X34685Y-25354D01*
X32500Y-21500D02*
X33015Y-20984D01*
X34881Y-24645D02*
X34685Y-24842D01*
X34881Y-24527D02*
X34881Y-24645D01*
X35708Y-23700D02*
X34881Y-24527D01*
X35708Y-22795D02*
X35708Y-23700D01*
X35275Y-22362D02*
X35708Y-22795D01*
X35275Y-20314D02*
X35275Y-22362D01*
X35000Y-20039D02*
X35275Y-20314D01*
X34133Y-20039D02*
X35000Y-20039D01*
X34015Y-20157D02*
X34133Y-20039D01*
X34015Y-20708D02*
X34015Y-20157D01*
X33740Y-20984D02*
X34015Y-20708D01*
X33015Y-20984D02*
X33740Y-20984D01*
X33543Y-30196D02*
X33543Y-30511D01*
X33228Y-29881D02*
X33543Y-30196D01*
X33228Y-26102D02*
X33228Y-29881D01*
X33858Y-25472D02*
X33228Y-26102D01*
X34566Y-25472D02*
X33858Y-25472D01*
X34685Y-25354D02*
X34566Y-25472D01*
X32500Y-21500D02*
X32244Y-21755D01*
X32244Y-21755D02*
X32244Y-22322D01*
X34488Y-24803D02*
X34488Y-25196D01*
X35551Y-22874D02*
X35551Y-23582D01*
X35551Y-23582D02*
X34724Y-24409D01*
X34724Y-24409D02*
X34724Y-24566D01*
X34724Y-24566D02*
X34488Y-24803D01*
X33500Y-21500D02*
X33976Y-21023D01*
X35118Y-21338D02*
X35118Y-22440D01*
X34803Y-21023D02*
X35118Y-21338D01*
X33976Y-21023D02*
X34803Y-21023D01*
X35118Y-22440D02*
X35551Y-22874D01*
X33188Y-30157D02*
X33188Y-30826D01*
X32952Y-29921D02*
X33188Y-30157D01*
X32637Y-29921D02*
X32952Y-29921D01*
X32322Y-29606D02*
X32637Y-29921D01*
X32322Y-29094D02*
X32322Y-29606D01*
X32559Y-28858D02*
X32322Y-29094D01*
X32598Y-28858D02*
X32559Y-28858D01*
X32992Y-28464D02*
X32598Y-28858D01*
X32992Y-26062D02*
X32992Y-28464D01*
X33740Y-25314D02*
X32992Y-26062D01*
X34370Y-25314D02*
X33740Y-25314D01*
X34488Y-25196D02*
X34370Y-25314D01*
X33500Y-21500D02*
X33188Y-21811D01*
X33188Y-21811D02*
X33188Y-22283D01*
X34500Y-22059D02*
X34500Y-21500D01*
X34330Y-24724D02*
X34330Y-25039D01*
X34566Y-24488D02*
X34330Y-24724D01*
X34566Y-24330D02*
X34566Y-24488D01*
X35393Y-23503D02*
X34566Y-24330D01*
X35393Y-22952D02*
X35393Y-23503D01*
X34500Y-22059D02*
X35393Y-22952D01*
X32755Y-30275D02*
X32172Y-29692D01*
X32172Y-29692D02*
X32172Y-28968D01*
X32172Y-28968D02*
X32834Y-28307D01*
X32834Y-28307D02*
X32834Y-25826D01*
X32834Y-25826D02*
X33503Y-25157D01*
X33503Y-25157D02*
X34212Y-25157D01*
X34212Y-25157D02*
X34330Y-25039D01*
X32755Y-30787D02*
X32755Y-30275D01*
X32716Y-30826D02*
X32755Y-30787D01*
X34500Y-21500D02*
X34094Y-21905D01*
X34094Y-21905D02*
X34094Y-22322D01*
G54D28*
X34803Y-27047D02*
X34921Y-27047D01*
X36062Y-28818D02*
X35787Y-29094D01*
X36062Y-28188D02*
X36062Y-28818D01*
X34921Y-27047D02*
X36062Y-28188D01*
G54D27*
X35944Y-28937D02*
X35787Y-29094D01*
G54D28*
X34803Y-27047D02*
X34803Y-27086D01*
G54D27*
X34803Y-27047D02*
X34803Y-27244D01*
X35826Y-29055D02*
X35787Y-29094D01*
X43732Y-34731D02*
X44165Y-34731D01*
X39574Y-34731D02*
X39559Y-34716D01*
X39559Y-34716D02*
X39173Y-34330D01*
X39173Y-34330D02*
X38425Y-34330D01*
X41676Y-34731D02*
X43732Y-34731D01*
X37952Y-33307D02*
X37952Y-33858D01*
X38425Y-34330D02*
X37952Y-33858D01*
X41676Y-34731D02*
X39574Y-34731D01*
X44165Y-34731D02*
X44291Y-34606D01*
X43700Y-34881D02*
X44094Y-34881D01*
X38346Y-34488D02*
X39055Y-34488D01*
X37244Y-33385D02*
X38346Y-34488D01*
X37244Y-33464D02*
X37244Y-33385D01*
X41574Y-34881D02*
X43700Y-34881D01*
X39448Y-34881D02*
X39055Y-34488D01*
X41574Y-34881D02*
X39448Y-34881D01*
X44094Y-34881D02*
X44291Y-35078D01*
G54D29*
X31220Y-28897D02*
X31299Y-28818D01*
X31299Y-28818D02*
X31535Y-28818D01*
X31811Y-28543D02*
X31535Y-28818D01*
X31220Y-29724D02*
X31220Y-28897D01*
X32007Y-30511D02*
X31220Y-29724D01*
X31811Y-28543D02*
X31811Y-27204D01*
G54D27*
X31811Y-27204D02*
X31653Y-27047D01*
G54D29*
X36889Y-29094D02*
X36889Y-29921D01*
X36889Y-29094D02*
X37755Y-29094D01*
G54D28*
X36889Y-29094D02*
X36889Y-28228D01*
G54D27*
X40984Y-28897D02*
X40905Y-28818D01*
X40905Y-28622D02*
X40551Y-28267D01*
X40905Y-28818D02*
X40905Y-28622D01*
X40551Y-28267D02*
X40551Y-28307D01*
X42125Y-28779D02*
X42125Y-28346D01*
X42007Y-28897D02*
X42125Y-28779D01*
X40984Y-28897D02*
X42007Y-28897D01*
X36535Y-31220D02*
X36377Y-31220D01*
X35826Y-31771D02*
X35826Y-31889D01*
X36377Y-31220D02*
X35826Y-31771D01*
X38503Y-31417D02*
X37244Y-31417D01*
X38543Y-31377D02*
X38503Y-31417D01*
X38543Y-30826D02*
X38543Y-31377D01*
X37047Y-31220D02*
X36535Y-31220D01*
X37244Y-31417D02*
X37047Y-31220D01*
X36181Y-27125D02*
X36181Y-26732D01*
X36299Y-27244D02*
X36181Y-27125D01*
X36181Y-26732D02*
X36023Y-26732D01*
X36377Y-25157D02*
X35905Y-25157D01*
X35866Y-26732D02*
X36181Y-26732D01*
X35708Y-26574D02*
X35866Y-26732D01*
X35708Y-25354D02*
X35708Y-26574D01*
X35905Y-25157D02*
X35708Y-25354D01*
X40826Y-32834D02*
X41692Y-32834D01*
X40866Y-32874D02*
X40826Y-32834D01*
X31811Y-29763D02*
X31811Y-29370D01*
X32007Y-29960D02*
X31811Y-29763D01*
X31535Y-23149D02*
X31535Y-23346D01*
X31535Y-23346D02*
X31811Y-23622D01*
X32244Y-23149D02*
X32244Y-23464D01*
X32322Y-23543D02*
X32716Y-23543D01*
X32244Y-23464D02*
X32322Y-23543D01*
G54D28*
X32322Y-23149D02*
X32244Y-23149D01*
G54D27*
X37007Y-23110D02*
X37007Y-22519D01*
G54D29*
X43149Y-22795D02*
X43149Y-23503D01*
G54D27*
X43149Y-23503D02*
X42992Y-23661D01*
G54D29*
X42120Y-23645D02*
X42976Y-23645D01*
G54D27*
X42976Y-23645D02*
X42992Y-23661D01*
X41968Y-35826D02*
X41968Y-35866D01*
X41929Y-35787D02*
X41968Y-35826D01*
X44015Y-36496D02*
X43543Y-36496D01*
X43543Y-36496D02*
X43307Y-36259D01*
X44015Y-35669D02*
X44094Y-35590D01*
X44094Y-35590D02*
X45000Y-35590D01*
X45000Y-35196D02*
X45000Y-35590D01*
X33188Y-23110D02*
X33464Y-23385D01*
X34094Y-23149D02*
X34251Y-23307D01*
X34251Y-23307D02*
X34251Y-23385D01*
X31456Y-25118D02*
X31417Y-25157D01*
X31417Y-25157D02*
X31377Y-25118D01*
X31377Y-25118D02*
X31220Y-25118D01*
X31259Y-25000D02*
X31417Y-25157D01*
X31338Y-24488D02*
X31417Y-24488D01*
X31456Y-24488D02*
X31417Y-24488D01*
X31417Y-24488D02*
X31220Y-24488D01*
X37125Y-38031D02*
X40031Y-38031D01*
X34330Y-36417D02*
X34370Y-36456D01*
X34370Y-36456D02*
X36574Y-36456D01*
X36574Y-36456D02*
X36968Y-36850D01*
X36968Y-36850D02*
X36968Y-37874D01*
X36968Y-37874D02*
X37125Y-38031D01*
X36535Y-33307D02*
X36535Y-33110D01*
X34291Y-33149D02*
X34133Y-33307D01*
X34921Y-33149D02*
X34291Y-33149D01*
X35157Y-32913D02*
X34921Y-33149D01*
X36338Y-32913D02*
X35157Y-32913D01*
X36535Y-33110D02*
X36338Y-32913D01*
X40031Y-38031D02*
X40500Y-38500D01*
X34527Y-34566D02*
X37559Y-34566D01*
X37559Y-34566D02*
X37755Y-34370D01*
X34291Y-34330D02*
X34527Y-34566D01*
X34291Y-34330D02*
X34291Y-33582D01*
X34291Y-33582D02*
X34566Y-33307D01*
X34566Y-33307D02*
X35826Y-33307D01*
X45708Y-29685D02*
X45708Y-28897D01*
X47035Y-28464D02*
X47500Y-28000D01*
X46141Y-28464D02*
X47035Y-28464D01*
X45708Y-28897D02*
X46141Y-28464D01*
X41889Y-30118D02*
X41889Y-30157D01*
X38543Y-27519D02*
X38543Y-27559D01*
X38503Y-27480D02*
X38543Y-27519D01*
X40748Y-29291D02*
X40748Y-29094D01*
X40433Y-28779D02*
X40039Y-28779D01*
X40748Y-29094D02*
X40433Y-28779D01*
X40748Y-29212D02*
X40039Y-29212D01*
G54D28*
X43503Y-34015D02*
X43464Y-33976D01*
X40433Y-33661D02*
X40433Y-32401D01*
X40748Y-33976D02*
X40433Y-33661D01*
X42834Y-33976D02*
X40748Y-33976D01*
X40433Y-32401D02*
X40826Y-32007D01*
X43464Y-33976D02*
X42834Y-33976D01*
G54D29*
X42322Y-36692D02*
X42519Y-36496D01*
X42519Y-36496D02*
X42519Y-35314D01*
X41968Y-36692D02*
X42322Y-36692D01*
X43562Y-33956D02*
X44468Y-33956D01*
X43503Y-34015D02*
X43562Y-33956D01*
G54D28*
X42204Y-22755D02*
X42734Y-22225D01*
X44745Y-22225D02*
X42734Y-22225D01*
G54D27*
X44763Y-22244D02*
X44745Y-22225D01*
X44763Y-22795D02*
X44763Y-22244D01*
G54D28*
X40005Y-22829D02*
X40005Y-23645D01*
X40078Y-22755D02*
X40005Y-22829D01*
X42204Y-22755D02*
X40078Y-22755D01*
X30783Y-22716D02*
X34606Y-22716D01*
X34606Y-22716D02*
X34960Y-23070D01*
X30500Y-23000D02*
X30783Y-22716D01*
G54D27*
X36181Y-22716D02*
X36181Y-22834D01*
G54D28*
X36574Y-22322D02*
X36181Y-22716D01*
G54D29*
X40157Y-31377D02*
X40236Y-31456D01*
X40236Y-31456D02*
X40236Y-31496D01*
X40236Y-31496D02*
X40787Y-32047D01*
X40787Y-32047D02*
X40826Y-32007D01*
X39370Y-30826D02*
X39921Y-31377D01*
X39921Y-31377D02*
X40157Y-31377D01*
X38307Y-27007D02*
X38307Y-27047D01*
X37795Y-27559D02*
X38307Y-27047D01*
G54D27*
X37795Y-27559D02*
X37755Y-27559D01*
G54D29*
X38110Y-25984D02*
X38110Y-26338D01*
G54D27*
X39606Y-27086D02*
X39606Y-27047D01*
G54D28*
X40984Y-27086D02*
X39606Y-27086D01*
X41299Y-27401D02*
X41299Y-28346D01*
X40984Y-27086D02*
X41299Y-27401D01*
G54D27*
X39606Y-27047D02*
X39566Y-27007D01*
G54D29*
X38897Y-27007D02*
X38307Y-27007D01*
X38307Y-26535D02*
X38307Y-27007D01*
X38110Y-26338D02*
X38307Y-26535D01*
X38464Y-28937D02*
X38464Y-29881D01*
X39370Y-30314D02*
X39370Y-30826D01*
X39173Y-30118D02*
X39370Y-30314D01*
X38700Y-30118D02*
X39173Y-30118D01*
X38464Y-29881D02*
X38700Y-30118D01*
G54D28*
X29133Y-36614D02*
X31338Y-36614D01*
G54D27*
X28976Y-36456D02*
X29133Y-36614D01*
X30944Y-34330D02*
X30787Y-34488D01*
X34645Y-31023D02*
X34370Y-31299D01*
X34370Y-31299D02*
X31220Y-31299D01*
X31220Y-31299D02*
X30984Y-31535D01*
G54D28*
X30984Y-31535D02*
X30984Y-32677D01*
G54D27*
X30984Y-32677D02*
X30944Y-32716D01*
X30944Y-32716D02*
X30944Y-34330D01*
X34645Y-30314D02*
X34645Y-31023D01*
X28976Y-35590D02*
X28976Y-36456D01*
X29094Y-35472D02*
X28976Y-35590D01*
X29724Y-35472D02*
X29094Y-35472D01*
X30039Y-35157D02*
X29724Y-35472D01*
X30039Y-34606D02*
X30039Y-35157D01*
X30157Y-34488D02*
X30039Y-34606D01*
X30787Y-34488D02*
X30157Y-34488D01*
G54D28*
X31500Y-36775D02*
X31500Y-37500D01*
X31338Y-36614D02*
X31500Y-36775D01*
G54D29*
X46500Y-32000D02*
X45755Y-32000D01*
X45755Y-32000D02*
X45433Y-32322D01*
X45433Y-32322D02*
X45433Y-32992D01*
X45433Y-32992D02*
X44468Y-33956D01*
G54D27*
X44763Y-22795D02*
X44763Y-22362D01*
X44763Y-22362D02*
X44803Y-22322D01*
G54D29*
X41968Y-36692D02*
X41968Y-37468D01*
G54D27*
X41968Y-37468D02*
X42000Y-37500D01*
X37913Y-23110D02*
X37834Y-23110D01*
X34645Y-30314D02*
X34645Y-29921D01*
G54D28*
X34881Y-29685D02*
X35866Y-29685D01*
X34645Y-29921D02*
X34881Y-29685D01*
G54D27*
X38110Y-25157D02*
X38110Y-25236D01*
X38188Y-25078D02*
X38110Y-25157D01*
X38503Y-28897D02*
X38464Y-28937D01*
G54D29*
X38740Y-28897D02*
X38503Y-28897D01*
X37362Y-25984D02*
X36377Y-25984D01*
X43000Y-37500D02*
X44000Y-37500D01*
X42000Y-37500D02*
X43000Y-37500D01*
X41692Y-32007D02*
X40826Y-32007D01*
G54D27*
X37795Y-28267D02*
X37755Y-28267D01*
G54D29*
X38464Y-28937D02*
X37795Y-28267D01*
G54D27*
X39370Y-31023D02*
X39370Y-30511D01*
G54D29*
X38818Y-23661D02*
X39251Y-23661D01*
X38385Y-24094D02*
X38818Y-23661D01*
G54D27*
X38110Y-25944D02*
X38110Y-25984D01*
X38110Y-26062D02*
X38031Y-25984D01*
X37401Y-25984D02*
X37362Y-26023D01*
G54D29*
X38031Y-25984D02*
X37401Y-25984D01*
X38110Y-26062D02*
X38110Y-25314D01*
X37755Y-28267D02*
X37755Y-27559D01*
X40005Y-23645D02*
X39267Y-23645D01*
G54D27*
X39267Y-23645D02*
X39251Y-23661D01*
G54D29*
X44566Y-28582D02*
X44330Y-28346D01*
X45644Y-31600D02*
X45551Y-31692D01*
X45551Y-31692D02*
X45157Y-31692D01*
X45157Y-31692D02*
X44566Y-31102D01*
X44566Y-31102D02*
X44566Y-28582D01*
X45900Y-31600D02*
X45644Y-31600D01*
X44330Y-28346D02*
X42913Y-28346D01*
X46500Y-31000D02*
X45900Y-31600D01*
X43070Y-28503D02*
X42913Y-28346D01*
X45222Y-32007D02*
X45629Y-31600D01*
X41692Y-33622D02*
X44291Y-33622D01*
X45037Y-32876D02*
X44291Y-33622D01*
X45037Y-32192D02*
X45222Y-32007D01*
X45037Y-32876D02*
X45037Y-32192D01*
X45629Y-31600D02*
X45900Y-31600D01*
G54D28*
X32440Y-26062D02*
X32440Y-26496D01*
X32440Y-26062D02*
X32283Y-25905D01*
X32283Y-25905D02*
X31338Y-25905D01*
X31000Y-25566D02*
X31000Y-24500D01*
X31338Y-25905D02*
X31000Y-25566D01*
X31000Y-24500D02*
X30500Y-24000D01*
X32440Y-26496D02*
X32519Y-26574D01*
G54D29*
X44079Y-25220D02*
X44300Y-25441D01*
X42913Y-27677D02*
X42913Y-28346D01*
X44295Y-26295D02*
X42913Y-27677D01*
X43937Y-23110D02*
X43503Y-23543D01*
X43503Y-23543D02*
X43503Y-24803D01*
X43503Y-24803D02*
X43700Y-25000D01*
X43700Y-25000D02*
X43858Y-25000D01*
X43858Y-25000D02*
X44079Y-25220D01*
X44300Y-25441D02*
X44300Y-26290D01*
G54D28*
X44300Y-26290D02*
X44295Y-26295D01*
X36259Y-30314D02*
X37165Y-30314D01*
X37165Y-30314D02*
X37519Y-29960D01*
G54D27*
X37519Y-29960D02*
X37716Y-29921D01*
X30039Y-31614D02*
X30039Y-34094D01*
X29015Y-35275D02*
X28818Y-35472D01*
X28818Y-35472D02*
X28818Y-36811D01*
X28818Y-36811D02*
X28897Y-36889D01*
X29015Y-34566D02*
X29015Y-35275D01*
X34291Y-30866D02*
X34015Y-31141D01*
X34606Y-29566D02*
X34291Y-29881D01*
X34291Y-29881D02*
X34291Y-30866D01*
X35118Y-25787D02*
X34960Y-25944D01*
X34606Y-28740D02*
X34606Y-29566D01*
X33543Y-27677D02*
X34606Y-28740D01*
X33543Y-26614D02*
X33543Y-27677D01*
X34212Y-25944D02*
X33543Y-26614D01*
X34960Y-25944D02*
X34212Y-25944D01*
X29212Y-34370D02*
X29015Y-34566D01*
X29763Y-34370D02*
X29212Y-34370D01*
X30039Y-34094D02*
X29763Y-34370D01*
X30157Y-31496D02*
X30039Y-31614D01*
X30708Y-31496D02*
X30157Y-31496D01*
X31062Y-31141D02*
X30708Y-31496D01*
X34015Y-31141D02*
X31062Y-31141D01*
G54D28*
X44000Y-21500D02*
X44000Y-21881D01*
X44000Y-21881D02*
X44087Y-21968D01*
X36377Y-24370D02*
X37165Y-23582D01*
X39488Y-22795D02*
X39883Y-22400D01*
X39488Y-22913D02*
X39488Y-22795D01*
X39291Y-23110D02*
X39488Y-22913D01*
X38858Y-23110D02*
X39291Y-23110D01*
X38385Y-23582D02*
X38858Y-23110D01*
X37165Y-23582D02*
X38385Y-23582D01*
G54D27*
X36417Y-30314D02*
X36259Y-30314D01*
X37559Y-29921D02*
X37716Y-29921D01*
X37519Y-29960D02*
X37559Y-29921D01*
G54D28*
X37716Y-29921D02*
X37716Y-30787D01*
G54D27*
X37716Y-30787D02*
X37755Y-30826D01*
X37716Y-29803D02*
X37716Y-29921D01*
X37755Y-29763D02*
X37716Y-29803D01*
G54D28*
X35829Y-24370D02*
X35118Y-25081D01*
X35118Y-25081D02*
X35118Y-25787D01*
X36377Y-24370D02*
X35829Y-24370D01*
G54D27*
X43937Y-22795D02*
X43937Y-23110D01*
G54D29*
X43937Y-23110D02*
X44251Y-23425D01*
X44251Y-23425D02*
X45074Y-23425D01*
X45074Y-23425D02*
X45236Y-23263D01*
X45236Y-23263D02*
X45236Y-22244D01*
G54D28*
X45236Y-22244D02*
X44960Y-21968D01*
X44960Y-21968D02*
X44087Y-21968D01*
X44087Y-21968D02*
X42440Y-21968D01*
X42440Y-21968D02*
X42165Y-22244D01*
X42165Y-22244D02*
X42165Y-22334D01*
X42165Y-22334D02*
X42100Y-22400D01*
X42100Y-22400D02*
X39883Y-22400D01*
G54D27*
X36535Y-24448D02*
X36496Y-24448D01*
X35433Y-30314D02*
X35433Y-30669D01*
G54D28*
X35078Y-31338D02*
X34527Y-31889D01*
X35078Y-31023D02*
X35078Y-31338D01*
X35433Y-30669D02*
X35078Y-31023D01*
G54D27*
X33500Y-34051D02*
X33500Y-33500D01*
X33937Y-34488D02*
X33500Y-34051D01*
X33937Y-35362D02*
X33937Y-34488D01*
X33788Y-35511D02*
X33937Y-35362D01*
X29988Y-35511D02*
X33788Y-35511D01*
X29500Y-36000D02*
X29988Y-35511D01*
G54D28*
X33543Y-32204D02*
X33543Y-33456D01*
G54D27*
X33543Y-33456D02*
X33500Y-33500D01*
G54D28*
X34527Y-31889D02*
X33858Y-31889D01*
G54D27*
X33858Y-31889D02*
X33543Y-32204D01*
X39000Y-33433D02*
X39448Y-32984D01*
X39842Y-30039D02*
X40039Y-30039D01*
X39448Y-32984D02*
X39448Y-31653D01*
X43543Y-25472D02*
X43779Y-25472D01*
X43543Y-25472D02*
X42795Y-25472D01*
X39330Y-29094D02*
X39330Y-29803D01*
X39566Y-30039D02*
X40039Y-30039D01*
X39330Y-29803D02*
X39566Y-30039D01*
X40669Y-30039D02*
X40748Y-30039D01*
X40039Y-30039D02*
X40748Y-30039D01*
G54D29*
X47500Y-31000D02*
X47500Y-32000D01*
X29500Y-23000D02*
X29500Y-24000D01*
G54D27*
X41614Y-34409D02*
X40944Y-34409D01*
X40000Y-32834D02*
X40000Y-34133D01*
X40000Y-34133D02*
X40236Y-34370D01*
X42559Y-34527D02*
X43425Y-34527D01*
X40275Y-34015D02*
X40433Y-34173D01*
X40433Y-34173D02*
X42204Y-34173D01*
X42204Y-34173D02*
X42559Y-34527D01*
X39685Y-34015D02*
X40275Y-34015D01*
X44881Y-34251D02*
X45000Y-34370D01*
X43700Y-34251D02*
X44881Y-34251D01*
X43425Y-34527D02*
X43700Y-34251D01*
X37952Y-35354D02*
X37952Y-36141D01*
X37952Y-36141D02*
X38385Y-36574D01*
X38385Y-36574D02*
X40354Y-36574D01*
X40354Y-36574D02*
X40669Y-36889D01*
X43700Y-32519D02*
X43700Y-32204D01*
X34763Y-34015D02*
X34763Y-33897D01*
X36141Y-33661D02*
X36614Y-34133D01*
X35000Y-33661D02*
X36141Y-33661D01*
X34763Y-33897D02*
X35000Y-33661D01*
X33897Y-27755D02*
X33897Y-26850D01*
X34645Y-28503D02*
X33897Y-27755D01*
X34803Y-28503D02*
X34645Y-28503D01*
X35669Y-28503D02*
X34803Y-28503D01*
X36417Y-29645D02*
X36417Y-28464D01*
X36338Y-28385D02*
X36417Y-28464D01*
X36850Y-27440D02*
X36338Y-27952D01*
X36850Y-27440D02*
X36968Y-27440D01*
X36338Y-27952D02*
X36338Y-28385D01*
X37125Y-30866D02*
X37125Y-30669D01*
X37125Y-30669D02*
X37244Y-30551D01*
X35708Y-31220D02*
X35708Y-30944D01*
X35866Y-30787D02*
X35866Y-30118D01*
X35708Y-30944D02*
X35866Y-30787D01*
X36338Y-29566D02*
X36417Y-29645D01*
X37007Y-26732D02*
X37007Y-27401D01*
X37007Y-27401D02*
X36968Y-27440D01*
X32500Y-33500D02*
X32500Y-33051D01*
X31653Y-32204D02*
X32500Y-33051D01*
X45039Y-25354D02*
X44094Y-24409D01*
X44094Y-24409D02*
X44094Y-24212D01*
X45039Y-25354D02*
X45039Y-24488D01*
X45866Y-24527D02*
X45039Y-25354D01*
X47952Y-24527D02*
X45866Y-24527D01*
X45787Y-21929D02*
X46456Y-21259D01*
X45787Y-23740D02*
X45787Y-21929D01*
X45039Y-24488D02*
X45787Y-23740D01*
X47244Y-27519D02*
X47047Y-27716D01*
X47952Y-27519D02*
X47244Y-27519D01*
X41062Y-26061D02*
X41377Y-25746D01*
X41377Y-25746D02*
X41377Y-24803D01*
X28740Y-31496D02*
X28740Y-32677D01*
X28740Y-29133D02*
X28740Y-30314D01*
X28740Y-26771D02*
X28740Y-27952D01*
X28740Y-24409D02*
X28740Y-25590D01*
X28740Y-22047D02*
X28740Y-23228D01*
X28582Y-35196D02*
X28661Y-35118D01*
X28582Y-37283D02*
X28582Y-35196D01*
X28582Y-37283D02*
X28700Y-37401D01*
X39370Y-27559D02*
X39212Y-27401D01*
X39212Y-26259D02*
X38937Y-25984D01*
X39212Y-27401D02*
X39212Y-26259D01*
X32500Y-38500D02*
X31500Y-38500D01*
X32500Y-38500D02*
X32641Y-38500D01*
X32952Y-36547D02*
X33500Y-36000D01*
X32952Y-38188D02*
X32952Y-36547D01*
X32641Y-38500D02*
X32952Y-38188D01*
X40157Y-27440D02*
X40551Y-27440D01*
X39370Y-27559D02*
X40433Y-27559D01*
X40433Y-27559D02*
X40551Y-27440D01*
X34291Y-34842D02*
X34409Y-34842D01*
G54D29*
X33645Y-36000D02*
X34173Y-35472D01*
G54D27*
X34173Y-35472D02*
X34173Y-34960D01*
X34173Y-34960D02*
X34291Y-34842D01*
X33500Y-36000D02*
X33645Y-36000D01*
X34409Y-34842D02*
X34448Y-34881D01*
X30866Y-20314D02*
X29921Y-21259D01*
X30866Y-20078D02*
X30866Y-20314D01*
X44000Y-20500D02*
X43503Y-20003D01*
X43503Y-20003D02*
X43503Y-19921D01*
X41496Y-19921D02*
X39527Y-19921D01*
X37519Y-19921D02*
X35472Y-19921D01*
X46456Y-21259D02*
X45696Y-20500D01*
G54D29*
X45696Y-20500D02*
X45000Y-20500D01*
G54D27*
X47952Y-25551D02*
X47952Y-24527D01*
X47952Y-28503D02*
X47952Y-26535D01*
X47952Y-29527D02*
X47913Y-29488D01*
X47952Y-30236D02*
X47952Y-29527D01*
X47834Y-30354D02*
X47952Y-30236D01*
X47834Y-30590D02*
X47834Y-30354D01*
X47834Y-33425D02*
X47834Y-32244D01*
X47834Y-35314D02*
X47834Y-34370D01*
X44488Y-38976D02*
X45669Y-38976D01*
X41141Y-38976D02*
X42519Y-38976D01*
X37007Y-38976D02*
X38976Y-38976D01*
X33070Y-38976D02*
X35039Y-38976D01*
X31102Y-38976D02*
X31889Y-38976D01*
X45000Y-34370D02*
X45000Y-33976D01*
X45000Y-33976D02*
X45039Y-33937D01*
X37244Y-24291D02*
X37165Y-24370D01*
X37480Y-24291D02*
X37244Y-24291D01*
X37598Y-24173D02*
X37480Y-24291D01*
X37598Y-23937D02*
X37598Y-24173D01*
X37362Y-24566D02*
X37362Y-25157D01*
X37165Y-24370D02*
X37362Y-24566D01*
X33976Y-24015D02*
X34370Y-24015D01*
X33976Y-24015D02*
X33937Y-23976D01*
X34370Y-24015D02*
X34842Y-23543D01*
X33937Y-24685D02*
X33937Y-23976D01*
X31500Y-38500D02*
X30625Y-38500D01*
X30625Y-38500D02*
X29921Y-37795D01*
X34527Y-32716D02*
X34527Y-32598D01*
X35708Y-31417D02*
X35708Y-31220D01*
X34527Y-32598D02*
X35708Y-31417D01*
X34763Y-34015D02*
X34763Y-33779D01*
X34763Y-33779D02*
X34724Y-33740D01*
X34527Y-32677D02*
X34527Y-32716D01*
X40000Y-32834D02*
X39842Y-31889D01*
X39842Y-31889D02*
X39960Y-31771D01*
G54D29*
X43000Y-38500D02*
X42000Y-38500D01*
X44000Y-38500D02*
X43000Y-38500D01*
G54D27*
X40000Y-33700D02*
X40000Y-32834D01*
X39685Y-34015D02*
X40000Y-33700D01*
X38661Y-34015D02*
X39685Y-34015D01*
X35669Y-31023D02*
X35708Y-31062D01*
X35708Y-31062D02*
X35708Y-31220D01*
X43700Y-32204D02*
X43700Y-31338D01*
X43700Y-31338D02*
X43346Y-30984D01*
X43700Y-29212D02*
X43700Y-30669D01*
X43346Y-30984D02*
X40118Y-30984D01*
X43385Y-30984D02*
X43346Y-30984D01*
X43700Y-30669D02*
X43385Y-30984D01*
X37007Y-26732D02*
X37755Y-26732D01*
X39251Y-24488D02*
X39645Y-24488D01*
X41062Y-25236D02*
X41062Y-26061D01*
X40826Y-25000D02*
X41062Y-25236D01*
X40157Y-25000D02*
X40826Y-25000D01*
X39645Y-24488D02*
X40157Y-25000D01*
X42992Y-24488D02*
X42795Y-24488D01*
X42795Y-24488D02*
X42322Y-24960D01*
X42322Y-24960D02*
X41299Y-24960D01*
X41299Y-24960D02*
X41062Y-25196D01*
X41062Y-25196D02*
X41062Y-26061D01*
X39251Y-24488D02*
X38503Y-24488D01*
X38503Y-24488D02*
X38385Y-24606D01*
X37362Y-24921D02*
X37362Y-25157D01*
X37677Y-24606D02*
X37362Y-24921D01*
X38937Y-25236D02*
X38937Y-25984D01*
X38385Y-24606D02*
X38385Y-24685D01*
X38385Y-24685D02*
X38937Y-25236D01*
G54D29*
X32500Y-36000D02*
X33500Y-36000D01*
X31500Y-36000D02*
X32500Y-36000D01*
X30500Y-36000D02*
X31500Y-36000D01*
G54D10*
G36*
X32777Y-34022D02*
X32710Y-34088D01*
X32644Y-34155D01*
X31893Y-34155D01*
X31889Y-34146D01*
X31798Y-34055D01*
X31679Y-34005D01*
X31549Y-34005D01*
X31430Y-34055D01*
X31338Y-34146D01*
X31289Y-34265D01*
X31289Y-34395D01*
X31338Y-34514D01*
X31384Y-34560D01*
X31245Y-34618D01*
X31118Y-34744D01*
X31050Y-34910D01*
X31049Y-35089D01*
X31118Y-35254D01*
X31200Y-35336D01*
X30799Y-35336D01*
X30881Y-35255D01*
X30949Y-35089D01*
X30950Y-34910D01*
X30881Y-34745D01*
X30797Y-34661D01*
X30854Y-34649D01*
X30854Y-34649D01*
X30911Y-34611D01*
X31068Y-34454D01*
X31106Y-34397D01*
X31119Y-34330D01*
X31119Y-33756D01*
X31244Y-33881D01*
X31410Y-33949D01*
X31589Y-33950D01*
X31754Y-33881D01*
X31881Y-33755D01*
X31949Y-33589D01*
X31949Y-33513D01*
X31956Y-33636D01*
X32018Y-33787D01*
X32114Y-33815D01*
X32429Y-33500D01*
X32114Y-33184D01*
X32018Y-33212D01*
X31948Y-33407D01*
X31881Y-33245D01*
X31755Y-33118D01*
X31589Y-33050D01*
X31410Y-33049D01*
X31245Y-33118D01*
X31119Y-33243D01*
X31119Y-32981D01*
X31131Y-32986D01*
X31540Y-32986D01*
X31603Y-32923D01*
X31603Y-32254D01*
X31595Y-32254D01*
X31595Y-32154D01*
X31603Y-32154D01*
X31603Y-32146D01*
X31703Y-32146D01*
X31703Y-32154D01*
X31711Y-32154D01*
X31711Y-32254D01*
X31703Y-32254D01*
X31703Y-32923D01*
X31765Y-32986D01*
X32175Y-32986D01*
X32267Y-32948D01*
X32337Y-32878D01*
X32375Y-32786D01*
X32375Y-32686D01*
X32375Y-32505D01*
X32777Y-32907D01*
X32777Y-33015D01*
X32581Y-32945D01*
X32363Y-32956D01*
X32212Y-33018D01*
X32184Y-33114D01*
X32500Y-33429D01*
X32505Y-33423D01*
X32576Y-33494D01*
X32570Y-33500D01*
X32576Y-33505D01*
X32505Y-33576D01*
X32500Y-33570D01*
X32184Y-33885D01*
X32212Y-33981D01*
X32418Y-34054D01*
X32636Y-34043D01*
X32777Y-33985D01*
X32777Y-34022D01*
X32777Y-34022D01*
G37*
G54D28*
X32777Y-34022D02*
X32710Y-34088D01*
X32644Y-34155D01*
X31893Y-34155D01*
X31889Y-34146D01*
X31798Y-34055D01*
X31679Y-34005D01*
X31549Y-34005D01*
X31430Y-34055D01*
X31338Y-34146D01*
X31289Y-34265D01*
X31289Y-34395D01*
X31338Y-34514D01*
X31384Y-34560D01*
X31245Y-34618D01*
X31118Y-34744D01*
X31050Y-34910D01*
X31049Y-35089D01*
X31118Y-35254D01*
X31200Y-35336D01*
X30799Y-35336D01*
X30881Y-35255D01*
X30949Y-35089D01*
X30950Y-34910D01*
X30881Y-34745D01*
X30797Y-34661D01*
X30854Y-34649D01*
X30854Y-34649D01*
X30911Y-34611D01*
X31068Y-34454D01*
X31106Y-34397D01*
X31119Y-34330D01*
X31119Y-33756D01*
X31244Y-33881D01*
X31410Y-33949D01*
X31589Y-33950D01*
X31754Y-33881D01*
X31881Y-33755D01*
X31949Y-33589D01*
X31949Y-33513D01*
X31956Y-33636D01*
X32018Y-33787D01*
X32114Y-33815D01*
X32429Y-33500D01*
X32114Y-33184D01*
X32018Y-33212D01*
X31948Y-33407D01*
X31881Y-33245D01*
X31755Y-33118D01*
X31589Y-33050D01*
X31410Y-33049D01*
X31245Y-33118D01*
X31119Y-33243D01*
X31119Y-32981D01*
X31131Y-32986D01*
X31540Y-32986D01*
X31603Y-32923D01*
X31603Y-32254D01*
X31595Y-32254D01*
X31595Y-32154D01*
X31603Y-32154D01*
X31603Y-32146D01*
X31703Y-32146D01*
X31703Y-32154D01*
X31711Y-32154D01*
X31711Y-32254D01*
X31703Y-32254D01*
X31703Y-32923D01*
X31765Y-32986D01*
X32175Y-32986D01*
X32267Y-32948D01*
X32337Y-32878D01*
X32375Y-32786D01*
X32375Y-32686D01*
X32375Y-32505D01*
X32777Y-32907D01*
X32777Y-33015D01*
X32581Y-32945D01*
X32363Y-32956D01*
X32212Y-33018D01*
X32184Y-33114D01*
X32500Y-33429D01*
X32505Y-33423D01*
X32576Y-33494D01*
X32570Y-33500D01*
X32576Y-33505D01*
X32505Y-33576D01*
X32500Y-33570D01*
X32184Y-33885D01*
X32212Y-33981D01*
X32418Y-34054D01*
X32636Y-34043D01*
X32777Y-33985D01*
X32777Y-34022D01*
G54D10*
G36*
X35218Y-23431D02*
X34443Y-24206D01*
X34405Y-24263D01*
X34391Y-24330D01*
X34391Y-24415D01*
X34383Y-24423D01*
X34383Y-24410D01*
X34350Y-24330D01*
X34383Y-24251D01*
X34383Y-24151D01*
X34383Y-24088D01*
X34321Y-24026D01*
X33987Y-24026D01*
X33987Y-24272D01*
X33987Y-24388D01*
X33987Y-24635D01*
X33994Y-24635D01*
X33994Y-24735D01*
X33987Y-24735D01*
X33987Y-24742D01*
X33887Y-24742D01*
X33887Y-24735D01*
X33887Y-24635D01*
X33887Y-24388D01*
X33887Y-24272D01*
X33887Y-24026D01*
X33552Y-24026D01*
X33490Y-24088D01*
X33490Y-24151D01*
X33490Y-24251D01*
X33523Y-24330D01*
X33490Y-24410D01*
X33490Y-24509D01*
X33490Y-24572D01*
X33552Y-24635D01*
X33887Y-24635D01*
X33887Y-24735D01*
X33552Y-24735D01*
X33490Y-24797D01*
X33490Y-24860D01*
X33490Y-24959D01*
X33499Y-24983D01*
X33436Y-24995D01*
X33426Y-25002D01*
X33434Y-24995D01*
X33457Y-24940D01*
X33457Y-24880D01*
X33457Y-24430D01*
X33434Y-24375D01*
X33392Y-24332D01*
X33386Y-24330D01*
X33391Y-24328D01*
X33434Y-24286D01*
X33457Y-24231D01*
X33457Y-24171D01*
X33457Y-23721D01*
X33452Y-23710D01*
X33490Y-23710D01*
X33490Y-23800D01*
X33490Y-23863D01*
X33552Y-23926D01*
X33887Y-23926D01*
X33887Y-23563D01*
X33824Y-23501D01*
X33768Y-23501D01*
X33781Y-23470D01*
X33784Y-23473D01*
X33839Y-23496D01*
X33899Y-23496D01*
X33946Y-23496D01*
X33976Y-23569D01*
X33987Y-23580D01*
X33987Y-23926D01*
X34321Y-23926D01*
X34383Y-23863D01*
X34383Y-23800D01*
X34383Y-23701D01*
X34377Y-23685D01*
X34435Y-23661D01*
X34527Y-23570D01*
X34576Y-23450D01*
X34577Y-23321D01*
X34527Y-23201D01*
X34469Y-23143D01*
X34469Y-22923D01*
X34466Y-22916D01*
X34523Y-22916D01*
X34635Y-23028D01*
X34635Y-23135D01*
X34684Y-23254D01*
X34776Y-23346D01*
X34895Y-23395D01*
X35024Y-23395D01*
X35144Y-23346D01*
X35218Y-23272D01*
X35218Y-23431D01*
X35218Y-23431D01*
G37*
G54D28*
X35218Y-23431D02*
X34443Y-24206D01*
X34405Y-24263D01*
X34391Y-24330D01*
X34391Y-24415D01*
X34383Y-24423D01*
X34383Y-24410D01*
X34350Y-24330D01*
X34383Y-24251D01*
X34383Y-24151D01*
X34383Y-24088D01*
X34321Y-24026D01*
X33987Y-24026D01*
X33987Y-24272D01*
X33987Y-24388D01*
X33987Y-24635D01*
X33994Y-24635D01*
X33994Y-24735D01*
X33987Y-24735D01*
X33987Y-24742D01*
X33887Y-24742D01*
X33887Y-24735D01*
X33887Y-24635D01*
X33887Y-24388D01*
X33887Y-24272D01*
X33887Y-24026D01*
X33552Y-24026D01*
X33490Y-24088D01*
X33490Y-24151D01*
X33490Y-24251D01*
X33523Y-24330D01*
X33490Y-24410D01*
X33490Y-24509D01*
X33490Y-24572D01*
X33552Y-24635D01*
X33887Y-24635D01*
X33887Y-24735D01*
X33552Y-24735D01*
X33490Y-24797D01*
X33490Y-24860D01*
X33490Y-24959D01*
X33499Y-24983D01*
X33436Y-24995D01*
X33426Y-25002D01*
X33434Y-24995D01*
X33457Y-24940D01*
X33457Y-24880D01*
X33457Y-24430D01*
X33434Y-24375D01*
X33392Y-24332D01*
X33386Y-24330D01*
X33391Y-24328D01*
X33434Y-24286D01*
X33457Y-24231D01*
X33457Y-24171D01*
X33457Y-23721D01*
X33452Y-23710D01*
X33490Y-23710D01*
X33490Y-23800D01*
X33490Y-23863D01*
X33552Y-23926D01*
X33887Y-23926D01*
X33887Y-23563D01*
X33824Y-23501D01*
X33768Y-23501D01*
X33781Y-23470D01*
X33784Y-23473D01*
X33839Y-23496D01*
X33899Y-23496D01*
X33946Y-23496D01*
X33976Y-23569D01*
X33987Y-23580D01*
X33987Y-23926D01*
X34321Y-23926D01*
X34383Y-23863D01*
X34383Y-23800D01*
X34383Y-23701D01*
X34377Y-23685D01*
X34435Y-23661D01*
X34527Y-23570D01*
X34576Y-23450D01*
X34577Y-23321D01*
X34527Y-23201D01*
X34469Y-23143D01*
X34469Y-22923D01*
X34466Y-22916D01*
X34523Y-22916D01*
X34635Y-23028D01*
X34635Y-23135D01*
X34684Y-23254D01*
X34776Y-23346D01*
X34895Y-23395D01*
X35024Y-23395D01*
X35144Y-23346D01*
X35218Y-23272D01*
X35218Y-23431D01*
G54D10*
G36*
X35540Y-33640D02*
X35363Y-33640D01*
X35308Y-33663D01*
X35266Y-33705D01*
X35243Y-33760D01*
X35243Y-33820D01*
X35243Y-34270D01*
X35266Y-34325D01*
X35308Y-34367D01*
X35363Y-34390D01*
X35423Y-34390D01*
X35453Y-34390D01*
X35454Y-34391D01*
X35163Y-34391D01*
X35172Y-34382D01*
X35210Y-34290D01*
X35210Y-34191D01*
X35210Y-33840D01*
X35210Y-33740D01*
X35172Y-33648D01*
X35102Y-33578D01*
X35010Y-33540D01*
X34876Y-33540D01*
X34813Y-33603D01*
X34813Y-33965D01*
X35148Y-33965D01*
X35210Y-33903D01*
X35210Y-33840D01*
X35210Y-34191D01*
X35210Y-34128D01*
X35148Y-34065D01*
X34813Y-34065D01*
X34813Y-34073D01*
X34713Y-34073D01*
X34713Y-34065D01*
X34705Y-34065D01*
X34705Y-33965D01*
X34713Y-33965D01*
X34713Y-33603D01*
X34651Y-33540D01*
X34580Y-33540D01*
X34639Y-33482D01*
X35451Y-33482D01*
X35451Y-33533D01*
X35474Y-33588D01*
X35516Y-33631D01*
X35540Y-33640D01*
X35540Y-33640D01*
G37*
G54D28*
X35540Y-33640D02*
X35363Y-33640D01*
X35308Y-33663D01*
X35266Y-33705D01*
X35243Y-33760D01*
X35243Y-33820D01*
X35243Y-34270D01*
X35266Y-34325D01*
X35308Y-34367D01*
X35363Y-34390D01*
X35423Y-34390D01*
X35453Y-34390D01*
X35454Y-34391D01*
X35163Y-34391D01*
X35172Y-34382D01*
X35210Y-34290D01*
X35210Y-34191D01*
X35210Y-33840D01*
X35210Y-33740D01*
X35172Y-33648D01*
X35102Y-33578D01*
X35010Y-33540D01*
X34876Y-33540D01*
X34813Y-33603D01*
X34813Y-33965D01*
X35148Y-33965D01*
X35210Y-33903D01*
X35210Y-33840D01*
X35210Y-34191D01*
X35210Y-34128D01*
X35148Y-34065D01*
X34813Y-34065D01*
X34813Y-34073D01*
X34713Y-34073D01*
X34713Y-34065D01*
X34705Y-34065D01*
X34705Y-33965D01*
X34713Y-33965D01*
X34713Y-33603D01*
X34651Y-33540D01*
X34580Y-33540D01*
X34639Y-33482D01*
X35451Y-33482D01*
X35451Y-33533D01*
X35474Y-33588D01*
X35516Y-33631D01*
X35540Y-33640D01*
G54D10*
G36*
X35610Y-32133D02*
X35572Y-32133D01*
X35516Y-32156D01*
X35474Y-32198D01*
X35451Y-32253D01*
X35451Y-32313D01*
X35451Y-32706D01*
X35464Y-32738D01*
X35157Y-32738D01*
X35090Y-32751D01*
X35033Y-32789D01*
X35002Y-32820D01*
X35002Y-32470D01*
X34964Y-32378D01*
X34894Y-32307D01*
X34802Y-32269D01*
X34703Y-32269D01*
X34640Y-32269D01*
X34577Y-32332D01*
X34577Y-32666D01*
X34940Y-32666D01*
X35002Y-32604D01*
X35002Y-32470D01*
X35002Y-32820D01*
X34998Y-32824D01*
X34940Y-32766D01*
X34577Y-32766D01*
X34577Y-32774D01*
X34477Y-32774D01*
X34477Y-32766D01*
X34469Y-32766D01*
X34469Y-32666D01*
X34477Y-32666D01*
X34477Y-32332D01*
X34415Y-32269D01*
X34352Y-32269D01*
X34252Y-32269D01*
X34165Y-32305D01*
X34165Y-32148D01*
X34175Y-32171D01*
X34217Y-32213D01*
X34272Y-32236D01*
X34332Y-32236D01*
X34782Y-32236D01*
X34837Y-32213D01*
X34879Y-32171D01*
X34902Y-32116D01*
X34902Y-32056D01*
X34902Y-31797D01*
X35220Y-31480D01*
X35220Y-31480D01*
X35249Y-31436D01*
X35261Y-31417D01*
X35261Y-31495D01*
X35299Y-31587D01*
X35370Y-31657D01*
X35462Y-31695D01*
X35561Y-31695D01*
X35551Y-31705D01*
X35501Y-31824D01*
X35501Y-31954D01*
X35551Y-32073D01*
X35610Y-32133D01*
X35610Y-32133D01*
G37*
G54D28*
X35610Y-32133D02*
X35572Y-32133D01*
X35516Y-32156D01*
X35474Y-32198D01*
X35451Y-32253D01*
X35451Y-32313D01*
X35451Y-32706D01*
X35464Y-32738D01*
X35157Y-32738D01*
X35090Y-32751D01*
X35033Y-32789D01*
X35002Y-32820D01*
X35002Y-32470D01*
X34964Y-32378D01*
X34894Y-32307D01*
X34802Y-32269D01*
X34703Y-32269D01*
X34640Y-32269D01*
X34577Y-32332D01*
X34577Y-32666D01*
X34940Y-32666D01*
X35002Y-32604D01*
X35002Y-32470D01*
X35002Y-32820D01*
X34998Y-32824D01*
X34940Y-32766D01*
X34577Y-32766D01*
X34577Y-32774D01*
X34477Y-32774D01*
X34477Y-32766D01*
X34469Y-32766D01*
X34469Y-32666D01*
X34477Y-32666D01*
X34477Y-32332D01*
X34415Y-32269D01*
X34352Y-32269D01*
X34252Y-32269D01*
X34165Y-32305D01*
X34165Y-32148D01*
X34175Y-32171D01*
X34217Y-32213D01*
X34272Y-32236D01*
X34332Y-32236D01*
X34782Y-32236D01*
X34837Y-32213D01*
X34879Y-32171D01*
X34902Y-32116D01*
X34902Y-32056D01*
X34902Y-31797D01*
X35220Y-31480D01*
X35220Y-31480D01*
X35249Y-31436D01*
X35261Y-31417D01*
X35261Y-31495D01*
X35299Y-31587D01*
X35370Y-31657D01*
X35462Y-31695D01*
X35561Y-31695D01*
X35551Y-31705D01*
X35501Y-31824D01*
X35501Y-31954D01*
X35551Y-32073D01*
X35610Y-32133D01*
G54D10*
G36*
X35766Y-31270D02*
X35758Y-31270D01*
X35758Y-31278D01*
X35658Y-31278D01*
X35658Y-31270D01*
X35650Y-31270D01*
X35650Y-31170D01*
X35658Y-31170D01*
X35658Y-31162D01*
X35758Y-31162D01*
X35758Y-31170D01*
X35766Y-31170D01*
X35766Y-31270D01*
X35766Y-31270D01*
G37*
G54D28*
X35766Y-31270D02*
X35758Y-31270D01*
X35758Y-31278D01*
X35658Y-31278D01*
X35658Y-31270D01*
X35650Y-31270D01*
X35650Y-31170D01*
X35658Y-31170D01*
X35658Y-31162D01*
X35758Y-31162D01*
X35758Y-31170D01*
X35766Y-31170D01*
X35766Y-31270D01*
G54D10*
G36*
X35862Y-28619D02*
X35790Y-28649D01*
X35462Y-28649D01*
X35407Y-28671D01*
X35365Y-28714D01*
X35342Y-28769D01*
X35342Y-28828D01*
X35342Y-29419D01*
X35364Y-29474D01*
X35375Y-29485D01*
X34881Y-29485D01*
X34805Y-29500D01*
X34781Y-29516D01*
X34781Y-28740D01*
X34767Y-28673D01*
X34730Y-28616D01*
X33718Y-27604D01*
X33718Y-26686D01*
X34141Y-26263D01*
X34141Y-27962D01*
X34164Y-28017D01*
X34206Y-28060D01*
X34261Y-28083D01*
X34321Y-28083D01*
X35344Y-28083D01*
X35399Y-28060D01*
X35442Y-28018D01*
X35464Y-27963D01*
X35464Y-27903D01*
X35464Y-27873D01*
X35862Y-28271D01*
X35862Y-28619D01*
X35862Y-28619D01*
G37*
G54D28*
X35862Y-28619D02*
X35790Y-28649D01*
X35462Y-28649D01*
X35407Y-28671D01*
X35365Y-28714D01*
X35342Y-28769D01*
X35342Y-28828D01*
X35342Y-29419D01*
X35364Y-29474D01*
X35375Y-29485D01*
X34881Y-29485D01*
X34805Y-29500D01*
X34781Y-29516D01*
X34781Y-28740D01*
X34767Y-28673D01*
X34730Y-28616D01*
X33718Y-27604D01*
X33718Y-26686D01*
X34141Y-26263D01*
X34141Y-27962D01*
X34164Y-28017D01*
X34206Y-28060D01*
X34261Y-28083D01*
X34321Y-28083D01*
X35344Y-28083D01*
X35399Y-28060D01*
X35442Y-28018D01*
X35464Y-27963D01*
X35464Y-27903D01*
X35464Y-27873D01*
X35862Y-28271D01*
X35862Y-28619D01*
G54D10*
G36*
X35915Y-30745D02*
X35821Y-30745D01*
X35758Y-30807D01*
X35758Y-30789D01*
X35779Y-30738D01*
X35779Y-30678D01*
X35779Y-30001D01*
X35801Y-30009D01*
X35912Y-30010D01*
X35912Y-30738D01*
X35915Y-30745D01*
X35915Y-30745D01*
G37*
G54D28*
X35915Y-30745D02*
X35821Y-30745D01*
X35758Y-30807D01*
X35758Y-30789D01*
X35779Y-30738D01*
X35779Y-30678D01*
X35779Y-30001D01*
X35801Y-30009D01*
X35912Y-30010D01*
X35912Y-30738D01*
X35915Y-30745D01*
G54D10*
G36*
X36979Y-23485D02*
X36441Y-24023D01*
X35954Y-24023D01*
X35899Y-24045D01*
X35857Y-24088D01*
X35834Y-24143D01*
X35834Y-24170D01*
X35829Y-24170D01*
X35753Y-24185D01*
X35688Y-24228D01*
X35253Y-24663D01*
X35253Y-24639D01*
X35989Y-23903D01*
X36027Y-23846D01*
X36027Y-23846D01*
X36041Y-23779D01*
X36041Y-23128D01*
X36116Y-23159D01*
X36245Y-23159D01*
X36364Y-23110D01*
X36456Y-23018D01*
X36506Y-22899D01*
X36506Y-22770D01*
X36478Y-22702D01*
X36532Y-22647D01*
X36639Y-22647D01*
X36698Y-22623D01*
X36732Y-22703D01*
X36768Y-22740D01*
X36726Y-22757D01*
X36683Y-22800D01*
X36661Y-22855D01*
X36660Y-22914D01*
X36660Y-23364D01*
X36683Y-23420D01*
X36725Y-23462D01*
X36781Y-23485D01*
X36840Y-23485D01*
X36979Y-23485D01*
X36979Y-23485D01*
G37*
G54D28*
X36979Y-23485D02*
X36441Y-24023D01*
X35954Y-24023D01*
X35899Y-24045D01*
X35857Y-24088D01*
X35834Y-24143D01*
X35834Y-24170D01*
X35829Y-24170D01*
X35753Y-24185D01*
X35688Y-24228D01*
X35253Y-24663D01*
X35253Y-24639D01*
X35989Y-23903D01*
X36027Y-23846D01*
X36027Y-23846D01*
X36041Y-23779D01*
X36041Y-23128D01*
X36116Y-23159D01*
X36245Y-23159D01*
X36364Y-23110D01*
X36456Y-23018D01*
X36506Y-22899D01*
X36506Y-22770D01*
X36478Y-22702D01*
X36532Y-22647D01*
X36639Y-22647D01*
X36698Y-22623D01*
X36732Y-22703D01*
X36768Y-22740D01*
X36726Y-22757D01*
X36683Y-22800D01*
X36661Y-22855D01*
X36660Y-22914D01*
X36660Y-23364D01*
X36683Y-23420D01*
X36725Y-23462D01*
X36781Y-23485D01*
X36840Y-23485D01*
X36979Y-23485D01*
G54D10*
G36*
X37057Y-31478D02*
X37047Y-31478D01*
X36980Y-31491D01*
X36923Y-31529D01*
X36923Y-31529D01*
X36923Y-31529D01*
X36541Y-31911D01*
X36220Y-31911D01*
X36153Y-31924D01*
X36151Y-31926D01*
X36151Y-31825D01*
X36113Y-31732D01*
X36267Y-31578D01*
X36308Y-31595D01*
X36368Y-31595D01*
X36761Y-31595D01*
X36817Y-31572D01*
X36859Y-31530D01*
X36882Y-31475D01*
X36882Y-31415D01*
X36882Y-31395D01*
X36974Y-31395D01*
X37057Y-31478D01*
X37057Y-31478D01*
G37*
G54D28*
X37057Y-31478D02*
X37047Y-31478D01*
X36980Y-31491D01*
X36923Y-31529D01*
X36923Y-31529D01*
X36923Y-31529D01*
X36541Y-31911D01*
X36220Y-31911D01*
X36153Y-31924D01*
X36151Y-31926D01*
X36151Y-31825D01*
X36113Y-31732D01*
X36267Y-31578D01*
X36308Y-31595D01*
X36368Y-31595D01*
X36761Y-31595D01*
X36817Y-31572D01*
X36859Y-31530D01*
X36882Y-31475D01*
X36882Y-31415D01*
X36882Y-31395D01*
X36974Y-31395D01*
X37057Y-31478D01*
G54D10*
G36*
X37497Y-30296D02*
X37474Y-30305D01*
X37431Y-30347D01*
X37409Y-30403D01*
X37409Y-30462D01*
X37409Y-31242D01*
X37316Y-31242D01*
X37170Y-31096D01*
X37114Y-31058D01*
X37047Y-31045D01*
X36882Y-31045D01*
X36882Y-30965D01*
X36859Y-30910D01*
X36817Y-30868D01*
X36762Y-30845D01*
X36702Y-30845D01*
X36518Y-30845D01*
X36541Y-30835D01*
X36583Y-30793D01*
X36606Y-30738D01*
X36606Y-30678D01*
X36606Y-30514D01*
X37165Y-30514D01*
X37241Y-30499D01*
X37306Y-30456D01*
X37473Y-30289D01*
X37489Y-30296D01*
X37497Y-30296D01*
X37497Y-30296D01*
G37*
G54D28*
X37497Y-30296D02*
X37474Y-30305D01*
X37431Y-30347D01*
X37409Y-30403D01*
X37409Y-30462D01*
X37409Y-31242D01*
X37316Y-31242D01*
X37170Y-31096D01*
X37114Y-31058D01*
X37047Y-31045D01*
X36882Y-31045D01*
X36882Y-30965D01*
X36859Y-30910D01*
X36817Y-30868D01*
X36762Y-30845D01*
X36702Y-30845D01*
X36518Y-30845D01*
X36541Y-30835D01*
X36583Y-30793D01*
X36606Y-30738D01*
X36606Y-30678D01*
X36606Y-30514D01*
X37165Y-30514D01*
X37241Y-30499D01*
X37306Y-30456D01*
X37473Y-30289D01*
X37489Y-30296D01*
X37497Y-30296D01*
G54D10*
G36*
X37666Y-34055D02*
X37572Y-34094D01*
X37480Y-34185D01*
X37430Y-34305D01*
X37430Y-34391D01*
X36041Y-34391D01*
X36072Y-34316D01*
X36073Y-34187D01*
X36023Y-34068D01*
X35937Y-33981D01*
X35937Y-33761D01*
X35914Y-33705D01*
X35872Y-33663D01*
X35849Y-33653D01*
X36081Y-33653D01*
X36136Y-33631D01*
X36178Y-33589D01*
X36181Y-33583D01*
X36183Y-33588D01*
X36225Y-33631D01*
X36280Y-33653D01*
X36340Y-33653D01*
X36790Y-33653D01*
X36845Y-33631D01*
X36887Y-33589D01*
X36889Y-33583D01*
X36891Y-33588D01*
X36934Y-33631D01*
X36989Y-33653D01*
X37048Y-33653D01*
X37264Y-33653D01*
X37666Y-34055D01*
X37666Y-34055D01*
G37*
G54D28*
X37666Y-34055D02*
X37572Y-34094D01*
X37480Y-34185D01*
X37430Y-34305D01*
X37430Y-34391D01*
X36041Y-34391D01*
X36072Y-34316D01*
X36073Y-34187D01*
X36023Y-34068D01*
X35937Y-33981D01*
X35937Y-33761D01*
X35914Y-33705D01*
X35872Y-33663D01*
X35849Y-33653D01*
X36081Y-33653D01*
X36136Y-33631D01*
X36178Y-33589D01*
X36181Y-33583D01*
X36183Y-33588D01*
X36225Y-33631D01*
X36280Y-33653D01*
X36340Y-33653D01*
X36790Y-33653D01*
X36845Y-33631D01*
X36887Y-33589D01*
X36889Y-33583D01*
X36891Y-33588D01*
X36934Y-33631D01*
X36989Y-33653D01*
X37048Y-33653D01*
X37264Y-33653D01*
X37666Y-34055D01*
G54D10*
G36*
X39168Y-29868D02*
X38804Y-29868D01*
X38714Y-29778D01*
X38714Y-29222D01*
X38804Y-29222D01*
X38924Y-29173D01*
X38955Y-29141D01*
X38955Y-29321D01*
X38978Y-29376D01*
X39020Y-29418D01*
X39075Y-29441D01*
X39135Y-29441D01*
X39155Y-29441D01*
X39155Y-29803D01*
X39168Y-29868D01*
X39168Y-29868D01*
G37*
G54D28*
X39168Y-29868D02*
X38804Y-29868D01*
X38714Y-29778D01*
X38714Y-29222D01*
X38804Y-29222D01*
X38924Y-29173D01*
X38955Y-29141D01*
X38955Y-29321D01*
X38978Y-29376D01*
X39020Y-29418D01*
X39075Y-29441D01*
X39135Y-29441D01*
X39155Y-29441D01*
X39155Y-29803D01*
X39168Y-29868D01*
G54D10*
G36*
X41099Y-27802D02*
X41072Y-27802D01*
X41026Y-27821D01*
X41026Y-27687D01*
X41026Y-27553D01*
X40963Y-27490D01*
X40601Y-27490D01*
X40601Y-27825D01*
X40663Y-27887D01*
X40726Y-27887D01*
X40826Y-27887D01*
X40917Y-27849D01*
X40988Y-27779D01*
X41026Y-27687D01*
X41026Y-27821D01*
X41017Y-27825D01*
X40975Y-27867D01*
X40952Y-27922D01*
X40952Y-27982D01*
X40952Y-28421D01*
X40926Y-28395D01*
X40926Y-28041D01*
X40903Y-27986D01*
X40861Y-27943D01*
X40806Y-27920D01*
X40746Y-27920D01*
X40296Y-27920D01*
X40285Y-27925D01*
X40285Y-27888D01*
X40285Y-27887D01*
X40375Y-27887D01*
X40438Y-27887D01*
X40501Y-27825D01*
X40501Y-27490D01*
X40138Y-27490D01*
X40076Y-27553D01*
X40076Y-27648D01*
X40025Y-27627D01*
X39896Y-27627D01*
X39809Y-27663D01*
X39754Y-27609D01*
X39420Y-27609D01*
X39420Y-27616D01*
X39320Y-27616D01*
X39320Y-27609D01*
X38985Y-27609D01*
X38923Y-27671D01*
X38923Y-27734D01*
X38923Y-27834D01*
X38961Y-27925D01*
X39000Y-27964D01*
X38978Y-27985D01*
X38955Y-28040D01*
X38955Y-28100D01*
X38955Y-28494D01*
X38978Y-28549D01*
X39020Y-28591D01*
X39075Y-28614D01*
X39135Y-28614D01*
X39585Y-28614D01*
X39640Y-28591D01*
X39682Y-28549D01*
X39705Y-28494D01*
X39705Y-28482D01*
X39803Y-28482D01*
X39870Y-28468D01*
X39870Y-28468D01*
X39926Y-28430D01*
X40084Y-28273D01*
X40102Y-28245D01*
X40144Y-28228D01*
X40176Y-28196D01*
X40176Y-28484D01*
X40104Y-28454D01*
X39975Y-28454D01*
X39855Y-28503D01*
X39764Y-28595D01*
X39714Y-28714D01*
X39714Y-28843D01*
X39760Y-28954D01*
X39729Y-28967D01*
X39705Y-28990D01*
X39705Y-28867D01*
X39682Y-28812D01*
X39640Y-28770D01*
X39585Y-28747D01*
X39526Y-28747D01*
X39076Y-28747D01*
X39036Y-28763D01*
X39015Y-28713D01*
X38924Y-28622D01*
X38805Y-28572D01*
X38675Y-28572D01*
X38556Y-28621D01*
X38530Y-28647D01*
X38528Y-28647D01*
X38130Y-28249D01*
X38130Y-28041D01*
X38108Y-27986D01*
X38065Y-27943D01*
X38010Y-27920D01*
X38005Y-27920D01*
X38005Y-27905D01*
X38010Y-27905D01*
X38065Y-27883D01*
X38107Y-27840D01*
X38130Y-27785D01*
X38130Y-27726D01*
X38130Y-27576D01*
X38178Y-27528D01*
X38178Y-27544D01*
X38196Y-27587D01*
X38196Y-27813D01*
X38219Y-27868D01*
X38261Y-27911D01*
X38316Y-27934D01*
X38376Y-27934D01*
X38769Y-27934D01*
X38825Y-27911D01*
X38867Y-27869D01*
X38890Y-27814D01*
X38890Y-27754D01*
X38890Y-27332D01*
X38923Y-27332D01*
X38923Y-27383D01*
X38923Y-27446D01*
X38985Y-27509D01*
X39320Y-27509D01*
X39320Y-27501D01*
X39420Y-27501D01*
X39420Y-27509D01*
X39754Y-27509D01*
X39816Y-27446D01*
X39816Y-27383D01*
X39816Y-27286D01*
X40076Y-27286D01*
X40076Y-27328D01*
X40138Y-27390D01*
X40501Y-27390D01*
X40501Y-27383D01*
X40601Y-27383D01*
X40601Y-27390D01*
X40963Y-27390D01*
X40984Y-27369D01*
X41099Y-27484D01*
X41099Y-27802D01*
X41099Y-27802D01*
G37*
G54D28*
X41099Y-27802D02*
X41072Y-27802D01*
X41026Y-27821D01*
X41026Y-27687D01*
X41026Y-27553D01*
X40963Y-27490D01*
X40601Y-27490D01*
X40601Y-27825D01*
X40663Y-27887D01*
X40726Y-27887D01*
X40826Y-27887D01*
X40917Y-27849D01*
X40988Y-27779D01*
X41026Y-27687D01*
X41026Y-27821D01*
X41017Y-27825D01*
X40975Y-27867D01*
X40952Y-27922D01*
X40952Y-27982D01*
X40952Y-28421D01*
X40926Y-28395D01*
X40926Y-28041D01*
X40903Y-27986D01*
X40861Y-27943D01*
X40806Y-27920D01*
X40746Y-27920D01*
X40296Y-27920D01*
X40285Y-27925D01*
X40285Y-27888D01*
X40285Y-27887D01*
X40375Y-27887D01*
X40438Y-27887D01*
X40501Y-27825D01*
X40501Y-27490D01*
X40138Y-27490D01*
X40076Y-27553D01*
X40076Y-27648D01*
X40025Y-27627D01*
X39896Y-27627D01*
X39809Y-27663D01*
X39754Y-27609D01*
X39420Y-27609D01*
X39420Y-27616D01*
X39320Y-27616D01*
X39320Y-27609D01*
X38985Y-27609D01*
X38923Y-27671D01*
X38923Y-27734D01*
X38923Y-27834D01*
X38961Y-27925D01*
X39000Y-27964D01*
X38978Y-27985D01*
X38955Y-28040D01*
X38955Y-28100D01*
X38955Y-28494D01*
X38978Y-28549D01*
X39020Y-28591D01*
X39075Y-28614D01*
X39135Y-28614D01*
X39585Y-28614D01*
X39640Y-28591D01*
X39682Y-28549D01*
X39705Y-28494D01*
X39705Y-28482D01*
X39803Y-28482D01*
X39870Y-28468D01*
X39870Y-28468D01*
X39926Y-28430D01*
X40084Y-28273D01*
X40102Y-28245D01*
X40144Y-28228D01*
X40176Y-28196D01*
X40176Y-28484D01*
X40104Y-28454D01*
X39975Y-28454D01*
X39855Y-28503D01*
X39764Y-28595D01*
X39714Y-28714D01*
X39714Y-28843D01*
X39760Y-28954D01*
X39729Y-28967D01*
X39705Y-28990D01*
X39705Y-28867D01*
X39682Y-28812D01*
X39640Y-28770D01*
X39585Y-28747D01*
X39526Y-28747D01*
X39076Y-28747D01*
X39036Y-28763D01*
X39015Y-28713D01*
X38924Y-28622D01*
X38805Y-28572D01*
X38675Y-28572D01*
X38556Y-28621D01*
X38530Y-28647D01*
X38528Y-28647D01*
X38130Y-28249D01*
X38130Y-28041D01*
X38108Y-27986D01*
X38065Y-27943D01*
X38010Y-27920D01*
X38005Y-27920D01*
X38005Y-27905D01*
X38010Y-27905D01*
X38065Y-27883D01*
X38107Y-27840D01*
X38130Y-27785D01*
X38130Y-27726D01*
X38130Y-27576D01*
X38178Y-27528D01*
X38178Y-27544D01*
X38196Y-27587D01*
X38196Y-27813D01*
X38219Y-27868D01*
X38261Y-27911D01*
X38316Y-27934D01*
X38376Y-27934D01*
X38769Y-27934D01*
X38825Y-27911D01*
X38867Y-27869D01*
X38890Y-27814D01*
X38890Y-27754D01*
X38890Y-27332D01*
X38923Y-27332D01*
X38923Y-27383D01*
X38923Y-27446D01*
X38985Y-27509D01*
X39320Y-27509D01*
X39320Y-27501D01*
X39420Y-27501D01*
X39420Y-27509D01*
X39754Y-27509D01*
X39816Y-27446D01*
X39816Y-27383D01*
X39816Y-27286D01*
X40076Y-27286D01*
X40076Y-27328D01*
X40138Y-27390D01*
X40501Y-27390D01*
X40501Y-27383D01*
X40601Y-27383D01*
X40601Y-27390D01*
X40963Y-27390D01*
X40984Y-27369D01*
X41099Y-27484D01*
X41099Y-27802D01*
G54D10*
G36*
X44050Y-26186D02*
X43918Y-26318D01*
X43918Y-26072D01*
X43895Y-26017D01*
X43853Y-25975D01*
X43798Y-25952D01*
X43738Y-25952D01*
X43288Y-25952D01*
X43233Y-25975D01*
X43191Y-26017D01*
X43169Y-26070D01*
X43147Y-26017D01*
X43105Y-25975D01*
X43050Y-25952D01*
X42990Y-25952D01*
X42540Y-25952D01*
X42485Y-25975D01*
X42443Y-26017D01*
X42420Y-26072D01*
X42420Y-26132D01*
X42420Y-26525D01*
X42443Y-26580D01*
X42485Y-26623D01*
X42540Y-26646D01*
X42599Y-26646D01*
X42620Y-26646D01*
X42620Y-26738D01*
X42357Y-27001D01*
X42348Y-26997D01*
X42237Y-26997D01*
X42262Y-26936D01*
X42263Y-26836D01*
X42263Y-25285D01*
X42262Y-25186D01*
X42224Y-25094D01*
X42154Y-25024D01*
X42062Y-24986D01*
X41175Y-24986D01*
X41112Y-25048D01*
X41112Y-26011D01*
X42200Y-26011D01*
X42262Y-25948D01*
X42263Y-25285D01*
X42263Y-26836D01*
X42262Y-26173D01*
X42200Y-26111D01*
X41112Y-26111D01*
X41112Y-26119D01*
X41012Y-26119D01*
X41012Y-26111D01*
X41012Y-26011D01*
X41012Y-25048D01*
X40950Y-24986D01*
X40063Y-24986D01*
X39971Y-25024D01*
X39901Y-25094D01*
X39863Y-25186D01*
X39862Y-25285D01*
X39862Y-25948D01*
X39925Y-26011D01*
X41012Y-26011D01*
X41012Y-26111D01*
X39925Y-26111D01*
X39862Y-26173D01*
X39862Y-26836D01*
X39862Y-26873D01*
X39842Y-26824D01*
X39751Y-26732D01*
X39631Y-26682D01*
X39502Y-26682D01*
X39383Y-26731D01*
X39383Y-26159D01*
X39383Y-25808D01*
X39383Y-25709D01*
X39345Y-25617D01*
X39338Y-25610D01*
X39345Y-25603D01*
X39383Y-25511D01*
X39383Y-25411D01*
X39383Y-25348D01*
X39321Y-25286D01*
X38987Y-25286D01*
X38987Y-25571D01*
X38987Y-25648D01*
X38987Y-25934D01*
X39321Y-25934D01*
X39383Y-25871D01*
X39383Y-25808D01*
X39383Y-26159D01*
X39383Y-26096D01*
X39321Y-26034D01*
X38987Y-26034D01*
X38987Y-26396D01*
X39049Y-26459D01*
X39183Y-26459D01*
X39275Y-26421D01*
X39345Y-26351D01*
X39383Y-26259D01*
X39383Y-26159D01*
X39383Y-26731D01*
X39383Y-26732D01*
X39291Y-26823D01*
X39241Y-26942D01*
X39241Y-27072D01*
X39246Y-27084D01*
X39217Y-27084D01*
X39222Y-27072D01*
X39222Y-26943D01*
X39173Y-26824D01*
X39081Y-26732D01*
X38962Y-26682D01*
X38887Y-26682D01*
X38887Y-26396D01*
X38887Y-26034D01*
X38887Y-25934D01*
X38887Y-25648D01*
X38887Y-25571D01*
X38887Y-25286D01*
X38552Y-25286D01*
X38490Y-25348D01*
X38490Y-25411D01*
X38490Y-25511D01*
X38528Y-25603D01*
X38535Y-25610D01*
X38528Y-25617D01*
X38490Y-25709D01*
X38490Y-25808D01*
X38490Y-25871D01*
X38552Y-25934D01*
X38887Y-25934D01*
X38887Y-26034D01*
X38552Y-26034D01*
X38490Y-26096D01*
X38490Y-26159D01*
X38490Y-26259D01*
X38528Y-26351D01*
X38598Y-26421D01*
X38690Y-26459D01*
X38824Y-26459D01*
X38887Y-26396D01*
X38887Y-26682D01*
X38833Y-26682D01*
X38713Y-26732D01*
X38688Y-26757D01*
X38557Y-26757D01*
X38557Y-26535D01*
X38557Y-26535D01*
X38557Y-26535D01*
X38553Y-26516D01*
X38538Y-26439D01*
X38538Y-26439D01*
X38483Y-26358D01*
X38483Y-26358D01*
X38426Y-26301D01*
X38434Y-26294D01*
X38457Y-26239D01*
X38457Y-26179D01*
X38457Y-25729D01*
X38434Y-25674D01*
X38392Y-25632D01*
X38360Y-25618D01*
X38360Y-25601D01*
X38391Y-25588D01*
X38434Y-25546D01*
X38457Y-25491D01*
X38457Y-25431D01*
X38457Y-25270D01*
X38464Y-25263D01*
X38512Y-25146D01*
X38552Y-25186D01*
X38887Y-25186D01*
X38887Y-25178D01*
X38987Y-25178D01*
X38987Y-25186D01*
X39321Y-25186D01*
X39383Y-25123D01*
X39383Y-25060D01*
X39383Y-24961D01*
X39372Y-24935D01*
X39427Y-24935D01*
X39526Y-24934D01*
X39618Y-24896D01*
X39689Y-24826D01*
X39727Y-24734D01*
X39726Y-24600D01*
X39664Y-24538D01*
X39301Y-24538D01*
X39301Y-24546D01*
X39201Y-24546D01*
X39201Y-24538D01*
X39201Y-24438D01*
X39201Y-24103D01*
X39139Y-24041D01*
X39076Y-24041D01*
X38977Y-24041D01*
X38885Y-24079D01*
X38814Y-24149D01*
X38776Y-24241D01*
X38776Y-24375D01*
X38839Y-24438D01*
X39201Y-24438D01*
X39201Y-24538D01*
X38839Y-24538D01*
X38776Y-24600D01*
X38776Y-24734D01*
X38787Y-24761D01*
X38690Y-24761D01*
X38598Y-24799D01*
X38528Y-24869D01*
X38491Y-24958D01*
X38464Y-24894D01*
X38373Y-24803D01*
X38253Y-24753D01*
X38124Y-24753D01*
X38005Y-24803D01*
X37946Y-24861D01*
X37883Y-24861D01*
X37828Y-24883D01*
X37826Y-24885D01*
X37799Y-24819D01*
X37729Y-24748D01*
X37637Y-24710D01*
X37537Y-24710D01*
X37474Y-24710D01*
X37412Y-24773D01*
X37412Y-25107D01*
X37420Y-25107D01*
X37420Y-25207D01*
X37412Y-25207D01*
X37412Y-25541D01*
X37474Y-25604D01*
X37537Y-25604D01*
X37637Y-25604D01*
X37729Y-25566D01*
X37775Y-25519D01*
X37786Y-25546D01*
X37828Y-25588D01*
X37860Y-25601D01*
X37860Y-25618D01*
X37828Y-25632D01*
X37786Y-25674D01*
X37763Y-25729D01*
X37763Y-25734D01*
X37727Y-25734D01*
X37714Y-25702D01*
X37672Y-25660D01*
X37617Y-25637D01*
X37557Y-25637D01*
X37107Y-25637D01*
X37052Y-25660D01*
X37010Y-25702D01*
X36996Y-25734D01*
X36911Y-25734D01*
X36898Y-25702D01*
X36856Y-25660D01*
X36801Y-25637D01*
X36741Y-25637D01*
X35954Y-25637D01*
X35899Y-25660D01*
X35883Y-25675D01*
X35883Y-25465D01*
X35899Y-25481D01*
X35954Y-25504D01*
X36013Y-25504D01*
X36801Y-25504D01*
X36856Y-25481D01*
X36898Y-25439D01*
X36900Y-25435D01*
X36925Y-25495D01*
X36995Y-25566D01*
X37087Y-25604D01*
X37186Y-25604D01*
X37249Y-25604D01*
X37312Y-25541D01*
X37312Y-25207D01*
X37304Y-25207D01*
X37304Y-25107D01*
X37312Y-25107D01*
X37312Y-24773D01*
X37249Y-24710D01*
X37186Y-24710D01*
X37087Y-24710D01*
X36995Y-24748D01*
X36925Y-24819D01*
X36900Y-24879D01*
X36898Y-24875D01*
X36856Y-24833D01*
X36801Y-24810D01*
X36741Y-24810D01*
X35954Y-24810D01*
X35899Y-24833D01*
X35857Y-24875D01*
X35834Y-24930D01*
X35834Y-24990D01*
X35834Y-24998D01*
X35781Y-25033D01*
X35781Y-25033D01*
X35781Y-25033D01*
X35584Y-25230D01*
X35546Y-25287D01*
X35533Y-25354D01*
X35533Y-26574D01*
X35546Y-26641D01*
X35584Y-26698D01*
X35742Y-26856D01*
X35799Y-26893D01*
X35834Y-26900D01*
X35834Y-26986D01*
X35857Y-27042D01*
X35899Y-27084D01*
X35954Y-27107D01*
X36004Y-27107D01*
X35974Y-27179D01*
X35974Y-27308D01*
X36023Y-27427D01*
X36114Y-27519D01*
X36234Y-27569D01*
X36363Y-27569D01*
X36483Y-27519D01*
X36574Y-27428D01*
X36624Y-27309D01*
X36624Y-27179D01*
X36574Y-27060D01*
X36520Y-27005D01*
X36527Y-26987D01*
X36527Y-26927D01*
X36527Y-26477D01*
X36505Y-26422D01*
X36463Y-26380D01*
X36407Y-26357D01*
X36348Y-26357D01*
X35954Y-26357D01*
X35899Y-26380D01*
X35883Y-26395D01*
X35883Y-26292D01*
X35899Y-26308D01*
X35954Y-26331D01*
X36013Y-26331D01*
X36633Y-26331D01*
X36599Y-26365D01*
X36561Y-26457D01*
X36560Y-26556D01*
X36561Y-26619D01*
X36623Y-26682D01*
X36957Y-26682D01*
X36957Y-26674D01*
X37057Y-26674D01*
X37057Y-26682D01*
X37343Y-26682D01*
X37392Y-26682D01*
X37705Y-26682D01*
X37705Y-26347D01*
X37667Y-26310D01*
X37672Y-26308D01*
X37714Y-26266D01*
X37727Y-26234D01*
X37763Y-26234D01*
X37763Y-26238D01*
X37786Y-26294D01*
X37822Y-26330D01*
X37805Y-26347D01*
X37805Y-26682D01*
X37813Y-26682D01*
X37813Y-26782D01*
X37805Y-26782D01*
X37805Y-27116D01*
X37845Y-27155D01*
X37788Y-27212D01*
X37705Y-27212D01*
X37705Y-27116D01*
X37705Y-26782D01*
X37392Y-26782D01*
X37343Y-26782D01*
X37057Y-26782D01*
X37057Y-27144D01*
X37120Y-27207D01*
X37254Y-27207D01*
X37346Y-27169D01*
X37381Y-27133D01*
X37389Y-27140D01*
X37480Y-27179D01*
X37580Y-27179D01*
X37643Y-27179D01*
X37705Y-27116D01*
X37705Y-27212D01*
X37501Y-27212D01*
X37446Y-27234D01*
X37403Y-27277D01*
X37380Y-27332D01*
X37380Y-27391D01*
X37380Y-27785D01*
X37403Y-27840D01*
X37445Y-27882D01*
X37500Y-27905D01*
X37505Y-27905D01*
X37505Y-27920D01*
X37501Y-27920D01*
X37446Y-27943D01*
X37403Y-27985D01*
X37380Y-28040D01*
X37380Y-28100D01*
X37380Y-28494D01*
X37403Y-28549D01*
X37445Y-28591D01*
X37500Y-28614D01*
X37560Y-28614D01*
X37788Y-28614D01*
X37921Y-28747D01*
X37501Y-28747D01*
X37446Y-28770D01*
X37403Y-28812D01*
X37390Y-28844D01*
X37335Y-28844D01*
X37335Y-28769D01*
X37312Y-28714D01*
X37270Y-28672D01*
X37215Y-28649D01*
X37155Y-28649D01*
X37089Y-28649D01*
X37089Y-28487D01*
X37165Y-28412D01*
X37214Y-28293D01*
X37214Y-28163D01*
X37165Y-28044D01*
X37074Y-27952D01*
X36957Y-27904D01*
X36957Y-27144D01*
X36957Y-26782D01*
X36623Y-26782D01*
X36561Y-26844D01*
X36560Y-26907D01*
X36561Y-27007D01*
X36599Y-27099D01*
X36669Y-27169D01*
X36761Y-27207D01*
X36895Y-27207D01*
X36957Y-27144D01*
X36957Y-27904D01*
X36954Y-27903D01*
X36825Y-27903D01*
X36705Y-27952D01*
X36614Y-28044D01*
X36564Y-28163D01*
X36564Y-28292D01*
X36614Y-28412D01*
X36689Y-28488D01*
X36689Y-28649D01*
X36564Y-28649D01*
X36509Y-28671D01*
X36467Y-28714D01*
X36444Y-28769D01*
X36444Y-28828D01*
X36444Y-29419D01*
X36467Y-29474D01*
X36509Y-29516D01*
X36564Y-29539D01*
X36624Y-29539D01*
X36639Y-29539D01*
X36639Y-29555D01*
X36608Y-29569D01*
X36565Y-29611D01*
X36542Y-29666D01*
X36542Y-29725D01*
X36542Y-29795D01*
X36541Y-29794D01*
X36486Y-29771D01*
X36426Y-29771D01*
X36182Y-29771D01*
X36191Y-29749D01*
X36191Y-29620D01*
X36151Y-29523D01*
X36167Y-29517D01*
X36209Y-29474D01*
X36232Y-29419D01*
X36232Y-29360D01*
X36232Y-29091D01*
X36269Y-29001D01*
X36269Y-28872D01*
X36258Y-28843D01*
X36258Y-28843D01*
X36262Y-28818D01*
X36262Y-28818D01*
X36262Y-28188D01*
X36250Y-28125D01*
X36247Y-28112D01*
X36247Y-28112D01*
X36204Y-28047D01*
X35464Y-27308D01*
X35464Y-26131D01*
X35442Y-26076D01*
X35400Y-26034D01*
X35351Y-26014D01*
X35393Y-25971D01*
X35443Y-25852D01*
X35443Y-25723D01*
X35393Y-25603D01*
X35318Y-25527D01*
X35318Y-25164D01*
X35849Y-24633D01*
X35857Y-24651D01*
X35899Y-24694D01*
X35954Y-24716D01*
X36013Y-24716D01*
X36801Y-24716D01*
X36856Y-24694D01*
X36898Y-24652D01*
X36921Y-24596D01*
X36921Y-24537D01*
X36921Y-24143D01*
X36911Y-24119D01*
X37248Y-23782D01*
X38289Y-23782D01*
X38201Y-23818D01*
X38110Y-23910D01*
X38060Y-24029D01*
X38060Y-24158D01*
X38110Y-24278D01*
X38201Y-24369D01*
X38320Y-24419D01*
X38450Y-24419D01*
X38569Y-24370D01*
X38661Y-24278D01*
X38710Y-24159D01*
X38710Y-24123D01*
X38897Y-23936D01*
X38899Y-23943D01*
X38941Y-23985D01*
X38997Y-24008D01*
X39056Y-24008D01*
X39506Y-24008D01*
X39540Y-23994D01*
X39540Y-24047D01*
X39526Y-24041D01*
X39427Y-24041D01*
X39364Y-24041D01*
X39301Y-24103D01*
X39301Y-24438D01*
X39664Y-24438D01*
X39716Y-24386D01*
X39720Y-24386D01*
X40350Y-24386D01*
X40405Y-24363D01*
X40447Y-24321D01*
X40470Y-24266D01*
X40470Y-24206D01*
X40470Y-23025D01*
X40447Y-22970D01*
X40433Y-22955D01*
X41692Y-22955D01*
X41678Y-22970D01*
X41655Y-23025D01*
X41655Y-23084D01*
X41655Y-24265D01*
X41678Y-24321D01*
X41720Y-24363D01*
X41775Y-24386D01*
X41835Y-24386D01*
X42465Y-24386D01*
X42517Y-24364D01*
X42517Y-24375D01*
X42579Y-24438D01*
X42942Y-24438D01*
X42942Y-24103D01*
X42879Y-24041D01*
X42816Y-24041D01*
X42717Y-24041D01*
X42625Y-24079D01*
X42585Y-24119D01*
X42585Y-23895D01*
X42620Y-23895D01*
X42639Y-23943D01*
X42682Y-23985D01*
X42737Y-24008D01*
X42796Y-24008D01*
X43246Y-24008D01*
X43253Y-24005D01*
X43253Y-24041D01*
X43167Y-24041D01*
X43104Y-24041D01*
X43042Y-24103D01*
X43042Y-24438D01*
X43050Y-24438D01*
X43050Y-24538D01*
X43042Y-24538D01*
X43042Y-24872D01*
X43104Y-24935D01*
X43167Y-24935D01*
X43267Y-24934D01*
X43290Y-24925D01*
X43327Y-24979D01*
X43472Y-25125D01*
X43288Y-25125D01*
X43233Y-25148D01*
X43191Y-25190D01*
X43169Y-25243D01*
X43147Y-25190D01*
X43105Y-25148D01*
X43050Y-25125D01*
X42990Y-25125D01*
X42942Y-25125D01*
X42942Y-24872D01*
X42942Y-24538D01*
X42579Y-24538D01*
X42517Y-24600D01*
X42517Y-24734D01*
X42555Y-24826D01*
X42625Y-24896D01*
X42717Y-24934D01*
X42816Y-24935D01*
X42879Y-24935D01*
X42942Y-24872D01*
X42942Y-25125D01*
X42540Y-25125D01*
X42485Y-25148D01*
X42443Y-25190D01*
X42420Y-25245D01*
X42420Y-25305D01*
X42420Y-25698D01*
X42443Y-25754D01*
X42485Y-25796D01*
X42540Y-25819D01*
X42599Y-25819D01*
X43049Y-25819D01*
X43105Y-25796D01*
X43147Y-25754D01*
X43169Y-25701D01*
X43191Y-25754D01*
X43233Y-25796D01*
X43288Y-25819D01*
X43348Y-25819D01*
X43798Y-25819D01*
X43853Y-25796D01*
X43858Y-25791D01*
X43963Y-25748D01*
X44050Y-25661D01*
X44050Y-26186D01*
X44050Y-26186D01*
G37*
G54D28*
X44050Y-26186D02*
X43918Y-26318D01*
X43918Y-26072D01*
X43895Y-26017D01*
X43853Y-25975D01*
X43798Y-25952D01*
X43738Y-25952D01*
X43288Y-25952D01*
X43233Y-25975D01*
X43191Y-26017D01*
X43169Y-26070D01*
X43147Y-26017D01*
X43105Y-25975D01*
X43050Y-25952D01*
X42990Y-25952D01*
X42540Y-25952D01*
X42485Y-25975D01*
X42443Y-26017D01*
X42420Y-26072D01*
X42420Y-26132D01*
X42420Y-26525D01*
X42443Y-26580D01*
X42485Y-26623D01*
X42540Y-26646D01*
X42599Y-26646D01*
X42620Y-26646D01*
X42620Y-26738D01*
X42357Y-27001D01*
X42348Y-26997D01*
X42237Y-26997D01*
X42262Y-26936D01*
X42263Y-26836D01*
X42263Y-25285D01*
X42262Y-25186D01*
X42224Y-25094D01*
X42154Y-25024D01*
X42062Y-24986D01*
X41175Y-24986D01*
X41112Y-25048D01*
X41112Y-26011D01*
X42200Y-26011D01*
X42262Y-25948D01*
X42263Y-25285D01*
X42263Y-26836D01*
X42262Y-26173D01*
X42200Y-26111D01*
X41112Y-26111D01*
X41112Y-26119D01*
X41012Y-26119D01*
X41012Y-26111D01*
X41012Y-26011D01*
X41012Y-25048D01*
X40950Y-24986D01*
X40063Y-24986D01*
X39971Y-25024D01*
X39901Y-25094D01*
X39863Y-25186D01*
X39862Y-25285D01*
X39862Y-25948D01*
X39925Y-26011D01*
X41012Y-26011D01*
X41012Y-26111D01*
X39925Y-26111D01*
X39862Y-26173D01*
X39862Y-26836D01*
X39862Y-26873D01*
X39842Y-26824D01*
X39751Y-26732D01*
X39631Y-26682D01*
X39502Y-26682D01*
X39383Y-26731D01*
X39383Y-26159D01*
X39383Y-25808D01*
X39383Y-25709D01*
X39345Y-25617D01*
X39338Y-25610D01*
X39345Y-25603D01*
X39383Y-25511D01*
X39383Y-25411D01*
X39383Y-25348D01*
X39321Y-25286D01*
X38987Y-25286D01*
X38987Y-25571D01*
X38987Y-25648D01*
X38987Y-25934D01*
X39321Y-25934D01*
X39383Y-25871D01*
X39383Y-25808D01*
X39383Y-26159D01*
X39383Y-26096D01*
X39321Y-26034D01*
X38987Y-26034D01*
X38987Y-26396D01*
X39049Y-26459D01*
X39183Y-26459D01*
X39275Y-26421D01*
X39345Y-26351D01*
X39383Y-26259D01*
X39383Y-26159D01*
X39383Y-26731D01*
X39383Y-26732D01*
X39291Y-26823D01*
X39241Y-26942D01*
X39241Y-27072D01*
X39246Y-27084D01*
X39217Y-27084D01*
X39222Y-27072D01*
X39222Y-26943D01*
X39173Y-26824D01*
X39081Y-26732D01*
X38962Y-26682D01*
X38887Y-26682D01*
X38887Y-26396D01*
X38887Y-26034D01*
X38887Y-25934D01*
X38887Y-25648D01*
X38887Y-25571D01*
X38887Y-25286D01*
X38552Y-25286D01*
X38490Y-25348D01*
X38490Y-25411D01*
X38490Y-25511D01*
X38528Y-25603D01*
X38535Y-25610D01*
X38528Y-25617D01*
X38490Y-25709D01*
X38490Y-25808D01*
X38490Y-25871D01*
X38552Y-25934D01*
X38887Y-25934D01*
X38887Y-26034D01*
X38552Y-26034D01*
X38490Y-26096D01*
X38490Y-26159D01*
X38490Y-26259D01*
X38528Y-26351D01*
X38598Y-26421D01*
X38690Y-26459D01*
X38824Y-26459D01*
X38887Y-26396D01*
X38887Y-26682D01*
X38833Y-26682D01*
X38713Y-26732D01*
X38688Y-26757D01*
X38557Y-26757D01*
X38557Y-26535D01*
X38557Y-26535D01*
X38557Y-26535D01*
X38553Y-26516D01*
X38538Y-26439D01*
X38538Y-26439D01*
X38483Y-26358D01*
X38483Y-26358D01*
X38426Y-26301D01*
X38434Y-26294D01*
X38457Y-26239D01*
X38457Y-26179D01*
X38457Y-25729D01*
X38434Y-25674D01*
X38392Y-25632D01*
X38360Y-25618D01*
X38360Y-25601D01*
X38391Y-25588D01*
X38434Y-25546D01*
X38457Y-25491D01*
X38457Y-25431D01*
X38457Y-25270D01*
X38464Y-25263D01*
X38512Y-25146D01*
X38552Y-25186D01*
X38887Y-25186D01*
X38887Y-25178D01*
X38987Y-25178D01*
X38987Y-25186D01*
X39321Y-25186D01*
X39383Y-25123D01*
X39383Y-25060D01*
X39383Y-24961D01*
X39372Y-24935D01*
X39427Y-24935D01*
X39526Y-24934D01*
X39618Y-24896D01*
X39689Y-24826D01*
X39727Y-24734D01*
X39726Y-24600D01*
X39664Y-24538D01*
X39301Y-24538D01*
X39301Y-24546D01*
X39201Y-24546D01*
X39201Y-24538D01*
X39201Y-24438D01*
X39201Y-24103D01*
X39139Y-24041D01*
X39076Y-24041D01*
X38977Y-24041D01*
X38885Y-24079D01*
X38814Y-24149D01*
X38776Y-24241D01*
X38776Y-24375D01*
X38839Y-24438D01*
X39201Y-24438D01*
X39201Y-24538D01*
X38839Y-24538D01*
X38776Y-24600D01*
X38776Y-24734D01*
X38787Y-24761D01*
X38690Y-24761D01*
X38598Y-24799D01*
X38528Y-24869D01*
X38491Y-24958D01*
X38464Y-24894D01*
X38373Y-24803D01*
X38253Y-24753D01*
X38124Y-24753D01*
X38005Y-24803D01*
X37946Y-24861D01*
X37883Y-24861D01*
X37828Y-24883D01*
X37826Y-24885D01*
X37799Y-24819D01*
X37729Y-24748D01*
X37637Y-24710D01*
X37537Y-24710D01*
X37474Y-24710D01*
X37412Y-24773D01*
X37412Y-25107D01*
X37420Y-25107D01*
X37420Y-25207D01*
X37412Y-25207D01*
X37412Y-25541D01*
X37474Y-25604D01*
X37537Y-25604D01*
X37637Y-25604D01*
X37729Y-25566D01*
X37775Y-25519D01*
X37786Y-25546D01*
X37828Y-25588D01*
X37860Y-25601D01*
X37860Y-25618D01*
X37828Y-25632D01*
X37786Y-25674D01*
X37763Y-25729D01*
X37763Y-25734D01*
X37727Y-25734D01*
X37714Y-25702D01*
X37672Y-25660D01*
X37617Y-25637D01*
X37557Y-25637D01*
X37107Y-25637D01*
X37052Y-25660D01*
X37010Y-25702D01*
X36996Y-25734D01*
X36911Y-25734D01*
X36898Y-25702D01*
X36856Y-25660D01*
X36801Y-25637D01*
X36741Y-25637D01*
X35954Y-25637D01*
X35899Y-25660D01*
X35883Y-25675D01*
X35883Y-25465D01*
X35899Y-25481D01*
X35954Y-25504D01*
X36013Y-25504D01*
X36801Y-25504D01*
X36856Y-25481D01*
X36898Y-25439D01*
X36900Y-25435D01*
X36925Y-25495D01*
X36995Y-25566D01*
X37087Y-25604D01*
X37186Y-25604D01*
X37249Y-25604D01*
X37312Y-25541D01*
X37312Y-25207D01*
X37304Y-25207D01*
X37304Y-25107D01*
X37312Y-25107D01*
X37312Y-24773D01*
X37249Y-24710D01*
X37186Y-24710D01*
X37087Y-24710D01*
X36995Y-24748D01*
X36925Y-24819D01*
X36900Y-24879D01*
X36898Y-24875D01*
X36856Y-24833D01*
X36801Y-24810D01*
X36741Y-24810D01*
X35954Y-24810D01*
X35899Y-24833D01*
X35857Y-24875D01*
X35834Y-24930D01*
X35834Y-24990D01*
X35834Y-24998D01*
X35781Y-25033D01*
X35781Y-25033D01*
X35781Y-25033D01*
X35584Y-25230D01*
X35546Y-25287D01*
X35533Y-25354D01*
X35533Y-26574D01*
X35546Y-26641D01*
X35584Y-26698D01*
X35742Y-26856D01*
X35799Y-26893D01*
X35834Y-26900D01*
X35834Y-26986D01*
X35857Y-27042D01*
X35899Y-27084D01*
X35954Y-27107D01*
X36004Y-27107D01*
X35974Y-27179D01*
X35974Y-27308D01*
X36023Y-27427D01*
X36114Y-27519D01*
X36234Y-27569D01*
X36363Y-27569D01*
X36483Y-27519D01*
X36574Y-27428D01*
X36624Y-27309D01*
X36624Y-27179D01*
X36574Y-27060D01*
X36520Y-27005D01*
X36527Y-26987D01*
X36527Y-26927D01*
X36527Y-26477D01*
X36505Y-26422D01*
X36463Y-26380D01*
X36407Y-26357D01*
X36348Y-26357D01*
X35954Y-26357D01*
X35899Y-26380D01*
X35883Y-26395D01*
X35883Y-26292D01*
X35899Y-26308D01*
X35954Y-26331D01*
X36013Y-26331D01*
X36633Y-26331D01*
X36599Y-26365D01*
X36561Y-26457D01*
X36560Y-26556D01*
X36561Y-26619D01*
X36623Y-26682D01*
X36957Y-26682D01*
X36957Y-26674D01*
X37057Y-26674D01*
X37057Y-26682D01*
X37343Y-26682D01*
X37392Y-26682D01*
X37705Y-26682D01*
X37705Y-26347D01*
X37667Y-26310D01*
X37672Y-26308D01*
X37714Y-26266D01*
X37727Y-26234D01*
X37763Y-26234D01*
X37763Y-26238D01*
X37786Y-26294D01*
X37822Y-26330D01*
X37805Y-26347D01*
X37805Y-26682D01*
X37813Y-26682D01*
X37813Y-26782D01*
X37805Y-26782D01*
X37805Y-27116D01*
X37845Y-27155D01*
X37788Y-27212D01*
X37705Y-27212D01*
X37705Y-27116D01*
X37705Y-26782D01*
X37392Y-26782D01*
X37343Y-26782D01*
X37057Y-26782D01*
X37057Y-27144D01*
X37120Y-27207D01*
X37254Y-27207D01*
X37346Y-27169D01*
X37381Y-27133D01*
X37389Y-27140D01*
X37480Y-27179D01*
X37580Y-27179D01*
X37643Y-27179D01*
X37705Y-27116D01*
X37705Y-27212D01*
X37501Y-27212D01*
X37446Y-27234D01*
X37403Y-27277D01*
X37380Y-27332D01*
X37380Y-27391D01*
X37380Y-27785D01*
X37403Y-27840D01*
X37445Y-27882D01*
X37500Y-27905D01*
X37505Y-27905D01*
X37505Y-27920D01*
X37501Y-27920D01*
X37446Y-27943D01*
X37403Y-27985D01*
X37380Y-28040D01*
X37380Y-28100D01*
X37380Y-28494D01*
X37403Y-28549D01*
X37445Y-28591D01*
X37500Y-28614D01*
X37560Y-28614D01*
X37788Y-28614D01*
X37921Y-28747D01*
X37501Y-28747D01*
X37446Y-28770D01*
X37403Y-28812D01*
X37390Y-28844D01*
X37335Y-28844D01*
X37335Y-28769D01*
X37312Y-28714D01*
X37270Y-28672D01*
X37215Y-28649D01*
X37155Y-28649D01*
X37089Y-28649D01*
X37089Y-28487D01*
X37165Y-28412D01*
X37214Y-28293D01*
X37214Y-28163D01*
X37165Y-28044D01*
X37074Y-27952D01*
X36957Y-27904D01*
X36957Y-27144D01*
X36957Y-26782D01*
X36623Y-26782D01*
X36561Y-26844D01*
X36560Y-26907D01*
X36561Y-27007D01*
X36599Y-27099D01*
X36669Y-27169D01*
X36761Y-27207D01*
X36895Y-27207D01*
X36957Y-27144D01*
X36957Y-27904D01*
X36954Y-27903D01*
X36825Y-27903D01*
X36705Y-27952D01*
X36614Y-28044D01*
X36564Y-28163D01*
X36564Y-28292D01*
X36614Y-28412D01*
X36689Y-28488D01*
X36689Y-28649D01*
X36564Y-28649D01*
X36509Y-28671D01*
X36467Y-28714D01*
X36444Y-28769D01*
X36444Y-28828D01*
X36444Y-29419D01*
X36467Y-29474D01*
X36509Y-29516D01*
X36564Y-29539D01*
X36624Y-29539D01*
X36639Y-29539D01*
X36639Y-29555D01*
X36608Y-29569D01*
X36565Y-29611D01*
X36542Y-29666D01*
X36542Y-29725D01*
X36542Y-29795D01*
X36541Y-29794D01*
X36486Y-29771D01*
X36426Y-29771D01*
X36182Y-29771D01*
X36191Y-29749D01*
X36191Y-29620D01*
X36151Y-29523D01*
X36167Y-29517D01*
X36209Y-29474D01*
X36232Y-29419D01*
X36232Y-29360D01*
X36232Y-29091D01*
X36269Y-29001D01*
X36269Y-28872D01*
X36258Y-28843D01*
X36258Y-28843D01*
X36262Y-28818D01*
X36262Y-28818D01*
X36262Y-28188D01*
X36250Y-28125D01*
X36247Y-28112D01*
X36247Y-28112D01*
X36204Y-28047D01*
X35464Y-27308D01*
X35464Y-26131D01*
X35442Y-26076D01*
X35400Y-26034D01*
X35351Y-26014D01*
X35393Y-25971D01*
X35443Y-25852D01*
X35443Y-25723D01*
X35393Y-25603D01*
X35318Y-25527D01*
X35318Y-25164D01*
X35849Y-24633D01*
X35857Y-24651D01*
X35899Y-24694D01*
X35954Y-24716D01*
X36013Y-24716D01*
X36801Y-24716D01*
X36856Y-24694D01*
X36898Y-24652D01*
X36921Y-24596D01*
X36921Y-24537D01*
X36921Y-24143D01*
X36911Y-24119D01*
X37248Y-23782D01*
X38289Y-23782D01*
X38201Y-23818D01*
X38110Y-23910D01*
X38060Y-24029D01*
X38060Y-24158D01*
X38110Y-24278D01*
X38201Y-24369D01*
X38320Y-24419D01*
X38450Y-24419D01*
X38569Y-24370D01*
X38661Y-24278D01*
X38710Y-24159D01*
X38710Y-24123D01*
X38897Y-23936D01*
X38899Y-23943D01*
X38941Y-23985D01*
X38997Y-24008D01*
X39056Y-24008D01*
X39506Y-24008D01*
X39540Y-23994D01*
X39540Y-24047D01*
X39526Y-24041D01*
X39427Y-24041D01*
X39364Y-24041D01*
X39301Y-24103D01*
X39301Y-24438D01*
X39664Y-24438D01*
X39716Y-24386D01*
X39720Y-24386D01*
X40350Y-24386D01*
X40405Y-24363D01*
X40447Y-24321D01*
X40470Y-24266D01*
X40470Y-24206D01*
X40470Y-23025D01*
X40447Y-22970D01*
X40433Y-22955D01*
X41692Y-22955D01*
X41678Y-22970D01*
X41655Y-23025D01*
X41655Y-23084D01*
X41655Y-24265D01*
X41678Y-24321D01*
X41720Y-24363D01*
X41775Y-24386D01*
X41835Y-24386D01*
X42465Y-24386D01*
X42517Y-24364D01*
X42517Y-24375D01*
X42579Y-24438D01*
X42942Y-24438D01*
X42942Y-24103D01*
X42879Y-24041D01*
X42816Y-24041D01*
X42717Y-24041D01*
X42625Y-24079D01*
X42585Y-24119D01*
X42585Y-23895D01*
X42620Y-23895D01*
X42639Y-23943D01*
X42682Y-23985D01*
X42737Y-24008D01*
X42796Y-24008D01*
X43246Y-24008D01*
X43253Y-24005D01*
X43253Y-24041D01*
X43167Y-24041D01*
X43104Y-24041D01*
X43042Y-24103D01*
X43042Y-24438D01*
X43050Y-24438D01*
X43050Y-24538D01*
X43042Y-24538D01*
X43042Y-24872D01*
X43104Y-24935D01*
X43167Y-24935D01*
X43267Y-24934D01*
X43290Y-24925D01*
X43327Y-24979D01*
X43472Y-25125D01*
X43288Y-25125D01*
X43233Y-25148D01*
X43191Y-25190D01*
X43169Y-25243D01*
X43147Y-25190D01*
X43105Y-25148D01*
X43050Y-25125D01*
X42990Y-25125D01*
X42942Y-25125D01*
X42942Y-24872D01*
X42942Y-24538D01*
X42579Y-24538D01*
X42517Y-24600D01*
X42517Y-24734D01*
X42555Y-24826D01*
X42625Y-24896D01*
X42717Y-24934D01*
X42816Y-24935D01*
X42879Y-24935D01*
X42942Y-24872D01*
X42942Y-25125D01*
X42540Y-25125D01*
X42485Y-25148D01*
X42443Y-25190D01*
X42420Y-25245D01*
X42420Y-25305D01*
X42420Y-25698D01*
X42443Y-25754D01*
X42485Y-25796D01*
X42540Y-25819D01*
X42599Y-25819D01*
X43049Y-25819D01*
X43105Y-25796D01*
X43147Y-25754D01*
X43169Y-25701D01*
X43191Y-25754D01*
X43233Y-25796D01*
X43288Y-25819D01*
X43348Y-25819D01*
X43798Y-25819D01*
X43853Y-25796D01*
X43858Y-25791D01*
X43963Y-25748D01*
X44050Y-25661D01*
X44050Y-26186D01*
G54D10*
G36*
X44754Y-31643D02*
X44660Y-31643D01*
X44540Y-31692D01*
X44449Y-31784D01*
X44399Y-31903D01*
X44399Y-32032D01*
X44448Y-32152D01*
X44540Y-32243D01*
X44549Y-32247D01*
X44549Y-32644D01*
X44147Y-33045D01*
X44147Y-32695D01*
X44147Y-32344D01*
X44147Y-29388D01*
X44147Y-29037D01*
X44147Y-28937D01*
X44109Y-28845D01*
X44039Y-28775D01*
X43947Y-28737D01*
X43813Y-28737D01*
X43750Y-28800D01*
X43750Y-29162D01*
X44085Y-29162D01*
X44147Y-29100D01*
X44147Y-29037D01*
X44147Y-29388D01*
X44147Y-29325D01*
X44085Y-29262D01*
X43750Y-29262D01*
X43750Y-29625D01*
X43813Y-29687D01*
X43947Y-29687D01*
X44039Y-29649D01*
X44109Y-29579D01*
X44147Y-29487D01*
X44147Y-29388D01*
X44147Y-32344D01*
X44147Y-32244D01*
X44109Y-32152D01*
X44039Y-32082D01*
X43947Y-32044D01*
X43813Y-32044D01*
X43750Y-32107D01*
X43750Y-32469D01*
X44085Y-32469D01*
X44147Y-32407D01*
X44147Y-32344D01*
X44147Y-32695D01*
X44147Y-32632D01*
X44085Y-32569D01*
X43750Y-32569D01*
X43750Y-32932D01*
X43813Y-32994D01*
X43947Y-32994D01*
X44039Y-32956D01*
X44109Y-32886D01*
X44147Y-32794D01*
X44147Y-32695D01*
X44147Y-33045D01*
X44022Y-33171D01*
X43650Y-33171D01*
X43650Y-32932D01*
X43650Y-32569D01*
X43316Y-32569D01*
X43253Y-32632D01*
X43253Y-32695D01*
X43253Y-32794D01*
X43292Y-32886D01*
X43362Y-32956D01*
X43454Y-32994D01*
X43588Y-32994D01*
X43650Y-32932D01*
X43650Y-33171D01*
X43025Y-33171D01*
X42748Y-32894D01*
X43100Y-32894D01*
X43155Y-32871D01*
X43197Y-32829D01*
X43220Y-32774D01*
X43220Y-32714D01*
X43220Y-32264D01*
X43198Y-32209D01*
X43165Y-32177D01*
X43281Y-32177D01*
X43253Y-32244D01*
X43253Y-32344D01*
X43253Y-32407D01*
X43316Y-32469D01*
X43650Y-32469D01*
X43650Y-32107D01*
X43588Y-32044D01*
X43457Y-32044D01*
X43457Y-31997D01*
X43457Y-31328D01*
X43434Y-31273D01*
X43392Y-31231D01*
X43337Y-31208D01*
X43277Y-31208D01*
X42672Y-31208D01*
X42661Y-31197D01*
X42596Y-31153D01*
X42519Y-31138D01*
X40889Y-31138D01*
X40814Y-31063D01*
X40694Y-31013D01*
X40565Y-31013D01*
X40446Y-31062D01*
X40354Y-31154D01*
X40334Y-31201D01*
X40334Y-31201D01*
X40253Y-31146D01*
X40157Y-31127D01*
X40024Y-31127D01*
X39716Y-30820D01*
X39716Y-30429D01*
X39729Y-30442D01*
X39784Y-30464D01*
X39844Y-30464D01*
X40294Y-30464D01*
X40349Y-30442D01*
X40391Y-30400D01*
X40393Y-30394D01*
X40395Y-30399D01*
X40398Y-30402D01*
X40354Y-30445D01*
X40304Y-30564D01*
X40304Y-30694D01*
X40354Y-30813D01*
X40445Y-30905D01*
X40564Y-30954D01*
X40694Y-30954D01*
X40723Y-30943D01*
X40748Y-30948D01*
X42598Y-30948D01*
X42674Y-30932D01*
X42739Y-30889D01*
X43015Y-30613D01*
X43015Y-30613D01*
X43044Y-30570D01*
X43058Y-30548D01*
X43058Y-30548D01*
X43063Y-30524D01*
X43336Y-30524D01*
X43391Y-30501D01*
X43434Y-30459D01*
X43457Y-30403D01*
X43457Y-30344D01*
X43457Y-29687D01*
X43588Y-29687D01*
X43650Y-29625D01*
X43650Y-29262D01*
X43650Y-29162D01*
X43650Y-28800D01*
X43588Y-28737D01*
X43454Y-28737D01*
X43362Y-28775D01*
X43292Y-28845D01*
X43253Y-28937D01*
X43253Y-29037D01*
X43253Y-29100D01*
X43316Y-29162D01*
X43650Y-29162D01*
X43650Y-29262D01*
X43316Y-29262D01*
X43253Y-29325D01*
X43253Y-29388D01*
X43253Y-29487D01*
X43281Y-29554D01*
X43277Y-29554D01*
X43165Y-29554D01*
X43197Y-29522D01*
X43220Y-29467D01*
X43220Y-29407D01*
X43220Y-28957D01*
X43198Y-28902D01*
X43172Y-28876D01*
X43195Y-28867D01*
X43237Y-28825D01*
X43260Y-28770D01*
X43260Y-28710D01*
X43260Y-28661D01*
X43301Y-28599D01*
X43302Y-28596D01*
X44227Y-28596D01*
X44316Y-28686D01*
X44316Y-31102D01*
X44335Y-31198D01*
X44390Y-31279D01*
X44754Y-31643D01*
X44754Y-31643D01*
G37*
G54D28*
X44754Y-31643D02*
X44660Y-31643D01*
X44540Y-31692D01*
X44449Y-31784D01*
X44399Y-31903D01*
X44399Y-32032D01*
X44448Y-32152D01*
X44540Y-32243D01*
X44549Y-32247D01*
X44549Y-32644D01*
X44147Y-33045D01*
X44147Y-32695D01*
X44147Y-32344D01*
X44147Y-29388D01*
X44147Y-29037D01*
X44147Y-28937D01*
X44109Y-28845D01*
X44039Y-28775D01*
X43947Y-28737D01*
X43813Y-28737D01*
X43750Y-28800D01*
X43750Y-29162D01*
X44085Y-29162D01*
X44147Y-29100D01*
X44147Y-29037D01*
X44147Y-29388D01*
X44147Y-29325D01*
X44085Y-29262D01*
X43750Y-29262D01*
X43750Y-29625D01*
X43813Y-29687D01*
X43947Y-29687D01*
X44039Y-29649D01*
X44109Y-29579D01*
X44147Y-29487D01*
X44147Y-29388D01*
X44147Y-32344D01*
X44147Y-32244D01*
X44109Y-32152D01*
X44039Y-32082D01*
X43947Y-32044D01*
X43813Y-32044D01*
X43750Y-32107D01*
X43750Y-32469D01*
X44085Y-32469D01*
X44147Y-32407D01*
X44147Y-32344D01*
X44147Y-32695D01*
X44147Y-32632D01*
X44085Y-32569D01*
X43750Y-32569D01*
X43750Y-32932D01*
X43813Y-32994D01*
X43947Y-32994D01*
X44039Y-32956D01*
X44109Y-32886D01*
X44147Y-32794D01*
X44147Y-32695D01*
X44147Y-33045D01*
X44022Y-33171D01*
X43650Y-33171D01*
X43650Y-32932D01*
X43650Y-32569D01*
X43316Y-32569D01*
X43253Y-32632D01*
X43253Y-32695D01*
X43253Y-32794D01*
X43292Y-32886D01*
X43362Y-32956D01*
X43454Y-32994D01*
X43588Y-32994D01*
X43650Y-32932D01*
X43650Y-33171D01*
X43025Y-33171D01*
X42748Y-32894D01*
X43100Y-32894D01*
X43155Y-32871D01*
X43197Y-32829D01*
X43220Y-32774D01*
X43220Y-32714D01*
X43220Y-32264D01*
X43198Y-32209D01*
X43165Y-32177D01*
X43281Y-32177D01*
X43253Y-32244D01*
X43253Y-32344D01*
X43253Y-32407D01*
X43316Y-32469D01*
X43650Y-32469D01*
X43650Y-32107D01*
X43588Y-32044D01*
X43457Y-32044D01*
X43457Y-31997D01*
X43457Y-31328D01*
X43434Y-31273D01*
X43392Y-31231D01*
X43337Y-31208D01*
X43277Y-31208D01*
X42672Y-31208D01*
X42661Y-31197D01*
X42596Y-31153D01*
X42519Y-31138D01*
X40889Y-31138D01*
X40814Y-31063D01*
X40694Y-31013D01*
X40565Y-31013D01*
X40446Y-31062D01*
X40354Y-31154D01*
X40334Y-31201D01*
X40334Y-31201D01*
X40253Y-31146D01*
X40157Y-31127D01*
X40024Y-31127D01*
X39716Y-30820D01*
X39716Y-30429D01*
X39729Y-30442D01*
X39784Y-30464D01*
X39844Y-30464D01*
X40294Y-30464D01*
X40349Y-30442D01*
X40391Y-30400D01*
X40393Y-30394D01*
X40395Y-30399D01*
X40398Y-30402D01*
X40354Y-30445D01*
X40304Y-30564D01*
X40304Y-30694D01*
X40354Y-30813D01*
X40445Y-30905D01*
X40564Y-30954D01*
X40694Y-30954D01*
X40723Y-30943D01*
X40748Y-30948D01*
X42598Y-30948D01*
X42674Y-30932D01*
X42739Y-30889D01*
X43015Y-30613D01*
X43015Y-30613D01*
X43044Y-30570D01*
X43058Y-30548D01*
X43058Y-30548D01*
X43063Y-30524D01*
X43336Y-30524D01*
X43391Y-30501D01*
X43434Y-30459D01*
X43457Y-30403D01*
X43457Y-30344D01*
X43457Y-29687D01*
X43588Y-29687D01*
X43650Y-29625D01*
X43650Y-29262D01*
X43650Y-29162D01*
X43650Y-28800D01*
X43588Y-28737D01*
X43454Y-28737D01*
X43362Y-28775D01*
X43292Y-28845D01*
X43253Y-28937D01*
X43253Y-29037D01*
X43253Y-29100D01*
X43316Y-29162D01*
X43650Y-29162D01*
X43650Y-29262D01*
X43316Y-29262D01*
X43253Y-29325D01*
X43253Y-29388D01*
X43253Y-29487D01*
X43281Y-29554D01*
X43277Y-29554D01*
X43165Y-29554D01*
X43197Y-29522D01*
X43220Y-29467D01*
X43220Y-29407D01*
X43220Y-28957D01*
X43198Y-28902D01*
X43172Y-28876D01*
X43195Y-28867D01*
X43237Y-28825D01*
X43260Y-28770D01*
X43260Y-28710D01*
X43260Y-28661D01*
X43301Y-28599D01*
X43302Y-28596D01*
X44227Y-28596D01*
X44316Y-28686D01*
X44316Y-31102D01*
X44335Y-31198D01*
X44390Y-31279D01*
X44754Y-31643D01*
G54D10*
G36*
X47851Y-30577D02*
X47815Y-30614D01*
X47787Y-30518D01*
X47592Y-30448D01*
X47754Y-30381D01*
X47851Y-30284D01*
X47851Y-30577D01*
X47851Y-30577D01*
G37*
G54D28*
X47851Y-30577D02*
X47815Y-30614D01*
X47787Y-30518D01*
X47592Y-30448D01*
X47754Y-30381D01*
X47851Y-30284D01*
X47851Y-30577D01*
G54D10*
G36*
X47851Y-39190D02*
X47815Y-39190D01*
X46370Y-39190D01*
X46370Y-35525D01*
X46370Y-33793D01*
X46320Y-33673D01*
X46228Y-33581D01*
X46108Y-33531D01*
X45978Y-33531D01*
X45857Y-33581D01*
X45765Y-33672D01*
X45716Y-33793D01*
X45715Y-33923D01*
X45765Y-34043D01*
X45857Y-34135D01*
X45977Y-34185D01*
X46107Y-34185D01*
X46227Y-34135D01*
X46320Y-34043D01*
X46369Y-33923D01*
X46370Y-33793D01*
X46370Y-35525D01*
X46320Y-35405D01*
X46228Y-35313D01*
X46108Y-35263D01*
X45978Y-35263D01*
X45857Y-35313D01*
X45765Y-35404D01*
X45716Y-35525D01*
X45715Y-35655D01*
X45765Y-35775D01*
X45857Y-35867D01*
X45977Y-35917D01*
X46107Y-35917D01*
X46227Y-35867D01*
X46320Y-35775D01*
X46369Y-35655D01*
X46370Y-35525D01*
X46370Y-39190D01*
X45475Y-39190D01*
X45475Y-34616D01*
X45475Y-34123D01*
X45437Y-34031D01*
X45366Y-33961D01*
X45274Y-33923D01*
X45175Y-33923D01*
X45112Y-33923D01*
X45050Y-33985D01*
X45050Y-34320D01*
X45412Y-34320D01*
X45475Y-34257D01*
X45475Y-34123D01*
X45475Y-34616D01*
X45475Y-34482D01*
X45412Y-34420D01*
X45050Y-34420D01*
X45050Y-34754D01*
X45112Y-34816D01*
X45175Y-34816D01*
X45274Y-34816D01*
X45366Y-34778D01*
X45437Y-34708D01*
X45475Y-34616D01*
X45475Y-39190D01*
X44554Y-39190D01*
X44554Y-38581D01*
X44543Y-38363D01*
X44481Y-38212D01*
X44385Y-38184D01*
X44070Y-38500D01*
X44385Y-38815D01*
X44481Y-38787D01*
X44554Y-38581D01*
X44554Y-39190D01*
X44315Y-39190D01*
X44315Y-38885D01*
X44000Y-38570D01*
X43929Y-38641D01*
X43929Y-38500D01*
X43614Y-38184D01*
X43518Y-38212D01*
X43501Y-38260D01*
X43481Y-38212D01*
X43385Y-38184D01*
X43070Y-38500D01*
X43385Y-38815D01*
X43481Y-38787D01*
X43498Y-38739D01*
X43518Y-38787D01*
X43614Y-38815D01*
X43929Y-38500D01*
X43929Y-38641D01*
X43684Y-38885D01*
X43712Y-38981D01*
X43918Y-39054D01*
X44136Y-39043D01*
X44287Y-38981D01*
X44315Y-38885D01*
X44315Y-39190D01*
X43315Y-39190D01*
X43315Y-38885D01*
X43000Y-38570D01*
X42929Y-38641D01*
X42929Y-38500D01*
X42614Y-38184D01*
X42518Y-38212D01*
X42501Y-38260D01*
X42481Y-38212D01*
X42385Y-38184D01*
X42070Y-38500D01*
X42385Y-38815D01*
X42481Y-38787D01*
X42498Y-38739D01*
X42518Y-38787D01*
X42614Y-38815D01*
X42929Y-38500D01*
X42929Y-38641D01*
X42684Y-38885D01*
X42712Y-38981D01*
X42918Y-39054D01*
X43136Y-39043D01*
X43287Y-38981D01*
X43315Y-38885D01*
X43315Y-39190D01*
X42315Y-39190D01*
X42315Y-38885D01*
X42000Y-38570D01*
X41929Y-38641D01*
X41929Y-38500D01*
X41614Y-38184D01*
X41518Y-38212D01*
X41445Y-38418D01*
X41456Y-38636D01*
X41518Y-38787D01*
X41614Y-38815D01*
X41929Y-38500D01*
X41929Y-38641D01*
X41684Y-38885D01*
X41712Y-38981D01*
X41918Y-39054D01*
X42136Y-39043D01*
X42287Y-38981D01*
X42315Y-38885D01*
X42315Y-39190D01*
X36950Y-39190D01*
X36950Y-38410D01*
X36881Y-38245D01*
X36755Y-38118D01*
X36589Y-38050D01*
X36410Y-38049D01*
X36245Y-38118D01*
X36118Y-38244D01*
X36050Y-38410D01*
X36049Y-38589D01*
X36118Y-38754D01*
X36244Y-38881D01*
X36410Y-38949D01*
X36589Y-38950D01*
X36754Y-38881D01*
X36881Y-38755D01*
X36949Y-38589D01*
X36950Y-38410D01*
X36950Y-39190D01*
X35950Y-39190D01*
X35950Y-38410D01*
X35881Y-38245D01*
X35755Y-38118D01*
X35589Y-38050D01*
X35410Y-38049D01*
X35245Y-38118D01*
X35118Y-38244D01*
X35050Y-38410D01*
X35049Y-38589D01*
X35118Y-38754D01*
X35244Y-38881D01*
X35410Y-38949D01*
X35589Y-38950D01*
X35754Y-38881D01*
X35881Y-38755D01*
X35949Y-38589D01*
X35950Y-38410D01*
X35950Y-39190D01*
X33950Y-39190D01*
X33950Y-38410D01*
X33950Y-37410D01*
X33881Y-37245D01*
X33815Y-37178D01*
X33815Y-36385D01*
X33500Y-36070D01*
X33184Y-36385D01*
X33212Y-36481D01*
X33418Y-36554D01*
X33636Y-36543D01*
X33787Y-36481D01*
X33815Y-36385D01*
X33815Y-37178D01*
X33755Y-37118D01*
X33589Y-37050D01*
X33410Y-37049D01*
X33245Y-37118D01*
X33118Y-37244D01*
X33050Y-37410D01*
X33049Y-37589D01*
X33118Y-37754D01*
X33244Y-37881D01*
X33410Y-37949D01*
X33589Y-37950D01*
X33754Y-37881D01*
X33881Y-37755D01*
X33949Y-37589D01*
X33950Y-37410D01*
X33950Y-38410D01*
X33881Y-38245D01*
X33755Y-38118D01*
X33589Y-38050D01*
X33410Y-38049D01*
X33245Y-38118D01*
X33118Y-38244D01*
X33050Y-38410D01*
X33050Y-38486D01*
X33043Y-38363D01*
X32981Y-38212D01*
X32950Y-38203D01*
X32950Y-37410D01*
X32881Y-37245D01*
X32815Y-37178D01*
X32815Y-36385D01*
X32500Y-36070D01*
X32184Y-36385D01*
X32212Y-36481D01*
X32418Y-36554D01*
X32636Y-36543D01*
X32787Y-36481D01*
X32815Y-36385D01*
X32815Y-37178D01*
X32755Y-37118D01*
X32589Y-37050D01*
X32410Y-37049D01*
X32245Y-37118D01*
X32118Y-37244D01*
X32050Y-37410D01*
X32049Y-37589D01*
X32118Y-37754D01*
X32244Y-37881D01*
X32410Y-37949D01*
X32486Y-37949D01*
X32363Y-37956D01*
X32212Y-38018D01*
X32184Y-38114D01*
X32500Y-38429D01*
X32815Y-38114D01*
X32787Y-38018D01*
X32592Y-37948D01*
X32754Y-37881D01*
X32881Y-37755D01*
X32949Y-37589D01*
X32950Y-37410D01*
X32950Y-38203D01*
X32885Y-38184D01*
X32570Y-38500D01*
X32885Y-38815D01*
X32981Y-38787D01*
X33051Y-38592D01*
X33118Y-38754D01*
X33244Y-38881D01*
X33410Y-38949D01*
X33589Y-38950D01*
X33754Y-38881D01*
X33881Y-38755D01*
X33949Y-38589D01*
X33950Y-38410D01*
X33950Y-39190D01*
X32815Y-39190D01*
X32815Y-38885D01*
X32500Y-38570D01*
X32429Y-38641D01*
X32429Y-38500D01*
X32114Y-38184D01*
X32018Y-38212D01*
X32001Y-38260D01*
X31981Y-38212D01*
X31885Y-38184D01*
X31570Y-38500D01*
X31885Y-38815D01*
X31981Y-38787D01*
X31998Y-38739D01*
X32018Y-38787D01*
X32114Y-38815D01*
X32429Y-38500D01*
X32429Y-38641D01*
X32184Y-38885D01*
X32212Y-38981D01*
X32418Y-39054D01*
X32636Y-39043D01*
X32787Y-38981D01*
X32815Y-38885D01*
X32815Y-39190D01*
X31815Y-39190D01*
X31815Y-38885D01*
X31500Y-38570D01*
X31429Y-38641D01*
X31429Y-38500D01*
X31114Y-38184D01*
X31018Y-38212D01*
X30945Y-38418D01*
X30956Y-38636D01*
X31018Y-38787D01*
X31114Y-38815D01*
X31429Y-38500D01*
X31429Y-38641D01*
X31184Y-38885D01*
X31212Y-38981D01*
X31418Y-39054D01*
X31636Y-39043D01*
X31787Y-38981D01*
X31815Y-38885D01*
X31815Y-39190D01*
X28525Y-39190D01*
X28525Y-19864D01*
X34132Y-19864D01*
X34066Y-19877D01*
X34010Y-19915D01*
X33892Y-20033D01*
X33854Y-20090D01*
X33840Y-20157D01*
X33840Y-20204D01*
X33755Y-20118D01*
X33589Y-20050D01*
X33410Y-20049D01*
X33245Y-20118D01*
X33118Y-20244D01*
X33050Y-20410D01*
X33049Y-20589D01*
X33118Y-20754D01*
X33172Y-20809D01*
X33015Y-20809D01*
X33015Y-20809D01*
X32950Y-20822D01*
X32950Y-20410D01*
X32881Y-20245D01*
X32755Y-20118D01*
X32589Y-20050D01*
X32410Y-20049D01*
X32245Y-20118D01*
X32118Y-20244D01*
X32050Y-20410D01*
X32049Y-20589D01*
X32118Y-20754D01*
X32244Y-20881D01*
X32410Y-20949D01*
X32589Y-20950D01*
X32754Y-20881D01*
X32881Y-20755D01*
X32949Y-20589D01*
X32950Y-20410D01*
X32950Y-20822D01*
X32948Y-20822D01*
X32892Y-20860D01*
X32892Y-20860D01*
X32892Y-20860D01*
X32669Y-21083D01*
X32589Y-21050D01*
X32410Y-21049D01*
X32245Y-21118D01*
X32118Y-21244D01*
X32050Y-21410D01*
X32049Y-21589D01*
X32087Y-21680D01*
X32087Y-21680D01*
X32082Y-21688D01*
X32069Y-21755D01*
X32069Y-21975D01*
X31989Y-21975D01*
X31950Y-21992D01*
X31950Y-20410D01*
X31881Y-20245D01*
X31755Y-20118D01*
X31589Y-20050D01*
X31410Y-20049D01*
X31245Y-20118D01*
X31118Y-20244D01*
X31050Y-20410D01*
X31049Y-20589D01*
X31118Y-20754D01*
X31244Y-20881D01*
X31410Y-20949D01*
X31589Y-20950D01*
X31754Y-20881D01*
X31881Y-20755D01*
X31949Y-20589D01*
X31950Y-20410D01*
X31950Y-21992D01*
X31934Y-21998D01*
X31892Y-22040D01*
X31889Y-22046D01*
X31887Y-22041D01*
X31845Y-21998D01*
X31790Y-21976D01*
X31730Y-21975D01*
X31675Y-21975D01*
X31675Y-21950D01*
X31829Y-21950D01*
X31884Y-21927D01*
X31927Y-21885D01*
X31949Y-21829D01*
X31950Y-21770D01*
X31950Y-21170D01*
X31927Y-21115D01*
X31885Y-21072D01*
X31829Y-21050D01*
X31770Y-21049D01*
X31170Y-21049D01*
X31115Y-21072D01*
X31072Y-21114D01*
X31050Y-21170D01*
X31049Y-21229D01*
X31049Y-21829D01*
X31072Y-21884D01*
X31114Y-21927D01*
X31170Y-21949D01*
X31229Y-21950D01*
X31325Y-21950D01*
X31325Y-21975D01*
X31280Y-21975D01*
X31225Y-21998D01*
X31183Y-22040D01*
X31160Y-22096D01*
X31160Y-22155D01*
X31160Y-22516D01*
X30783Y-22516D01*
X30706Y-22531D01*
X30685Y-22546D01*
X30645Y-22573D01*
X30589Y-22550D01*
X30410Y-22549D01*
X30245Y-22618D01*
X30118Y-22744D01*
X30050Y-22910D01*
X30050Y-22986D01*
X30043Y-22863D01*
X29981Y-22712D01*
X29885Y-22684D01*
X29815Y-22755D01*
X29815Y-22614D01*
X29787Y-22518D01*
X29581Y-22445D01*
X29363Y-22456D01*
X29212Y-22518D01*
X29184Y-22614D01*
X29500Y-22929D01*
X29815Y-22614D01*
X29815Y-22755D01*
X29570Y-23000D01*
X29885Y-23315D01*
X29981Y-23287D01*
X30051Y-23092D01*
X30118Y-23254D01*
X30244Y-23381D01*
X30410Y-23449D01*
X30589Y-23450D01*
X30754Y-23381D01*
X30881Y-23255D01*
X30949Y-23089D01*
X30950Y-22916D01*
X31163Y-22916D01*
X31160Y-22922D01*
X31160Y-22982D01*
X31160Y-23376D01*
X31183Y-23431D01*
X31225Y-23473D01*
X31280Y-23496D01*
X31340Y-23496D01*
X31437Y-23496D01*
X31489Y-23548D01*
X31486Y-23557D01*
X31485Y-23686D01*
X31535Y-23805D01*
X31626Y-23897D01*
X31746Y-23946D01*
X31875Y-23947D01*
X31994Y-23897D01*
X32086Y-23806D01*
X32135Y-23686D01*
X32136Y-23603D01*
X32199Y-23667D01*
X32199Y-23667D01*
X32255Y-23704D01*
X32322Y-23718D01*
X32322Y-23718D01*
X32322Y-23718D01*
X32437Y-23718D01*
X32440Y-23727D01*
X32532Y-23818D01*
X32651Y-23868D01*
X32763Y-23868D01*
X32763Y-24154D01*
X32604Y-24313D01*
X32590Y-24313D01*
X32590Y-24233D01*
X32568Y-24178D01*
X32526Y-24136D01*
X32470Y-24113D01*
X32411Y-24113D01*
X32017Y-24113D01*
X31962Y-24135D01*
X31920Y-24178D01*
X31897Y-24233D01*
X31897Y-24292D01*
X31897Y-24742D01*
X31920Y-24798D01*
X31944Y-24822D01*
X31920Y-24847D01*
X31897Y-24902D01*
X31897Y-24962D01*
X31897Y-25412D01*
X31920Y-25467D01*
X31962Y-25509D01*
X32017Y-25532D01*
X32076Y-25532D01*
X32470Y-25532D01*
X32525Y-25509D01*
X32568Y-25467D01*
X32590Y-25412D01*
X32590Y-25352D01*
X32590Y-25332D01*
X32653Y-25332D01*
X32730Y-25364D01*
X32859Y-25364D01*
X32979Y-25315D01*
X33070Y-25223D01*
X33120Y-25104D01*
X33120Y-25060D01*
X33336Y-25060D01*
X33365Y-25048D01*
X32710Y-25703D01*
X32672Y-25759D01*
X32659Y-25826D01*
X32659Y-26281D01*
X32640Y-26273D01*
X32640Y-26062D01*
X32628Y-25999D01*
X32625Y-25986D01*
X32625Y-25986D01*
X32582Y-25921D01*
X32582Y-25921D01*
X32424Y-25764D01*
X32360Y-25720D01*
X32283Y-25705D01*
X31421Y-25705D01*
X31248Y-25532D01*
X31250Y-25532D01*
X31643Y-25532D01*
X31699Y-25509D01*
X31741Y-25467D01*
X31764Y-25412D01*
X31764Y-25352D01*
X31764Y-25225D01*
X31781Y-25183D01*
X31781Y-25053D01*
X31764Y-25011D01*
X31764Y-24902D01*
X31741Y-24847D01*
X31716Y-24822D01*
X31741Y-24798D01*
X31764Y-24743D01*
X31764Y-24683D01*
X31764Y-24233D01*
X31741Y-24178D01*
X31699Y-24136D01*
X31644Y-24113D01*
X31584Y-24113D01*
X31190Y-24113D01*
X31135Y-24135D01*
X31093Y-24178D01*
X31070Y-24233D01*
X31070Y-24287D01*
X30927Y-24144D01*
X30949Y-24089D01*
X30950Y-23910D01*
X30881Y-23745D01*
X30755Y-23618D01*
X30589Y-23550D01*
X30410Y-23549D01*
X30245Y-23618D01*
X30118Y-23744D01*
X30050Y-23910D01*
X30050Y-23986D01*
X30043Y-23863D01*
X29981Y-23712D01*
X29885Y-23684D01*
X29815Y-23755D01*
X29815Y-23614D01*
X29787Y-23518D01*
X29739Y-23501D01*
X29787Y-23481D01*
X29815Y-23385D01*
X29500Y-23070D01*
X29429Y-23141D01*
X29429Y-23000D01*
X29114Y-22684D01*
X29018Y-22712D01*
X28945Y-22918D01*
X28956Y-23136D01*
X29018Y-23287D01*
X29114Y-23315D01*
X29429Y-23000D01*
X29429Y-23141D01*
X29184Y-23385D01*
X29212Y-23481D01*
X29260Y-23498D01*
X29212Y-23518D01*
X29184Y-23614D01*
X29500Y-23929D01*
X29815Y-23614D01*
X29815Y-23755D01*
X29570Y-24000D01*
X29885Y-24315D01*
X29981Y-24287D01*
X30051Y-24092D01*
X30118Y-24254D01*
X30244Y-24381D01*
X30410Y-24449D01*
X30589Y-24450D01*
X30644Y-24427D01*
X30800Y-24582D01*
X30800Y-24663D01*
X30755Y-24618D01*
X30589Y-24550D01*
X30410Y-24549D01*
X30245Y-24618D01*
X30118Y-24744D01*
X30050Y-24910D01*
X30049Y-25089D01*
X30118Y-25254D01*
X30244Y-25381D01*
X30410Y-25449D01*
X30589Y-25450D01*
X30754Y-25381D01*
X30800Y-25336D01*
X30800Y-25566D01*
X30815Y-25643D01*
X30858Y-25708D01*
X31161Y-26011D01*
X31112Y-26011D01*
X31056Y-26034D01*
X31014Y-26076D01*
X30991Y-26131D01*
X30991Y-26191D01*
X30991Y-27962D01*
X31014Y-28017D01*
X31056Y-28060D01*
X31111Y-28083D01*
X31171Y-28083D01*
X31561Y-28083D01*
X31561Y-28196D01*
X31556Y-28196D01*
X31501Y-28219D01*
X31458Y-28261D01*
X31436Y-28316D01*
X31435Y-28376D01*
X31435Y-28564D01*
X31431Y-28568D01*
X31299Y-28568D01*
X31299Y-28568D01*
X31280Y-28572D01*
X31203Y-28587D01*
X31122Y-28642D01*
X31122Y-28642D01*
X31043Y-28720D01*
X30989Y-28801D01*
X30970Y-28897D01*
X30970Y-29724D01*
X30989Y-29820D01*
X31043Y-29901D01*
X31682Y-30540D01*
X31682Y-30576D01*
X31732Y-30695D01*
X31823Y-30787D01*
X31942Y-30836D01*
X32072Y-30836D01*
X32191Y-30787D01*
X32283Y-30696D01*
X32332Y-30576D01*
X32332Y-30447D01*
X32283Y-30327D01*
X32192Y-30236D01*
X32191Y-30236D01*
X32283Y-30144D01*
X32310Y-30078D01*
X32580Y-30348D01*
X32580Y-30531D01*
X32532Y-30551D01*
X32441Y-30642D01*
X32391Y-30761D01*
X32391Y-30891D01*
X32422Y-30966D01*
X31062Y-30966D01*
X30996Y-30980D01*
X30949Y-31010D01*
X30950Y-30910D01*
X30950Y-29910D01*
X30950Y-28910D01*
X30950Y-27910D01*
X30950Y-26910D01*
X30950Y-25910D01*
X30881Y-25745D01*
X30755Y-25618D01*
X30589Y-25550D01*
X30410Y-25549D01*
X30245Y-25618D01*
X30118Y-25744D01*
X30050Y-25910D01*
X30049Y-26089D01*
X30118Y-26254D01*
X30244Y-26381D01*
X30410Y-26449D01*
X30589Y-26450D01*
X30754Y-26381D01*
X30881Y-26255D01*
X30949Y-26089D01*
X30950Y-25910D01*
X30950Y-26910D01*
X30881Y-26745D01*
X30755Y-26618D01*
X30589Y-26550D01*
X30410Y-26549D01*
X30245Y-26618D01*
X30118Y-26744D01*
X30050Y-26910D01*
X30049Y-27089D01*
X30118Y-27254D01*
X30244Y-27381D01*
X30410Y-27449D01*
X30589Y-27450D01*
X30754Y-27381D01*
X30881Y-27255D01*
X30949Y-27089D01*
X30950Y-26910D01*
X30950Y-27910D01*
X30881Y-27745D01*
X30755Y-27618D01*
X30589Y-27550D01*
X30410Y-27549D01*
X30245Y-27618D01*
X30118Y-27744D01*
X30050Y-27910D01*
X30049Y-28089D01*
X30118Y-28254D01*
X30244Y-28381D01*
X30410Y-28449D01*
X30589Y-28450D01*
X30754Y-28381D01*
X30881Y-28255D01*
X30949Y-28089D01*
X30950Y-27910D01*
X30950Y-28910D01*
X30881Y-28745D01*
X30755Y-28618D01*
X30589Y-28550D01*
X30410Y-28549D01*
X30245Y-28618D01*
X30118Y-28744D01*
X30050Y-28910D01*
X30049Y-29089D01*
X30118Y-29254D01*
X30244Y-29381D01*
X30410Y-29449D01*
X30589Y-29450D01*
X30754Y-29381D01*
X30881Y-29255D01*
X30949Y-29089D01*
X30950Y-28910D01*
X30950Y-29910D01*
X30881Y-29745D01*
X30755Y-29618D01*
X30589Y-29550D01*
X30410Y-29549D01*
X30245Y-29618D01*
X30118Y-29744D01*
X30050Y-29910D01*
X30049Y-30089D01*
X30118Y-30254D01*
X30244Y-30381D01*
X30410Y-30449D01*
X30589Y-30450D01*
X30754Y-30381D01*
X30881Y-30255D01*
X30949Y-30089D01*
X30950Y-29910D01*
X30950Y-30910D01*
X30881Y-30745D01*
X30755Y-30618D01*
X30589Y-30550D01*
X30410Y-30549D01*
X30245Y-30618D01*
X30118Y-30744D01*
X30050Y-30910D01*
X30049Y-31089D01*
X30118Y-31254D01*
X30184Y-31321D01*
X30157Y-31321D01*
X30090Y-31334D01*
X30033Y-31372D01*
X29950Y-31455D01*
X29950Y-30910D01*
X29950Y-29910D01*
X29950Y-28910D01*
X29950Y-27910D01*
X29950Y-26910D01*
X29950Y-25910D01*
X29950Y-24910D01*
X29881Y-24745D01*
X29755Y-24618D01*
X29589Y-24550D01*
X29513Y-24550D01*
X29636Y-24543D01*
X29787Y-24481D01*
X29815Y-24385D01*
X29500Y-24070D01*
X29429Y-24141D01*
X29429Y-24000D01*
X29114Y-23684D01*
X29018Y-23712D01*
X28945Y-23918D01*
X28956Y-24136D01*
X29018Y-24287D01*
X29114Y-24315D01*
X29429Y-24000D01*
X29429Y-24141D01*
X29184Y-24385D01*
X29212Y-24481D01*
X29407Y-24551D01*
X29245Y-24618D01*
X29118Y-24744D01*
X29050Y-24910D01*
X29049Y-25089D01*
X29118Y-25254D01*
X29244Y-25381D01*
X29410Y-25449D01*
X29589Y-25450D01*
X29754Y-25381D01*
X29881Y-25255D01*
X29949Y-25089D01*
X29950Y-24910D01*
X29950Y-25910D01*
X29881Y-25745D01*
X29755Y-25618D01*
X29589Y-25550D01*
X29410Y-25549D01*
X29245Y-25618D01*
X29118Y-25744D01*
X29050Y-25910D01*
X29049Y-26089D01*
X29118Y-26254D01*
X29244Y-26381D01*
X29410Y-26449D01*
X29589Y-26450D01*
X29754Y-26381D01*
X29881Y-26255D01*
X29949Y-26089D01*
X29950Y-25910D01*
X29950Y-26910D01*
X29881Y-26745D01*
X29755Y-26618D01*
X29589Y-26550D01*
X29410Y-26549D01*
X29245Y-26618D01*
X29118Y-26744D01*
X29050Y-26910D01*
X29049Y-27089D01*
X29118Y-27254D01*
X29244Y-27381D01*
X29410Y-27449D01*
X29589Y-27450D01*
X29754Y-27381D01*
X29881Y-27255D01*
X29949Y-27089D01*
X29950Y-26910D01*
X29950Y-27910D01*
X29881Y-27745D01*
X29755Y-27618D01*
X29589Y-27550D01*
X29410Y-27549D01*
X29245Y-27618D01*
X29118Y-27744D01*
X29050Y-27910D01*
X29049Y-28089D01*
X29118Y-28254D01*
X29244Y-28381D01*
X29410Y-28449D01*
X29589Y-28450D01*
X29754Y-28381D01*
X29881Y-28255D01*
X29949Y-28089D01*
X29950Y-27910D01*
X29950Y-28910D01*
X29881Y-28745D01*
X29755Y-28618D01*
X29589Y-28550D01*
X29410Y-28549D01*
X29245Y-28618D01*
X29118Y-28744D01*
X29050Y-28910D01*
X29049Y-29089D01*
X29118Y-29254D01*
X29244Y-29381D01*
X29410Y-29449D01*
X29589Y-29450D01*
X29754Y-29381D01*
X29881Y-29255D01*
X29949Y-29089D01*
X29950Y-28910D01*
X29950Y-29910D01*
X29881Y-29745D01*
X29755Y-29618D01*
X29589Y-29550D01*
X29410Y-29549D01*
X29245Y-29618D01*
X29118Y-29744D01*
X29050Y-29910D01*
X29049Y-30089D01*
X29118Y-30254D01*
X29244Y-30381D01*
X29410Y-30449D01*
X29589Y-30450D01*
X29754Y-30381D01*
X29881Y-30255D01*
X29949Y-30089D01*
X29950Y-29910D01*
X29950Y-30910D01*
X29881Y-30745D01*
X29755Y-30618D01*
X29589Y-30550D01*
X29410Y-30549D01*
X29245Y-30618D01*
X29118Y-30744D01*
X29050Y-30910D01*
X29049Y-31089D01*
X29118Y-31254D01*
X29244Y-31381D01*
X29410Y-31449D01*
X29589Y-31450D01*
X29754Y-31381D01*
X29881Y-31255D01*
X29949Y-31089D01*
X29950Y-30910D01*
X29950Y-31455D01*
X29915Y-31490D01*
X29877Y-31547D01*
X29864Y-31614D01*
X29864Y-31728D01*
X29755Y-31618D01*
X29589Y-31550D01*
X29410Y-31549D01*
X29245Y-31618D01*
X29118Y-31744D01*
X29050Y-31910D01*
X29049Y-32089D01*
X29118Y-32254D01*
X29244Y-32381D01*
X29410Y-32449D01*
X29589Y-32450D01*
X29754Y-32381D01*
X29864Y-32272D01*
X29864Y-33228D01*
X29755Y-33118D01*
X29589Y-33050D01*
X29410Y-33049D01*
X29245Y-33118D01*
X29118Y-33244D01*
X29050Y-33410D01*
X29049Y-33589D01*
X29118Y-33754D01*
X29244Y-33881D01*
X29410Y-33949D01*
X29589Y-33950D01*
X29754Y-33881D01*
X29864Y-33772D01*
X29864Y-34022D01*
X29691Y-34195D01*
X29212Y-34195D01*
X29145Y-34208D01*
X29088Y-34246D01*
X29088Y-34246D01*
X29088Y-34246D01*
X28892Y-34443D01*
X28854Y-34499D01*
X28840Y-34566D01*
X28840Y-35203D01*
X28695Y-35348D01*
X28657Y-35405D01*
X28643Y-35472D01*
X28643Y-36683D01*
X28622Y-36705D01*
X28572Y-36824D01*
X28572Y-36954D01*
X28621Y-37073D01*
X28713Y-37165D01*
X28832Y-37214D01*
X28962Y-37214D01*
X29081Y-37165D01*
X29172Y-37074D01*
X29222Y-36954D01*
X29222Y-36825D01*
X29218Y-36814D01*
X31255Y-36814D01*
X31300Y-36858D01*
X31300Y-37095D01*
X31245Y-37118D01*
X31118Y-37244D01*
X31050Y-37410D01*
X31049Y-37589D01*
X31118Y-37754D01*
X31244Y-37881D01*
X31410Y-37949D01*
X31486Y-37949D01*
X31363Y-37956D01*
X31212Y-38018D01*
X31184Y-38114D01*
X31500Y-38429D01*
X31815Y-38114D01*
X31787Y-38018D01*
X31592Y-37948D01*
X31754Y-37881D01*
X31881Y-37755D01*
X31949Y-37589D01*
X31950Y-37410D01*
X31881Y-37245D01*
X31755Y-37118D01*
X31700Y-37095D01*
X31700Y-36775D01*
X31684Y-36699D01*
X31684Y-36699D01*
X31670Y-36677D01*
X31641Y-36634D01*
X31641Y-36634D01*
X31555Y-36547D01*
X31636Y-36543D01*
X31787Y-36481D01*
X31815Y-36385D01*
X31500Y-36070D01*
X31184Y-36385D01*
X31192Y-36414D01*
X30807Y-36414D01*
X30815Y-36385D01*
X30500Y-36070D01*
X30184Y-36385D01*
X30192Y-36414D01*
X29897Y-36414D01*
X29927Y-36385D01*
X29949Y-36329D01*
X29950Y-36270D01*
X29950Y-36014D01*
X29956Y-36136D01*
X30018Y-36287D01*
X30114Y-36315D01*
X30429Y-36000D01*
X30423Y-35994D01*
X30494Y-35923D01*
X30500Y-35929D01*
X30505Y-35923D01*
X30576Y-35994D01*
X30570Y-36000D01*
X30885Y-36315D01*
X30981Y-36287D01*
X30998Y-36239D01*
X31018Y-36287D01*
X31114Y-36315D01*
X31429Y-36000D01*
X31423Y-35994D01*
X31494Y-35923D01*
X31500Y-35929D01*
X31505Y-35923D01*
X31576Y-35994D01*
X31570Y-36000D01*
X31885Y-36315D01*
X31981Y-36287D01*
X31998Y-36239D01*
X32018Y-36287D01*
X32114Y-36315D01*
X32429Y-36000D01*
X32423Y-35994D01*
X32494Y-35923D01*
X32500Y-35929D01*
X32505Y-35923D01*
X32576Y-35994D01*
X32570Y-36000D01*
X32885Y-36315D01*
X32981Y-36287D01*
X32998Y-36239D01*
X33018Y-36287D01*
X33114Y-36315D01*
X33429Y-36000D01*
X33423Y-35994D01*
X33494Y-35923D01*
X33500Y-35929D01*
X33505Y-35923D01*
X33576Y-35994D01*
X33570Y-36000D01*
X33885Y-36315D01*
X33981Y-36287D01*
X34054Y-36081D01*
X34043Y-35863D01*
X33981Y-35712D01*
X33885Y-35684D01*
X33931Y-35639D01*
X33919Y-35627D01*
X34060Y-35486D01*
X34060Y-35486D01*
X34060Y-35486D01*
X34098Y-35429D01*
X34112Y-35362D01*
X34112Y-35362D01*
X34112Y-35362D01*
X34112Y-34488D01*
X34098Y-34421D01*
X34098Y-34421D01*
X34060Y-34364D01*
X33675Y-33978D01*
X33675Y-33950D01*
X33829Y-33950D01*
X33884Y-33927D01*
X33927Y-33885D01*
X33949Y-33829D01*
X33950Y-33770D01*
X33950Y-33582D01*
X34068Y-33632D01*
X34116Y-33632D01*
X34116Y-34330D01*
X34129Y-34397D01*
X34167Y-34454D01*
X34403Y-34690D01*
X34460Y-34728D01*
X34460Y-34728D01*
X34527Y-34741D01*
X35801Y-34741D01*
X35457Y-35086D01*
X34379Y-35086D01*
X34324Y-35108D01*
X34282Y-35151D01*
X34259Y-35206D01*
X34259Y-35265D01*
X34259Y-36053D01*
X34275Y-36092D01*
X34266Y-36092D01*
X34146Y-36141D01*
X34055Y-36232D01*
X34054Y-36234D01*
X34005Y-36352D01*
X34005Y-36481D01*
X34055Y-36601D01*
X34146Y-36692D01*
X34265Y-36742D01*
X34395Y-36742D01*
X34514Y-36693D01*
X34575Y-36631D01*
X35195Y-36631D01*
X35147Y-36746D01*
X35147Y-36875D01*
X35151Y-36884D01*
X34876Y-37159D01*
X34844Y-37207D01*
X34755Y-37118D01*
X34589Y-37050D01*
X34410Y-37049D01*
X34245Y-37118D01*
X34118Y-37244D01*
X34050Y-37410D01*
X34049Y-37589D01*
X34118Y-37754D01*
X34244Y-37881D01*
X34410Y-37949D01*
X34589Y-37950D01*
X34754Y-37881D01*
X34825Y-37811D01*
X34825Y-37927D01*
X34669Y-38083D01*
X34589Y-38050D01*
X34410Y-38049D01*
X34245Y-38118D01*
X34118Y-38244D01*
X34050Y-38410D01*
X34049Y-38589D01*
X34118Y-38754D01*
X34244Y-38881D01*
X34410Y-38949D01*
X34589Y-38950D01*
X34754Y-38881D01*
X34881Y-38755D01*
X34949Y-38589D01*
X34950Y-38410D01*
X34916Y-38330D01*
X35123Y-38123D01*
X35161Y-38066D01*
X35161Y-38066D01*
X35175Y-38000D01*
X35175Y-37811D01*
X35244Y-37881D01*
X35410Y-37949D01*
X35589Y-37950D01*
X35754Y-37881D01*
X35881Y-37755D01*
X35949Y-37589D01*
X35950Y-37410D01*
X35881Y-37245D01*
X35755Y-37118D01*
X35662Y-37080D01*
X35747Y-36995D01*
X35797Y-36875D01*
X35797Y-36746D01*
X35749Y-36631D01*
X36502Y-36631D01*
X36793Y-36922D01*
X36793Y-37157D01*
X36755Y-37118D01*
X36589Y-37050D01*
X36410Y-37049D01*
X36245Y-37118D01*
X36118Y-37244D01*
X36050Y-37410D01*
X36049Y-37589D01*
X36118Y-37754D01*
X36244Y-37881D01*
X36410Y-37949D01*
X36589Y-37950D01*
X36754Y-37881D01*
X36793Y-37842D01*
X36793Y-37874D01*
X36806Y-37940D01*
X36844Y-37997D01*
X37002Y-38155D01*
X37059Y-38193D01*
X37125Y-38206D01*
X37157Y-38206D01*
X37118Y-38244D01*
X37050Y-38410D01*
X37049Y-38589D01*
X37118Y-38754D01*
X37244Y-38881D01*
X37410Y-38949D01*
X37589Y-38950D01*
X37754Y-38881D01*
X37881Y-38755D01*
X37949Y-38589D01*
X37950Y-38410D01*
X37881Y-38245D01*
X37842Y-38206D01*
X38157Y-38206D01*
X38118Y-38244D01*
X38050Y-38410D01*
X38049Y-38589D01*
X38118Y-38754D01*
X38244Y-38881D01*
X38410Y-38949D01*
X38589Y-38950D01*
X38754Y-38881D01*
X38881Y-38755D01*
X38949Y-38589D01*
X38950Y-38410D01*
X38881Y-38245D01*
X38842Y-38206D01*
X39157Y-38206D01*
X39118Y-38244D01*
X39050Y-38410D01*
X39049Y-38589D01*
X39118Y-38754D01*
X39244Y-38881D01*
X39410Y-38949D01*
X39589Y-38950D01*
X39754Y-38881D01*
X39881Y-38755D01*
X39949Y-38589D01*
X39950Y-38410D01*
X39881Y-38245D01*
X39842Y-38206D01*
X39959Y-38206D01*
X40083Y-38330D01*
X40050Y-38410D01*
X40049Y-38589D01*
X40118Y-38754D01*
X40244Y-38881D01*
X40410Y-38949D01*
X40589Y-38950D01*
X40754Y-38881D01*
X40881Y-38755D01*
X40949Y-38589D01*
X40950Y-38410D01*
X40881Y-38245D01*
X40755Y-38118D01*
X40589Y-38050D01*
X40410Y-38049D01*
X40330Y-38083D01*
X40197Y-37949D01*
X40229Y-37950D01*
X40829Y-37950D01*
X40884Y-37927D01*
X40927Y-37885D01*
X40949Y-37829D01*
X40950Y-37770D01*
X40950Y-37170D01*
X40927Y-37115D01*
X40885Y-37072D01*
X40829Y-37050D01*
X40770Y-37049D01*
X40170Y-37049D01*
X40115Y-37072D01*
X40072Y-37114D01*
X40050Y-37170D01*
X40049Y-37229D01*
X40049Y-37829D01*
X40063Y-37862D01*
X40031Y-37856D01*
X39779Y-37856D01*
X39881Y-37755D01*
X39949Y-37589D01*
X39950Y-37410D01*
X39881Y-37245D01*
X39755Y-37118D01*
X39589Y-37050D01*
X39410Y-37049D01*
X39245Y-37118D01*
X39118Y-37244D01*
X39050Y-37410D01*
X39049Y-37589D01*
X39118Y-37754D01*
X39220Y-37856D01*
X38779Y-37856D01*
X38881Y-37755D01*
X38949Y-37589D01*
X38950Y-37410D01*
X38881Y-37245D01*
X38755Y-37118D01*
X38589Y-37050D01*
X38410Y-37049D01*
X38245Y-37118D01*
X38118Y-37244D01*
X38050Y-37410D01*
X38049Y-37589D01*
X38118Y-37754D01*
X38220Y-37856D01*
X37779Y-37856D01*
X37881Y-37755D01*
X37949Y-37589D01*
X37950Y-37410D01*
X37881Y-37245D01*
X37755Y-37118D01*
X37589Y-37050D01*
X37410Y-37049D01*
X37245Y-37118D01*
X37143Y-37220D01*
X37143Y-36850D01*
X37130Y-36783D01*
X37092Y-36726D01*
X36698Y-36332D01*
X36641Y-36295D01*
X36574Y-36281D01*
X34626Y-36281D01*
X34606Y-36233D01*
X34546Y-36173D01*
X36801Y-36173D01*
X36856Y-36150D01*
X36898Y-36108D01*
X36921Y-36053D01*
X36921Y-35993D01*
X36921Y-35206D01*
X36898Y-35151D01*
X36856Y-35109D01*
X36801Y-35086D01*
X36741Y-35086D01*
X36023Y-35086D01*
X36067Y-35042D01*
X38066Y-35042D01*
X38205Y-35180D01*
X38205Y-35180D01*
X38206Y-35181D01*
X38196Y-35206D01*
X38196Y-35265D01*
X38196Y-36053D01*
X38219Y-36108D01*
X38261Y-36150D01*
X38316Y-36173D01*
X38376Y-36173D01*
X40738Y-36173D01*
X40793Y-36150D01*
X40835Y-36108D01*
X40858Y-36053D01*
X40858Y-35993D01*
X40858Y-35214D01*
X41187Y-35214D01*
X41332Y-35359D01*
X41332Y-35359D01*
X41389Y-35397D01*
X41456Y-35411D01*
X41456Y-35411D01*
X41571Y-35411D01*
X41574Y-35420D01*
X41666Y-35511D01*
X41699Y-35525D01*
X41658Y-35542D01*
X41616Y-35584D01*
X41593Y-35639D01*
X41593Y-35698D01*
X41593Y-36092D01*
X41616Y-36147D01*
X41658Y-36190D01*
X41713Y-36212D01*
X41773Y-36213D01*
X42223Y-36213D01*
X42269Y-36193D01*
X42269Y-36365D01*
X42223Y-36346D01*
X42163Y-36346D01*
X41713Y-36346D01*
X41658Y-36368D01*
X41616Y-36410D01*
X41593Y-36466D01*
X41593Y-36525D01*
X41593Y-36919D01*
X41616Y-36974D01*
X41658Y-37016D01*
X41713Y-37039D01*
X41718Y-37039D01*
X41718Y-37145D01*
X41618Y-37244D01*
X41550Y-37410D01*
X41549Y-37589D01*
X41618Y-37754D01*
X41744Y-37881D01*
X41910Y-37949D01*
X41986Y-37949D01*
X41863Y-37956D01*
X41712Y-38018D01*
X41684Y-38114D01*
X42000Y-38429D01*
X42315Y-38114D01*
X42287Y-38018D01*
X42092Y-37948D01*
X42254Y-37881D01*
X42381Y-37755D01*
X42383Y-37750D01*
X42616Y-37750D01*
X42618Y-37754D01*
X42744Y-37881D01*
X42910Y-37949D01*
X42986Y-37949D01*
X42863Y-37956D01*
X42712Y-38018D01*
X42684Y-38114D01*
X43000Y-38429D01*
X43315Y-38114D01*
X43287Y-38018D01*
X43092Y-37948D01*
X43254Y-37881D01*
X43381Y-37755D01*
X43383Y-37750D01*
X43549Y-37750D01*
X43549Y-37829D01*
X43572Y-37884D01*
X43614Y-37927D01*
X43670Y-37949D01*
X43729Y-37950D01*
X43985Y-37950D01*
X43863Y-37956D01*
X43712Y-38018D01*
X43684Y-38114D01*
X44000Y-38429D01*
X44315Y-38114D01*
X44287Y-38018D01*
X44095Y-37950D01*
X44329Y-37950D01*
X44384Y-37927D01*
X44427Y-37885D01*
X44449Y-37829D01*
X44450Y-37770D01*
X44450Y-37170D01*
X44427Y-37115D01*
X44390Y-37078D01*
X44390Y-36663D01*
X44390Y-36269D01*
X44367Y-36214D01*
X44325Y-36172D01*
X44270Y-36149D01*
X44211Y-36149D01*
X43761Y-36149D01*
X43705Y-36171D01*
X43663Y-36214D01*
X43640Y-36269D01*
X43640Y-36321D01*
X43632Y-36321D01*
X43632Y-36195D01*
X43582Y-36075D01*
X43491Y-35984D01*
X43372Y-35934D01*
X43242Y-35934D01*
X43123Y-35984D01*
X43031Y-36075D01*
X42982Y-36194D01*
X42982Y-36324D01*
X43031Y-36443D01*
X43122Y-36535D01*
X43242Y-36584D01*
X43371Y-36584D01*
X43380Y-36581D01*
X43419Y-36619D01*
X43476Y-36657D01*
X43476Y-36657D01*
X43543Y-36671D01*
X43640Y-36671D01*
X43640Y-36722D01*
X43663Y-36777D01*
X43705Y-36820D01*
X43760Y-36842D01*
X43820Y-36842D01*
X44270Y-36842D01*
X44325Y-36820D01*
X44367Y-36777D01*
X44390Y-36722D01*
X44390Y-36663D01*
X44390Y-37078D01*
X44385Y-37072D01*
X44329Y-37050D01*
X44270Y-37049D01*
X43670Y-37049D01*
X43615Y-37072D01*
X43572Y-37114D01*
X43550Y-37170D01*
X43549Y-37229D01*
X43549Y-37250D01*
X43383Y-37250D01*
X43381Y-37245D01*
X43255Y-37118D01*
X43089Y-37050D01*
X42910Y-37049D01*
X42745Y-37118D01*
X42618Y-37244D01*
X42616Y-37250D01*
X42383Y-37250D01*
X42381Y-37245D01*
X42255Y-37118D01*
X42218Y-37103D01*
X42218Y-37039D01*
X42223Y-37039D01*
X42278Y-37017D01*
X42320Y-36974D01*
X42334Y-36940D01*
X42418Y-36923D01*
X42499Y-36869D01*
X42696Y-36672D01*
X42696Y-36672D01*
X42696Y-36672D01*
X42750Y-36591D01*
X42750Y-36591D01*
X42765Y-36515D01*
X42769Y-36496D01*
X42769Y-36496D01*
X42769Y-36496D01*
X42769Y-35524D01*
X42795Y-35499D01*
X42844Y-35379D01*
X42844Y-35250D01*
X42795Y-35131D01*
X42721Y-35056D01*
X43700Y-35056D01*
X43966Y-35056D01*
X43966Y-35143D01*
X44015Y-35262D01*
X44075Y-35322D01*
X43761Y-35322D01*
X43705Y-35345D01*
X43663Y-35387D01*
X43640Y-35442D01*
X43640Y-35502D01*
X43640Y-35895D01*
X43663Y-35950D01*
X43705Y-35993D01*
X43760Y-36016D01*
X43820Y-36016D01*
X44270Y-36016D01*
X44325Y-35993D01*
X44367Y-35951D01*
X44390Y-35896D01*
X44390Y-35836D01*
X44390Y-35765D01*
X44720Y-35765D01*
X44724Y-35774D01*
X44815Y-35865D01*
X44935Y-35915D01*
X45064Y-35915D01*
X45183Y-35866D01*
X45275Y-35774D01*
X45324Y-35655D01*
X45325Y-35526D01*
X45319Y-35511D01*
X45352Y-35478D01*
X45374Y-35423D01*
X45375Y-35363D01*
X45375Y-34970D01*
X45352Y-34915D01*
X45310Y-34872D01*
X45254Y-34850D01*
X45195Y-34849D01*
X44745Y-34849D01*
X44690Y-34872D01*
X44647Y-34914D01*
X44625Y-34970D01*
X44624Y-35029D01*
X44624Y-35415D01*
X44379Y-35415D01*
X44371Y-35397D01*
X44475Y-35354D01*
X44566Y-35263D01*
X44616Y-35143D01*
X44616Y-35014D01*
X44567Y-34894D01*
X44514Y-34842D01*
X44566Y-34790D01*
X44589Y-34735D01*
X44633Y-34778D01*
X44725Y-34816D01*
X44824Y-34816D01*
X44887Y-34816D01*
X44950Y-34754D01*
X44950Y-34420D01*
X44587Y-34420D01*
X44572Y-34435D01*
X44567Y-34422D01*
X44475Y-34330D01*
X44356Y-34281D01*
X44226Y-34281D01*
X44107Y-34330D01*
X44015Y-34421D01*
X43966Y-34541D01*
X43966Y-34556D01*
X43732Y-34556D01*
X41676Y-34556D01*
X39646Y-34556D01*
X39296Y-34206D01*
X39240Y-34169D01*
X39173Y-34155D01*
X38497Y-34155D01*
X38127Y-33785D01*
X38127Y-33653D01*
X38207Y-33653D01*
X38262Y-33631D01*
X38304Y-33589D01*
X38327Y-33533D01*
X38327Y-33474D01*
X38327Y-33080D01*
X38304Y-33025D01*
X38262Y-32983D01*
X38207Y-32960D01*
X38148Y-32960D01*
X37698Y-32960D01*
X37642Y-32982D01*
X37600Y-33025D01*
X37598Y-33030D01*
X37596Y-33025D01*
X37554Y-32983D01*
X37499Y-32960D01*
X37439Y-32960D01*
X36989Y-32960D01*
X36934Y-32982D01*
X36892Y-33025D01*
X36889Y-33030D01*
X36887Y-33025D01*
X36845Y-32983D01*
X36790Y-32960D01*
X36730Y-32960D01*
X36632Y-32960D01*
X36499Y-32827D01*
X36790Y-32827D01*
X36845Y-32804D01*
X36887Y-32762D01*
X36889Y-32756D01*
X36891Y-32762D01*
X36934Y-32804D01*
X36989Y-32827D01*
X37048Y-32827D01*
X37498Y-32827D01*
X37553Y-32804D01*
X37596Y-32762D01*
X37598Y-32756D01*
X37600Y-32762D01*
X37642Y-32804D01*
X37697Y-32827D01*
X37757Y-32827D01*
X38207Y-32827D01*
X38262Y-32804D01*
X38304Y-32762D01*
X38327Y-32707D01*
X38327Y-32647D01*
X38327Y-32253D01*
X38304Y-32198D01*
X38262Y-32156D01*
X38207Y-32133D01*
X38148Y-32133D01*
X38127Y-32133D01*
X38127Y-32007D01*
X38114Y-31940D01*
X38076Y-31884D01*
X37998Y-31806D01*
X38002Y-31797D01*
X38002Y-31667D01*
X37970Y-31592D01*
X38503Y-31592D01*
X38570Y-31579D01*
X38570Y-31579D01*
X38627Y-31541D01*
X38667Y-31501D01*
X38704Y-31444D01*
X38718Y-31377D01*
X38718Y-31370D01*
X38769Y-31370D01*
X38825Y-31347D01*
X38867Y-31305D01*
X38890Y-31250D01*
X38890Y-31190D01*
X38890Y-30403D01*
X38875Y-30368D01*
X39037Y-30368D01*
X39023Y-30403D01*
X39023Y-30462D01*
X39023Y-31250D01*
X39045Y-31305D01*
X39088Y-31347D01*
X39143Y-31370D01*
X39202Y-31370D01*
X39282Y-31370D01*
X39264Y-31377D01*
X39173Y-31469D01*
X39123Y-31588D01*
X39123Y-31717D01*
X39146Y-31772D01*
X39120Y-31761D01*
X38990Y-31761D01*
X38871Y-31810D01*
X38779Y-31902D01*
X38730Y-32021D01*
X38730Y-32150D01*
X38774Y-32259D01*
X38745Y-32259D01*
X38690Y-32282D01*
X38647Y-32324D01*
X38625Y-32379D01*
X38624Y-32439D01*
X38624Y-32832D01*
X38647Y-32888D01*
X38689Y-32930D01*
X38745Y-32953D01*
X38804Y-32953D01*
X39232Y-32953D01*
X39099Y-33086D01*
X38745Y-33086D01*
X38690Y-33108D01*
X38647Y-33151D01*
X38625Y-33206D01*
X38624Y-33265D01*
X38624Y-33659D01*
X38647Y-33714D01*
X38689Y-33757D01*
X38745Y-33779D01*
X38804Y-33779D01*
X39254Y-33779D01*
X39309Y-33757D01*
X39352Y-33715D01*
X39374Y-33659D01*
X39375Y-33600D01*
X39375Y-33305D01*
X39558Y-33122D01*
X39591Y-33201D01*
X39661Y-33271D01*
X39753Y-33309D01*
X39887Y-33309D01*
X39950Y-33247D01*
X39950Y-32884D01*
X39942Y-32884D01*
X39942Y-32784D01*
X39950Y-32784D01*
X39950Y-32422D01*
X39887Y-32359D01*
X39753Y-32359D01*
X39661Y-32397D01*
X39623Y-32435D01*
X39623Y-31932D01*
X39632Y-31929D01*
X39724Y-31837D01*
X39773Y-31718D01*
X39773Y-31589D01*
X39765Y-31568D01*
X39825Y-31608D01*
X39825Y-31608D01*
X39902Y-31624D01*
X39921Y-31627D01*
X39921Y-31627D01*
X39921Y-31627D01*
X40029Y-31627D01*
X40059Y-31672D01*
X40469Y-32082D01*
X40291Y-32260D01*
X40248Y-32325D01*
X40241Y-32359D01*
X40112Y-32359D01*
X40050Y-32422D01*
X40050Y-32784D01*
X40057Y-32784D01*
X40057Y-32884D01*
X40050Y-32884D01*
X40050Y-33247D01*
X40112Y-33309D01*
X40233Y-33309D01*
X40233Y-33661D01*
X40248Y-33737D01*
X40291Y-33802D01*
X40606Y-34117D01*
X40606Y-34117D01*
X40649Y-34146D01*
X40671Y-34161D01*
X40671Y-34161D01*
X40748Y-34176D01*
X40748Y-34176D01*
X42834Y-34176D01*
X43218Y-34176D01*
X43228Y-34199D01*
X43319Y-34291D01*
X43439Y-34340D01*
X43568Y-34340D01*
X43687Y-34291D01*
X43772Y-34206D01*
X44468Y-34206D01*
X44524Y-34195D01*
X44525Y-34257D01*
X44587Y-34320D01*
X44950Y-34320D01*
X44950Y-33985D01*
X44887Y-33923D01*
X44855Y-33923D01*
X45609Y-33168D01*
X45664Y-33087D01*
X45683Y-32992D01*
X45683Y-32426D01*
X45859Y-32250D01*
X46116Y-32250D01*
X46118Y-32254D01*
X46244Y-32381D01*
X46410Y-32449D01*
X46589Y-32450D01*
X46754Y-32381D01*
X46881Y-32255D01*
X46949Y-32089D01*
X46949Y-32013D01*
X46956Y-32136D01*
X47018Y-32287D01*
X47114Y-32315D01*
X47429Y-32000D01*
X47114Y-31684D01*
X47018Y-31712D01*
X46948Y-31907D01*
X46881Y-31745D01*
X46755Y-31618D01*
X46589Y-31550D01*
X46410Y-31549D01*
X46245Y-31618D01*
X46118Y-31744D01*
X46116Y-31750D01*
X46103Y-31750D01*
X46405Y-31448D01*
X46410Y-31449D01*
X46589Y-31450D01*
X46754Y-31381D01*
X46881Y-31255D01*
X46949Y-31089D01*
X46949Y-31013D01*
X46956Y-31136D01*
X47018Y-31287D01*
X47114Y-31315D01*
X47429Y-31000D01*
X47114Y-30684D01*
X47018Y-30712D01*
X46948Y-30907D01*
X46881Y-30745D01*
X46755Y-30618D01*
X46589Y-30550D01*
X46410Y-30549D01*
X46245Y-30618D01*
X46118Y-30744D01*
X46050Y-30910D01*
X46049Y-31089D01*
X46052Y-31094D01*
X45796Y-31350D01*
X45652Y-31350D01*
X45679Y-31285D01*
X45679Y-31156D01*
X45630Y-31036D01*
X45538Y-30945D01*
X45529Y-30941D01*
X45529Y-30938D01*
X45609Y-30858D01*
X45963Y-30858D01*
X46018Y-30835D01*
X46060Y-30793D01*
X46083Y-30738D01*
X46083Y-30678D01*
X46083Y-30285D01*
X46060Y-30230D01*
X46018Y-30187D01*
X45963Y-30164D01*
X45903Y-30164D01*
X45453Y-30164D01*
X45398Y-30187D01*
X45356Y-30229D01*
X45333Y-30284D01*
X45333Y-30344D01*
X45333Y-30639D01*
X45230Y-30742D01*
X45192Y-30799D01*
X45179Y-30866D01*
X45179Y-30941D01*
X45170Y-30944D01*
X45078Y-31036D01*
X45029Y-31155D01*
X45029Y-31211D01*
X44816Y-30998D01*
X44816Y-28582D01*
X44797Y-28487D01*
X44743Y-28405D01*
X44507Y-28169D01*
X44426Y-28115D01*
X44330Y-28096D01*
X43260Y-28096D01*
X43260Y-27923D01*
X43237Y-27867D01*
X43195Y-27825D01*
X43163Y-27812D01*
X43163Y-27780D01*
X44472Y-26472D01*
X44473Y-26469D01*
X44476Y-26467D01*
X44530Y-26386D01*
X44550Y-26290D01*
X44550Y-25441D01*
X44549Y-25441D01*
X44550Y-25441D01*
X44546Y-25422D01*
X44530Y-25346D01*
X44530Y-25346D01*
X44476Y-25264D01*
X44476Y-25264D01*
X44255Y-25044D01*
X44255Y-25044D01*
X44035Y-24823D01*
X43953Y-24769D01*
X43858Y-24750D01*
X43804Y-24750D01*
X43753Y-24699D01*
X43753Y-23646D01*
X43937Y-23463D01*
X44075Y-23601D01*
X44075Y-23601D01*
X44156Y-23656D01*
X44156Y-23656D01*
X44232Y-23671D01*
X44251Y-23675D01*
X44251Y-23675D01*
X44251Y-23675D01*
X45074Y-23675D01*
X45170Y-23656D01*
X45251Y-23601D01*
X45412Y-23440D01*
X45412Y-23440D01*
X45412Y-23440D01*
X45467Y-23359D01*
X45467Y-23359D01*
X45486Y-23263D01*
X45486Y-22244D01*
X45467Y-22148D01*
X45412Y-22067D01*
X45331Y-22013D01*
X45277Y-22002D01*
X45185Y-21910D01*
X45254Y-21881D01*
X45381Y-21755D01*
X45449Y-21589D01*
X45450Y-21410D01*
X45381Y-21245D01*
X45255Y-21118D01*
X45089Y-21050D01*
X45013Y-21050D01*
X45136Y-21043D01*
X45287Y-20981D01*
X45315Y-20885D01*
X45000Y-20570D01*
X44929Y-20641D01*
X44929Y-20500D01*
X44614Y-20184D01*
X44518Y-20212D01*
X44501Y-20260D01*
X44481Y-20212D01*
X44385Y-20184D01*
X44315Y-20255D01*
X44315Y-20114D01*
X44287Y-20018D01*
X44081Y-19945D01*
X43863Y-19956D01*
X43712Y-20018D01*
X43684Y-20114D01*
X44000Y-20429D01*
X44315Y-20114D01*
X44315Y-20255D01*
X44070Y-20500D01*
X44385Y-20815D01*
X44481Y-20787D01*
X44498Y-20739D01*
X44518Y-20787D01*
X44614Y-20815D01*
X44929Y-20500D01*
X44929Y-20641D01*
X44684Y-20885D01*
X44712Y-20981D01*
X44907Y-21051D01*
X44745Y-21118D01*
X44618Y-21244D01*
X44550Y-21410D01*
X44549Y-21589D01*
X44618Y-21754D01*
X44632Y-21768D01*
X44367Y-21768D01*
X44381Y-21755D01*
X44449Y-21589D01*
X44450Y-21410D01*
X44381Y-21245D01*
X44255Y-21118D01*
X44089Y-21050D01*
X44013Y-21050D01*
X44136Y-21043D01*
X44287Y-20981D01*
X44315Y-20885D01*
X44000Y-20570D01*
X43929Y-20641D01*
X43929Y-20500D01*
X43614Y-20184D01*
X43518Y-20212D01*
X43448Y-20407D01*
X43381Y-20245D01*
X43255Y-20118D01*
X43089Y-20050D01*
X42910Y-20049D01*
X42745Y-20118D01*
X42618Y-20244D01*
X42550Y-20410D01*
X42549Y-20589D01*
X42618Y-20754D01*
X42744Y-20881D01*
X42910Y-20949D01*
X43089Y-20950D01*
X43254Y-20881D01*
X43381Y-20755D01*
X43449Y-20589D01*
X43449Y-20513D01*
X43456Y-20636D01*
X43518Y-20787D01*
X43614Y-20815D01*
X43929Y-20500D01*
X43929Y-20641D01*
X43684Y-20885D01*
X43712Y-20981D01*
X43907Y-21051D01*
X43745Y-21118D01*
X43618Y-21244D01*
X43550Y-21410D01*
X43549Y-21589D01*
X43618Y-21754D01*
X43632Y-21768D01*
X43367Y-21768D01*
X43381Y-21755D01*
X43449Y-21589D01*
X43450Y-21410D01*
X43381Y-21245D01*
X43255Y-21118D01*
X43089Y-21050D01*
X42910Y-21049D01*
X42745Y-21118D01*
X42618Y-21244D01*
X42550Y-21410D01*
X42549Y-21589D01*
X42618Y-21754D01*
X42632Y-21768D01*
X42440Y-21768D01*
X42364Y-21783D01*
X42342Y-21798D01*
X42329Y-21807D01*
X42381Y-21755D01*
X42449Y-21589D01*
X42450Y-21410D01*
X42450Y-20410D01*
X42381Y-20245D01*
X42255Y-20118D01*
X42089Y-20050D01*
X41910Y-20049D01*
X41745Y-20118D01*
X41618Y-20244D01*
X41550Y-20410D01*
X41549Y-20589D01*
X41618Y-20754D01*
X41744Y-20881D01*
X41910Y-20949D01*
X42089Y-20950D01*
X42254Y-20881D01*
X42381Y-20755D01*
X42449Y-20589D01*
X42450Y-20410D01*
X42450Y-21410D01*
X42381Y-21245D01*
X42255Y-21118D01*
X42089Y-21050D01*
X41910Y-21049D01*
X41745Y-21118D01*
X41618Y-21244D01*
X41550Y-21410D01*
X41549Y-21589D01*
X41618Y-21754D01*
X41744Y-21881D01*
X41910Y-21949D01*
X42089Y-21950D01*
X42238Y-21888D01*
X42023Y-22102D01*
X41980Y-22167D01*
X41974Y-22200D01*
X41450Y-22200D01*
X41450Y-21410D01*
X41450Y-20410D01*
X41381Y-20245D01*
X41255Y-20118D01*
X41089Y-20050D01*
X40910Y-20049D01*
X40745Y-20118D01*
X40618Y-20244D01*
X40550Y-20410D01*
X40549Y-20589D01*
X40618Y-20754D01*
X40744Y-20881D01*
X40910Y-20949D01*
X41089Y-20950D01*
X41254Y-20881D01*
X41381Y-20755D01*
X41449Y-20589D01*
X41450Y-20410D01*
X41450Y-21410D01*
X41381Y-21245D01*
X41255Y-21118D01*
X41089Y-21050D01*
X40910Y-21049D01*
X40745Y-21118D01*
X40618Y-21244D01*
X40550Y-21410D01*
X40549Y-21589D01*
X40618Y-21754D01*
X40744Y-21881D01*
X40910Y-21949D01*
X41089Y-21950D01*
X41254Y-21881D01*
X41381Y-21755D01*
X41449Y-21589D01*
X41450Y-21410D01*
X41450Y-22200D01*
X40450Y-22200D01*
X40450Y-21410D01*
X40450Y-20410D01*
X40381Y-20245D01*
X40255Y-20118D01*
X40089Y-20050D01*
X39910Y-20049D01*
X39745Y-20118D01*
X39618Y-20244D01*
X39550Y-20410D01*
X39549Y-20589D01*
X39618Y-20754D01*
X39744Y-20881D01*
X39910Y-20949D01*
X40089Y-20950D01*
X40254Y-20881D01*
X40381Y-20755D01*
X40449Y-20589D01*
X40450Y-20410D01*
X40450Y-21410D01*
X40381Y-21245D01*
X40255Y-21118D01*
X40089Y-21050D01*
X39910Y-21049D01*
X39745Y-21118D01*
X39618Y-21244D01*
X39550Y-21410D01*
X39549Y-21589D01*
X39618Y-21754D01*
X39744Y-21881D01*
X39910Y-21949D01*
X40089Y-21950D01*
X40254Y-21881D01*
X40381Y-21755D01*
X40449Y-21589D01*
X40450Y-21410D01*
X40450Y-22200D01*
X39883Y-22200D01*
X39819Y-22212D01*
X39806Y-22215D01*
X39742Y-22258D01*
X39450Y-22550D01*
X39450Y-21410D01*
X39450Y-20410D01*
X39381Y-20245D01*
X39255Y-20118D01*
X39089Y-20050D01*
X38910Y-20049D01*
X38745Y-20118D01*
X38618Y-20244D01*
X38550Y-20410D01*
X38549Y-20589D01*
X38618Y-20754D01*
X38744Y-20881D01*
X38910Y-20949D01*
X39089Y-20950D01*
X39254Y-20881D01*
X39381Y-20755D01*
X39449Y-20589D01*
X39450Y-20410D01*
X39450Y-21410D01*
X39381Y-21245D01*
X39255Y-21118D01*
X39089Y-21050D01*
X38910Y-21049D01*
X38745Y-21118D01*
X38618Y-21244D01*
X38550Y-21410D01*
X38549Y-21589D01*
X38618Y-21754D01*
X38744Y-21881D01*
X38910Y-21949D01*
X39089Y-21950D01*
X39254Y-21881D01*
X39381Y-21755D01*
X39449Y-21589D01*
X39450Y-21410D01*
X39450Y-22550D01*
X39346Y-22653D01*
X39303Y-22718D01*
X39288Y-22795D01*
X39288Y-22830D01*
X39208Y-22910D01*
X38858Y-22910D01*
X38794Y-22922D01*
X38781Y-22925D01*
X38716Y-22968D01*
X38450Y-23235D01*
X38450Y-21410D01*
X38450Y-20410D01*
X38381Y-20245D01*
X38255Y-20118D01*
X38089Y-20050D01*
X37910Y-20049D01*
X37745Y-20118D01*
X37618Y-20244D01*
X37550Y-20410D01*
X37549Y-20589D01*
X37618Y-20754D01*
X37744Y-20881D01*
X37910Y-20949D01*
X38089Y-20950D01*
X38254Y-20881D01*
X38381Y-20755D01*
X38449Y-20589D01*
X38450Y-20410D01*
X38450Y-21410D01*
X38381Y-21245D01*
X38255Y-21118D01*
X38089Y-21050D01*
X37910Y-21049D01*
X37745Y-21118D01*
X37618Y-21244D01*
X37550Y-21410D01*
X37549Y-21589D01*
X37618Y-21754D01*
X37744Y-21881D01*
X37910Y-21949D01*
X38089Y-21950D01*
X38254Y-21881D01*
X38381Y-21755D01*
X38449Y-21589D01*
X38450Y-21410D01*
X38450Y-23235D01*
X38302Y-23382D01*
X38174Y-23382D01*
X38181Y-23365D01*
X38181Y-23305D01*
X38181Y-23301D01*
X38188Y-23294D01*
X38238Y-23175D01*
X38238Y-23045D01*
X38189Y-22926D01*
X38181Y-22918D01*
X38181Y-22855D01*
X38158Y-22800D01*
X38119Y-22760D01*
X38159Y-22663D01*
X38159Y-22534D01*
X38110Y-22414D01*
X38018Y-22323D01*
X37899Y-22273D01*
X37770Y-22273D01*
X37760Y-22277D01*
X37367Y-21884D01*
X37311Y-21846D01*
X37293Y-21842D01*
X37381Y-21755D01*
X37449Y-21589D01*
X37450Y-21410D01*
X37450Y-20410D01*
X37381Y-20245D01*
X37255Y-20118D01*
X37089Y-20050D01*
X36910Y-20049D01*
X36745Y-20118D01*
X36618Y-20244D01*
X36550Y-20410D01*
X36549Y-20589D01*
X36618Y-20754D01*
X36744Y-20881D01*
X36910Y-20949D01*
X37089Y-20950D01*
X37254Y-20881D01*
X37381Y-20755D01*
X37449Y-20589D01*
X37450Y-20410D01*
X37450Y-21410D01*
X37381Y-21245D01*
X37255Y-21118D01*
X37089Y-21050D01*
X36910Y-21049D01*
X36745Y-21118D01*
X36618Y-21244D01*
X36550Y-21410D01*
X36549Y-21589D01*
X36618Y-21754D01*
X36696Y-21832D01*
X36580Y-21832D01*
X36450Y-21702D01*
X36450Y-20410D01*
X36381Y-20245D01*
X36255Y-20118D01*
X36089Y-20050D01*
X35910Y-20049D01*
X35745Y-20118D01*
X35618Y-20244D01*
X35550Y-20410D01*
X35549Y-20589D01*
X35618Y-20754D01*
X35744Y-20881D01*
X35910Y-20949D01*
X36089Y-20950D01*
X36254Y-20881D01*
X36381Y-20755D01*
X36449Y-20589D01*
X36450Y-20410D01*
X36450Y-21702D01*
X36450Y-21702D01*
X36450Y-21170D01*
X36427Y-21115D01*
X36385Y-21072D01*
X36329Y-21050D01*
X36270Y-21049D01*
X35670Y-21049D01*
X35615Y-21072D01*
X35572Y-21114D01*
X35550Y-21170D01*
X35549Y-21229D01*
X35549Y-21829D01*
X35572Y-21884D01*
X35614Y-21927D01*
X35670Y-21949D01*
X35729Y-21950D01*
X36202Y-21950D01*
X36345Y-22092D01*
X36299Y-22138D01*
X36249Y-22257D01*
X36249Y-22365D01*
X36097Y-22517D01*
X36041Y-22540D01*
X36041Y-22519D01*
X36027Y-22452D01*
X36027Y-22452D01*
X35989Y-22395D01*
X35951Y-22357D01*
X35954Y-22348D01*
X35954Y-22219D01*
X35905Y-22099D01*
X35814Y-22008D01*
X35694Y-21958D01*
X35565Y-21958D01*
X35450Y-22005D01*
X35450Y-20314D01*
X35437Y-20247D01*
X35399Y-20191D01*
X35123Y-19915D01*
X35066Y-19877D01*
X35000Y-19864D01*
X47851Y-19864D01*
X47851Y-22715D01*
X47755Y-22618D01*
X47589Y-22550D01*
X47410Y-22549D01*
X47245Y-22618D01*
X47118Y-22744D01*
X47050Y-22910D01*
X47049Y-23089D01*
X47118Y-23254D01*
X47244Y-23381D01*
X47410Y-23449D01*
X47589Y-23450D01*
X47754Y-23381D01*
X47851Y-23284D01*
X47851Y-23715D01*
X47755Y-23618D01*
X47589Y-23550D01*
X47410Y-23549D01*
X47245Y-23618D01*
X47118Y-23744D01*
X47050Y-23910D01*
X47049Y-24089D01*
X47118Y-24254D01*
X47244Y-24381D01*
X47410Y-24449D01*
X47589Y-24450D01*
X47754Y-24381D01*
X47851Y-24284D01*
X47851Y-24715D01*
X47755Y-24618D01*
X47589Y-24550D01*
X47410Y-24549D01*
X47245Y-24618D01*
X47118Y-24744D01*
X47050Y-24910D01*
X47049Y-25089D01*
X47118Y-25254D01*
X47244Y-25381D01*
X47410Y-25449D01*
X47589Y-25450D01*
X47754Y-25381D01*
X47851Y-25284D01*
X47851Y-25715D01*
X47755Y-25618D01*
X47589Y-25550D01*
X47410Y-25549D01*
X47245Y-25618D01*
X47118Y-25744D01*
X47050Y-25910D01*
X47049Y-26089D01*
X47118Y-26254D01*
X47244Y-26381D01*
X47410Y-26449D01*
X47589Y-26450D01*
X47754Y-26381D01*
X47851Y-26284D01*
X47851Y-26715D01*
X47755Y-26618D01*
X47589Y-26550D01*
X47410Y-26549D01*
X47245Y-26618D01*
X47118Y-26744D01*
X47050Y-26910D01*
X47049Y-27089D01*
X47118Y-27254D01*
X47244Y-27381D01*
X47410Y-27449D01*
X47589Y-27450D01*
X47754Y-27381D01*
X47851Y-27284D01*
X47851Y-27715D01*
X47755Y-27618D01*
X47589Y-27550D01*
X47410Y-27549D01*
X47245Y-27618D01*
X47118Y-27744D01*
X47050Y-27910D01*
X47049Y-28089D01*
X47083Y-28169D01*
X46962Y-28289D01*
X46846Y-28289D01*
X46881Y-28255D01*
X46949Y-28089D01*
X46950Y-27910D01*
X46950Y-26910D01*
X46950Y-25910D01*
X46950Y-24910D01*
X46950Y-23910D01*
X46950Y-23910D01*
X46950Y-23270D01*
X46950Y-22670D01*
X46927Y-22615D01*
X46885Y-22572D01*
X46829Y-22550D01*
X46770Y-22549D01*
X46170Y-22549D01*
X46115Y-22572D01*
X46072Y-22614D01*
X46050Y-22670D01*
X46049Y-22729D01*
X46049Y-23329D01*
X46072Y-23384D01*
X46114Y-23427D01*
X46170Y-23449D01*
X46229Y-23450D01*
X46829Y-23450D01*
X46884Y-23427D01*
X46927Y-23385D01*
X46949Y-23329D01*
X46950Y-23270D01*
X46950Y-23910D01*
X46881Y-23745D01*
X46755Y-23618D01*
X46589Y-23550D01*
X46410Y-23549D01*
X46245Y-23618D01*
X46118Y-23744D01*
X46050Y-23910D01*
X46049Y-24089D01*
X46118Y-24254D01*
X46244Y-24381D01*
X46410Y-24449D01*
X46589Y-24450D01*
X46754Y-24381D01*
X46881Y-24255D01*
X46949Y-24089D01*
X46950Y-23910D01*
X46950Y-24910D01*
X46881Y-24745D01*
X46755Y-24618D01*
X46589Y-24550D01*
X46410Y-24549D01*
X46245Y-24618D01*
X46118Y-24744D01*
X46050Y-24910D01*
X46049Y-25089D01*
X46118Y-25254D01*
X46244Y-25381D01*
X46410Y-25449D01*
X46589Y-25450D01*
X46754Y-25381D01*
X46881Y-25255D01*
X46949Y-25089D01*
X46950Y-24910D01*
X46950Y-25910D01*
X46881Y-25745D01*
X46755Y-25618D01*
X46589Y-25550D01*
X46410Y-25549D01*
X46245Y-25618D01*
X46118Y-25744D01*
X46050Y-25910D01*
X46049Y-26089D01*
X46118Y-26254D01*
X46244Y-26381D01*
X46410Y-26449D01*
X46589Y-26450D01*
X46754Y-26381D01*
X46881Y-26255D01*
X46949Y-26089D01*
X46950Y-25910D01*
X46950Y-26910D01*
X46881Y-26745D01*
X46755Y-26618D01*
X46589Y-26550D01*
X46410Y-26549D01*
X46245Y-26618D01*
X46118Y-26744D01*
X46050Y-26910D01*
X46049Y-27089D01*
X46118Y-27254D01*
X46244Y-27381D01*
X46410Y-27449D01*
X46589Y-27450D01*
X46754Y-27381D01*
X46881Y-27255D01*
X46949Y-27089D01*
X46950Y-26910D01*
X46950Y-27910D01*
X46881Y-27745D01*
X46755Y-27618D01*
X46589Y-27550D01*
X46410Y-27549D01*
X46245Y-27618D01*
X46118Y-27744D01*
X46050Y-27910D01*
X46049Y-28089D01*
X46118Y-28254D01*
X46153Y-28289D01*
X46141Y-28289D01*
X46074Y-28302D01*
X46017Y-28340D01*
X46017Y-28340D01*
X46017Y-28340D01*
X45584Y-28773D01*
X45554Y-28818D01*
X45554Y-20581D01*
X45543Y-20363D01*
X45481Y-20212D01*
X45385Y-20184D01*
X45315Y-20255D01*
X45315Y-20114D01*
X45287Y-20018D01*
X45081Y-19945D01*
X44863Y-19956D01*
X44712Y-20018D01*
X44684Y-20114D01*
X45000Y-20429D01*
X45315Y-20114D01*
X45315Y-20255D01*
X45070Y-20500D01*
X45385Y-20815D01*
X45481Y-20787D01*
X45554Y-20581D01*
X45554Y-28818D01*
X45546Y-28830D01*
X45533Y-28897D01*
X45533Y-29338D01*
X45453Y-29338D01*
X45398Y-29360D01*
X45356Y-29403D01*
X45333Y-29458D01*
X45333Y-29517D01*
X45333Y-29911D01*
X45356Y-29966D01*
X45398Y-30008D01*
X45453Y-30031D01*
X45513Y-30031D01*
X45963Y-30031D01*
X46018Y-30009D01*
X46050Y-29977D01*
X46049Y-30089D01*
X46118Y-30254D01*
X46244Y-30381D01*
X46410Y-30449D01*
X46589Y-30450D01*
X46754Y-30381D01*
X46881Y-30255D01*
X46949Y-30089D01*
X46950Y-29910D01*
X46881Y-29745D01*
X46755Y-29618D01*
X46589Y-29550D01*
X46410Y-29549D01*
X46245Y-29618D01*
X46118Y-29744D01*
X46083Y-29829D01*
X46083Y-29458D01*
X46060Y-29403D01*
X46018Y-29361D01*
X45963Y-29338D01*
X45903Y-29338D01*
X45883Y-29338D01*
X45883Y-28970D01*
X46214Y-28639D01*
X46224Y-28639D01*
X46118Y-28744D01*
X46050Y-28910D01*
X46049Y-29089D01*
X46118Y-29254D01*
X46244Y-29381D01*
X46410Y-29449D01*
X46589Y-29450D01*
X46754Y-29381D01*
X46881Y-29255D01*
X46949Y-29089D01*
X46950Y-28910D01*
X46881Y-28745D01*
X46776Y-28639D01*
X47035Y-28639D01*
X47102Y-28626D01*
X47102Y-28626D01*
X47159Y-28588D01*
X47330Y-28416D01*
X47410Y-28449D01*
X47589Y-28450D01*
X47754Y-28381D01*
X47851Y-28284D01*
X47851Y-28715D01*
X47755Y-28618D01*
X47589Y-28550D01*
X47410Y-28549D01*
X47245Y-28618D01*
X47118Y-28744D01*
X47050Y-28910D01*
X47049Y-29089D01*
X47118Y-29254D01*
X47244Y-29381D01*
X47410Y-29449D01*
X47589Y-29450D01*
X47754Y-29381D01*
X47851Y-29284D01*
X47851Y-29715D01*
X47755Y-29618D01*
X47589Y-29550D01*
X47410Y-29549D01*
X47245Y-29618D01*
X47118Y-29744D01*
X47050Y-29910D01*
X47049Y-30089D01*
X47118Y-30254D01*
X47244Y-30381D01*
X47410Y-30449D01*
X47486Y-30449D01*
X47363Y-30456D01*
X47212Y-30518D01*
X47184Y-30614D01*
X47500Y-30929D01*
X47505Y-30923D01*
X47576Y-30994D01*
X47570Y-31000D01*
X47576Y-31005D01*
X47505Y-31076D01*
X47500Y-31070D01*
X47184Y-31385D01*
X47212Y-31481D01*
X47260Y-31498D01*
X47212Y-31518D01*
X47184Y-31614D01*
X47500Y-31929D01*
X47505Y-31923D01*
X47576Y-31994D01*
X47570Y-32000D01*
X47576Y-32005D01*
X47505Y-32076D01*
X47500Y-32070D01*
X47184Y-32385D01*
X47212Y-32481D01*
X47418Y-32554D01*
X47636Y-32543D01*
X47787Y-32481D01*
X47815Y-32385D01*
X47815Y-32385D01*
X47851Y-32422D01*
X47851Y-39190D01*
X47851Y-39190D01*
G37*
G54D28*
X47851Y-39190D02*
X47815Y-39190D01*
X46370Y-39190D01*
X46370Y-35525D01*
X46370Y-33793D01*
X46320Y-33673D01*
X46228Y-33581D01*
X46108Y-33531D01*
X45978Y-33531D01*
X45857Y-33581D01*
X45765Y-33672D01*
X45716Y-33793D01*
X45715Y-33923D01*
X45765Y-34043D01*
X45857Y-34135D01*
X45977Y-34185D01*
X46107Y-34185D01*
X46227Y-34135D01*
X46320Y-34043D01*
X46369Y-33923D01*
X46370Y-33793D01*
X46370Y-35525D01*
X46320Y-35405D01*
X46228Y-35313D01*
X46108Y-35263D01*
X45978Y-35263D01*
X45857Y-35313D01*
X45765Y-35404D01*
X45716Y-35525D01*
X45715Y-35655D01*
X45765Y-35775D01*
X45857Y-35867D01*
X45977Y-35917D01*
X46107Y-35917D01*
X46227Y-35867D01*
X46320Y-35775D01*
X46369Y-35655D01*
X46370Y-35525D01*
X46370Y-39190D01*
X45475Y-39190D01*
X45475Y-34616D01*
X45475Y-34123D01*
X45437Y-34031D01*
X45366Y-33961D01*
X45274Y-33923D01*
X45175Y-33923D01*
X45112Y-33923D01*
X45050Y-33985D01*
X45050Y-34320D01*
X45412Y-34320D01*
X45475Y-34257D01*
X45475Y-34123D01*
X45475Y-34616D01*
X45475Y-34482D01*
X45412Y-34420D01*
X45050Y-34420D01*
X45050Y-34754D01*
X45112Y-34816D01*
X45175Y-34816D01*
X45274Y-34816D01*
X45366Y-34778D01*
X45437Y-34708D01*
X45475Y-34616D01*
X45475Y-39190D01*
X44554Y-39190D01*
X44554Y-38581D01*
X44543Y-38363D01*
X44481Y-38212D01*
X44385Y-38184D01*
X44070Y-38500D01*
X44385Y-38815D01*
X44481Y-38787D01*
X44554Y-38581D01*
X44554Y-39190D01*
X44315Y-39190D01*
X44315Y-38885D01*
X44000Y-38570D01*
X43929Y-38641D01*
X43929Y-38500D01*
X43614Y-38184D01*
X43518Y-38212D01*
X43501Y-38260D01*
X43481Y-38212D01*
X43385Y-38184D01*
X43070Y-38500D01*
X43385Y-38815D01*
X43481Y-38787D01*
X43498Y-38739D01*
X43518Y-38787D01*
X43614Y-38815D01*
X43929Y-38500D01*
X43929Y-38641D01*
X43684Y-38885D01*
X43712Y-38981D01*
X43918Y-39054D01*
X44136Y-39043D01*
X44287Y-38981D01*
X44315Y-38885D01*
X44315Y-39190D01*
X43315Y-39190D01*
X43315Y-38885D01*
X43000Y-38570D01*
X42929Y-38641D01*
X42929Y-38500D01*
X42614Y-38184D01*
X42518Y-38212D01*
X42501Y-38260D01*
X42481Y-38212D01*
X42385Y-38184D01*
X42070Y-38500D01*
X42385Y-38815D01*
X42481Y-38787D01*
X42498Y-38739D01*
X42518Y-38787D01*
X42614Y-38815D01*
X42929Y-38500D01*
X42929Y-38641D01*
X42684Y-38885D01*
X42712Y-38981D01*
X42918Y-39054D01*
X43136Y-39043D01*
X43287Y-38981D01*
X43315Y-38885D01*
X43315Y-39190D01*
X42315Y-39190D01*
X42315Y-38885D01*
X42000Y-38570D01*
X41929Y-38641D01*
X41929Y-38500D01*
X41614Y-38184D01*
X41518Y-38212D01*
X41445Y-38418D01*
X41456Y-38636D01*
X41518Y-38787D01*
X41614Y-38815D01*
X41929Y-38500D01*
X41929Y-38641D01*
X41684Y-38885D01*
X41712Y-38981D01*
X41918Y-39054D01*
X42136Y-39043D01*
X42287Y-38981D01*
X42315Y-38885D01*
X42315Y-39190D01*
X36950Y-39190D01*
X36950Y-38410D01*
X36881Y-38245D01*
X36755Y-38118D01*
X36589Y-38050D01*
X36410Y-38049D01*
X36245Y-38118D01*
X36118Y-38244D01*
X36050Y-38410D01*
X36049Y-38589D01*
X36118Y-38754D01*
X36244Y-38881D01*
X36410Y-38949D01*
X36589Y-38950D01*
X36754Y-38881D01*
X36881Y-38755D01*
X36949Y-38589D01*
X36950Y-38410D01*
X36950Y-39190D01*
X35950Y-39190D01*
X35950Y-38410D01*
X35881Y-38245D01*
X35755Y-38118D01*
X35589Y-38050D01*
X35410Y-38049D01*
X35245Y-38118D01*
X35118Y-38244D01*
X35050Y-38410D01*
X35049Y-38589D01*
X35118Y-38754D01*
X35244Y-38881D01*
X35410Y-38949D01*
X35589Y-38950D01*
X35754Y-38881D01*
X35881Y-38755D01*
X35949Y-38589D01*
X35950Y-38410D01*
X35950Y-39190D01*
X33950Y-39190D01*
X33950Y-38410D01*
X33950Y-37410D01*
X33881Y-37245D01*
X33815Y-37178D01*
X33815Y-36385D01*
X33500Y-36070D01*
X33184Y-36385D01*
X33212Y-36481D01*
X33418Y-36554D01*
X33636Y-36543D01*
X33787Y-36481D01*
X33815Y-36385D01*
X33815Y-37178D01*
X33755Y-37118D01*
X33589Y-37050D01*
X33410Y-37049D01*
X33245Y-37118D01*
X33118Y-37244D01*
X33050Y-37410D01*
X33049Y-37589D01*
X33118Y-37754D01*
X33244Y-37881D01*
X33410Y-37949D01*
X33589Y-37950D01*
X33754Y-37881D01*
X33881Y-37755D01*
X33949Y-37589D01*
X33950Y-37410D01*
X33950Y-38410D01*
X33881Y-38245D01*
X33755Y-38118D01*
X33589Y-38050D01*
X33410Y-38049D01*
X33245Y-38118D01*
X33118Y-38244D01*
X33050Y-38410D01*
X33050Y-38486D01*
X33043Y-38363D01*
X32981Y-38212D01*
X32950Y-38203D01*
X32950Y-37410D01*
X32881Y-37245D01*
X32815Y-37178D01*
X32815Y-36385D01*
X32500Y-36070D01*
X32184Y-36385D01*
X32212Y-36481D01*
X32418Y-36554D01*
X32636Y-36543D01*
X32787Y-36481D01*
X32815Y-36385D01*
X32815Y-37178D01*
X32755Y-37118D01*
X32589Y-37050D01*
X32410Y-37049D01*
X32245Y-37118D01*
X32118Y-37244D01*
X32050Y-37410D01*
X32049Y-37589D01*
X32118Y-37754D01*
X32244Y-37881D01*
X32410Y-37949D01*
X32486Y-37949D01*
X32363Y-37956D01*
X32212Y-38018D01*
X32184Y-38114D01*
X32500Y-38429D01*
X32815Y-38114D01*
X32787Y-38018D01*
X32592Y-37948D01*
X32754Y-37881D01*
X32881Y-37755D01*
X32949Y-37589D01*
X32950Y-37410D01*
X32950Y-38203D01*
X32885Y-38184D01*
X32570Y-38500D01*
X32885Y-38815D01*
X32981Y-38787D01*
X33051Y-38592D01*
X33118Y-38754D01*
X33244Y-38881D01*
X33410Y-38949D01*
X33589Y-38950D01*
X33754Y-38881D01*
X33881Y-38755D01*
X33949Y-38589D01*
X33950Y-38410D01*
X33950Y-39190D01*
X32815Y-39190D01*
X32815Y-38885D01*
X32500Y-38570D01*
X32429Y-38641D01*
X32429Y-38500D01*
X32114Y-38184D01*
X32018Y-38212D01*
X32001Y-38260D01*
X31981Y-38212D01*
X31885Y-38184D01*
X31570Y-38500D01*
X31885Y-38815D01*
X31981Y-38787D01*
X31998Y-38739D01*
X32018Y-38787D01*
X32114Y-38815D01*
X32429Y-38500D01*
X32429Y-38641D01*
X32184Y-38885D01*
X32212Y-38981D01*
X32418Y-39054D01*
X32636Y-39043D01*
X32787Y-38981D01*
X32815Y-38885D01*
X32815Y-39190D01*
X31815Y-39190D01*
X31815Y-38885D01*
X31500Y-38570D01*
X31429Y-38641D01*
X31429Y-38500D01*
X31114Y-38184D01*
X31018Y-38212D01*
X30945Y-38418D01*
X30956Y-38636D01*
X31018Y-38787D01*
X31114Y-38815D01*
X31429Y-38500D01*
X31429Y-38641D01*
X31184Y-38885D01*
X31212Y-38981D01*
X31418Y-39054D01*
X31636Y-39043D01*
X31787Y-38981D01*
X31815Y-38885D01*
X31815Y-39190D01*
X28525Y-39190D01*
X28525Y-19864D01*
X34132Y-19864D01*
X34066Y-19877D01*
X34010Y-19915D01*
X33892Y-20033D01*
X33854Y-20090D01*
X33840Y-20157D01*
X33840Y-20204D01*
X33755Y-20118D01*
X33589Y-20050D01*
X33410Y-20049D01*
X33245Y-20118D01*
X33118Y-20244D01*
X33050Y-20410D01*
X33049Y-20589D01*
X33118Y-20754D01*
X33172Y-20809D01*
X33015Y-20809D01*
X33015Y-20809D01*
X32950Y-20822D01*
X32950Y-20410D01*
X32881Y-20245D01*
X32755Y-20118D01*
X32589Y-20050D01*
X32410Y-20049D01*
X32245Y-20118D01*
X32118Y-20244D01*
X32050Y-20410D01*
X32049Y-20589D01*
X32118Y-20754D01*
X32244Y-20881D01*
X32410Y-20949D01*
X32589Y-20950D01*
X32754Y-20881D01*
X32881Y-20755D01*
X32949Y-20589D01*
X32950Y-20410D01*
X32950Y-20822D01*
X32948Y-20822D01*
X32892Y-20860D01*
X32892Y-20860D01*
X32892Y-20860D01*
X32669Y-21083D01*
X32589Y-21050D01*
X32410Y-21049D01*
X32245Y-21118D01*
X32118Y-21244D01*
X32050Y-21410D01*
X32049Y-21589D01*
X32087Y-21680D01*
X32087Y-21680D01*
X32082Y-21688D01*
X32069Y-21755D01*
X32069Y-21975D01*
X31989Y-21975D01*
X31950Y-21992D01*
X31950Y-20410D01*
X31881Y-20245D01*
X31755Y-20118D01*
X31589Y-20050D01*
X31410Y-20049D01*
X31245Y-20118D01*
X31118Y-20244D01*
X31050Y-20410D01*
X31049Y-20589D01*
X31118Y-20754D01*
X31244Y-20881D01*
X31410Y-20949D01*
X31589Y-20950D01*
X31754Y-20881D01*
X31881Y-20755D01*
X31949Y-20589D01*
X31950Y-20410D01*
X31950Y-21992D01*
X31934Y-21998D01*
X31892Y-22040D01*
X31889Y-22046D01*
X31887Y-22041D01*
X31845Y-21998D01*
X31790Y-21976D01*
X31730Y-21975D01*
X31675Y-21975D01*
X31675Y-21950D01*
X31829Y-21950D01*
X31884Y-21927D01*
X31927Y-21885D01*
X31949Y-21829D01*
X31950Y-21770D01*
X31950Y-21170D01*
X31927Y-21115D01*
X31885Y-21072D01*
X31829Y-21050D01*
X31770Y-21049D01*
X31170Y-21049D01*
X31115Y-21072D01*
X31072Y-21114D01*
X31050Y-21170D01*
X31049Y-21229D01*
X31049Y-21829D01*
X31072Y-21884D01*
X31114Y-21927D01*
X31170Y-21949D01*
X31229Y-21950D01*
X31325Y-21950D01*
X31325Y-21975D01*
X31280Y-21975D01*
X31225Y-21998D01*
X31183Y-22040D01*
X31160Y-22096D01*
X31160Y-22155D01*
X31160Y-22516D01*
X30783Y-22516D01*
X30706Y-22531D01*
X30685Y-22546D01*
X30645Y-22573D01*
X30589Y-22550D01*
X30410Y-22549D01*
X30245Y-22618D01*
X30118Y-22744D01*
X30050Y-22910D01*
X30050Y-22986D01*
X30043Y-22863D01*
X29981Y-22712D01*
X29885Y-22684D01*
X29815Y-22755D01*
X29815Y-22614D01*
X29787Y-22518D01*
X29581Y-22445D01*
X29363Y-22456D01*
X29212Y-22518D01*
X29184Y-22614D01*
X29500Y-22929D01*
X29815Y-22614D01*
X29815Y-22755D01*
X29570Y-23000D01*
X29885Y-23315D01*
X29981Y-23287D01*
X30051Y-23092D01*
X30118Y-23254D01*
X30244Y-23381D01*
X30410Y-23449D01*
X30589Y-23450D01*
X30754Y-23381D01*
X30881Y-23255D01*
X30949Y-23089D01*
X30950Y-22916D01*
X31163Y-22916D01*
X31160Y-22922D01*
X31160Y-22982D01*
X31160Y-23376D01*
X31183Y-23431D01*
X31225Y-23473D01*
X31280Y-23496D01*
X31340Y-23496D01*
X31437Y-23496D01*
X31489Y-23548D01*
X31486Y-23557D01*
X31485Y-23686D01*
X31535Y-23805D01*
X31626Y-23897D01*
X31746Y-23946D01*
X31875Y-23947D01*
X31994Y-23897D01*
X32086Y-23806D01*
X32135Y-23686D01*
X32136Y-23603D01*
X32199Y-23667D01*
X32199Y-23667D01*
X32255Y-23704D01*
X32322Y-23718D01*
X32322Y-23718D01*
X32322Y-23718D01*
X32437Y-23718D01*
X32440Y-23727D01*
X32532Y-23818D01*
X32651Y-23868D01*
X32763Y-23868D01*
X32763Y-24154D01*
X32604Y-24313D01*
X32590Y-24313D01*
X32590Y-24233D01*
X32568Y-24178D01*
X32526Y-24136D01*
X32470Y-24113D01*
X32411Y-24113D01*
X32017Y-24113D01*
X31962Y-24135D01*
X31920Y-24178D01*
X31897Y-24233D01*
X31897Y-24292D01*
X31897Y-24742D01*
X31920Y-24798D01*
X31944Y-24822D01*
X31920Y-24847D01*
X31897Y-24902D01*
X31897Y-24962D01*
X31897Y-25412D01*
X31920Y-25467D01*
X31962Y-25509D01*
X32017Y-25532D01*
X32076Y-25532D01*
X32470Y-25532D01*
X32525Y-25509D01*
X32568Y-25467D01*
X32590Y-25412D01*
X32590Y-25352D01*
X32590Y-25332D01*
X32653Y-25332D01*
X32730Y-25364D01*
X32859Y-25364D01*
X32979Y-25315D01*
X33070Y-25223D01*
X33120Y-25104D01*
X33120Y-25060D01*
X33336Y-25060D01*
X33365Y-25048D01*
X32710Y-25703D01*
X32672Y-25759D01*
X32659Y-25826D01*
X32659Y-26281D01*
X32640Y-26273D01*
X32640Y-26062D01*
X32628Y-25999D01*
X32625Y-25986D01*
X32625Y-25986D01*
X32582Y-25921D01*
X32582Y-25921D01*
X32424Y-25764D01*
X32360Y-25720D01*
X32283Y-25705D01*
X31421Y-25705D01*
X31248Y-25532D01*
X31250Y-25532D01*
X31643Y-25532D01*
X31699Y-25509D01*
X31741Y-25467D01*
X31764Y-25412D01*
X31764Y-25352D01*
X31764Y-25225D01*
X31781Y-25183D01*
X31781Y-25053D01*
X31764Y-25011D01*
X31764Y-24902D01*
X31741Y-24847D01*
X31716Y-24822D01*
X31741Y-24798D01*
X31764Y-24743D01*
X31764Y-24683D01*
X31764Y-24233D01*
X31741Y-24178D01*
X31699Y-24136D01*
X31644Y-24113D01*
X31584Y-24113D01*
X31190Y-24113D01*
X31135Y-24135D01*
X31093Y-24178D01*
X31070Y-24233D01*
X31070Y-24287D01*
X30927Y-24144D01*
X30949Y-24089D01*
X30950Y-23910D01*
X30881Y-23745D01*
X30755Y-23618D01*
X30589Y-23550D01*
X30410Y-23549D01*
X30245Y-23618D01*
X30118Y-23744D01*
X30050Y-23910D01*
X30050Y-23986D01*
X30043Y-23863D01*
X29981Y-23712D01*
X29885Y-23684D01*
X29815Y-23755D01*
X29815Y-23614D01*
X29787Y-23518D01*
X29739Y-23501D01*
X29787Y-23481D01*
X29815Y-23385D01*
X29500Y-23070D01*
X29429Y-23141D01*
X29429Y-23000D01*
X29114Y-22684D01*
X29018Y-22712D01*
X28945Y-22918D01*
X28956Y-23136D01*
X29018Y-23287D01*
X29114Y-23315D01*
X29429Y-23000D01*
X29429Y-23141D01*
X29184Y-23385D01*
X29212Y-23481D01*
X29260Y-23498D01*
X29212Y-23518D01*
X29184Y-23614D01*
X29500Y-23929D01*
X29815Y-23614D01*
X29815Y-23755D01*
X29570Y-24000D01*
X29885Y-24315D01*
X29981Y-24287D01*
X30051Y-24092D01*
X30118Y-24254D01*
X30244Y-24381D01*
X30410Y-24449D01*
X30589Y-24450D01*
X30644Y-24427D01*
X30800Y-24582D01*
X30800Y-24663D01*
X30755Y-24618D01*
X30589Y-24550D01*
X30410Y-24549D01*
X30245Y-24618D01*
X30118Y-24744D01*
X30050Y-24910D01*
X30049Y-25089D01*
X30118Y-25254D01*
X30244Y-25381D01*
X30410Y-25449D01*
X30589Y-25450D01*
X30754Y-25381D01*
X30800Y-25336D01*
X30800Y-25566D01*
X30815Y-25643D01*
X30858Y-25708D01*
X31161Y-26011D01*
X31112Y-26011D01*
X31056Y-26034D01*
X31014Y-26076D01*
X30991Y-26131D01*
X30991Y-26191D01*
X30991Y-27962D01*
X31014Y-28017D01*
X31056Y-28060D01*
X31111Y-28083D01*
X31171Y-28083D01*
X31561Y-28083D01*
X31561Y-28196D01*
X31556Y-28196D01*
X31501Y-28219D01*
X31458Y-28261D01*
X31436Y-28316D01*
X31435Y-28376D01*
X31435Y-28564D01*
X31431Y-28568D01*
X31299Y-28568D01*
X31299Y-28568D01*
X31280Y-28572D01*
X31203Y-28587D01*
X31122Y-28642D01*
X31122Y-28642D01*
X31043Y-28720D01*
X30989Y-28801D01*
X30970Y-28897D01*
X30970Y-29724D01*
X30989Y-29820D01*
X31043Y-29901D01*
X31682Y-30540D01*
X31682Y-30576D01*
X31732Y-30695D01*
X31823Y-30787D01*
X31942Y-30836D01*
X32072Y-30836D01*
X32191Y-30787D01*
X32283Y-30696D01*
X32332Y-30576D01*
X32332Y-30447D01*
X32283Y-30327D01*
X32192Y-30236D01*
X32191Y-30236D01*
X32283Y-30144D01*
X32310Y-30078D01*
X32580Y-30348D01*
X32580Y-30531D01*
X32532Y-30551D01*
X32441Y-30642D01*
X32391Y-30761D01*
X32391Y-30891D01*
X32422Y-30966D01*
X31062Y-30966D01*
X30996Y-30980D01*
X30949Y-31010D01*
X30950Y-30910D01*
X30950Y-29910D01*
X30950Y-28910D01*
X30950Y-27910D01*
X30950Y-26910D01*
X30950Y-25910D01*
X30881Y-25745D01*
X30755Y-25618D01*
X30589Y-25550D01*
X30410Y-25549D01*
X30245Y-25618D01*
X30118Y-25744D01*
X30050Y-25910D01*
X30049Y-26089D01*
X30118Y-26254D01*
X30244Y-26381D01*
X30410Y-26449D01*
X30589Y-26450D01*
X30754Y-26381D01*
X30881Y-26255D01*
X30949Y-26089D01*
X30950Y-25910D01*
X30950Y-26910D01*
X30881Y-26745D01*
X30755Y-26618D01*
X30589Y-26550D01*
X30410Y-26549D01*
X30245Y-26618D01*
X30118Y-26744D01*
X30050Y-26910D01*
X30049Y-27089D01*
X30118Y-27254D01*
X30244Y-27381D01*
X30410Y-27449D01*
X30589Y-27450D01*
X30754Y-27381D01*
X30881Y-27255D01*
X30949Y-27089D01*
X30950Y-26910D01*
X30950Y-27910D01*
X30881Y-27745D01*
X30755Y-27618D01*
X30589Y-27550D01*
X30410Y-27549D01*
X30245Y-27618D01*
X30118Y-27744D01*
X30050Y-27910D01*
X30049Y-28089D01*
X30118Y-28254D01*
X30244Y-28381D01*
X30410Y-28449D01*
X30589Y-28450D01*
X30754Y-28381D01*
X30881Y-28255D01*
X30949Y-28089D01*
X30950Y-27910D01*
X30950Y-28910D01*
X30881Y-28745D01*
X30755Y-28618D01*
X30589Y-28550D01*
X30410Y-28549D01*
X30245Y-28618D01*
X30118Y-28744D01*
X30050Y-28910D01*
X30049Y-29089D01*
X30118Y-29254D01*
X30244Y-29381D01*
X30410Y-29449D01*
X30589Y-29450D01*
X30754Y-29381D01*
X30881Y-29255D01*
X30949Y-29089D01*
X30950Y-28910D01*
X30950Y-29910D01*
X30881Y-29745D01*
X30755Y-29618D01*
X30589Y-29550D01*
X30410Y-29549D01*
X30245Y-29618D01*
X30118Y-29744D01*
X30050Y-29910D01*
X30049Y-30089D01*
X30118Y-30254D01*
X30244Y-30381D01*
X30410Y-30449D01*
X30589Y-30450D01*
X30754Y-30381D01*
X30881Y-30255D01*
X30949Y-30089D01*
X30950Y-29910D01*
X30950Y-30910D01*
X30881Y-30745D01*
X30755Y-30618D01*
X30589Y-30550D01*
X30410Y-30549D01*
X30245Y-30618D01*
X30118Y-30744D01*
X30050Y-30910D01*
X30049Y-31089D01*
X30118Y-31254D01*
X30184Y-31321D01*
X30157Y-31321D01*
X30090Y-31334D01*
X30033Y-31372D01*
X29950Y-31455D01*
X29950Y-30910D01*
X29950Y-29910D01*
X29950Y-28910D01*
X29950Y-27910D01*
X29950Y-26910D01*
X29950Y-25910D01*
X29950Y-24910D01*
X29881Y-24745D01*
X29755Y-24618D01*
X29589Y-24550D01*
X29513Y-24550D01*
X29636Y-24543D01*
X29787Y-24481D01*
X29815Y-24385D01*
X29500Y-24070D01*
X29429Y-24141D01*
X29429Y-24000D01*
X29114Y-23684D01*
X29018Y-23712D01*
X28945Y-23918D01*
X28956Y-24136D01*
X29018Y-24287D01*
X29114Y-24315D01*
X29429Y-24000D01*
X29429Y-24141D01*
X29184Y-24385D01*
X29212Y-24481D01*
X29407Y-24551D01*
X29245Y-24618D01*
X29118Y-24744D01*
X29050Y-24910D01*
X29049Y-25089D01*
X29118Y-25254D01*
X29244Y-25381D01*
X29410Y-25449D01*
X29589Y-25450D01*
X29754Y-25381D01*
X29881Y-25255D01*
X29949Y-25089D01*
X29950Y-24910D01*
X29950Y-25910D01*
X29881Y-25745D01*
X29755Y-25618D01*
X29589Y-25550D01*
X29410Y-25549D01*
X29245Y-25618D01*
X29118Y-25744D01*
X29050Y-25910D01*
X29049Y-26089D01*
X29118Y-26254D01*
X29244Y-26381D01*
X29410Y-26449D01*
X29589Y-26450D01*
X29754Y-26381D01*
X29881Y-26255D01*
X29949Y-26089D01*
X29950Y-25910D01*
X29950Y-26910D01*
X29881Y-26745D01*
X29755Y-26618D01*
X29589Y-26550D01*
X29410Y-26549D01*
X29245Y-26618D01*
X29118Y-26744D01*
X29050Y-26910D01*
X29049Y-27089D01*
X29118Y-27254D01*
X29244Y-27381D01*
X29410Y-27449D01*
X29589Y-27450D01*
X29754Y-27381D01*
X29881Y-27255D01*
X29949Y-27089D01*
X29950Y-26910D01*
X29950Y-27910D01*
X29881Y-27745D01*
X29755Y-27618D01*
X29589Y-27550D01*
X29410Y-27549D01*
X29245Y-27618D01*
X29118Y-27744D01*
X29050Y-27910D01*
X29049Y-28089D01*
X29118Y-28254D01*
X29244Y-28381D01*
X29410Y-28449D01*
X29589Y-28450D01*
X29754Y-28381D01*
X29881Y-28255D01*
X29949Y-28089D01*
X29950Y-27910D01*
X29950Y-28910D01*
X29881Y-28745D01*
X29755Y-28618D01*
X29589Y-28550D01*
X29410Y-28549D01*
X29245Y-28618D01*
X29118Y-28744D01*
X29050Y-28910D01*
X29049Y-29089D01*
X29118Y-29254D01*
X29244Y-29381D01*
X29410Y-29449D01*
X29589Y-29450D01*
X29754Y-29381D01*
X29881Y-29255D01*
X29949Y-29089D01*
X29950Y-28910D01*
X29950Y-29910D01*
X29881Y-29745D01*
X29755Y-29618D01*
X29589Y-29550D01*
X29410Y-29549D01*
X29245Y-29618D01*
X29118Y-29744D01*
X29050Y-29910D01*
X29049Y-30089D01*
X29118Y-30254D01*
X29244Y-30381D01*
X29410Y-30449D01*
X29589Y-30450D01*
X29754Y-30381D01*
X29881Y-30255D01*
X29949Y-30089D01*
X29950Y-29910D01*
X29950Y-30910D01*
X29881Y-30745D01*
X29755Y-30618D01*
X29589Y-30550D01*
X29410Y-30549D01*
X29245Y-30618D01*
X29118Y-30744D01*
X29050Y-30910D01*
X29049Y-31089D01*
X29118Y-31254D01*
X29244Y-31381D01*
X29410Y-31449D01*
X29589Y-31450D01*
X29754Y-31381D01*
X29881Y-31255D01*
X29949Y-31089D01*
X29950Y-30910D01*
X29950Y-31455D01*
X29915Y-31490D01*
X29877Y-31547D01*
X29864Y-31614D01*
X29864Y-31728D01*
X29755Y-31618D01*
X29589Y-31550D01*
X29410Y-31549D01*
X29245Y-31618D01*
X29118Y-31744D01*
X29050Y-31910D01*
X29049Y-32089D01*
X29118Y-32254D01*
X29244Y-32381D01*
X29410Y-32449D01*
X29589Y-32450D01*
X29754Y-32381D01*
X29864Y-32272D01*
X29864Y-33228D01*
X29755Y-33118D01*
X29589Y-33050D01*
X29410Y-33049D01*
X29245Y-33118D01*
X29118Y-33244D01*
X29050Y-33410D01*
X29049Y-33589D01*
X29118Y-33754D01*
X29244Y-33881D01*
X29410Y-33949D01*
X29589Y-33950D01*
X29754Y-33881D01*
X29864Y-33772D01*
X29864Y-34022D01*
X29691Y-34195D01*
X29212Y-34195D01*
X29145Y-34208D01*
X29088Y-34246D01*
X29088Y-34246D01*
X29088Y-34246D01*
X28892Y-34443D01*
X28854Y-34499D01*
X28840Y-34566D01*
X28840Y-35203D01*
X28695Y-35348D01*
X28657Y-35405D01*
X28643Y-35472D01*
X28643Y-36683D01*
X28622Y-36705D01*
X28572Y-36824D01*
X28572Y-36954D01*
X28621Y-37073D01*
X28713Y-37165D01*
X28832Y-37214D01*
X28962Y-37214D01*
X29081Y-37165D01*
X29172Y-37074D01*
X29222Y-36954D01*
X29222Y-36825D01*
X29218Y-36814D01*
X31255Y-36814D01*
X31300Y-36858D01*
X31300Y-37095D01*
X31245Y-37118D01*
X31118Y-37244D01*
X31050Y-37410D01*
X31049Y-37589D01*
X31118Y-37754D01*
X31244Y-37881D01*
X31410Y-37949D01*
X31486Y-37949D01*
X31363Y-37956D01*
X31212Y-38018D01*
X31184Y-38114D01*
X31500Y-38429D01*
X31815Y-38114D01*
X31787Y-38018D01*
X31592Y-37948D01*
X31754Y-37881D01*
X31881Y-37755D01*
X31949Y-37589D01*
X31950Y-37410D01*
X31881Y-37245D01*
X31755Y-37118D01*
X31700Y-37095D01*
X31700Y-36775D01*
X31684Y-36699D01*
X31684Y-36699D01*
X31670Y-36677D01*
X31641Y-36634D01*
X31641Y-36634D01*
X31555Y-36547D01*
X31636Y-36543D01*
X31787Y-36481D01*
X31815Y-36385D01*
X31500Y-36070D01*
X31184Y-36385D01*
X31192Y-36414D01*
X30807Y-36414D01*
X30815Y-36385D01*
X30500Y-36070D01*
X30184Y-36385D01*
X30192Y-36414D01*
X29897Y-36414D01*
X29927Y-36385D01*
X29949Y-36329D01*
X29950Y-36270D01*
X29950Y-36014D01*
X29956Y-36136D01*
X30018Y-36287D01*
X30114Y-36315D01*
X30429Y-36000D01*
X30423Y-35994D01*
X30494Y-35923D01*
X30500Y-35929D01*
X30505Y-35923D01*
X30576Y-35994D01*
X30570Y-36000D01*
X30885Y-36315D01*
X30981Y-36287D01*
X30998Y-36239D01*
X31018Y-36287D01*
X31114Y-36315D01*
X31429Y-36000D01*
X31423Y-35994D01*
X31494Y-35923D01*
X31500Y-35929D01*
X31505Y-35923D01*
X31576Y-35994D01*
X31570Y-36000D01*
X31885Y-36315D01*
X31981Y-36287D01*
X31998Y-36239D01*
X32018Y-36287D01*
X32114Y-36315D01*
X32429Y-36000D01*
X32423Y-35994D01*
X32494Y-35923D01*
X32500Y-35929D01*
X32505Y-35923D01*
X32576Y-35994D01*
X32570Y-36000D01*
X32885Y-36315D01*
X32981Y-36287D01*
X32998Y-36239D01*
X33018Y-36287D01*
X33114Y-36315D01*
X33429Y-36000D01*
X33423Y-35994D01*
X33494Y-35923D01*
X33500Y-35929D01*
X33505Y-35923D01*
X33576Y-35994D01*
X33570Y-36000D01*
X33885Y-36315D01*
X33981Y-36287D01*
X34054Y-36081D01*
X34043Y-35863D01*
X33981Y-35712D01*
X33885Y-35684D01*
X33931Y-35639D01*
X33919Y-35627D01*
X34060Y-35486D01*
X34060Y-35486D01*
X34060Y-35486D01*
X34098Y-35429D01*
X34112Y-35362D01*
X34112Y-35362D01*
X34112Y-35362D01*
X34112Y-34488D01*
X34098Y-34421D01*
X34098Y-34421D01*
X34060Y-34364D01*
X33675Y-33978D01*
X33675Y-33950D01*
X33829Y-33950D01*
X33884Y-33927D01*
X33927Y-33885D01*
X33949Y-33829D01*
X33950Y-33770D01*
X33950Y-33582D01*
X34068Y-33632D01*
X34116Y-33632D01*
X34116Y-34330D01*
X34129Y-34397D01*
X34167Y-34454D01*
X34403Y-34690D01*
X34460Y-34728D01*
X34460Y-34728D01*
X34527Y-34741D01*
X35801Y-34741D01*
X35457Y-35086D01*
X34379Y-35086D01*
X34324Y-35108D01*
X34282Y-35151D01*
X34259Y-35206D01*
X34259Y-35265D01*
X34259Y-36053D01*
X34275Y-36092D01*
X34266Y-36092D01*
X34146Y-36141D01*
X34055Y-36232D01*
X34054Y-36234D01*
X34005Y-36352D01*
X34005Y-36481D01*
X34055Y-36601D01*
X34146Y-36692D01*
X34265Y-36742D01*
X34395Y-36742D01*
X34514Y-36693D01*
X34575Y-36631D01*
X35195Y-36631D01*
X35147Y-36746D01*
X35147Y-36875D01*
X35151Y-36884D01*
X34876Y-37159D01*
X34844Y-37207D01*
X34755Y-37118D01*
X34589Y-37050D01*
X34410Y-37049D01*
X34245Y-37118D01*
X34118Y-37244D01*
X34050Y-37410D01*
X34049Y-37589D01*
X34118Y-37754D01*
X34244Y-37881D01*
X34410Y-37949D01*
X34589Y-37950D01*
X34754Y-37881D01*
X34825Y-37811D01*
X34825Y-37927D01*
X34669Y-38083D01*
X34589Y-38050D01*
X34410Y-38049D01*
X34245Y-38118D01*
X34118Y-38244D01*
X34050Y-38410D01*
X34049Y-38589D01*
X34118Y-38754D01*
X34244Y-38881D01*
X34410Y-38949D01*
X34589Y-38950D01*
X34754Y-38881D01*
X34881Y-38755D01*
X34949Y-38589D01*
X34950Y-38410D01*
X34916Y-38330D01*
X35123Y-38123D01*
X35161Y-38066D01*
X35161Y-38066D01*
X35175Y-38000D01*
X35175Y-37811D01*
X35244Y-37881D01*
X35410Y-37949D01*
X35589Y-37950D01*
X35754Y-37881D01*
X35881Y-37755D01*
X35949Y-37589D01*
X35950Y-37410D01*
X35881Y-37245D01*
X35755Y-37118D01*
X35662Y-37080D01*
X35747Y-36995D01*
X35797Y-36875D01*
X35797Y-36746D01*
X35749Y-36631D01*
X36502Y-36631D01*
X36793Y-36922D01*
X36793Y-37157D01*
X36755Y-37118D01*
X36589Y-37050D01*
X36410Y-37049D01*
X36245Y-37118D01*
X36118Y-37244D01*
X36050Y-37410D01*
X36049Y-37589D01*
X36118Y-37754D01*
X36244Y-37881D01*
X36410Y-37949D01*
X36589Y-37950D01*
X36754Y-37881D01*
X36793Y-37842D01*
X36793Y-37874D01*
X36806Y-37940D01*
X36844Y-37997D01*
X37002Y-38155D01*
X37059Y-38193D01*
X37125Y-38206D01*
X37157Y-38206D01*
X37118Y-38244D01*
X37050Y-38410D01*
X37049Y-38589D01*
X37118Y-38754D01*
X37244Y-38881D01*
X37410Y-38949D01*
X37589Y-38950D01*
X37754Y-38881D01*
X37881Y-38755D01*
X37949Y-38589D01*
X37950Y-38410D01*
X37881Y-38245D01*
X37842Y-38206D01*
X38157Y-38206D01*
X38118Y-38244D01*
X38050Y-38410D01*
X38049Y-38589D01*
X38118Y-38754D01*
X38244Y-38881D01*
X38410Y-38949D01*
X38589Y-38950D01*
X38754Y-38881D01*
X38881Y-38755D01*
X38949Y-38589D01*
X38950Y-38410D01*
X38881Y-38245D01*
X38842Y-38206D01*
X39157Y-38206D01*
X39118Y-38244D01*
X39050Y-38410D01*
X39049Y-38589D01*
X39118Y-38754D01*
X39244Y-38881D01*
X39410Y-38949D01*
X39589Y-38950D01*
X39754Y-38881D01*
X39881Y-38755D01*
X39949Y-38589D01*
X39950Y-38410D01*
X39881Y-38245D01*
X39842Y-38206D01*
X39959Y-38206D01*
X40083Y-38330D01*
X40050Y-38410D01*
X40049Y-38589D01*
X40118Y-38754D01*
X40244Y-38881D01*
X40410Y-38949D01*
X40589Y-38950D01*
X40754Y-38881D01*
X40881Y-38755D01*
X40949Y-38589D01*
X40950Y-38410D01*
X40881Y-38245D01*
X40755Y-38118D01*
X40589Y-38050D01*
X40410Y-38049D01*
X40330Y-38083D01*
X40197Y-37949D01*
X40229Y-37950D01*
X40829Y-37950D01*
X40884Y-37927D01*
X40927Y-37885D01*
X40949Y-37829D01*
X40950Y-37770D01*
X40950Y-37170D01*
X40927Y-37115D01*
X40885Y-37072D01*
X40829Y-37050D01*
X40770Y-37049D01*
X40170Y-37049D01*
X40115Y-37072D01*
X40072Y-37114D01*
X40050Y-37170D01*
X40049Y-37229D01*
X40049Y-37829D01*
X40063Y-37862D01*
X40031Y-37856D01*
X39779Y-37856D01*
X39881Y-37755D01*
X39949Y-37589D01*
X39950Y-37410D01*
X39881Y-37245D01*
X39755Y-37118D01*
X39589Y-37050D01*
X39410Y-37049D01*
X39245Y-37118D01*
X39118Y-37244D01*
X39050Y-37410D01*
X39049Y-37589D01*
X39118Y-37754D01*
X39220Y-37856D01*
X38779Y-37856D01*
X38881Y-37755D01*
X38949Y-37589D01*
X38950Y-37410D01*
X38881Y-37245D01*
X38755Y-37118D01*
X38589Y-37050D01*
X38410Y-37049D01*
X38245Y-37118D01*
X38118Y-37244D01*
X38050Y-37410D01*
X38049Y-37589D01*
X38118Y-37754D01*
X38220Y-37856D01*
X37779Y-37856D01*
X37881Y-37755D01*
X37949Y-37589D01*
X37950Y-37410D01*
X37881Y-37245D01*
X37755Y-37118D01*
X37589Y-37050D01*
X37410Y-37049D01*
X37245Y-37118D01*
X37143Y-37220D01*
X37143Y-36850D01*
X37130Y-36783D01*
X37092Y-36726D01*
X36698Y-36332D01*
X36641Y-36295D01*
X36574Y-36281D01*
X34626Y-36281D01*
X34606Y-36233D01*
X34546Y-36173D01*
X36801Y-36173D01*
X36856Y-36150D01*
X36898Y-36108D01*
X36921Y-36053D01*
X36921Y-35993D01*
X36921Y-35206D01*
X36898Y-35151D01*
X36856Y-35109D01*
X36801Y-35086D01*
X36741Y-35086D01*
X36023Y-35086D01*
X36067Y-35042D01*
X38066Y-35042D01*
X38205Y-35180D01*
X38205Y-35180D01*
X38206Y-35181D01*
X38196Y-35206D01*
X38196Y-35265D01*
X38196Y-36053D01*
X38219Y-36108D01*
X38261Y-36150D01*
X38316Y-36173D01*
X38376Y-36173D01*
X40738Y-36173D01*
X40793Y-36150D01*
X40835Y-36108D01*
X40858Y-36053D01*
X40858Y-35993D01*
X40858Y-35214D01*
X41187Y-35214D01*
X41332Y-35359D01*
X41332Y-35359D01*
X41389Y-35397D01*
X41456Y-35411D01*
X41456Y-35411D01*
X41571Y-35411D01*
X41574Y-35420D01*
X41666Y-35511D01*
X41699Y-35525D01*
X41658Y-35542D01*
X41616Y-35584D01*
X41593Y-35639D01*
X41593Y-35698D01*
X41593Y-36092D01*
X41616Y-36147D01*
X41658Y-36190D01*
X41713Y-36212D01*
X41773Y-36213D01*
X42223Y-36213D01*
X42269Y-36193D01*
X42269Y-36365D01*
X42223Y-36346D01*
X42163Y-36346D01*
X41713Y-36346D01*
X41658Y-36368D01*
X41616Y-36410D01*
X41593Y-36466D01*
X41593Y-36525D01*
X41593Y-36919D01*
X41616Y-36974D01*
X41658Y-37016D01*
X41713Y-37039D01*
X41718Y-37039D01*
X41718Y-37145D01*
X41618Y-37244D01*
X41550Y-37410D01*
X41549Y-37589D01*
X41618Y-37754D01*
X41744Y-37881D01*
X41910Y-37949D01*
X41986Y-37949D01*
X41863Y-37956D01*
X41712Y-38018D01*
X41684Y-38114D01*
X42000Y-38429D01*
X42315Y-38114D01*
X42287Y-38018D01*
X42092Y-37948D01*
X42254Y-37881D01*
X42381Y-37755D01*
X42383Y-37750D01*
X42616Y-37750D01*
X42618Y-37754D01*
X42744Y-37881D01*
X42910Y-37949D01*
X42986Y-37949D01*
X42863Y-37956D01*
X42712Y-38018D01*
X42684Y-38114D01*
X43000Y-38429D01*
X43315Y-38114D01*
X43287Y-38018D01*
X43092Y-37948D01*
X43254Y-37881D01*
X43381Y-37755D01*
X43383Y-37750D01*
X43549Y-37750D01*
X43549Y-37829D01*
X43572Y-37884D01*
X43614Y-37927D01*
X43670Y-37949D01*
X43729Y-37950D01*
X43985Y-37950D01*
X43863Y-37956D01*
X43712Y-38018D01*
X43684Y-38114D01*
X44000Y-38429D01*
X44315Y-38114D01*
X44287Y-38018D01*
X44095Y-37950D01*
X44329Y-37950D01*
X44384Y-37927D01*
X44427Y-37885D01*
X44449Y-37829D01*
X44450Y-37770D01*
X44450Y-37170D01*
X44427Y-37115D01*
X44390Y-37078D01*
X44390Y-36663D01*
X44390Y-36269D01*
X44367Y-36214D01*
X44325Y-36172D01*
X44270Y-36149D01*
X44211Y-36149D01*
X43761Y-36149D01*
X43705Y-36171D01*
X43663Y-36214D01*
X43640Y-36269D01*
X43640Y-36321D01*
X43632Y-36321D01*
X43632Y-36195D01*
X43582Y-36075D01*
X43491Y-35984D01*
X43372Y-35934D01*
X43242Y-35934D01*
X43123Y-35984D01*
X43031Y-36075D01*
X42982Y-36194D01*
X42982Y-36324D01*
X43031Y-36443D01*
X43122Y-36535D01*
X43242Y-36584D01*
X43371Y-36584D01*
X43380Y-36581D01*
X43419Y-36619D01*
X43476Y-36657D01*
X43476Y-36657D01*
X43543Y-36671D01*
X43640Y-36671D01*
X43640Y-36722D01*
X43663Y-36777D01*
X43705Y-36820D01*
X43760Y-36842D01*
X43820Y-36842D01*
X44270Y-36842D01*
X44325Y-36820D01*
X44367Y-36777D01*
X44390Y-36722D01*
X44390Y-36663D01*
X44390Y-37078D01*
X44385Y-37072D01*
X44329Y-37050D01*
X44270Y-37049D01*
X43670Y-37049D01*
X43615Y-37072D01*
X43572Y-37114D01*
X43550Y-37170D01*
X43549Y-37229D01*
X43549Y-37250D01*
X43383Y-37250D01*
X43381Y-37245D01*
X43255Y-37118D01*
X43089Y-37050D01*
X42910Y-37049D01*
X42745Y-37118D01*
X42618Y-37244D01*
X42616Y-37250D01*
X42383Y-37250D01*
X42381Y-37245D01*
X42255Y-37118D01*
X42218Y-37103D01*
X42218Y-37039D01*
X42223Y-37039D01*
X42278Y-37017D01*
X42320Y-36974D01*
X42334Y-36940D01*
X42418Y-36923D01*
X42499Y-36869D01*
X42696Y-36672D01*
X42696Y-36672D01*
X42696Y-36672D01*
X42750Y-36591D01*
X42750Y-36591D01*
X42765Y-36515D01*
X42769Y-36496D01*
X42769Y-36496D01*
X42769Y-36496D01*
X42769Y-35524D01*
X42795Y-35499D01*
X42844Y-35379D01*
X42844Y-35250D01*
X42795Y-35131D01*
X42721Y-35056D01*
X43700Y-35056D01*
X43966Y-35056D01*
X43966Y-35143D01*
X44015Y-35262D01*
X44075Y-35322D01*
X43761Y-35322D01*
X43705Y-35345D01*
X43663Y-35387D01*
X43640Y-35442D01*
X43640Y-35502D01*
X43640Y-35895D01*
X43663Y-35950D01*
X43705Y-35993D01*
X43760Y-36016D01*
X43820Y-36016D01*
X44270Y-36016D01*
X44325Y-35993D01*
X44367Y-35951D01*
X44390Y-35896D01*
X44390Y-35836D01*
X44390Y-35765D01*
X44720Y-35765D01*
X44724Y-35774D01*
X44815Y-35865D01*
X44935Y-35915D01*
X45064Y-35915D01*
X45183Y-35866D01*
X45275Y-35774D01*
X45324Y-35655D01*
X45325Y-35526D01*
X45319Y-35511D01*
X45352Y-35478D01*
X45374Y-35423D01*
X45375Y-35363D01*
X45375Y-34970D01*
X45352Y-34915D01*
X45310Y-34872D01*
X45254Y-34850D01*
X45195Y-34849D01*
X44745Y-34849D01*
X44690Y-34872D01*
X44647Y-34914D01*
X44625Y-34970D01*
X44624Y-35029D01*
X44624Y-35415D01*
X44379Y-35415D01*
X44371Y-35397D01*
X44475Y-35354D01*
X44566Y-35263D01*
X44616Y-35143D01*
X44616Y-35014D01*
X44567Y-34894D01*
X44514Y-34842D01*
X44566Y-34790D01*
X44589Y-34735D01*
X44633Y-34778D01*
X44725Y-34816D01*
X44824Y-34816D01*
X44887Y-34816D01*
X44950Y-34754D01*
X44950Y-34420D01*
X44587Y-34420D01*
X44572Y-34435D01*
X44567Y-34422D01*
X44475Y-34330D01*
X44356Y-34281D01*
X44226Y-34281D01*
X44107Y-34330D01*
X44015Y-34421D01*
X43966Y-34541D01*
X43966Y-34556D01*
X43732Y-34556D01*
X41676Y-34556D01*
X39646Y-34556D01*
X39296Y-34206D01*
X39240Y-34169D01*
X39173Y-34155D01*
X38497Y-34155D01*
X38127Y-33785D01*
X38127Y-33653D01*
X38207Y-33653D01*
X38262Y-33631D01*
X38304Y-33589D01*
X38327Y-33533D01*
X38327Y-33474D01*
X38327Y-33080D01*
X38304Y-33025D01*
X38262Y-32983D01*
X38207Y-32960D01*
X38148Y-32960D01*
X37698Y-32960D01*
X37642Y-32982D01*
X37600Y-33025D01*
X37598Y-33030D01*
X37596Y-33025D01*
X37554Y-32983D01*
X37499Y-32960D01*
X37439Y-32960D01*
X36989Y-32960D01*
X36934Y-32982D01*
X36892Y-33025D01*
X36889Y-33030D01*
X36887Y-33025D01*
X36845Y-32983D01*
X36790Y-32960D01*
X36730Y-32960D01*
X36632Y-32960D01*
X36499Y-32827D01*
X36790Y-32827D01*
X36845Y-32804D01*
X36887Y-32762D01*
X36889Y-32756D01*
X36891Y-32762D01*
X36934Y-32804D01*
X36989Y-32827D01*
X37048Y-32827D01*
X37498Y-32827D01*
X37553Y-32804D01*
X37596Y-32762D01*
X37598Y-32756D01*
X37600Y-32762D01*
X37642Y-32804D01*
X37697Y-32827D01*
X37757Y-32827D01*
X38207Y-32827D01*
X38262Y-32804D01*
X38304Y-32762D01*
X38327Y-32707D01*
X38327Y-32647D01*
X38327Y-32253D01*
X38304Y-32198D01*
X38262Y-32156D01*
X38207Y-32133D01*
X38148Y-32133D01*
X38127Y-32133D01*
X38127Y-32007D01*
X38114Y-31940D01*
X38076Y-31884D01*
X37998Y-31806D01*
X38002Y-31797D01*
X38002Y-31667D01*
X37970Y-31592D01*
X38503Y-31592D01*
X38570Y-31579D01*
X38570Y-31579D01*
X38627Y-31541D01*
X38667Y-31501D01*
X38704Y-31444D01*
X38718Y-31377D01*
X38718Y-31370D01*
X38769Y-31370D01*
X38825Y-31347D01*
X38867Y-31305D01*
X38890Y-31250D01*
X38890Y-31190D01*
X38890Y-30403D01*
X38875Y-30368D01*
X39037Y-30368D01*
X39023Y-30403D01*
X39023Y-30462D01*
X39023Y-31250D01*
X39045Y-31305D01*
X39088Y-31347D01*
X39143Y-31370D01*
X39202Y-31370D01*
X39282Y-31370D01*
X39264Y-31377D01*
X39173Y-31469D01*
X39123Y-31588D01*
X39123Y-31717D01*
X39146Y-31772D01*
X39120Y-31761D01*
X38990Y-31761D01*
X38871Y-31810D01*
X38779Y-31902D01*
X38730Y-32021D01*
X38730Y-32150D01*
X38774Y-32259D01*
X38745Y-32259D01*
X38690Y-32282D01*
X38647Y-32324D01*
X38625Y-32379D01*
X38624Y-32439D01*
X38624Y-32832D01*
X38647Y-32888D01*
X38689Y-32930D01*
X38745Y-32953D01*
X38804Y-32953D01*
X39232Y-32953D01*
X39099Y-33086D01*
X38745Y-33086D01*
X38690Y-33108D01*
X38647Y-33151D01*
X38625Y-33206D01*
X38624Y-33265D01*
X38624Y-33659D01*
X38647Y-33714D01*
X38689Y-33757D01*
X38745Y-33779D01*
X38804Y-33779D01*
X39254Y-33779D01*
X39309Y-33757D01*
X39352Y-33715D01*
X39374Y-33659D01*
X39375Y-33600D01*
X39375Y-33305D01*
X39558Y-33122D01*
X39591Y-33201D01*
X39661Y-33271D01*
X39753Y-33309D01*
X39887Y-33309D01*
X39950Y-33247D01*
X39950Y-32884D01*
X39942Y-32884D01*
X39942Y-32784D01*
X39950Y-32784D01*
X39950Y-32422D01*
X39887Y-32359D01*
X39753Y-32359D01*
X39661Y-32397D01*
X39623Y-32435D01*
X39623Y-31932D01*
X39632Y-31929D01*
X39724Y-31837D01*
X39773Y-31718D01*
X39773Y-31589D01*
X39765Y-31568D01*
X39825Y-31608D01*
X39825Y-31608D01*
X39902Y-31624D01*
X39921Y-31627D01*
X39921Y-31627D01*
X39921Y-31627D01*
X40029Y-31627D01*
X40059Y-31672D01*
X40469Y-32082D01*
X40291Y-32260D01*
X40248Y-32325D01*
X40241Y-32359D01*
X40112Y-32359D01*
X40050Y-32422D01*
X40050Y-32784D01*
X40057Y-32784D01*
X40057Y-32884D01*
X40050Y-32884D01*
X40050Y-33247D01*
X40112Y-33309D01*
X40233Y-33309D01*
X40233Y-33661D01*
X40248Y-33737D01*
X40291Y-33802D01*
X40606Y-34117D01*
X40606Y-34117D01*
X40649Y-34146D01*
X40671Y-34161D01*
X40671Y-34161D01*
X40748Y-34176D01*
X40748Y-34176D01*
X42834Y-34176D01*
X43218Y-34176D01*
X43228Y-34199D01*
X43319Y-34291D01*
X43439Y-34340D01*
X43568Y-34340D01*
X43687Y-34291D01*
X43772Y-34206D01*
X44468Y-34206D01*
X44524Y-34195D01*
X44525Y-34257D01*
X44587Y-34320D01*
X44950Y-34320D01*
X44950Y-33985D01*
X44887Y-33923D01*
X44855Y-33923D01*
X45609Y-33168D01*
X45664Y-33087D01*
X45683Y-32992D01*
X45683Y-32426D01*
X45859Y-32250D01*
X46116Y-32250D01*
X46118Y-32254D01*
X46244Y-32381D01*
X46410Y-32449D01*
X46589Y-32450D01*
X46754Y-32381D01*
X46881Y-32255D01*
X46949Y-32089D01*
X46949Y-32013D01*
X46956Y-32136D01*
X47018Y-32287D01*
X47114Y-32315D01*
X47429Y-32000D01*
X47114Y-31684D01*
X47018Y-31712D01*
X46948Y-31907D01*
X46881Y-31745D01*
X46755Y-31618D01*
X46589Y-31550D01*
X46410Y-31549D01*
X46245Y-31618D01*
X46118Y-31744D01*
X46116Y-31750D01*
X46103Y-31750D01*
X46405Y-31448D01*
X46410Y-31449D01*
X46589Y-31450D01*
X46754Y-31381D01*
X46881Y-31255D01*
X46949Y-31089D01*
X46949Y-31013D01*
X46956Y-31136D01*
X47018Y-31287D01*
X47114Y-31315D01*
X47429Y-31000D01*
X47114Y-30684D01*
X47018Y-30712D01*
X46948Y-30907D01*
X46881Y-30745D01*
X46755Y-30618D01*
X46589Y-30550D01*
X46410Y-30549D01*
X46245Y-30618D01*
X46118Y-30744D01*
X46050Y-30910D01*
X46049Y-31089D01*
X46052Y-31094D01*
X45796Y-31350D01*
X45652Y-31350D01*
X45679Y-31285D01*
X45679Y-31156D01*
X45630Y-31036D01*
X45538Y-30945D01*
X45529Y-30941D01*
X45529Y-30938D01*
X45609Y-30858D01*
X45963Y-30858D01*
X46018Y-30835D01*
X46060Y-30793D01*
X46083Y-30738D01*
X46083Y-30678D01*
X46083Y-30285D01*
X46060Y-30230D01*
X46018Y-30187D01*
X45963Y-30164D01*
X45903Y-30164D01*
X45453Y-30164D01*
X45398Y-30187D01*
X45356Y-30229D01*
X45333Y-30284D01*
X45333Y-30344D01*
X45333Y-30639D01*
X45230Y-30742D01*
X45192Y-30799D01*
X45179Y-30866D01*
X45179Y-30941D01*
X45170Y-30944D01*
X45078Y-31036D01*
X45029Y-31155D01*
X45029Y-31211D01*
X44816Y-30998D01*
X44816Y-28582D01*
X44797Y-28487D01*
X44743Y-28405D01*
X44507Y-28169D01*
X44426Y-28115D01*
X44330Y-28096D01*
X43260Y-28096D01*
X43260Y-27923D01*
X43237Y-27867D01*
X43195Y-27825D01*
X43163Y-27812D01*
X43163Y-27780D01*
X44472Y-26472D01*
X44473Y-26469D01*
X44476Y-26467D01*
X44530Y-26386D01*
X44550Y-26290D01*
X44550Y-25441D01*
X44549Y-25441D01*
X44550Y-25441D01*
X44546Y-25422D01*
X44530Y-25346D01*
X44530Y-25346D01*
X44476Y-25264D01*
X44476Y-25264D01*
X44255Y-25044D01*
X44255Y-25044D01*
X44035Y-24823D01*
X43953Y-24769D01*
X43858Y-24750D01*
X43804Y-24750D01*
X43753Y-24699D01*
X43753Y-23646D01*
X43937Y-23463D01*
X44075Y-23601D01*
X44075Y-23601D01*
X44156Y-23656D01*
X44156Y-23656D01*
X44232Y-23671D01*
X44251Y-23675D01*
X44251Y-23675D01*
X44251Y-23675D01*
X45074Y-23675D01*
X45170Y-23656D01*
X45251Y-23601D01*
X45412Y-23440D01*
X45412Y-23440D01*
X45412Y-23440D01*
X45467Y-23359D01*
X45467Y-23359D01*
X45486Y-23263D01*
X45486Y-22244D01*
X45467Y-22148D01*
X45412Y-22067D01*
X45331Y-22013D01*
X45277Y-22002D01*
X45185Y-21910D01*
X45254Y-21881D01*
X45381Y-21755D01*
X45449Y-21589D01*
X45450Y-21410D01*
X45381Y-21245D01*
X45255Y-21118D01*
X45089Y-21050D01*
X45013Y-21050D01*
X45136Y-21043D01*
X45287Y-20981D01*
X45315Y-20885D01*
X45000Y-20570D01*
X44929Y-20641D01*
X44929Y-20500D01*
X44614Y-20184D01*
X44518Y-20212D01*
X44501Y-20260D01*
X44481Y-20212D01*
X44385Y-20184D01*
X44315Y-20255D01*
X44315Y-20114D01*
X44287Y-20018D01*
X44081Y-19945D01*
X43863Y-19956D01*
X43712Y-20018D01*
X43684Y-20114D01*
X44000Y-20429D01*
X44315Y-20114D01*
X44315Y-20255D01*
X44070Y-20500D01*
X44385Y-20815D01*
X44481Y-20787D01*
X44498Y-20739D01*
X44518Y-20787D01*
X44614Y-20815D01*
X44929Y-20500D01*
X44929Y-20641D01*
X44684Y-20885D01*
X44712Y-20981D01*
X44907Y-21051D01*
X44745Y-21118D01*
X44618Y-21244D01*
X44550Y-21410D01*
X44549Y-21589D01*
X44618Y-21754D01*
X44632Y-21768D01*
X44367Y-21768D01*
X44381Y-21755D01*
X44449Y-21589D01*
X44450Y-21410D01*
X44381Y-21245D01*
X44255Y-21118D01*
X44089Y-21050D01*
X44013Y-21050D01*
X44136Y-21043D01*
X44287Y-20981D01*
X44315Y-20885D01*
X44000Y-20570D01*
X43929Y-20641D01*
X43929Y-20500D01*
X43614Y-20184D01*
X43518Y-20212D01*
X43448Y-20407D01*
X43381Y-20245D01*
X43255Y-20118D01*
X43089Y-20050D01*
X42910Y-20049D01*
X42745Y-20118D01*
X42618Y-20244D01*
X42550Y-20410D01*
X42549Y-20589D01*
X42618Y-20754D01*
X42744Y-20881D01*
X42910Y-20949D01*
X43089Y-20950D01*
X43254Y-20881D01*
X43381Y-20755D01*
X43449Y-20589D01*
X43449Y-20513D01*
X43456Y-20636D01*
X43518Y-20787D01*
X43614Y-20815D01*
X43929Y-20500D01*
X43929Y-20641D01*
X43684Y-20885D01*
X43712Y-20981D01*
X43907Y-21051D01*
X43745Y-21118D01*
X43618Y-21244D01*
X43550Y-21410D01*
X43549Y-21589D01*
X43618Y-21754D01*
X43632Y-21768D01*
X43367Y-21768D01*
X43381Y-21755D01*
X43449Y-21589D01*
X43450Y-21410D01*
X43381Y-21245D01*
X43255Y-21118D01*
X43089Y-21050D01*
X42910Y-21049D01*
X42745Y-21118D01*
X42618Y-21244D01*
X42550Y-21410D01*
X42549Y-21589D01*
X42618Y-21754D01*
X42632Y-21768D01*
X42440Y-21768D01*
X42364Y-21783D01*
X42342Y-21798D01*
X42329Y-21807D01*
X42381Y-21755D01*
X42449Y-21589D01*
X42450Y-21410D01*
X42450Y-20410D01*
X42381Y-20245D01*
X42255Y-20118D01*
X42089Y-20050D01*
X41910Y-20049D01*
X41745Y-20118D01*
X41618Y-20244D01*
X41550Y-20410D01*
X41549Y-20589D01*
X41618Y-20754D01*
X41744Y-20881D01*
X41910Y-20949D01*
X42089Y-20950D01*
X42254Y-20881D01*
X42381Y-20755D01*
X42449Y-20589D01*
X42450Y-20410D01*
X42450Y-21410D01*
X42381Y-21245D01*
X42255Y-21118D01*
X42089Y-21050D01*
X41910Y-21049D01*
X41745Y-21118D01*
X41618Y-21244D01*
X41550Y-21410D01*
X41549Y-21589D01*
X41618Y-21754D01*
X41744Y-21881D01*
X41910Y-21949D01*
X42089Y-21950D01*
X42238Y-21888D01*
X42023Y-22102D01*
X41980Y-22167D01*
X41974Y-22200D01*
X41450Y-22200D01*
X41450Y-21410D01*
X41450Y-20410D01*
X41381Y-20245D01*
X41255Y-20118D01*
X41089Y-20050D01*
X40910Y-20049D01*
X40745Y-20118D01*
X40618Y-20244D01*
X40550Y-20410D01*
X40549Y-20589D01*
X40618Y-20754D01*
X40744Y-20881D01*
X40910Y-20949D01*
X41089Y-20950D01*
X41254Y-20881D01*
X41381Y-20755D01*
X41449Y-20589D01*
X41450Y-20410D01*
X41450Y-21410D01*
X41381Y-21245D01*
X41255Y-21118D01*
X41089Y-21050D01*
X40910Y-21049D01*
X40745Y-21118D01*
X40618Y-21244D01*
X40550Y-21410D01*
X40549Y-21589D01*
X40618Y-21754D01*
X40744Y-21881D01*
X40910Y-21949D01*
X41089Y-21950D01*
X41254Y-21881D01*
X41381Y-21755D01*
X41449Y-21589D01*
X41450Y-21410D01*
X41450Y-22200D01*
X40450Y-22200D01*
X40450Y-21410D01*
X40450Y-20410D01*
X40381Y-20245D01*
X40255Y-20118D01*
X40089Y-20050D01*
X39910Y-20049D01*
X39745Y-20118D01*
X39618Y-20244D01*
X39550Y-20410D01*
X39549Y-20589D01*
X39618Y-20754D01*
X39744Y-20881D01*
X39910Y-20949D01*
X40089Y-20950D01*
X40254Y-20881D01*
X40381Y-20755D01*
X40449Y-20589D01*
X40450Y-20410D01*
X40450Y-21410D01*
X40381Y-21245D01*
X40255Y-21118D01*
X40089Y-21050D01*
X39910Y-21049D01*
X39745Y-21118D01*
X39618Y-21244D01*
X39550Y-21410D01*
X39549Y-21589D01*
X39618Y-21754D01*
X39744Y-21881D01*
X39910Y-21949D01*
X40089Y-21950D01*
X40254Y-21881D01*
X40381Y-21755D01*
X40449Y-21589D01*
X40450Y-21410D01*
X40450Y-22200D01*
X39883Y-22200D01*
X39819Y-22212D01*
X39806Y-22215D01*
X39742Y-22258D01*
X39450Y-22550D01*
X39450Y-21410D01*
X39450Y-20410D01*
X39381Y-20245D01*
X39255Y-20118D01*
X39089Y-20050D01*
X38910Y-20049D01*
X38745Y-20118D01*
X38618Y-20244D01*
X38550Y-20410D01*
X38549Y-20589D01*
X38618Y-20754D01*
X38744Y-20881D01*
X38910Y-20949D01*
X39089Y-20950D01*
X39254Y-20881D01*
X39381Y-20755D01*
X39449Y-20589D01*
X39450Y-20410D01*
X39450Y-21410D01*
X39381Y-21245D01*
X39255Y-21118D01*
X39089Y-21050D01*
X38910Y-21049D01*
X38745Y-21118D01*
X38618Y-21244D01*
X38550Y-21410D01*
X38549Y-21589D01*
X38618Y-21754D01*
X38744Y-21881D01*
X38910Y-21949D01*
X39089Y-21950D01*
X39254Y-21881D01*
X39381Y-21755D01*
X39449Y-21589D01*
X39450Y-21410D01*
X39450Y-22550D01*
X39346Y-22653D01*
X39303Y-22718D01*
X39288Y-22795D01*
X39288Y-22830D01*
X39208Y-22910D01*
X38858Y-22910D01*
X38794Y-22922D01*
X38781Y-22925D01*
X38716Y-22968D01*
X38450Y-23235D01*
X38450Y-21410D01*
X38450Y-20410D01*
X38381Y-20245D01*
X38255Y-20118D01*
X38089Y-20050D01*
X37910Y-20049D01*
X37745Y-20118D01*
X37618Y-20244D01*
X37550Y-20410D01*
X37549Y-20589D01*
X37618Y-20754D01*
X37744Y-20881D01*
X37910Y-20949D01*
X38089Y-20950D01*
X38254Y-20881D01*
X38381Y-20755D01*
X38449Y-20589D01*
X38450Y-20410D01*
X38450Y-21410D01*
X38381Y-21245D01*
X38255Y-21118D01*
X38089Y-21050D01*
X37910Y-21049D01*
X37745Y-21118D01*
X37618Y-21244D01*
X37550Y-21410D01*
X37549Y-21589D01*
X37618Y-21754D01*
X37744Y-21881D01*
X37910Y-21949D01*
X38089Y-21950D01*
X38254Y-21881D01*
X38381Y-21755D01*
X38449Y-21589D01*
X38450Y-21410D01*
X38450Y-23235D01*
X38302Y-23382D01*
X38174Y-23382D01*
X38181Y-23365D01*
X38181Y-23305D01*
X38181Y-23301D01*
X38188Y-23294D01*
X38238Y-23175D01*
X38238Y-23045D01*
X38189Y-22926D01*
X38181Y-22918D01*
X38181Y-22855D01*
X38158Y-22800D01*
X38119Y-22760D01*
X38159Y-22663D01*
X38159Y-22534D01*
X38110Y-22414D01*
X38018Y-22323D01*
X37899Y-22273D01*
X37770Y-22273D01*
X37760Y-22277D01*
X37367Y-21884D01*
X37311Y-21846D01*
X37293Y-21842D01*
X37381Y-21755D01*
X37449Y-21589D01*
X37450Y-21410D01*
X37450Y-20410D01*
X37381Y-20245D01*
X37255Y-20118D01*
X37089Y-20050D01*
X36910Y-20049D01*
X36745Y-20118D01*
X36618Y-20244D01*
X36550Y-20410D01*
X36549Y-20589D01*
X36618Y-20754D01*
X36744Y-20881D01*
X36910Y-20949D01*
X37089Y-20950D01*
X37254Y-20881D01*
X37381Y-20755D01*
X37449Y-20589D01*
X37450Y-20410D01*
X37450Y-21410D01*
X37381Y-21245D01*
X37255Y-21118D01*
X37089Y-21050D01*
X36910Y-21049D01*
X36745Y-21118D01*
X36618Y-21244D01*
X36550Y-21410D01*
X36549Y-21589D01*
X36618Y-21754D01*
X36696Y-21832D01*
X36580Y-21832D01*
X36450Y-21702D01*
X36450Y-20410D01*
X36381Y-20245D01*
X36255Y-20118D01*
X36089Y-20050D01*
X35910Y-20049D01*
X35745Y-20118D01*
X35618Y-20244D01*
X35550Y-20410D01*
X35549Y-20589D01*
X35618Y-20754D01*
X35744Y-20881D01*
X35910Y-20949D01*
X36089Y-20950D01*
X36254Y-20881D01*
X36381Y-20755D01*
X36449Y-20589D01*
X36450Y-20410D01*
X36450Y-21702D01*
X36450Y-21702D01*
X36450Y-21170D01*
X36427Y-21115D01*
X36385Y-21072D01*
X36329Y-21050D01*
X36270Y-21049D01*
X35670Y-21049D01*
X35615Y-21072D01*
X35572Y-21114D01*
X35550Y-21170D01*
X35549Y-21229D01*
X35549Y-21829D01*
X35572Y-21884D01*
X35614Y-21927D01*
X35670Y-21949D01*
X35729Y-21950D01*
X36202Y-21950D01*
X36345Y-22092D01*
X36299Y-22138D01*
X36249Y-22257D01*
X36249Y-22365D01*
X36097Y-22517D01*
X36041Y-22540D01*
X36041Y-22519D01*
X36027Y-22452D01*
X36027Y-22452D01*
X35989Y-22395D01*
X35951Y-22357D01*
X35954Y-22348D01*
X35954Y-22219D01*
X35905Y-22099D01*
X35814Y-22008D01*
X35694Y-21958D01*
X35565Y-21958D01*
X35450Y-22005D01*
X35450Y-20314D01*
X35437Y-20247D01*
X35399Y-20191D01*
X35123Y-19915D01*
X35066Y-19877D01*
X35000Y-19864D01*
X47851Y-19864D01*
X47851Y-22715D01*
X47755Y-22618D01*
X47589Y-22550D01*
X47410Y-22549D01*
X47245Y-22618D01*
X47118Y-22744D01*
X47050Y-22910D01*
X47049Y-23089D01*
X47118Y-23254D01*
X47244Y-23381D01*
X47410Y-23449D01*
X47589Y-23450D01*
X47754Y-23381D01*
X47851Y-23284D01*
X47851Y-23715D01*
X47755Y-23618D01*
X47589Y-23550D01*
X47410Y-23549D01*
X47245Y-23618D01*
X47118Y-23744D01*
X47050Y-23910D01*
X47049Y-24089D01*
X47118Y-24254D01*
X47244Y-24381D01*
X47410Y-24449D01*
X47589Y-24450D01*
X47754Y-24381D01*
X47851Y-24284D01*
X47851Y-24715D01*
X47755Y-24618D01*
X47589Y-24550D01*
X47410Y-24549D01*
X47245Y-24618D01*
X47118Y-24744D01*
X47050Y-24910D01*
X47049Y-25089D01*
X47118Y-25254D01*
X47244Y-25381D01*
X47410Y-25449D01*
X47589Y-25450D01*
X47754Y-25381D01*
X47851Y-25284D01*
X47851Y-25715D01*
X47755Y-25618D01*
X47589Y-25550D01*
X47410Y-25549D01*
X47245Y-25618D01*
X47118Y-25744D01*
X47050Y-25910D01*
X47049Y-26089D01*
X47118Y-26254D01*
X47244Y-26381D01*
X47410Y-26449D01*
X47589Y-26450D01*
X47754Y-26381D01*
X47851Y-26284D01*
X47851Y-26715D01*
X47755Y-26618D01*
X47589Y-26550D01*
X47410Y-26549D01*
X47245Y-26618D01*
X47118Y-26744D01*
X47050Y-26910D01*
X47049Y-27089D01*
X47118Y-27254D01*
X47244Y-27381D01*
X47410Y-27449D01*
X47589Y-27450D01*
X47754Y-27381D01*
X47851Y-27284D01*
X47851Y-27715D01*
X47755Y-27618D01*
X47589Y-27550D01*
X47410Y-27549D01*
X47245Y-27618D01*
X47118Y-27744D01*
X47050Y-27910D01*
X47049Y-28089D01*
X47083Y-28169D01*
X46962Y-28289D01*
X46846Y-28289D01*
X46881Y-28255D01*
X46949Y-28089D01*
X46950Y-27910D01*
X46950Y-26910D01*
X46950Y-25910D01*
X46950Y-24910D01*
X46950Y-23910D01*
X46950Y-23910D01*
X46950Y-23270D01*
X46950Y-22670D01*
X46927Y-22615D01*
X46885Y-22572D01*
X46829Y-22550D01*
X46770Y-22549D01*
X46170Y-22549D01*
X46115Y-22572D01*
X46072Y-22614D01*
X46050Y-22670D01*
X46049Y-22729D01*
X46049Y-23329D01*
X46072Y-23384D01*
X46114Y-23427D01*
X46170Y-23449D01*
X46229Y-23450D01*
X46829Y-23450D01*
X46884Y-23427D01*
X46927Y-23385D01*
X46949Y-23329D01*
X46950Y-23270D01*
X46950Y-23910D01*
X46881Y-23745D01*
X46755Y-23618D01*
X46589Y-23550D01*
X46410Y-23549D01*
X46245Y-23618D01*
X46118Y-23744D01*
X46050Y-23910D01*
X46049Y-24089D01*
X46118Y-24254D01*
X46244Y-24381D01*
X46410Y-24449D01*
X46589Y-24450D01*
X46754Y-24381D01*
X46881Y-24255D01*
X46949Y-24089D01*
X46950Y-23910D01*
X46950Y-24910D01*
X46881Y-24745D01*
X46755Y-24618D01*
X46589Y-24550D01*
X46410Y-24549D01*
X46245Y-24618D01*
X46118Y-24744D01*
X46050Y-24910D01*
X46049Y-25089D01*
X46118Y-25254D01*
X46244Y-25381D01*
X46410Y-25449D01*
X46589Y-25450D01*
X46754Y-25381D01*
X46881Y-25255D01*
X46949Y-25089D01*
X46950Y-24910D01*
X46950Y-25910D01*
X46881Y-25745D01*
X46755Y-25618D01*
X46589Y-25550D01*
X46410Y-25549D01*
X46245Y-25618D01*
X46118Y-25744D01*
X46050Y-25910D01*
X46049Y-26089D01*
X46118Y-26254D01*
X46244Y-26381D01*
X46410Y-26449D01*
X46589Y-26450D01*
X46754Y-26381D01*
X46881Y-26255D01*
X46949Y-26089D01*
X46950Y-25910D01*
X46950Y-26910D01*
X46881Y-26745D01*
X46755Y-26618D01*
X46589Y-26550D01*
X46410Y-26549D01*
X46245Y-26618D01*
X46118Y-26744D01*
X46050Y-26910D01*
X46049Y-27089D01*
X46118Y-27254D01*
X46244Y-27381D01*
X46410Y-27449D01*
X46589Y-27450D01*
X46754Y-27381D01*
X46881Y-27255D01*
X46949Y-27089D01*
X46950Y-26910D01*
X46950Y-27910D01*
X46881Y-27745D01*
X46755Y-27618D01*
X46589Y-27550D01*
X46410Y-27549D01*
X46245Y-27618D01*
X46118Y-27744D01*
X46050Y-27910D01*
X46049Y-28089D01*
X46118Y-28254D01*
X46153Y-28289D01*
X46141Y-28289D01*
X46074Y-28302D01*
X46017Y-28340D01*
X46017Y-28340D01*
X46017Y-28340D01*
X45584Y-28773D01*
X45554Y-28818D01*
X45554Y-20581D01*
X45543Y-20363D01*
X45481Y-20212D01*
X45385Y-20184D01*
X45315Y-20255D01*
X45315Y-20114D01*
X45287Y-20018D01*
X45081Y-19945D01*
X44863Y-19956D01*
X44712Y-20018D01*
X44684Y-20114D01*
X45000Y-20429D01*
X45315Y-20114D01*
X45315Y-20255D01*
X45070Y-20500D01*
X45385Y-20815D01*
X45481Y-20787D01*
X45554Y-20581D01*
X45554Y-28818D01*
X45546Y-28830D01*
X45533Y-28897D01*
X45533Y-29338D01*
X45453Y-29338D01*
X45398Y-29360D01*
X45356Y-29403D01*
X45333Y-29458D01*
X45333Y-29517D01*
X45333Y-29911D01*
X45356Y-29966D01*
X45398Y-30008D01*
X45453Y-30031D01*
X45513Y-30031D01*
X45963Y-30031D01*
X46018Y-30009D01*
X46050Y-29977D01*
X46049Y-30089D01*
X46118Y-30254D01*
X46244Y-30381D01*
X46410Y-30449D01*
X46589Y-30450D01*
X46754Y-30381D01*
X46881Y-30255D01*
X46949Y-30089D01*
X46950Y-29910D01*
X46881Y-29745D01*
X46755Y-29618D01*
X46589Y-29550D01*
X46410Y-29549D01*
X46245Y-29618D01*
X46118Y-29744D01*
X46083Y-29829D01*
X46083Y-29458D01*
X46060Y-29403D01*
X46018Y-29361D01*
X45963Y-29338D01*
X45903Y-29338D01*
X45883Y-29338D01*
X45883Y-28970D01*
X46214Y-28639D01*
X46224Y-28639D01*
X46118Y-28744D01*
X46050Y-28910D01*
X46049Y-29089D01*
X46118Y-29254D01*
X46244Y-29381D01*
X46410Y-29449D01*
X46589Y-29450D01*
X46754Y-29381D01*
X46881Y-29255D01*
X46949Y-29089D01*
X46950Y-28910D01*
X46881Y-28745D01*
X46776Y-28639D01*
X47035Y-28639D01*
X47102Y-28626D01*
X47102Y-28626D01*
X47159Y-28588D01*
X47330Y-28416D01*
X47410Y-28449D01*
X47589Y-28450D01*
X47754Y-28381D01*
X47851Y-28284D01*
X47851Y-28715D01*
X47755Y-28618D01*
X47589Y-28550D01*
X47410Y-28549D01*
X47245Y-28618D01*
X47118Y-28744D01*
X47050Y-28910D01*
X47049Y-29089D01*
X47118Y-29254D01*
X47244Y-29381D01*
X47410Y-29449D01*
X47589Y-29450D01*
X47754Y-29381D01*
X47851Y-29284D01*
X47851Y-29715D01*
X47755Y-29618D01*
X47589Y-29550D01*
X47410Y-29549D01*
X47245Y-29618D01*
X47118Y-29744D01*
X47050Y-29910D01*
X47049Y-30089D01*
X47118Y-30254D01*
X47244Y-30381D01*
X47410Y-30449D01*
X47486Y-30449D01*
X47363Y-30456D01*
X47212Y-30518D01*
X47184Y-30614D01*
X47500Y-30929D01*
X47505Y-30923D01*
X47576Y-30994D01*
X47570Y-31000D01*
X47576Y-31005D01*
X47505Y-31076D01*
X47500Y-31070D01*
X47184Y-31385D01*
X47212Y-31481D01*
X47260Y-31498D01*
X47212Y-31518D01*
X47184Y-31614D01*
X47500Y-31929D01*
X47505Y-31923D01*
X47576Y-31994D01*
X47570Y-32000D01*
X47576Y-32005D01*
X47505Y-32076D01*
X47500Y-32070D01*
X47184Y-32385D01*
X47212Y-32481D01*
X47418Y-32554D01*
X47636Y-32543D01*
X47787Y-32481D01*
X47815Y-32385D01*
X47815Y-32385D01*
X47851Y-32422D01*
X47851Y-39190D01*
M02*
